<svg width="24.000000000000004" height="24.000000000000004" xmlns="http://www.w3.org/2000/svg" fill="#000000">

 <g>
  <title>Layer 1</title>
  <path id="svg_1" fill="none" d="m0,0l24,0l0,24l-24,0l0,-24z"/>
  <path id="svg_2" d="m6,19c0,1.1 0.9,2 2,2l8,0c1.1,0 2,-0.9 2,-2l0,-12l-12,0l0,12zm2,-10l8,0l0,10l-8,0l0,-10zm7.5,-5l-1,-1l-5,0l-1,1l-3.5,0l0,2l14,0l0,-2l-3.5,0z"/>
  <path d="m8.0177,9.07965c0,0 0.0885,0 0.26549,0c0.53097,0 0.70796,0 1.15044,0c0.70796,0 1.50442,0 2.30088,0c0.61947,0 1.15044,0 1.59292,0c0.44248,0 0.88496,0 1.15044,0c0.17699,0 0.35398,0 0.44248,0c0.0885,0 0.17699,0 0.26549,0c0.0885,0 0.26549,0 0.35398,0c0.17699,0 0.17699,0 0.26549,0c0,0 0,0 0.0885,0c0,0 0,0 0,0.0885c0,0.0885 0,0.0885 0,0.17699c0,0.17699 -0.04303,0.33839 -0.0885,0.53097c-0.04066,0.17226 0.03244,0.35597 0,0.61947c-0.04458,0.36214 -0.0885,0.61947 -0.0885,0.79646c0,0.26549 0,0.44248 0,0.70796c0,0.17699 0,0.26549 0,0.35398c0,0.0885 0,0.17699 0,0.26549c0,0.0885 0,0.17699 0,0.26549c0,0.0885 0,0.17699 0,0.26549c0,0.17699 0.04303,0.24989 0.0885,0.44248c0.02033,0.08613 -0.06773,0.27896 0,0.44248c0.04789,0.11563 0.0885,0.35398 0.0885,0.61947c0,0.26549 0.0885,0.61947 0.0885,0.88496c0,0.17699 0.0885,0.35398 0.0885,0.53097c0,0.17699 0.04303,0.24989 0.0885,0.44248c0.02033,0.08613 0,0.17699 0,0.35398c0,0.0885 0,0.26549 0,0.35398c0,0.17699 0,0.35398 0,0.53097c0,0.0885 0,0.26549 0,0.35398c0,0.0885 0,0.26549 0,0.35398c0,0.0885 0,0.17699 0,0.17699c0,0.0885 0,0.0885 0,0.17699c0,0 0,0 0,0.0885c0,0 0,0 0,0c0,0 0,0 0,0c0,0 -0.0885,0 -0.0885,0c0,0 -0.0885,0 -0.17699,0c0,0 -0.0885,0 -0.0885,0c-0.0885,0 -0.17699,0 -0.26549,0c-0.0885,0 -0.26549,0 -0.35398,0c-0.17699,0 -0.26549,0 -0.44248,0c-0.0885,0 -0.26549,0 -0.35398,0c-0.0885,0 -0.26549,0 -0.35398,0c-0.0885,0 -0.17699,0 -0.26549,0c-0.0885,0 -0.26549,0 -0.35398,0c-0.0885,0 -0.26549,0 -0.44248,0c-0.0885,0 -0.26549,0 -0.44248,0c-0.17699,0 -0.35398,0 -0.53097,0c-0.0885,0 -0.26549,0 -0.44248,0c-0.0885,0 -0.26549,0 -0.35398,0c-0.17699,0 -0.26549,0 -0.35398,0c-0.17699,0 -0.26549,0 -0.35398,0c-0.17699,0 -0.26549,0 -0.35398,0c-0.0885,0 -0.17699,0 -0.26549,0c-0.0885,0 -0.17699,0 -0.26549,0c-0.0885,0 -0.17699,0 -0.26549,0c-0.0885,0 -0.17699,0 -0.26549,0c-0.0885,0 -0.17699,0 -0.26549,0c0,0 -0.0885,0 -0.0885,0c-0.0885,0 -0.0885,-0.0885 -0.17699,-0.0885c0,0 0,0 -0.0885,0c0,0 -0.0885,0 -0.0885,0c-0.0885,0 -0.11442,0.06258 -0.17699,0c-0.06258,-0.06258 0,-0.0885 0,-0.0885c0,0 0,-0.0885 0,-0.0885c0,0 0.06258,-0.11441 0,-0.17699c-0.06258,-0.06258 -0.06816,-0.09086 -0.0885,-0.17699c-0.04546,-0.19259 -0.18725,-0.35078 -0.26549,-0.61947c-0.10202,-0.35033 -0.21667,-0.60227 -0.35398,-0.97345c-0.12659,-0.34221 -0.22109,-0.79097 -0.26549,-1.32743c-0.0365,-0.44097 -0.0885,-0.79646 -0.0885,-1.15044c0,-0.26549 0,-0.53097 0,-0.79646c0,-0.26549 -0.04325,-0.62212 0,-0.97345c0.04458,-0.36214 0.14254,-0.63356 0.26549,-0.88496c0.14019,-0.28663 0.30916,-0.52023 0.35398,-0.79646c0.02835,-0.17471 0.22002,-0.33838 0.26549,-0.53097c0.04066,-0.17226 0.10381,-0.34095 0.17699,-0.44248c0.1157,-0.16053 0.17699,-0.26549 0.26549,-0.35398c0.0885,-0.0885 0.17699,-0.17699 0.17699,-0.17699c0.0885,0 0.0885,0 0.0885,0c0.0885,0.0885 0.14313,0.18373 0.17699,0.26549c0.04789,0.11562 0.1291,0.14986 0.17699,0.26549c0.03387,0.08176 0.13216,0.25474 0.17699,0.53097c0.04253,0.26206 0.04597,0.44591 0.0885,0.70796c0.04483,0.27623 0.0885,0.44248 0.0885,0.61947c0,0.17699 0,0.26549 0,0.44248c0,0.17699 0.02835,0.35627 0,0.53097c-0.04483,0.27623 -0.17699,0.44248 -0.26549,0.61947c-0.0885,0.17699 -0.19109,0.21145 -0.44248,0.0885c-0.28663,-0.14019 -0.53097,-0.53097 -0.70796,-0.88496c-0.17699,-0.35398 -0.17699,-0.61947 -0.17699,-0.79646c0,-0.26549 0.06129,-0.37044 0.17699,-0.53097c0.21953,-0.30458 0.58772,-0.57968 0.97345,-0.79646c0.41545,-0.23348 0.79646,-0.26549 1.15044,-0.26549c0.35398,0 0.63806,0.25228 0.88496,0.61947c0.28793,0.42821 0.44248,0.88496 0.53097,1.32743c0.0885,0.44248 0.17699,0.79646 0.17699,0.97345c0,0.17699 -0.0885,0.17699 -0.26549,0.17699c-0.26549,0 -0.57956,-0.14216 -0.88496,-0.61947c-0.31995,-0.50005 -0.38842,-1.06526 -0.44248,-1.50443c-0.04458,-0.36214 -0.14291,-0.65239 0.0885,-0.97345c0.14635,-0.20306 0.43591,-0.39801 0.88496,-0.44248c0.44032,-0.0436 0.81595,0.07034 1.06195,0.35398c0.28991,0.33427 0.39812,0.79175 0.44248,1.41593c0.05019,0.70618 -0.12992,1.53381 -0.53097,2.12389c-0.31852,0.46865 -0.69734,0.81046 -1.06195,0.79646c-0.27964,-0.01074 -0.57501,-0.25892 -0.61947,-0.70796c-0.0436,-0.44032 -0.12443,-0.84109 0.0885,-1.23894c0.23622,-0.44137 0.78468,-0.57913 1.41593,-0.70796c0.69906,-0.14267 1.43864,-0.22842 1.85841,-0.0885c0.41977,0.13992 0.57489,0.52281 0.61947,0.88496c0.04325,0.35133 -0.01427,0.68993 -0.35398,0.97345c-0.45577,0.38038 -1.16938,0.51664 -1.85841,0.35398c-0.77036,-0.18186 -1.44211,-0.96084 -1.85841,-1.85841c-0.28357,-0.6114 -0.26549,-1.15044 -0.26549,-1.59292c0,-0.26549 0.17699,-0.44248 0.53097,-0.44248c0.35398,0 0.7043,0.00278 0.97345,0.35398c0.28989,0.37826 0.35398,0.88496 0.35398,1.41593c0,0.53097 0.03887,1.16986 -0.35398,1.50442c-0.36282,0.30899 -0.90655,0.33971 -1.32743,0.17699c-0.4813,-0.18607 -0.752,-0.7014 -0.79646,-1.15044c-0.0436,-0.44032 -0.01658,-0.81476 0.17699,-0.97345c0.24675,-0.20229 0.70247,-0.30958 1.23894,-0.35398c0.52916,-0.04379 1.02359,0.0119 1.32743,0.26549c0.33971,0.28352 0.44248,0.7877 0.44248,1.23894c0,0.45124 -0.41234,0.93498 -0.97345,1.23894c-0.5926,0.32101 -1.3751,0.43119 -1.9469,0.17699c-0.63158,-0.28077 -0.92758,-0.96283 -1.06195,-1.59292c-0.13051,-0.612 -0.17978,-1.09841 0,-1.41593c0.18499,-0.32672 0.53097,-0.35398 0.97345,-0.44248c0.44248,-0.0885 0.92142,-0.17977 1.23894,0c0.43563,0.24665 0.54764,0.70298 0.61947,0.97345c0.11582,0.43612 0.19107,0.72315 0.0885,1.06195c-0.09246,0.30538 -0.41318,0.67436 -0.70796,0.79646c-0.41689,0.17268 -0.88247,0.11424 -1.15044,-0.17699c-0.32269,-0.35069 -0.3453,-0.87417 -0.35398,-1.23894c-0.01073,-0.45111 0.21489,-1.01092 0.61947,-1.50443c0.47607,-0.58071 1.13188,-0.97259 1.76991,-1.06195c0.52584,-0.07365 1.12169,-0.01846 1.50443,0.26549c0.45509,0.33762 0.56134,0.78549 0.70796,1.23894c0.11226,0.34718 0.23799,0.71507 0.17699,0.97345c-0.04546,0.19259 -0.23429,0.44005 -0.61947,0.53097c-0.34451,0.08133 -0.68707,0.10939 -0.88496,-0.0885c-0.19788,-0.19788 -0.21766,-0.44721 -0.17699,-0.61947c0.04546,-0.19259 0.06137,-0.30609 0.17699,-0.35398c0.16352,-0.06773 0.44248,0 0.70796,0c0.26549,0 0.57888,0.15068 0.70796,0.44248c0.14761,0.33368 0.23799,0.62657 0.17699,0.88496c-0.04546,0.19259 -0.26549,0.26549 -0.53097,0.26549c-0.44248,0 -0.81598,-0.25056 -1.15044,-0.70796c-0.37667,-0.51513 -0.44248,-1.15044 -0.44248,-1.59292c0,-0.35398 -0.02713,-0.57158 0.0885,-0.61947c0.16352,-0.06773 0.26549,0 0.44248,0c0.17699,0 0.35398,0.17699 0.53097,0.44248c0.17699,0.26549 0.35155,0.67677 0.44248,1.06195c0.10166,0.43064 0.0885,0.70796 0.0885,0.88496c0,0.17699 0,0.26549 0,0.26549c-0.0885,0.0885 -0.17699,0.0885 -0.26549,-0.0885c-0.0885,-0.17699 -0.17699,-0.53097 -0.17699,-0.88496c0,-0.35398 0.0632,-0.6382 0.26549,-0.88496c0.15869,-0.19357 0.44248,-0.35398 0.70796,-0.44248c0.26549,-0.0885 0.53571,-0.12916 0.70796,-0.0885c0.19259,0.04546 0.27826,0.17116 0.35398,0.35398c0.10709,0.25855 0.0885,0.53097 0.0885,0.70796c0,0.17699 0.06773,0.36745 0,0.53097c-0.04789,0.11563 -0.16139,0.13153 -0.35398,0.17699c-0.08613,0.02033 -0.29413,-0.04603 -0.44248,-0.17699c-0.2392,-0.21116 -0.3979,-0.61131 -0.44248,-0.97345c-0.04325,-0.35133 0,-0.70796 0,-0.97345c0,-0.0885 0.06137,-0.21759 0.17699,-0.26549c0.08176,-0.03387 0.17699,0 0.26549,0c0.0885,0 0.32429,0.12903 0.53097,0.44248c0.26234,0.39785 0.48367,0.95912 0.61947,1.41593c0.12858,0.43253 0.17699,0.88496 0.17699,1.15044c0,0.26549 0.03387,0.36072 0,0.44248c-0.04789,0.11563 -0.26549,0.17699 -0.35398,0.17699c-0.17699,0 -0.31089,-0.05257 -0.44248,-0.26549c-0.14712,-0.23805 -0.22091,-0.52281 -0.26549,-0.88496c-0.04325,-0.35133 0,-0.70796 0,-0.97345c0,-0.0885 0.06137,-0.21759 0.17699,-0.26549c0.08176,-0.03387 0.17699,-0.0885 0.17699,-0.0885c0.0885,0 0.19231,0.07546 0.26549,0.17699c0.1157,0.16053 0.13216,0.34324 0.17699,0.61947c0.04253,0.26206 0.061,0.53808 0,0.79646c-0.04546,0.19259 -0.0885,0.26549 -0.26549,0.26549c-0.17699,0 -0.35398,0 -0.61947,0c-0.44248,0 -0.88496,0 -1.32743,0c-0.44248,0 -0.89131,0.02732 -1.32743,-0.0885c-0.27047,-0.07183 -0.65233,-0.33157 -0.88496,-0.70796c-0.20807,-0.33666 -0.2209,-0.6998 -0.26549,-1.06195c-0.02163,-0.17566 0,-0.35398 0,-0.35398c0.0885,0 0.17832,-0.02163 0.35398,0c0.36214,0.04458 0.72822,0.24156 1.15044,0.61947c0.37302,0.33387 0.57952,0.7761 0.70796,1.15044c0.14644,0.42682 0.0885,0.70796 0.0885,0.97345c0,0.17699 0,0.26549 -0.17699,0.35398c-0.17699,0.0885 -0.44447,0.14455 -0.70796,0.17699c-0.36214,0.04458 -0.70796,0.17699 -1.06195,0.17699c-0.35398,0 -0.68993,0.07423 -0.97345,-0.26549c-0.25358,-0.30385 -0.3979,-0.87679 -0.44248,-1.23894c-0.04325,-0.35133 -0.02713,-0.57158 0.0885,-0.61947c0.16352,-0.06773 0.62586,-0.06694 0.97345,0c0.46797,0.09012 0.81505,0.42927 1.06195,0.79646c0.28793,0.42821 0.53044,1.04739 0.61947,1.85841c0.08691,0.7917 0.12199,1.43013 0,1.9469c-0.13639,0.57777 -0.48101,0.96984 -0.88496,1.15044c-0.41194,0.18418 -0.88761,0.22024 -1.23894,0.17699c-0.36214,-0.04458 -0.70667,-0.40072 -0.88496,-0.88495c-0.18599,-0.50515 -0.0885,-1.23894 -0.0885,-1.9469c0,-0.61947 0.04362,-1.17115 0.26549,-1.59292c0.14855,-0.28239 0.35398,-0.44248 0.53097,-0.44248c0.0885,0 0.29413,-0.04246 0.44248,0.0885c0.2392,0.21117 0.35398,0.61947 0.44248,0.97345c0.0885,0.35398 0.17699,0.79646 0.17699,1.15044c0,0.35398 0.05863,0.7354 -0.0885,0.97345c-0.13159,0.21292 -0.42134,0.39079 -0.70796,0.53097c-0.25139,0.12295 -0.64399,0.15681 -0.97345,0c-0.39953,-0.19016 -0.70667,-0.57771 -0.88496,-1.06195c-0.18599,-0.50515 -0.26549,-1.06195 -0.26549,-1.59292c0,-0.44248 0.04367,-0.78571 0.0885,-1.06195c0.01418,-0.08735 0.17699,-0.0885 0.26549,-0.0885c0.26549,0 0.53097,0.17699 0.79646,0.53097c0.26549,0.35398 0.42906,0.80045 0.61947,1.41593c0.16541,0.53469 0.26549,1.15044 0.26549,1.76991c0,0.53097 -0.02938,0.90525 -0.17699,1.23894c-0.12908,0.2918 -0.34324,0.57464 -0.61947,0.61947c-0.17471,0.02835 -0.44248,0.0885 -0.70796,-0.0885c-0.26549,-0.17699 -0.57952,-0.42212 -0.70796,-0.79646c-0.14644,-0.42682 -0.22109,-0.96796 -0.26549,-1.50443c-0.0365,-0.44097 -0.05912,-0.81676 0.0885,-1.15044c0.12908,-0.2918 0.35398,-0.35398 0.53097,-0.44248c0.17699,-0.0885 0.35872,-0.12916 0.53097,-0.0885c0.19259,0.04546 0.31953,0.19109 0.44248,0.44248c0.14019,0.28663 0.30916,0.60872 0.35398,0.88496c0.02835,0.17471 0.0885,0.35398 0.0885,0.53097c0,0.17699 0,0.35398 -0.0885,0.44248c-0.0885,0.0885 -0.12273,0.2582 -0.35398,0.35398c-0.08176,0.03386 -0.26549,0.0885 -0.35398,0.0885c-0.0885,0 -0.17699,0 -0.26549,0c-0.0885,0 -0.17699,-0.0885 -0.17699,-0.26549c0,-0.17699 -0.04066,-0.35872 0,-0.53097c0.04546,-0.19259 0.17699,-0.17699 0.26549,-0.17699c0.17699,0 0.29294,0.06363 0.53097,0.35398c0.20229,0.24675 0.44248,0.61947 0.61947,0.97345c0.17699,0.35398 0.3094,0.61131 0.35398,0.97345c0.02163,0.17567 0.0885,0.35398 0.0885,0.44248c0,0.17699 -0.0885,0.17699 -0.26549,0.17699c-0.17699,0 -0.4083,0.06221 -0.61947,-0.17699c-0.26192,-0.2967 -0.36243,-0.70596 -0.44248,-1.06195c-0.099,-0.44025 -0.0885,-0.70796 -0.0885,-0.97345c0,-0.17699 0.14986,-0.39458 0.26549,-0.44248c0.16352,-0.06773 0.35398,-0.0885 0.53097,-0.0885c0.17699,0 0.34095,0.01532 0.44248,0.0885c0.16053,0.1157 0.32677,0.28195 0.44248,0.44248c0.14636,0.20306 0.20449,0.36109 0.26549,0.61947c0.04546,0.19259 0.0885,0.26549 0.0885,0.35398c0,0.0885 -0.10197,0.15623 -0.26549,0.0885c-0.23125,-0.09579 -0.45092,-0.52897 -0.53097,-0.88495c-0.099,-0.44025 -0.22024,-0.88761 -0.17699,-1.23894c0.04458,-0.36214 0.2774,-0.77977 0.53097,-0.97345c0.2224,-0.16987 0.44248,-0.17699 0.70796,-0.17699c0.26549,0 0.47311,-0.02607 0.61947,0.17699c0.23141,0.32106 0.44085,0.68248 0.53097,1.15044c0.06694,0.3476 0.13216,0.78571 0.17699,1.06195c0.04253,0.26206 0.03666,0.40582 -0.0885,0.53097c-0.06258,0.06258 -0.27022,0.12916 -0.44248,0.0885c-0.38518,-0.09093 -0.68252,-0.49397 -0.97345,-1.06195c-0.34471,-0.67296 -0.44248,-1.23894 -0.44248,-1.76991c0,-0.35398 -0.02607,-0.65011 0.17699,-0.79646c0.16053,-0.1157 0.4442,-0.12338 0.79646,-0.0885c0.44905,0.04446 0.83306,0.32082 1.15044,0.70796c0.40458,0.49351 0.65023,1.05235 0.88496,1.85841c0.20403,0.70065 0.22113,1.23422 0.26549,1.85841c0.02509,0.35309 0,0.70797 -0.0885,0.79646c-0.0885,0.0885 -0.37271,0.11379 -0.61947,-0.0885c-0.38714,-0.31738 -0.54533,-0.7905 -0.79646,-1.41593c-0.28174,-0.70165 -0.30962,-1.32272 -0.35398,-1.9469c-0.03137,-0.44137 0,-0.79646 0.0885,-0.97345c0.0885,-0.17699 0.0885,-0.17699 0.17699,-0.17699c0.17699,0 0.46121,0.0632 0.70796,0.26549c0.29036,0.23803 0.54764,0.52599 0.61947,0.79646c0.11582,0.43612 0.0885,0.79646 0.0885,1.23894c0,0.35398 -0.0885,0.61947 -0.26549,0.70797c-0.17699,0.0885 -0.45894,0.1157 -0.61947,0c-0.20306,-0.14635 -0.37952,-0.34233 -0.53097,-0.70797c-0.10709,-0.25854 -0.17699,-0.61947 -0.17699,-0.88495c0,-0.26549 -0.03386,-0.44921 0,-0.53097c0.04789,-0.11563 0.17699,-0.0885 0.26549,-0.0885c0.0885,0 0.18976,0.08267 0.26549,0.26549c0.10709,0.25854 0.2209,0.61131 0.26549,0.97345c0.04325,0.35133 0,0.70796 0,1.06195c0,0.26549 -0.19046,0.28625 -0.35398,0.35398c-0.11562,0.04789 -0.29612,0.02607 -0.44248,-0.17699c-0.1157,-0.16053 -0.26549,-0.44248 -0.26549,-0.79646c0,-0.26549 0,-0.44248 0,-0.70796c0,-0.17699 0.0885,-0.26549 0.17699,-0.26549c0.17699,0 0.2787,-0.04653 0.35398,0c0.16833,0.10403 0.26549,0.44248 0.35398,0.79646c0.0885,0.35398 0.17699,0.70797 0.17699,1.15044c0,0.26549 -0.06735,0.56778 -0.35398,0.70796c-0.25139,0.12295 -0.61947,0.17699 -1.06195,0.17699c-0.35398,0 -0.68707,0.10939 -0.88496,-0.0885c-0.19788,-0.19788 -0.17699,-0.61947 -0.17699,-0.97345c0,-0.44248 -0.05442,-0.91788 0.17699,-1.23894c0.21953,-0.30458 0.52049,-0.63631 0.79646,-0.79646c0.17115,-0.09932 0.44721,-0.12916 0.61947,-0.0885c0.19259,0.04546 0.45932,0.255 0.61947,0.53097c0.19864,0.3423 0.3094,0.69981 0.35398,1.06195c0.04325,0.35133 0.04066,0.53571 0,0.70797c-0.04546,0.19259 -0.26549,0.26549 -0.44248,0.26549c-0.17699,0 -0.26549,-0.0885 -0.35398,-0.17699c-0.17699,-0.17699 -0.22482,-0.35872 -0.26549,-0.53097c-0.04546,-0.19259 -0.0885,-0.35398 -0.0885,-0.53097c0,-0.17699 0.04197,-0.3672 0.0885,-0.44248c0.10403,-0.16833 0.27222,-0.12236 0.35398,-0.0885c0.11562,0.04789 0.31915,0.22466 0.44248,0.44248c0.17977,0.31751 0.26549,0.70796 0.26549,1.06195c0,0.35398 0.05207,0.83221 -0.26549,1.23894c-0.30808,0.39458 -0.68165,0.66738 -0.97345,0.79646c-0.33368,0.14761 -0.65627,0.02114 -0.79646,-0.26549c-0.12295,-0.25139 -0.13102,-0.6229 -0.0885,-0.88496c0.04483,-0.27623 0.20444,-0.41761 0.44248,-0.70796c0.20229,-0.24676 0.52049,-0.54781 0.79646,-0.70796c0.3423,-0.19864 0.61947,-0.26549 0.88496,-0.26549c0.26549,0 0.53097,0 0.70796,0.17699c0.17699,0.17699 0.28233,0.3435 0.44248,0.61947c0.09932,0.17115 0.1291,0.32685 0.17699,0.44248c0.03387,0.08176 0,0.0885 -0.0885,0.0885c-0.17699,0 -0.38243,-0.16009 -0.53097,-0.44248c-0.22186,-0.42177 -0.39801,-0.78989 -0.44248,-1.23894c-0.0436,-0.44032 -0.1016,-0.72817 0,-0.97345c0.04789,-0.11563 0.26549,-0.0885 0.35398,-0.0885c0.17699,0 0.37347,0.07034 0.61947,0.35398c0.28991,0.33427 0.53097,0.61947 0.70796,0.97345c0.17699,0.35398 0.26549,0.53097 0.26549,0.70796c0,0.0885 0,0.17699 0,0.17699c-0.17699,0 -0.35398,0 -0.44248,-0.0885c-0.17699,-0.17699 -0.28035,-0.52392 -0.44248,-0.88495c-0.19523,-0.43474 -0.21142,-0.79978 -0.26549,-1.23894c-0.04458,-0.36214 -0.15623,-0.72144 -0.0885,-0.88496c0.04789,-0.11563 0.17699,-0.0885 0.17699,-0.0885c0.0885,0 0.15839,0.18393 0.26549,0.44248c0.15145,0.36564 0.35398,0.70796 0.53097,1.06195c0.17699,0.35398 0.26549,0.70796 0.26549,0.88496c0,0.17699 0,0.26549 0,0.35398c0,0 -0.0885,0.0885 -0.17699,0c-0.17699,-0.17699 -0.38455,-0.51401 -0.61947,-0.97345c-0.30682,-0.60007 -0.53097,-1.32743 -0.70796,-2.0354c-0.17699,-0.70796 -0.26549,-1.23894 -0.26549,-1.68142c0,-0.17699 0.0885,-0.26549 0.0885,-0.26549c0.0885,0 0.19383,0.07801 0.35398,0.35398c0.19864,0.3423 0.47867,0.77667 0.70796,1.23894c0.21177,0.42693 0.3094,0.87679 0.35398,1.23894c0.04325,0.35133 0.14949,0.62657 0.0885,0.88496c-0.04546,0.19259 -0.07776,0.32806 -0.26549,0.26549c-0.18773,-0.06257 -0.25197,-0.35764 -0.35398,-0.70796c-0.07824,-0.26869 -0.17699,-0.53097 -0.17699,-0.70796c0,-0.17699 0.04303,-0.24989 0.0885,-0.44248c0.02033,-0.08613 0.07546,-0.19231 0.17699,-0.26549c0.16053,-0.1157 0.30609,-0.14986 0.35398,-0.26549c0.03387,-0.08176 0.0885,-0.0885 0.0885,-0.0885c0.0885,0.0885 0.10127,0.08267 0.17699,0.26549c0.10709,0.25855 0.09875,0.52777 0.17699,0.79646c0.10202,0.35032 0.0275,0.62657 0.0885,0.88496c0.04546,0.19259 0.0885,0.44248 0.0885,0.70796c0,0.17699 0,0.35398 0,0.53097c0,0 -0.0406,0.06137 -0.0885,0.17699c-0.03386,0.08176 -0.0406,0.14986 -0.0885,0.26549c-0.03387,0.08176 -0.0406,0.14986 -0.0885,0.26549c-0.03386,0.08176 -0.02592,0.11441 -0.0885,0.17699c-0.06258,0.06258 0,0.0885 -0.0885,0.17699c0,0 0,0 0,0c-0.0885,0.0885 -0.0885,0.0885 -0.0885,0.0885c0,0 0,0 -0.0885,0c0,0 0,0.0885 0,0.0885l0,0l0,0" id="svg_4" stroke="#000" fill="none"/>
 </g>
</svg>