<svg xmlns="http://www.w3.org/2000/svg" viewBox="0 0 192 192"><path d="M96 16c-44.112 0-80 35.888-80 80s35.888 80 80 80 80-35.888 80-80-35.888-80-80-80zm0 152c-39.701 0-72-32.299-72-72s32.299-72 72-72 72 32.299 72 72-32.299 72-72 72zm32-103.429C128 46.611 113.645 32 96 32S64 46.611 64 64.571V68H52v72h88V68h-12v-3.429zm-56 0C72 51.022 82.766 40 96 40s24 11.022 24 24.571V68H72v-3.429zM132 76v56H60V76h72zm-28 24.4c0 2.485-1.034 4.71-2.667 6.248V120H90.667v-13.352c-1.83-1.722-2.907-4.308-2.621-7.155.388-3.87 3.365-7.016 7.049-7.44 4.823-.557 8.905 3.395 8.905 8.347z"/></svg>