<?xml version="1.0" encoding="utf-8"?>
<!-- Generator: Adobe Illustrator 23.0.1, SVG Export Plug-In . SVG Version: 6.00 Build 0)  -->
<svg version="1.1" id="Icon_x5F_contour" xmlns="http://www.w3.org/2000/svg" xmlns:xlink="http://www.w3.org/1999/xlink" x="0px"
	 y="0px" viewBox="0 0 192 192" enable-background="new 0 0 192 192" xml:space="preserve">
<path d="M144,140v-24h-44v-12h32V68h-32V52h32V16H60v36h32v16H60v36h32v12H48v24H16v36h72v-36H56v-16h80v16h-32v36h72v-36H144z
	 M68,24h56v20H68V24z M68,76h56v20H68V76z M80,168H24v-20h56V168z M168,168h-56v-20h56V168z"/>
</svg>
