<?xml version="1.0" encoding="UTF-8"?>
<svg xmlns="http://www.w3.org/2000/svg" viewBox="0 0 192 192"><path d="M162.8 34.8l-5.7-5.7-27.3 27.3c-6.6-5.4-15-8.4-23.8-8.4-10.1 0-19.7 3.9-26.9 11.1L72 66.3l-5.2-5.2-5.7 5.7 5.2 5.2-7.2 7.2C51.9 86.4 48 95.9 48 106c0 8.8 3 17.1 8.4 23.9l-27.3 27.3 5.7 5.7 27.3-27.3C68.8 141 77.2 144 86 144c10.1 0 19.7-3.9 26.9-11.1l7.2-7.2 5.2 5.2 5.7-5.7-5.2-5.2 7.2-7.2c7.2-7.2 11.1-16.7 11.1-26.8 0-8.8-3-17.1-8.4-23.9l27.1-27.3zm-55.6 92.4C101.5 132.9 94 136 86 136s-15.5-3.1-21.2-8.8C59.1 121.6 56 114 56 106s3.1-15.5 8.8-21.2l7.2-7.2 42.4 42.4-7.2 7.2zm20-20l-7.2 7.2L77.7 72l7.2-7.2C90.5 59.1 98 56 106 56s15.5 3.1 21.2 8.8C132.9 70.4 136 78 136 86s-3.1 15.5-8.8 21.2z" fill="rgba(0,86,145,1)"/></svg>
