<?xml version="1.0" encoding="UTF-8"?>
<svg xmlns="http://www.w3.org/2000/svg" viewBox="0 0 192 192"><path fill="none" stroke="rgba(0,86,145,1)" stroke-width="8" stroke-miterlimit="10" d="M64 76H36v80h80v-28M156 104v12h-12M156 80v16M156 56v16M144 36h12v12M120 36h16M96 36h16M76 48V36h12M76 72V56M76 96V80"/><path fill="none" stroke="rgba(0,86,145,1)" stroke-width="8" stroke-miterlimit="10" d="M88 116H76v-12"/><path fill="none" stroke="rgba(0,86,145,1)" stroke-width="8" stroke-miterlimit="10" stroke-dasharray="15.75" d="M112 116H96.2"/><path fill="none" stroke="rgba(0,86,145,1)" stroke-width="8" stroke-miterlimit="10" stroke-dasharray="16" d="M136 116h-16"/><g><path d="M120 160H32V72h32v8H40v72h72v-24h8zM160 120h-16v-8h8v-8h8zM152 80h8v16h-8zM152 56h8v16h-8zM160 48h-8v-8h-8v-8h16zM120 32h16v8h-16zM96 32h16v8H96zM80 48h-8V32h16v8h-8zM72 56h8v16h-8z" fill="rgba(0,86,145,1)"/><path d="M72 80h8v16h-8zM88 120H72v-16h8v8h8zM120 112h16v8h-16zM96 112h16v8H96z" fill="rgba(0,86,145,1)"/></g></svg>
