<?xml version="1.0" encoding="UTF-8"?>
<svg xmlns="http://www.w3.org/2000/svg" viewBox="0 0 192 192"><path d="M136 112c-9.3 0-17.5 5.4-21.4 13.2l-7.1-12.8 15.5-9.5 17.5-30c7.4-12.7 5.3-28.7-5.1-39.1l-4.3-4.3-53.6 95.8c-4-7.8-12.1-13.2-21.4-13.2-13.2 0-24 10.8-24 24s10.8 24 24 24c12.9 0 23.4-10.2 24-22.9l6.8-12.1 13.9-8.5 11.4 20.6c.6 12.7 11.1 22.9 24 22.9 13.2 0 24-10.8 24-24S149.2 112 136 112zm-80 40c-8.8 0-16-7.2-16-16s7.2-16 16-16 16 7.2 16 16-7.2 16-16 16zm38.7-41.2l38-67.8c5.2 7.6 5.6 17.7.9 25.9l-16.5 28.3-22.4 13.6zM136 152c-8.8 0-16-7.2-16-16s7.2-16 16-16 16 7.2 16 16-7.2 16-16 16z" fill="rgba(0,86,145,1)"/><path d="M69.1 102.9l8.8 5.4 3.9-7-6.9-4.2-16.5-28.3c-4.8-8.2-4.3-18.2.9-25.9l27.6 49.3 4.6-8.2-30.6-54.6-4.3 4.3c-10.4 10.4-12.4 26.4-5.1 39.1l17.6 30.1z" fill="rgba(0,86,145,1)"/></svg>
