<?xml version="1.0" encoding="UTF-8"?>
<svg xmlns="http://www.w3.org/2000/svg" viewBox="0 0 192 192"><path d="M44 64h48v8H44z" fill="rgba(0,86,145,1)"/><path d="M170.8 149.2L114 92.3c3.9-7.3 6-15.5 6-24.3 0-28.7-23.3-52-52-52S16 39.3 16 68s23.3 52 52 52c8.8 0 17-2.2 24.3-6l56.9 56.9c3.5 3.5 7.9 5.2 12.2 5.2 3.9 0 7.6-1.4 10.4-4.2 6-6 5.6-16.2-1-22.7zM68 112c-24.3 0-44-19.7-44-44s19.7-44 44-44 44 19.7 44 44-19.7 44-44 44zm98.2 54.2c-1.8 1.8-3.9 2-5.3 1.9-2.2-.2-4.4-1.2-6-2.9l-55.6-55.6c3.9-2.9 7.4-6.4 10.3-10.3l55.6 55.6c1.6 1.6 2.7 3.8 2.9 6 0 1.4-.2 3.5-1.9 5.3z" fill="rgba(0,86,145,1)"/></svg>
