<?xml version="1.0" encoding="utf-8"?>
<!-- Generator: Adobe Illustrator 19.1.0, SVG Export Plug-In . SVG Version: 6.00 Build 0)  -->
<svg version="1.1" id="Layer_2" xmlns="http://www.w3.org/2000/svg" xmlns:xlink="http://www.w3.org/1999/xlink" x="0px" y="0px"
	 viewBox="0 0 192 192" style="enable-background:new 0 0 192 192;" xml:space="preserve">
<style type="text/css">
	.st0{fill:#010101;}
	.st1{fill:#FBAC1A;}
	.st2{fill:#E11F26;}
	.st3{fill:#0B8ECE;}
	.st4{fill:#FFFFFF;}
</style>
<circle class="st3" cx="96" cy="96" r="79.8"/>
<path class="st4" d="M86.6,108.1v-3.1c0-4,0.7-7.3,2.2-9.9c1.5-2.6,4.2-5.2,8-7.9c3.1-2.2,5.3-4,6.4-5.6c1.1-1.5,1.7-3.4,1.7-5.4
	c0-2.5-0.8-4.6-2.4-6.1c-1.6-1.5-3.7-2.3-6.3-2.3c-6,0-9.9,3.5-11.9,10.4l-15.2-4.1c1.3-4.4,3.1-8,5.3-10.6
	c5.2-6.3,12.8-9.5,22.8-9.5c8.6,0,15.2,2.3,19.9,6.9c3.8,3.8,5.6,8.5,5.6,14.3c0,4.1-0.9,7.5-2.7,10.3c-1.8,2.8-5.1,5.8-9.8,9
	c-3.2,2.2-5.3,4-6.3,5.4c-1,1.5-1.5,3.5-1.5,6.1v2H86.6z M94.1,115c2.8,0,5.2,1,7.3,3.1c2,2,3.1,4.5,3.1,7.3c0,2.9-1,5.3-3,7.3
	c-2,2-4.5,3-7.4,3c-2.9,0-5.3-1-7.3-3c-2-2-3-4.5-3-7.3c0-2.9,1-5.3,3-7.4C88.8,116,91.2,115,94.1,115z"/>
</svg>
