<?xml version="1.0" encoding="utf-8"?>
<!-- Generator: Adobe Illustrator 20.1.0, SVG Export Plug-In . SVG Version: 6.00 Build 0)  -->
<svg version="1.1" xmlns="http://www.w3.org/2000/svg" xmlns:xlink="http://www.w3.org/1999/xlink" x="0px" y="0px"
	 viewBox="0 0 192 192" enable-background="new 0 0 192 192" xml:space="preserve">
<pattern  x="-519" y="-340" width="4" height="4" patternUnits="userSpaceOnUse" id="Neues_Musterfeld_2" viewBox="0 -4 4 4" overflow="visible">
	<g>
		<rect y="-4" fill="none" width="4" height="4"/>
		<rect y="-1" opacity="0.3" width="1" height="1"/>
		<rect x="1" y="-1" opacity="0.1" width="1" height="1"/>
		<rect x="1" y="-2" transform="matrix(-1 -1.224647e-16 1.224647e-16 -1 3 -3)" opacity="0.3" width="1" height="1"/>
		<rect y="-2" transform="matrix(-1 -1.224647e-16 1.224647e-16 -1 1 -3)" opacity="0.1" width="1" height="1"/>
		<rect x="2" y="-3" opacity="0.3" width="1" height="1"/>
		<rect x="3" y="-3" opacity="0.1" width="1" height="1"/>
		<rect x="3" y="-4" transform="matrix(-1 -1.224647e-16 1.224647e-16 -1 7 -7)" opacity="0.3" width="1" height="1"/>
		<rect x="2" y="-4" transform="matrix(-1 -1.224647e-16 1.224647e-16 -1 5 -7)" opacity="0.1" width="1" height="1"/>
		<rect y="-3" opacity="0.3" width="1" height="1"/>
		<rect x="1" y="-3" opacity="0.1" width="1" height="1"/>
		<rect x="1" y="-4" transform="matrix(-1 -1.224647e-16 1.224647e-16 -1 3 -7)" opacity="0.3" width="1" height="1"/>
		<rect y="-4" transform="matrix(-1 -1.224647e-16 1.224647e-16 -1 1 -7)" opacity="0.1" width="1" height="1"/>
		<rect x="2" y="-1" opacity="0.3" width="1" height="1"/>
		<rect x="3" y="-1" opacity="0.1" width="1" height="1"/>
		<rect x="3" y="-2" transform="matrix(-1 -1.224647e-16 1.224647e-16 -1 7 -3)" opacity="0.3" width="1" height="1"/>
		<rect x="2" y="-2" transform="matrix(-1 -1.224647e-16 1.224647e-16 -1 5 -3)" opacity="0.1" width="1" height="1"/>
	</g>
</pattern>
<g id="Grid" display="none">
	<pattern  id="_x31_pixel_grid_3_" xlink:href="#Neues_Musterfeld_2" patternTransform="matrix(2 0 0 2 7425 7396)">
	</pattern>
	<rect id="_x31_pixel_grid" x="-247" display="inline" opacity="0.8" fill="url(#_x31_pixel_grid_3_)" width="192" height="192"/>
	<g display="inline">
		<g opacity="0.2">
			<path fill="#FF0000" d="M-71,16v160h-160V16H-71 M-55,0h-192v192h192V0L-55,0z"/>
		</g>
		<g opacity="0.2">
			<path fill="#00FF00" d="M-73,34v124h-156V34H-73 M-71,32h-160v128h160V32L-71,32z"/>
		</g>
		<g opacity="0.2">
			<path fill="#0000FF" d="M-89,34v124h-124V34H-89 M-87,32h-128v128h128V32L-87,32z"/>
		</g>
		<g opacity="0.2">
			<path fill="#00FF00" d="M-89,18v156h-124V18H-89 M-87,16h-128v160h128V16L-87,16z"/>
		</g>
		<g opacity="0.2">
			<path fill="#0000FF" d="M-113,58v76h-76V58H-113 M-111,56h-80v80h80V56L-111,56z"/>
		</g>
		<g opacity="0.2">
			<path fill="#FF0000" d="M-151,18c43,0,78,35,78,78s-35,78-78,78s-78-35-78-78S-194,18-151,18 M-151,16c-44.2,0-80,35.8-80,80
				s35.8,80,80,80s80-35.8,80-80S-106.8,16-151,16L-151,16z"/>
		</g>
	</g>
	<pattern  id="_x31_pixel_grid_4_" xlink:href="#Neues_Musterfeld_2" patternTransform="matrix(2 0 0 2 7456 7396)">
	</pattern>
	<rect id="_x31_pixel_grid_1_" display="inline" opacity="0.8" fill="url(#_x31_pixel_grid_4_)" width="192" height="192"/>
	<g display="inline">
		<g opacity="0.2">
			<path fill="#FF0000" d="M176,16v160H16V16H176 M192,0H0v192h192V0L192,0z"/>
		</g>
		<g opacity="0.2">
			<path fill="#00FF00" d="M174,34v124H18V34H174 M176,32H16v128h160V32L176,32z"/>
		</g>
		<g opacity="0.2">
			<path fill="#0000FF" d="M158,34v124H34V34H158 M160,32H32v128h128V32L160,32z"/>
		</g>
		<g opacity="0.2">
			<path fill="#00FF00" d="M158,18v156H34V18H158 M160,16H32v160h128V16L160,16z"/>
		</g>
		<g opacity="0.2">
			<path fill="#0000FF" d="M134,58v76H58V58H134 M136,56H56v80h80V56L136,56z"/>
		</g>
		<g opacity="0.2">
			<path fill="#FF0000" d="M96,18c43,0,78,35,78,78s-35,78-78,78s-78-35-78-78S53,18,96,18 M96,16c-44.2,0-80,35.8-80,80
				s35.8,80,80,80s80-35.8,80-80S140.2,16,96,16L96,16z"/>
		</g>
	</g>
	<pattern  id="_x31_pixel_grid_5_" xlink:href="#Neues_Musterfeld_2" patternTransform="matrix(2 0 0 2 7459 7396)">
	</pattern>
	<rect id="_x31_pixel_grid_2_" x="235" display="inline" opacity="0.8" fill="url(#_x31_pixel_grid_5_)" width="192" height="192"/>
	<g display="inline">
		<g opacity="0.2">
			<path fill="#FF0000" d="M411,16v160H251V16H411 M427,0H235v192h192V0L427,0z"/>
		</g>
		<g opacity="0.2">
			<path fill="#00FF00" d="M409,34v124H253V34H409 M411,32H251v128h160V32L411,32z"/>
		</g>
		<g opacity="0.2">
			<path fill="#0000FF" d="M393,34v124H269V34H393 M395,32H267v128h128V32L395,32z"/>
		</g>
		<g opacity="0.2">
			<path fill="#00FF00" d="M393,18v156H269V18H393 M395,16H267v160h128V16L395,16z"/>
		</g>
		<g opacity="0.2">
			<path fill="#0000FF" d="M369,58v76h-76V58H369 M371,56h-80v80h80V56L371,56z"/>
		</g>
		<g opacity="0.2">
			<path fill="#FF0000" d="M331,18c43,0,78,35,78,78s-35,78-78,78s-78-35-78-78S288,18,331,18 M331,16c-44.2,0-80,35.8-80,80
				s35.8,80,80,80s80-35.8,80-80S375.2,16,331,16L331,16z"/>
		</g>
	</g>
</g>
<g id="Icons">
	<path fill="#E20015" d="M128,16H62L16,59.8v67.8L62,176h66l48-48.4V59.8L128,16z"/>
	<g>
		<polygon fill="#FFFFFF" points="87,55 105,55 105,80.3 101.4,107 90.4,107 87,80.3 		"/>
		<path fill="#FFFFFF" d="M96.1,136.6c-5.8,0-10.3-4.5-10.3-10.2c0-5.8,4.6-10.3,10.4-10.3c5.6,0,10.1,4.6,10.1,10.3
			C106.3,132.1,101.8,136.6,96.1,136.6z"/>
	</g>
</g>
<g id="Titles" display="none">
	<text transform="matrix(1 0 0 1 -247 -11.1299)" display="inline" font-family="'BoschSans-Light'" font-size="6px">calendar</text>
</g>
</svg>
