<?xml version="1.0" encoding="utf-8"?>
<!-- Generator: Adobe Illustrator 19.1.0, SVG Export Plug-In . SVG Version: 6.00 Build 0)  -->
<svg version="1.1" id="Layer_2" xmlns="http://www.w3.org/2000/svg" xmlns:xlink="http://www.w3.org/1999/xlink" x="0px" y="0px"
	 viewBox="0 0 192 192" style="enable-background:new 0 0 192 192;" xml:space="preserve">
<style type="text/css">
	.st0{fill:#010101;}
	.st1{fill:#FBAC1A;}
	.st2{fill:#E11F26;}
	.st3{fill:#0B8ECE;}
	.st4{fill:#FFFFFF;}
</style>
<polygon class="st1" points="96,16.3 175.8,175.8 16.3,175.8 "/>
<path class="st4" d="M96.1,135.7c2.8,0,5.2,1,7.2,3.1c2,2,3,4.5,3,7.3c0,2.9-1,5.3-3,7.3c-2,2-4.4,3-7.3,3c-3,0-5.4-1-7.5-3
	c-2-2-3-4.5-3-7.3c0-2.9,1-5.4,3-7.4C90.7,136.7,93.2,135.7,96.1,135.7z M90.4,128.9l-3.9-29.2V76.1h19v23.6l-4,29.2H90.4z"/>
</svg>
