<?xml version="1.0" encoding="utf-8"?>
<!-- Generator: Adobe Illustrator 20.1.0, SVG Export Plug-In . SVG Version: 6.00 Build 0)  -->
<svg version="1.1" xmlns="http://www.w3.org/2000/svg" xmlns:xlink="http://www.w3.org/1999/xlink" x="0px" y="0px"
	 viewBox="0 0 192 192" enable-background="new 0 0 192 192" xml:space="preserve">
<pattern  x="-754" y="-340" width="4" height="4" patternUnits="userSpaceOnUse" id="Neues_Musterfeld_2" viewBox="0 -4 4 4" overflow="visible">
	<g>
		<rect y="-4" fill="none" width="4" height="4"/>
		<rect y="-1" opacity="0.3" width="1" height="1"/>
		<rect x="1" y="-1" opacity="0.1" width="1" height="1"/>
		<rect x="1" y="-2" transform="matrix(-1 -1.224647e-16 1.224647e-16 -1 3 -3)" opacity="0.3" width="1" height="1"/>
		<rect y="-2" transform="matrix(-1 -1.224647e-16 1.224647e-16 -1 1 -3)" opacity="0.1" width="1" height="1"/>
		<rect x="2" y="-3" opacity="0.3" width="1" height="1"/>
		<rect x="3" y="-3" opacity="0.1" width="1" height="1"/>
		<rect x="3" y="-4" transform="matrix(-1 -1.224647e-16 1.224647e-16 -1 7 -7)" opacity="0.3" width="1" height="1"/>
		<rect x="2" y="-4" transform="matrix(-1 -1.224647e-16 1.224647e-16 -1 5 -7)" opacity="0.1" width="1" height="1"/>
		<rect y="-3" opacity="0.3" width="1" height="1"/>
		<rect x="1" y="-3" opacity="0.1" width="1" height="1"/>
		<rect x="1" y="-4" transform="matrix(-1 -1.224647e-16 1.224647e-16 -1 3 -7)" opacity="0.3" width="1" height="1"/>
		<rect y="-4" transform="matrix(-1 -1.224647e-16 1.224647e-16 -1 1 -7)" opacity="0.1" width="1" height="1"/>
		<rect x="2" y="-1" opacity="0.3" width="1" height="1"/>
		<rect x="3" y="-1" opacity="0.1" width="1" height="1"/>
		<rect x="3" y="-2" transform="matrix(-1 -1.224647e-16 1.224647e-16 -1 7 -3)" opacity="0.3" width="1" height="1"/>
		<rect x="2" y="-2" transform="matrix(-1 -1.224647e-16 1.224647e-16 -1 5 -3)" opacity="0.1" width="1" height="1"/>
	</g>
</pattern>
<g id="Grid" display="none">
	<pattern  id="_x31_pixel_grid_3_" xlink:href="#Neues_Musterfeld_2" patternTransform="matrix(2 0 0 2 7190 7396)">
	</pattern>
	<rect id="_x31_pixel_grid" x="-482" display="inline" opacity="0.8" fill="url(#_x31_pixel_grid_3_)" width="192" height="192"/>
	<g display="inline">
		<g opacity="0.2">
			<path fill="#FF0000" d="M-306,16v160h-160V16H-306 M-290,0h-192v192h192V0L-290,0z"/>
		</g>
		<g opacity="0.2">
			<path fill="#00FF00" d="M-308,34v124h-156V34H-308 M-306,32h-160v128h160V32L-306,32z"/>
		</g>
		<g opacity="0.2">
			<path fill="#0000FF" d="M-324,34v124h-124V34H-324 M-322,32h-128v128h128V32L-322,32z"/>
		</g>
		<g opacity="0.2">
			<path fill="#00FF00" d="M-324,18v156h-124V18H-324 M-322,16h-128v160h128V16L-322,16z"/>
		</g>
		<g opacity="0.2">
			<path fill="#0000FF" d="M-348,58v76h-76V58H-348 M-346,56h-80v80h80V56L-346,56z"/>
		</g>
		<g opacity="0.2">
			<path fill="#FF0000" d="M-386,18c43,0,78,35,78,78s-35,78-78,78s-78-35-78-78S-429,18-386,18 M-386,16c-44.2,0-80,35.8-80,80
				s35.8,80,80,80s80-35.8,80-80S-341.8,16-386,16L-386,16z"/>
		</g>
	</g>
	<pattern  id="_x31_pixel_grid_4_" xlink:href="#Neues_Musterfeld_2" patternTransform="matrix(2 0 0 2 7221 7396)">
	</pattern>
	
		<rect id="_x31_pixel_grid_1_" x="-235" display="inline" opacity="0.8" fill="url(#_x31_pixel_grid_4_)" width="192" height="192"/>
	<g display="inline">
		<g opacity="0.2">
			<path fill="#FF0000" d="M-59,16v160h-160V16H-59 M-43,0h-192v192h192V0L-43,0z"/>
		</g>
		<g opacity="0.2">
			<path fill="#00FF00" d="M-61,34v124h-156V34H-61 M-59,32h-160v128h160V32L-59,32z"/>
		</g>
		<g opacity="0.2">
			<path fill="#0000FF" d="M-77,34v124h-124V34H-77 M-75,32h-128v128h128V32L-75,32z"/>
		</g>
		<g opacity="0.2">
			<path fill="#00FF00" d="M-77,18v156h-124V18H-77 M-75,16h-128v160h128V16L-75,16z"/>
		</g>
		<g opacity="0.2">
			<path fill="#0000FF" d="M-101,58v76h-76V58H-101 M-99,56h-80v80h80V56L-99,56z"/>
		</g>
		<g opacity="0.2">
			<path fill="#FF0000" d="M-139,18c43,0,78,35,78,78s-35,78-78,78s-78-35-78-78S-182,18-139,18 M-139,16c-44.2,0-80,35.8-80,80
				s35.8,80,80,80s80-35.8,80-80S-94.8,16-139,16L-139,16z"/>
		</g>
	</g>
	<pattern  id="_x31_pixel_grid_5_" xlink:href="#Neues_Musterfeld_2" patternTransform="matrix(2 0 0 2 7224 7396)">
	</pattern>
	<rect id="_x31_pixel_grid_2_" display="inline" opacity="0.8" fill="url(#_x31_pixel_grid_5_)" width="192" height="192"/>
	<g display="inline">
		<g opacity="0.2">
			<path fill="#FF0000" d="M176,16v160H16V16H176 M192,0H0v192h192V0L192,0z"/>
		</g>
		<g opacity="0.2">
			<path fill="#00FF00" d="M174,34v124H18V34H174 M176,32H16v128h160V32L176,32z"/>
		</g>
		<g opacity="0.2">
			<path fill="#0000FF" d="M158,34v124H34V34H158 M160,32H32v128h128V32L160,32z"/>
		</g>
		<g opacity="0.2">
			<path fill="#00FF00" d="M158,18v156H34V18H158 M160,16H32v160h128V16L160,16z"/>
		</g>
		<g opacity="0.2">
			<path fill="#0000FF" d="M134,58v76H58V58H134 M136,56H56v80h80V56L136,56z"/>
		</g>
		<g opacity="0.2">
			<path fill="#FF0000" d="M96,18c43,0,78,35,78,78s-35,78-78,78s-78-35-78-78S53,18,96,18 M96,16c-44.2,0-80,35.8-80,80
				s35.8,80,80,80s80-35.8,80-80S140.2,16,96,16L96,16z"/>
		</g>
	</g>
</g>
<g id="Icons">
	<path fill="#78BE20" d="M96,16c-44.2,0-80,35.8-80,80c0,44.2,35.8,80,80,80s80-35.8,80-80C176,51.8,140.2,16,96,16z"/>
	<polygon fill="#FFFFFF" points="87.1,131.9 55.7,107.4 60.6,101.1 85.8,120.7 130.7,63.2 137,68.1 	"/>
</g>
<g id="Titles" display="none">
	<text transform="matrix(1 0 0 1 -482 -11.1299)" display="inline" font-family="'BoschSans-Light'" font-size="6px">calendar</text>
</g>
</svg>
