<svg xmlns="http://www.w3.org/2000/svg" viewBox="0 0 504.6 1190.6" width="504.6" height="1190.6">
  <linearGradient id="a" gradientUnits="userSpaceOnUse" x1="-342.992" y1="595.275" x2="847.559" y2="595.275" gradientTransform="rotate(-90 252.283 595.275)">
    <stop offset="0" stop-color="#E1E2E3"/>
    <stop offset=".999" stop-color="#F7F7F7"/>
  </linearGradient>
  <path fill="url(#a)" d="M0 0h504.6v1190.6H0z"/>
  <linearGradient id="b" gradientUnits="userSpaceOnUse" x1="-3.617" y1="721.418" x2="-150.404" y2="721.418" gradientTransform="rotate(-90 252.283 595.275)">
    <stop offset="0" stop-color="#F7F7F7"/>
    <stop offset=".472" stop-color="#F1F2F2"/>
    <stop offset="1" stop-color="#E6E7E8"/>
  </linearGradient>
  <path fill="url(#b)" d="M504.6 998V851.2l-252.3 51.1"/>
  <linearGradient id="c" gradientUnits="userSpaceOnUse" x1="230.779" y1="842.452" x2="175.313" y2="345.069" gradientTransform="rotate(-90 252.283 595.275)">
    <stop offset="0" stop-color="#F3F4F4"/>
    <stop offset=".46" stop-color="#EFF0F1"/>
    <stop offset=".829" stop-color="#E6E7E8"/>
    <stop offset="1" stop-color="#E1E2E3"/>
  </linearGradient>
  <path fill="url(#c)" d="M0 601v74.4l252.3 40.4L504.6 679v-78"/>
  <linearGradient id="d" gradientUnits="userSpaceOnUse" x1="74.99" y1="595.275" x2="-54.727" y2="595.275" gradientTransform="rotate(-90 252.283 595.275)">
    <stop offset="0" stop-color="#ECECED"/>
    <stop offset="1" stop-color="#E6E7E8"/>
  </linearGradient>
  <path fill="url(#d)" d="M0 845.7v.1l252.3 56.5 252.3-51.1-252.3-78.6"/>
  <linearGradient id="e" gradientUnits="userSpaceOnUse" x1="172.158" y1="595.275" x2="-3.617" y2="595.275" gradientTransform="rotate(-90 252.283 595.275)">
    <stop offset="0" stop-color="#DCDDDE"/>
    <stop offset=".251" stop-color="#E9E9EA"/>
    <stop offset=".6" stop-color="#F3F4F4"/>
    <stop offset="1" stop-color="#F7F7F7"/>
  </linearGradient>
  <path fill="url(#e)" d="M0 675.4v170.3l252.3-73.1 252.3 78.6V679l-252.3 36.8"/>
  <path fill="#ECECED" d="M0 999.4v99.5h156.2l96.1-56.3 96.1 56.3h156.2V998l-252.3 35.9"/>
  <linearGradient id="f" gradientUnits="userSpaceOnUse" x1="2.948" y1="469.135" x2="-155.846" y2="469.135" gradientTransform="rotate(-90 252.283 595.275)">
    <stop offset="0" stop-color="#F7F7F7"/>
    <stop offset=".472" stop-color="#F1F2F2"/>
    <stop offset="1" stop-color="#E6E7E8"/>
  </linearGradient>
  <path fill="url(#f)" d="M0 845.8v153.6l252.3-97.1"/>
  <path fill="#E9E9EA" d="M0 1098.9v91.7l156.2-91.7"/>
  <path fill="#F3F4F4" d="M252.3 1042.6l-96.1 56.3h192.2"/>
  <path fill="#E9E9EA" d="M504.6 1190.6v-91.7H348.4"/>
  <path fill="#EFEFF0" d="M156.2 1098.9L0 1190.6h504.6l-156.2-91.7"/>
  <path fill="#F3F4F4" d="M0 999.4l252.3 34.5L504.6 998l-252.3-95.7"/>
  <linearGradient id="g" gradientUnits="userSpaceOnUse" x1="694.25" y1="342.992" x2="694.25" y2="847.559" gradientTransform="rotate(-90 252.283 595.275)">
    <stop offset="0" stop-color="#F7F7F7"/>
    <stop offset=".501" stop-color="#EBECEC"/>
    <stop offset="1" stop-color="#E6E7E8"/>
  </linearGradient>
  <path fill="url(#g)" d="M427.4 134.2c-41.8-2.9-90-16.5-141-30.9-8.2-2.3-16.4-4.6-24.9-7-9 2.3-18 4.7-26.7 7-54.8 14.4-106.6 28.1-151.5 30.9-34.9 2.2-60.9-2.3-83.3-14.7v75.6c30.1 12.4 47.9 16.9 82.8 14.7 44.9-2.9 96.7-16.5 151.5-30.9 81.2-21.4 174.8-46.1 270.3-38.2v-21.2c-20.9 12.4-44.7 16.9-77.2 14.7z"/>
  <linearGradient id="h" gradientUnits="userSpaceOnUse" x1="574.99" y1="680.014" x2="727.4" y2="508.941" gradientTransform="rotate(-90 252.283 595.275)">
    <stop offset="0" stop-color="#F1F2F2"/>
    <stop offset="1" stop-color="#E6E7E8"/>
  </linearGradient>
  <path fill="url(#h)" d="M234.3 178.9c-54.8 14.4-106.6 28.1-151.5 30.9-34.9 2.2-52.7-2.3-82.8-14.7v58.4c88.8-9.3 175.7 6.2 274.6 22.4 57.7 9.4 117.3 19.2 165.7 21.7 34.8 1.8 54-.6 64.3-2.9v-154c-95.5-8-189.1 16.8-270.3 38.2z"/>
  <linearGradient id="i" gradientUnits="userSpaceOnUse" x1="711.344" y1="824.989" x2="785.683" y2="692.519" gradientTransform="rotate(-90 252.283 595.275)">
    <stop offset="0" stop-color="#F1F2F2"/>
    <stop offset="1" stop-color="#ECECED"/>
  </linearGradient>
  <path fill="url(#i)" d="M261.6 96.3c8.4 2.3 16.7 4.7 24.9 7 51 14.4 99.2 28.1 141 30.9 32.5 2.2 56.3-2.3 77.2-14.7V65.1C419.4 58 336.2 76.9 261.6 96.3z"/>
  <linearGradient id="j" gradientUnits="userSpaceOnUse" x1="799.422" y1="342.992" x2="799.422" y2="847.559" gradientTransform="rotate(-90 252.283 595.275)">
    <stop offset="0" stop-color="#F7F7F7"/>
    <stop offset="1" stop-color="#E6E7E8"/>
  </linearGradient>
  <path fill="url(#j)" d="M0 70.1c91.1-17.6 181.8 4 261.6 26.2 74.6-19.3 157.8-38.2 243-31.1V0H0v70.1z"/>
  <linearGradient id="k" gradientUnits="userSpaceOnUse" x1="535.419" y1="342.992" x2="535.419" y2="847.559" gradientTransform="rotate(-90 252.283 595.275)">
    <stop offset="0" stop-color="#F1F2F2"/>
    <stop offset="1" stop-color="#E6E7E8"/>
  </linearGradient>
  <path fill="url(#k)" d="M440.3 297.6c-48.4-2.5-108-12.3-165.7-21.7C175.7 259.7 88.8 244.1 0 253.5v116.6c18.8 2.3 31.6 4.7 68.9 2.9 52-2.5 116.1-12.3 178.1-21.7 91.3-13.9 179.2-27.3 257.6-24.9v-31.7c-10.4 2.3-29.5 4.7-64.3 2.9z"/>
  <path fill="#E1E2E3" d="M0 601h504.6l-252.3-29.1"/>
  <linearGradient id="l" gradientUnits="userSpaceOnUse" x1="697.723" y1="548.61" x2="772.913" y2="414.48" gradientTransform="rotate(-90 252.283 595.275)">
    <stop offset="0" stop-color="#F1F2F2"/>
    <stop offset="1" stop-color="#ECECED"/>
  </linearGradient>
  <path fill="url(#l)" d="M83.3 134.2c44.9-2.9 96.7-16.5 151.5-30.9 8.8-2.3 17.7-4.7 26.7-7C181.8 74.1 91.1 52.5 0 70.1v49.4c22.4 12.4 48.5 16.9 83.3 14.7z"/>
  <linearGradient id="m" gradientUnits="userSpaceOnUse" x1="396.828" y1="850.428" x2="529.091" y2="356.817" gradientTransform="rotate(-90 252.283 595.275)">
    <stop offset="0" stop-color="#F7F7F7"/>
    <stop offset="1" stop-color="#E6E7E8"/>
  </linearGradient>
  <path fill="url(#m)" d="M247 351.3c-62 9.4-126.1 19.2-178.1 21.7-37.3 1.8-50.1-.6-68.9-2.9v68.3c66.1-2.5 140.4 2.5 264.7 11.5 71.7 5.2 182 13.2 239.9 11.6V326.3c-78.4-2.4-166.3 11.1-257.6 25z"/>
  <linearGradient id="n" gradientUnits="userSpaceOnUse" x1="281.128" y1="781.466" x2="310.778" y2="318.036" gradientTransform="rotate(-90 252.283 595.275)">
    <stop offset="0" stop-color="#F7F7F7"/>
    <stop offset=".032" stop-color="#F6F6F6"/>
    <stop offset="1" stop-color="#DCDDDE"/>
  </linearGradient>
  <path fill="url(#n)" d="M0 601l252.3-29.1L504.6 601v-93L0 507.9"/>
  <linearGradient id="o" gradientUnits="userSpaceOnUse" x1="415.83" y1="352.528" x2="304.836" y2="861.458" gradientTransform="rotate(-90 252.283 595.275)">
    <stop offset="0" stop-color="#E1E2E3"/>
    <stop offset=".561" stop-color="#F1F1F2"/>
    <stop offset="1" stop-color="#F7F7F7"/>
  </linearGradient>
  <path fill="url(#o)" d="M264.7 449.9c-124.3-9-198.6-14-264.7-11.5v69.5l504.6.1v-46.6c-57.9 1.6-168.2-6.4-239.9-11.5z"/>
</svg>
