<svg xmlns="http://www.w3.org/2000/svg" width="504" height="1190" viewBox="0 0 504.6 1190.6">
  <linearGradient id="a" gradientUnits="userSpaceOnUse" x1="-342.993" y1="595.275" x2="847.558" y2="595.275" gradientTransform="rotate(-90 252.282 595.275)">
    <stop offset="0" stop-color="#58595B"/>
    <stop offset=".036" stop-color="#58595B"/>
    <stop offset=".085" stop-color="#58595B"/>
    <stop offset=".124" stop-color="#67696B"/>
    <stop offset=".151" stop-color="#7D7F81"/>
    <stop offset=".17" stop-color="#86888B"/>
    <stop offset=".214" stop-color="#808285"/>
    <stop offset=".291" stop-color="#797A7D"/>
    <stop offset=".324" stop-color="#58595B"/>
    <stop offset=".417" stop-color="#696A6D"/>
    <stop offset=".494" stop-color="#797A7D"/>
    <stop offset=".558" stop-color="#8F9194"/>
    <stop offset=".568" stop-color="#96989B"/>
    <stop offset=".625" stop-color="#BBBDBF"/>
    <stop offset=".656" stop-color="#C9CACC"/>
    <stop offset=".69" stop-color="#C3C5C7"/>
    <stop offset=".734" stop-color="#B3B5B8"/>
    <stop offset=".743" stop-color="#AFB1B4"/>
    <stop offset=".887" stop-color="#C0C2C4"/>
    <stop offset="1" stop-color="#AFB1B4"/>
  </linearGradient>
  <path fill="url(#a)" d="M0 0h504.6v1190.6H0z"/>
  <linearGradient id="b" gradientUnits="userSpaceOnUse" x1="-3.618" y1="721.418" x2="-150.405" y2="721.418" gradientTransform="rotate(-90 252.282 595.275)">
    <stop offset="0" stop-color="#808285"/>
    <stop offset=".335" stop-color="#808285"/>
    <stop offset="1" stop-color="#6E6F72"/>
  </linearGradient>
  <path fill="url(#b)" d="M504.6 998V851.2l-252.3 51.1"/>
  <linearGradient id="c" gradientUnits="userSpaceOnUse" x1="249.588" y1="343.485" x2="196.261" y2="676.943" gradientTransform="rotate(-90 252.282 595.275)">
    <stop offset="0" stop-color="#58595B"/>
    <stop offset=".243" stop-color="#58595B"/>
    <stop offset=".467" stop-color="#5D5E60"/>
    <stop offset=".73" stop-color="#6B6C6E"/>
    <stop offset="1" stop-color="#808285"/>
  </linearGradient>
  <path fill="url(#c)" d="M0 601v74.4l252.3 40.4L504.6 679v-78"/>
  <linearGradient id="d" gradientUnits="userSpaceOnUse" x1="74.991" y1="595.275" x2="-54.728" y2="595.275" gradientTransform="rotate(-90 252.282 595.275)">
    <stop offset="0" stop-color="#797A7D"/>
    <stop offset="1" stop-color="#797A7D"/>
  </linearGradient>
  <path fill="url(#d)" d="M0 845.7v.1l252.3 56.5 252.3-51.1-252.3-78.6"/>
  <linearGradient id="e" gradientUnits="userSpaceOnUse" x1="172.159" y1="595.275" x2="-3.618" y2="595.275" gradientTransform="rotate(-90 252.282 595.275)">
    <stop offset="0" stop-color="#616264"/>
    <stop offset=".397" stop-color="#666769"/>
    <stop offset=".866" stop-color="#737577"/>
    <stop offset="1" stop-color="#797A7D"/>
  </linearGradient>
  <path fill="url(#e)" d="M0 675.4v170.3l252.3-73.1 252.3 78.6V679l-252.3 36.8"/>
  <path fill="#717375" d="M0 999.4v99.6h156.2l96.1-56.4 96.1 56.4h156.2V998l-252.3 35.9"/>
  <linearGradient id="f" gradientUnits="userSpaceOnUse" x1="2.947" y1="469.136" x2="-155.847" y2="469.136" gradientTransform="rotate(-90 252.282 595.275)">
    <stop offset="0" stop-color="#808285"/>
    <stop offset=".335" stop-color="#808285"/>
    <stop offset="1" stop-color="#6E6F72"/>
  </linearGradient>
  <path fill="url(#f)" d="M0 845.8v153.6l252.3-97.1"/>
  <path fill="#666769" d="M0 1099v91.6l156.2-91.6"/>
  <path fill="#76777A" d="M252.3 1042.6l-96.1 56.4h192.2"/>
  <path fill="#666769" d="M504.6 1190.6V1099H348.4"/>
  <path fill="#696A6D" d="M156.2 1099L0 1190.6h504.6L348.4 1099"/>
  <path fill="#8F9194" d="M0 999.4l252.3 34.5L504.6 998l-252.3-95.7"/>
  <linearGradient id="g" gradientUnits="userSpaceOnUse" x1="694.248" y1="342.993" x2="694.248" y2="847.558" gradientTransform="rotate(-90 252.282 595.275)">
    <stop offset="0" stop-color="#D1D3D4"/>
    <stop offset=".172" stop-color="#C0C2C4"/>
    <stop offset=".47" stop-color="#AAACAE"/>
    <stop offset=".751" stop-color="#9C9EA0"/>
    <stop offset=".998" stop-color="#97999C"/>
  </linearGradient>
  <path fill="url(#g)" d="M427.4 134.2c-41.8-2.9-90-16.5-141-30.9-8.2-2.3-16.4-4.7-24.9-7-9 2.3-18 4.7-26.7 7-54.8 14.4-106.6 28.1-151.5 30.9-34.9 2.2-60.9-2.3-83.3-14.7v75.6c30.1 12.4 47.9 16.9 82.7 14.7 44.9-2.9 96.7-16.5 151.5-30.9 81.2-21.4 174.8-46.1 270.3-38.2v-21.2c-20.8 12.4-44.6 16.9-77.1 14.7z"/>
  <linearGradient id="h" gradientUnits="userSpaceOnUse" x1="537.44" y1="348.352" x2="668.707" y2="845.172" gradientTransform="rotate(-90 252.282 595.275)">
    <stop offset="0" stop-color="#97999C"/>
    <stop offset=".36" stop-color="#919395"/>
    <stop offset=".868" stop-color="#7F8083"/>
    <stop offset="1" stop-color="#797A7D"/>
  </linearGradient>
  <path fill="url(#h)" d="M234.3 178.9c-54.8 14.4-106.6 28.1-151.5 30.9-34.9 2.2-52.7-2.3-82.8-14.7v58.4c88.8-9.3 175.7 6.2 274.6 22.4 57.7 9.4 117.3 19.2 165.7 21.7 34.8 1.8 53.9-.6 64.3-2.9v-154c-95.5-8-189.1 16.8-270.3 38.2z"/>
  <path fill="#797A7D" d="M261.6 96.3c8.4 2.3 16.7 4.7 24.9 7 51 14.4 99.2 28.1 141 30.9 32.5 2.2 56.3-2.3 77.2-14.7V65.1C419.4 58 336.2 76.9 261.6 96.3z"/>
  <linearGradient id="i" gradientUnits="userSpaceOnUse" x1="799.419" y1="342.993" x2="799.419" y2="847.558" gradientTransform="rotate(-90 252.282 595.275)">
    <stop offset="0" stop-color="#97999C"/>
    <stop offset="1" stop-color="#58595B"/>
  </linearGradient>
  <path fill="url(#i)" d="M0 70.1c91.1-17.6 181.8 4 261.6 26.2 74.6-19.3 157.8-38.2 243-31.1V0H0v70.1z"/>
  <linearGradient id="j" gradientUnits="userSpaceOnUse" x1="535.417" y1="342.993" x2="535.417" y2="847.558" gradientTransform="rotate(-90 252.282 595.275)">
    <stop offset="0" stop-color="#B8BABC"/>
    <stop offset=".246" stop-color="#B1B3B5"/>
    <stop offset=".601" stop-color="#9EA0A2"/>
    <stop offset="1" stop-color="#808285"/>
  </linearGradient>
  <path fill="url(#j)" d="M440.3 297.6c-48.4-2.5-108-12.3-165.7-21.7C175.7 259.7 88.8 244.1 0 253.5v116.6c18.8 2.3 31.6 4.7 68.9 2.9 52-2.5 116.1-12.3 178.1-21.7 91.3-13.9 179.2-27.3 257.6-24.9v-31.7c-10.4 2.3-29.5 4.7-64.3 2.9z"/>
  <path fill="#696A6D" d="M0 601h504.6l-252.3-29.1"/>
  <linearGradient id="k" gradientUnits="userSpaceOnUse" x1="697.72" y1="548.611" x2="772.91" y2="414.48" gradientTransform="rotate(-90 252.282 595.275)">
    <stop offset="0" stop-color="#97999C"/>
    <stop offset="1" stop-color="#B8BABC"/>
  </linearGradient>
  <path fill="url(#k)" d="M83.3 134.2c44.9-2.9 96.7-16.5 151.5-30.9 8.8-2.3 17.7-4.7 26.7-7C181.8 74.1 91.1 52.5 0 70.1v49.4c22.4 12.4 48.5 16.9 83.3 14.7z"/>
  <linearGradient id="l" gradientUnits="userSpaceOnUse" x1="396.826" y1="850.427" x2="529.088" y2="356.818" gradientTransform="rotate(-90 252.282 595.275)">
    <stop offset="0" stop-color="#B8BABC"/>
    <stop offset=".246" stop-color="#B1B3B5"/>
    <stop offset=".601" stop-color="#9EA0A2"/>
    <stop offset="1" stop-color="#808285"/>
  </linearGradient>
  <path fill="url(#l)" d="M247 351.3c-62 9.4-126.1 19.2-178.1 21.7-37.3 1.8-50.1-.6-68.9-2.9v68.3c66.1-2.5 140.4 2.5 264.7 11.5 71.7 5.2 182 13.2 239.9 11.6V326.3c-78.4-2.4-166.3 11.1-257.6 25z"/>
  <linearGradient id="m" gradientUnits="userSpaceOnUse" x1="293.087" y1="342.993" x2="293.087" y2="847.558" gradientTransform="rotate(-90 252.282 595.275)">
    <stop offset="0" stop-color="#696A6D"/>
    <stop offset=".358" stop-color="#7C7E80"/>
    <stop offset="1" stop-color="#A7A9AC"/>
  </linearGradient>
  <path fill="url(#m)" d="M0 601l252.3-29.1L504.6 601v-93L0 507.9"/>
  <linearGradient id="n" gradientUnits="userSpaceOnUse" x1="374.681" y1="342.993" x2="374.681" y2="847.558" gradientTransform="rotate(-90 252.282 595.275)">
    <stop offset="0" stop-color="#717375"/>
    <stop offset="1" stop-color="#B8BABC"/>
  </linearGradient>
  <path fill="url(#n)" d="M264.7 449.9c-124.3-9-198.6-14-264.7-11.5v69.5l504.6.1v-46.6c-57.9 1.6-168.2-6.4-239.9-11.5z"/>
</svg>
