<svg xmlns="http://www.w3.org/2000/svg" id="Fullrange_x5F_Bottom" xmlns:xlink="http://www.w3.org/1999/xlink" viewBox="353 -6 826.8 30" width="826.8px" height="30px"><style>.st0{clip-path:url(#SVGID_2_);}.st1{fill:url(#SVGID_3_);}.st2{fill:url(#SVGID_4_);}.st3{fill:url(#SVGID_5_);}.st4{fill:url(#SVGID_6_);}.st5{fill:url(#SVGID_7_);}.st6{fill:#AF1917;}.st7{fill:url(#SVGID_8_);}.st8{fill:#931813;}.st9{fill:#B12638;}.st10{fill:#942331;}.st11{fill:#D51317;}.st12{fill:url(#SVGID_9_);}.st13{fill:url(#SVGID_10_);}.st14{fill:#169A39;}.st15{fill:url(#SVGID_11_);}.st16{fill:url(#SVGID_12_);}.st17{fill:#283587;}.st18{fill:url(#SVGID_13_);}.st19{fill:url(#SVGID_14_);}.st20{fill:url(#SVGID_15_);}.st21{fill:url(#SVGID_16_);}.st22{clip-path:url(#SVGID_18_);fill:none;}</style><defs><path id="SVGID_1_" d="M353-6h827.5v30H353z"/></defs><clipPath id="SVGID_2_"><use xlink:href="#SVGID_1_" overflow="visible"/></clipPath><g class="st0"><linearGradient id="SVGID_3_" x1="353" x2="1180.526" y1="8.8" y2="8.8" gradientUnits="userSpaceOnUse" gradientTransform="matrix(1 0 0 -1 0 18)"><stop offset="0" stop-color="#942230"/><stop offset=".036" stop-color="#921913"/><stop offset=".085" stop-color="#B02638"/><stop offset=".124" stop-color="#AE1917"/><stop offset=".126" stop-color="#B01917"/><stop offset=".153" stop-color="#CA1517"/><stop offset=".17" stop-color="#D41317"/><stop offset=".181" stop-color="#C31A2E"/><stop offset=".206" stop-color="#972D69"/><stop offset=".214" stop-color="#87347F"/><stop offset=".244" stop-color="#843580"/><stop offset=".264" stop-color="#6E358B"/><stop offset=".291" stop-color="#39418F"/><stop offset=".324" stop-color="#14387F"/><stop offset=".418" stop-color="#312A6F"/><stop offset=".494" stop-color="#283486"/><stop offset=".558" stop-color="#1C61A0"/><stop offset=".588" stop-color="#327DAB"/><stop offset=".632" stop-color="#50A1B9"/><stop offset=".656" stop-color="#5BAFBF"/><stop offset=".671" stop-color="#55ADBE"/><stop offset=".692" stop-color="#46A6BB"/><stop offset=".714" stop-color="#2B9CB6"/><stop offset=".738" stop-color="#078DAE"/><stop offset=".743" stop-color="#008AAD"/><stop offset=".834" stop-color="#009871"/><stop offset=".887" stop-color="#00A14C"/><stop offset="1" stop-color="#00917D"/></linearGradient><path d="M353-144h827.5v306.4H353z" class="st1"/><linearGradient id="SVGID_4_" x1="588.864" x2="486.896" y1="-67.85" y2="-67.85" gradientUnits="userSpaceOnUse" gradientTransform="matrix(1 0 0 -1 0 18)"><stop offset="0" stop-color="#88357F"/><stop offset=".335" stop-color="#88357F"/><stop offset=".717" stop-color="#8C2B58"/><stop offset="1" stop-color="#8F2540"/><stop offset="1" stop-color="#8F2540"/></linearGradient><path d="M486.9 162.5h102L553.4 9.2z" class="st2"/><linearGradient id="SVGID_5_" x1="759.709" x2="727.208" y1="162.478" y2="-40.751" gradientUnits="userSpaceOnUse" gradientTransform="matrix(1 0 0 -1 0 18)"><stop offset="0" stop-color="#312A6F"/><stop offset=".243" stop-color="#312A6F"/><stop offset=".451" stop-color="#2C2D73"/><stop offset=".697" stop-color="#1E377F"/><stop offset=".96" stop-color="#064692"/><stop offset="1" stop-color="#024995"/></linearGradient><path d="M762.7-144h-51.6L683 9.2l25.6 153.3h54.1z" class="st3"/><linearGradient id="SVGID_6_" x1="553.387" x2="643.567" y1="8.75" y2="8.75" gradientUnits="userSpaceOnUse" gradientTransform="matrix(1 0 0 -1 0 18)"><stop offset="0" stop-color="#6E368C"/><stop offset="1" stop-color="#3A4190"/></linearGradient><path d="M592.6-144L553.4 9.2l35.5 153.3L643.6 9.2z" class="st4"/><linearGradient id="SVGID_7_" x1="711.087" x2="588.864" y1="8.75" y2="8.75" gradientUnits="userSpaceOnUse" gradientTransform="matrix(1 0 0 -1 0 18)"><stop offset="0" stop-color="#14387F"/><stop offset=".216" stop-color="#19387F"/><stop offset=".47" stop-color="#273881"/><stop offset=".744" stop-color="#3F3983"/><stop offset="1" stop-color="#5C3986"/></linearGradient><path d="M711.1-144H592.6l51 153.2-54.7 153.3h119.7L683 9.2z" class="st5"/><path d="M485.9-144h-69.3v94.9l39.3 58.3-39.3 58.4v94.9h70.3L461.8 9.2z" class="st6"/><linearGradient id="SVGID_8_" x1="593.447" x2="483.076" y1="85.4" y2="85.4" gradientUnits="userSpaceOnUse" gradientTransform="matrix(1 0 0 -1 0 18)"><stop offset="0" stop-color="#88357F"/><stop offset=".335" stop-color="#88357F"/><stop offset=".717" stop-color="#8C2B58"/><stop offset="1" stop-color="#8F2540"/><stop offset="1" stop-color="#8F2540"/></linearGradient><path d="M592.6-144H485.9L553.4 9.2z" class="st7"/><path d="M416.6-144H353l63.6 94.9z" class="st8"/><path d="M455.9 9.2l-39.3-58.3V67.6z" class="st9"/><path d="M353 162.5h63.6V67.6z" class="st8"/><path d="M416.6-49.1L353-144v306.5l63.6-94.9z" class="st10"/><path d="M485.9-144L461.8 9.2l25.1 153.3L553.4 9.2z" class="st11"/><linearGradient id="SVGID_9_" x1="1073.896" x2="1073.896" y1="161.9" y2="-144.6" gradientUnits="userSpaceOnUse" gradientTransform="matrix(1 0 0 -1 0 18)"><stop offset="0" stop-color="#94BD55"/><stop offset=".299" stop-color="#8CBC66"/><stop offset=".673" stop-color="#85BB73"/><stop offset="1" stop-color="#83BB78"/></linearGradient><path d="M1087.3 115.6c1.9-25.4 11.4-54.6 21.5-85.6 1.6-5 3.2-10 4.8-15.1-1.6-5.5-3.2-10.9-4.9-16.2-10.1-33.3-19.5-64.7-21.5-92-1.6-21.2 1.6-37 10.2-50.6h-52.5c-8.6 18.3-11.8 29.1-10.2 50.3 1.9 27.3 11.4 58.7 21.5 92 14.9 49.3 32 106.2 26.6 164.2h14.8c-8.7-12.8-11.9-27.3-10.3-47z" class="st12"/><linearGradient id="SVGID_10_" x1="970.564" x2="1050.93" y1="158.955" y2="-145.216" gradientUnits="userSpaceOnUse" gradientTransform="matrix(1 0 0 -1 0 18)"><stop offset="0" stop-color="#00A24C"/><stop offset=".266" stop-color="#00A053"/><stop offset=".641" stop-color="#009A65"/><stop offset="1" stop-color="#00937D"/></linearGradient><path d="M1056.1-1.7c-10.1-33.3-19.5-64.7-21.5-92-1.6-21.2 1.6-32 10.2-50.3h-40.5c6.5 53.9-4.3 106.7-15.6 166.8-6.5 35-13.4 71.3-15.1 100.6-1.3 21.1.5 32.8 2.1 39h107c5.5-57.9-11.7-114.8-26.6-164.1z" class="st13"/><path d="M1113.6 14.9c-1.6 5.1-3.2 10.1-4.8 15.1-10.1 31-19.5 60.2-21.5 85.6-1.6 19.7 1.6 34.2 10.3 46.9h37.8c4.7-51.8-8.4-102.3-21.8-147.6z" class="st14"/><linearGradient id="SVGID_11_" x1="1147.052" x2="1147.052" y1="162" y2="-144.5" gradientUnits="userSpaceOnUse" gradientTransform="matrix(1 0 0 -1 0 18)"><stop offset="0" stop-color="#699F60"/><stop offset=".004" stop-color="#689F60"/><stop offset=".15" stop-color="#4D9752"/><stop offset=".309" stop-color="#389147"/><stop offset=".485" stop-color="#298C40"/><stop offset=".692" stop-color="#208A3B"/><stop offset="1" stop-color="#1D893A"/></linearGradient><path d="M1131.8-144c12.2 55.3-2.9 110.4-18.2 158.9 13.4 45.3 26.6 95.8 21.6 147.6h45.3V-144h-48.7z" class="st15"/><linearGradient id="SVGID_12_" x1="963.509" x2="963.509" y1="162" y2="-144.4" gradientUnits="userSpaceOnUse" gradientTransform="matrix(1 0 0 -1 0 18)"><stop offset="0" stop-color="#00B5DD"/><stop offset=".275" stop-color="#00AFD6"/><stop offset=".672" stop-color="#009EC3"/><stop offset="1" stop-color="#008BAE"/></linearGradient><path d="M973.6 123.4c1.7-29.4 8.6-65.6 15.1-100.6 11.2-60.1 22.1-112.8 15.6-166.8h-81c-1.6 11.4-3.3 19.2-2.1 41.8 1.7 31.6 8.6 70.5 15.1 108.2 9.6 55.4 19 108.8 17.3 156.4h22c-1.5-6.2-3.2-17.9-2-39z" class="st16"/><path d="M762.7-144v306.5L783 9.2z" class="st17"/><linearGradient id="SVGID_13_" x1="1080.333" x2="1126.35" y1="37.637" y2="119.727" gradientUnits="userSpaceOnUse" gradientTransform="matrix(1 0 0 -1 0 18)"><stop offset="0" stop-color="#62B16E"/><stop offset="1" stop-color="#86B857"/></linearGradient><path d="M1087.3-93.4c1.9 27.3 11.4 58.7 21.5 92 1.6 5.3 3.2 10.7 4.9 16.2 15.4-48.5 30.4-103.5 18.2-158.9h-34.3c-8.7 13.7-11.9 29.6-10.3 50.7z" class="st18"/><linearGradient id="SVGID_14_" x1="852.137" x2="933.983" y1="155.668" y2="-149.784" gradientUnits="userSpaceOnUse" gradientTransform="matrix(1 0 0 -1 0 18)"><stop offset="0" stop-color="#009AD4"/><stop offset=".224" stop-color="#0F9ED1"/><stop offset=".653" stop-color="#37A7C8"/><stop offset="1" stop-color="#5BB0C0"/></linearGradient><path d="M936.3 6c-6.5-37.7-13.4-76.6-15.1-108.2-1.3-22.7.5-30.4 2.1-41.8h-47.5c1.7 40.1-1.7 85.3-8 160.8-3.5 43.5-9.2 110.5-8 145.7h94c1.5-47.6-7.8-101-17.5-156.5z" class="st19"/><linearGradient id="SVGID_15_" x1="795.087" x2="795.087" y1="162" y2="-144.5" gradientUnits="userSpaceOnUse" gradientTransform="matrix(1 0 0 -1 0 18)"><stop offset="0" stop-color="#174290"/><stop offset=".397" stop-color="#20559E"/><stop offset="1" stop-color="#327AB9"/></linearGradient><path d="M762.7-144L783 9.2l-20.3 153.3h64.7l.1-306.5z" class="st20"/><linearGradient id="SVGID_16_" x1="851.899" x2="851.899" y1="-144.4" y2="162" gradientUnits="userSpaceOnUse" gradientTransform="matrix(1 0 0 -1 0 18)"><stop offset="0" stop-color="#3E9AC9"/><stop offset="1" stop-color="#1D61A1"/></linearGradient><path d="M867.9 16.8c6.3-75.5 9.7-120.6 8-160.8h-48.3l-.1 306.4h32.4c-1.3-35.1 4.3-102.1 8-145.6z" class="st21"/></g><defs><path id="SVGID_17_" d="M353-6h827.5v30H353z"/></defs><clipPath id="SVGID_18_"><use xlink:href="#SVGID_17_" overflow="visible"/></clipPath><path d="M353-32.6h827.6v83.7H353z" class="st22"/></svg>