<?xml version="1.0" encoding="UTF-8"?>
<svg xmlns="http://www.w3.org/2000/svg" xmlns:xlink="http://www.w3.org/1999/xlink" version="1.2" >
<font id="Bosch Sans Black">
<font-face  font-family="Bosch Sans" units-per-em="2048" ascent="1638" descent="0" font-style="normal" font-weight="800" font-stretch="normal" cap-height="1464" x-height="1071" underline-position="-302" underline-thickness="260" />
<missing-glyph  horiz-adv-x="471" d="M47 0 L47 1464 L424 1464 L424 0 L47 0 Z M377 47 L377 1417 L94 1417 L94 47 L377 47 Z " />
<glyph glyph-name="space" unicode="&#x20;" horiz-adv-x="471" d="" />
<glyph glyph-name="exclam" unicode="&#x21;" horiz-adv-x="797" d="M311 514 L225 1038 L225 1464 L653 1464 L653 1038 L564 514 L311 514 Z M441 406 Q531 406 596 342.5 Q661 279 661 190 Q661 101 596.5 38 Q532 -25 440 -25 Q347 -25 282 37.5 Q217 100 217 190 Q217 280 282.5 343 Q348 406 441 406 Z " />
<glyph glyph-name="quotedbl" unicode="&#x22;" horiz-adv-x="1118" d="M150 881 L109 1464 L510 1464 L469 881 L150 881 Z M652 881 L611 1464 L1010 1464 L971 881 L652 881 Z " />
<glyph glyph-name="numbersign" unicode="&#x23;" horiz-adv-x="1229" d="M142 940 L142 1212 L339 1212 L367 1464 L590 1464 L562 1212 L742 1212 L771 1464 L994 1464 L965 1212 L1135 1212 L1135 940 L937 940 L916 764 L1086 764 L1086 492 L885 492 L859 233 L637 233 L664 492 L482 492 L455 233 L234 233 L261 492 L93 492 L93 764 L292 764 L310 940 L142 940 Z M533 940 L513 764 L695 764 L713 940 L533 940 Z " />
<glyph glyph-name="dollar" unicode="&#x24;" horiz-adv-x="1290" d="M571 -276 L571 -22 Q339 -1 192 87 Q60 167 -17 305 L296 466 Q391 300 571 275 L571 572 Q443 595 370 619.5 Q297 644 234 685 Q55 802 55 1032 Q55 1281 250 1394 Q377 1468 571 1485 L571 1665 L731 1665 L731 1481 Q1048 1443 1208 1200 L921 1030 Q836 1148 731 1180 L731 895 Q968 851 1077 783 Q1158 732 1197 665 Q1249 575 1249 446 Q1249 243 1124 123 Q1005 8 731 -20 L731 -276 L571 -276 Z M571 1194 Q393 1176 393 1063 Q393 1007 433 975 Q473 943 571 920 L571 1194 Z M731 273 Q901 296 901 404 Q901 458 863.5 489 Q826 520 731 545 L731 273 Z " />
<glyph glyph-name="percent" unicode="&#x25;" horiz-adv-x="2212" d="M1697 854 Q1882 854 2000 736 Q2120 617 2120 423 Q2120 216 1995 92 Q1879 -23 1689 -23 Q1501 -23 1389 89 Q1268 210 1268 414 Q1268 610 1391 735 Q1508 854 1697 854 Z M1690 610 Q1569 610 1569 418 Q1569 225 1691 225 Q1751 225 1784 275.5 Q1817 326 1817 418 Q1817 610 1690 610 Z M519 1480 Q703 1480 822 1361 Q942 1242 942 1050 Q942 843 817 720 Q700 604 510 604 Q324 604 212 716 Q90 837 90 1043 Q90 1238 212 1361 Q329 1480 519 1480 Z M510 1238 Q393 1238 393 1047 Q393 852 512 852 Q637 852 637 1045 Q637 1238 510 1238 Z M553 0 L1378 1464 L1653 1464 L829 0 L553 0 Z " />
<glyph glyph-name="ampersand" unicode="&#x26;" horiz-adv-x="1546" d="M1051 74 Q878 -25 669 -25 Q428 -25 270 65 Q70 179 70 422 Q70 577 152.5 677.5 Q235 778 430 860 Q404 955 404 1050 Q404 1243 519 1358 Q644 1484 851 1484 Q1027 1484 1128 1384 Q1217 1297 1217 1157 Q1217 1022 1136 940.5 Q1055 859 840 778 Q933 627 1074 491 Q1128 602 1145 745 L1436 745 Q1404 509 1295 321 Q1354 290 1425 290 Q1442 290 1475 293 L1444 -10 Q1386 -16 1350 -16 Q1200 -16 1051 74 Z M525 626 Q457 550 457 456 Q457 356 517.5 296.5 Q578 237 679 237 Q746 237 815 262 Q637 431 525 626 Z M754 964 Q846 999 883 1040.5 Q920 1082 920 1148 Q920 1242 844 1242 Q795 1242 767.5 1198.5 Q740 1155 740 1078 Q740 1026 754 964 Z " />
<glyph glyph-name="quotesingle" unicode="&#x27;" horiz-adv-x="618" d="M150 881 L109 1464 L510 1464 L469 881 L150 881 Z " />
<glyph glyph-name="parenleft" unicode="&#x28;" horiz-adv-x="905" d="M502 -303 Q365 -146 289 0 Q140 288 140 642 Q140 922 226.5 1147.5 Q313 1373 502 1589 L816 1589 Q710 1418 651 1262 Q541 972 541 643 Q541 380 606.5 154.5 Q672 -71 816 -303 L502 -303 Z " />
<glyph glyph-name="parenright" unicode="&#x29;" horiz-adv-x="905" d="M402 1589 Q540 1432 616 1285 Q765 998 765 643 Q765 364 678.5 138.5 Q592 -87 402 -303 L89 -303 Q195 -131 254 24 Q364 314 364 643 Q364 906 298.5 1131 Q233 1356 89 1589 L402 1589 Z " />
<glyph glyph-name="asterisk" unicode="&#x2a;" horiz-adv-x="950" d="M369 764 L135 934 L322 1110 L78 1137 L168 1413 L379 1292 L326 1542 L617 1542 L570 1292 L774 1413 L866 1137 L621 1110 L807 934 L576 764 L471 999 L369 764 Z " />
<glyph glyph-name="plus" unicode="&#x2b;" horiz-adv-x="1229" d="M110 537 L110 854 L448 854 L448 1212 L782 1212 L782 854 L1120 854 L1120 537 L782 537 L782 178 L448 178 L448 537 L110 537 Z " />
<glyph glyph-name="comma" unicode="&#x2c;" horiz-adv-x="645" d="M124 -369 L124 -195 Q277 -154 298 10 Q97 37 97 209 Q97 301 156.5 359.5 Q216 418 308 418 Q422 418 488 338 Q554 258 554 120 Q554 -119 413 -254 Q358 -306 297 -330.5 Q236 -355 124 -369 Z " />
<glyph glyph-name="hyphen" unicode="&#x2d;" horiz-adv-x="645" d="M59 500 L59 844 L585 844 L585 500 L59 500 Z " />
<glyph glyph-name="period" unicode="&#x2e;" horiz-adv-x="645" d="M320 417 Q410 417 474.5 352 Q539 287 539 197 Q539 104 474.5 39.5 Q410 -25 318 -25 Q226 -25 161.5 39.5 Q97 104 97 196 Q97 289 161.5 353 Q226 417 320 417 Z " />
<glyph glyph-name="slash" unicode="&#x2f;" horiz-adv-x="932" d="M-29 -303 L571 1589 L913 1589 L315 -303 L-29 -303 Z " />
<glyph glyph-name="zero" unicode="0" horiz-adv-x="1290" d="M645 1487 Q909 1487 1068 1274 Q1228 1059 1228 731 Q1228 404 1068 190 Q989 83 871 26 Q765 -25 646 -25 Q469 -25 330 80 Q193 184 122 372 Q61 533 61 741 Q61 962 141 1139 Q224 1322 373 1413 Q493 1487 645 1487 Z M645 1176 Q462 1176 462 725 Q462 286 645 286 Q827 286 827 731 Q827 1176 645 1176 Z " />
<glyph glyph-name="one" unicode="1" horiz-adv-x="1290" d="M176 0 L176 303 L483 303 L483 968 Q367 923 168 921 L168 1204 Q330 1221 410 1283 Q490 1345 522 1477 L862 1477 L862 303 L1126 303 L1126 0 L176 0 Z " />
<glyph glyph-name="two" unicode="2" horiz-adv-x="1290" d="M87 0 L87 309 Q424 490 601.5 668.5 Q779 847 779 1007 Q779 1087 736.5 1131.5 Q694 1176 617 1176 Q540 1176 494.5 1133 Q449 1090 421 989 L71 1075 Q115 1264 243 1368 Q388 1487 631 1487 Q876 1487 1021 1368 Q1174 1244 1174 1022 Q1174 878 1112 757.5 Q1050 637 919 527 Q804 431 584 303 L1199 303 L1199 0 L87 0 Z " />
<glyph glyph-name="three" unicode="3" horiz-adv-x="1290" d="M987 770 Q1241 682 1241 432 Q1241 305 1177 201 Q1099 77 935 19 Q810 -25 651 -25 Q400 -25 240.5 76.5 Q81 178 32 368 L373 470 Q394 400 423 362 Q490 274 627 274 Q736 274 793 330 Q840 377 840 446 Q840 528 784.5 566.5 Q729 605 611 605 L510 605 L510 877 L627 877 Q718 877 771.5 919.5 Q825 962 825 1035 Q825 1105 776.5 1146.5 Q728 1188 645 1188 Q472 1188 390 997 L94 1119 Q143 1255 239 1341 Q399 1487 666 1487 Q916 1487 1064 1371 Q1208 1258 1208 1073 Q1208 859 987 770 Z " />
<glyph glyph-name="four" unicode="4" horiz-adv-x="1290" d="M715 0 L715 264 L17 264 L17 592 L690 1477 L1084 1477 L1084 555 L1274 555 L1274 264 L1084 264 L1084 0 L715 0 Z M732 1092 L325 555 L732 555 L732 1092 Z " />
<glyph glyph-name="five" unicode="5" horiz-adv-x="1290" d="M464 855 Q577 967 754 967 Q983 967 1110 825 Q1220 701 1220 500 Q1220 248 1058 109 Q903 -25 639 -25 Q351 -25 182 131 Q99 208 53 331 L407 428 Q426 368 455 337 Q515 274 627 274 Q718 274 771 326 Q835 388 835 496 Q835 576 795 626 Q742 695 637 695 Q505 695 450 584 L118 584 L222 1464 L1126 1464 L1126 1153 L499 1153 L464 855 Z " />
<glyph glyph-name="six" unicode="6" horiz-adv-x="1290" d="M436 776 Q552 964 781 964 Q990 964 1120 830 Q1245 701 1245 491 Q1245 278 1110 139 Q950 -25 676 -25 Q407 -25 237 153 Q59 341 59 706 Q59 1087 270 1304 Q449 1487 717 1487 Q874 1487 988.5 1430 Q1103 1373 1194 1251 L938 1065 Q898 1116 869 1138 Q808 1184 725 1184 Q465 1184 436 776 Z M667 686 Q580 686 523.5 627.5 Q467 569 467 479 Q467 386 525 327 Q581 270 670 270 Q759 270 816.5 329 Q874 388 874 480 Q874 572 817 629 Q760 686 667 686 Z " />
<glyph glyph-name="seven" unicode="7" horiz-adv-x="1290" d="M308 0 Q320 153 336 243.5 Q352 334 386 443 Q520 873 806 1153 L103 1153 L103 1464 L1190 1464 L1190 1192 Q1070 1055 995.5 931.5 Q921 808 861 647 Q747 331 742 0 L308 0 Z " />
<glyph glyph-name="eight" unicode="8" horiz-adv-x="1290" d="M1000 768 Q1108 721 1161 657 Q1239 564 1239 426 Q1239 293 1168 192 Q1097 91 965 34 Q827 -25 642 -25 Q409 -25 252 66 Q51 182 51 414 Q51 539 110 624 Q169 709 296 766 Q110 870 110 1068 Q110 1263 272 1379 Q423 1487 649 1487 Q843 1487 985 1405 Q1179 1293 1179 1071 Q1179 873 1000 768 Z M645 647 Q553 647 498.5 593 Q444 539 444 447 Q444 360 499.5 306.5 Q555 253 645 253 Q736 253 791 307 Q846 361 846 450 Q846 539 791 593 Q736 647 645 647 Z M647 1209 Q568 1209 518.5 1162 Q469 1115 469 1040 Q469 969 519.5 922.5 Q570 876 646 876 Q723 876 772 922.5 Q821 969 821 1042 Q821 1115 772 1162 Q723 1209 647 1209 Z " />
<glyph glyph-name="nine" unicode="9" horiz-adv-x="1290" d="M851 674 Q729 498 508 498 Q302 498 176 632 Q55 759 55 969 Q55 1184 188 1324 Q344 1487 616 1487 Q888 1487 1055 1309 Q1231 1120 1231 749 Q1231 340 1015 136 Q845 -25 572 -25 Q211 -25 49 252 L351 410 Q388 338 437.5 308 Q487 278 568 278 Q707 278 774 372 Q841 466 851 674 Z M618 1194 Q533 1194 479.5 1134.5 Q426 1075 426 981 Q426 889 479 832.5 Q532 776 618 776 Q707 776 765 834 Q823 892 823 982 Q823 1076 766 1135 Q709 1194 618 1194 Z " />
<glyph glyph-name="colon" unicode="&#x3a;" horiz-adv-x="645" d="M322 1001 Q412 1001 477.5 935 Q543 869 543 779 Q543 688 477.5 622.5 Q412 557 320 557 Q229 557 164 622 Q99 687 99 779 Q99 871 164 936 Q229 1001 322 1001 Z M321 417 Q411 417 476 352 Q541 287 541 197 Q541 105 476 40 Q411 -25 319 -25 Q227 -25 163 39.5 Q99 104 99 197 Q99 289 163.5 353 Q228 417 321 417 Z " />
<glyph glyph-name="semicolon" unicode="&#x3b;" horiz-adv-x="645" d="M320 1001 Q410 1001 475.5 935 Q541 869 541 779 Q541 688 475.5 622.5 Q410 557 318 557 Q226 557 161.5 622 Q97 687 97 779 Q97 871 162 936 Q227 1001 320 1001 Z M122 -369 L122 -195 Q275 -154 296 10 Q95 37 95 209 Q95 301 154.5 359.5 Q214 418 306 418 Q420 418 486 338 Q552 258 552 120 Q552 -119 411 -254 Q356 -306 295 -330.5 Q234 -355 122 -369 Z " />
<glyph glyph-name="less" unicode="&#x3c;" horiz-adv-x="1229" d="M1021 106 L194 508 L194 811 L1021 1214 L1021 821 L591 664 L1021 489 L1021 106 Z " />
<glyph glyph-name="equal" unicode="&#x3d;" horiz-adv-x="1229" d="M158 764 L158 1079 L1071 1079 L1071 764 L158 764 Z M158 289 L158 604 L1071 604 L1071 289 L158 289 Z " />
<glyph glyph-name="greater" unicode="&#x3e;" horiz-adv-x="1229" d="M206 109 L206 500 L636 657 L206 831 L206 1212 L1035 811 L1035 510 L206 109 Z " />
<glyph glyph-name="question" unicode="&#x3f;" horiz-adv-x="1210" d="M410 514 L410 545 Q410 660 457 736.5 Q504 813 622 889 Q688 932 715 968 Q742 1004 742 1051 Q742 1107 707 1141.5 Q672 1176 615 1176 Q482 1176 424 1016 L86 1116 Q115 1202 147.5 1254 Q180 1306 233 1353 Q382 1487 634 1487 Q821 1487 948 1414 Q1137 1304 1137 1079 Q1137 969 1087 891 Q1037 813 911 727 Q820 664 793 627 Q766 590 766 526 L766 514 L410 514 Z M581 406 Q672 406 737.5 342.5 Q803 279 803 190 Q803 100 738 37.5 Q673 -25 580 -25 Q487 -25 422.5 37.5 Q358 100 358 190 Q358 281 423 343.5 Q488 406 581 406 Z " />
<glyph glyph-name="at" unicode="&#x40;" horiz-adv-x="1833" d="M1409 -164 Q1285 -251 1169 -285.5 Q1053 -320 889 -320 Q524 -320 298 -94 Q68 136 68 502 Q68 886 316 1137 Q565 1390 954 1390 Q1212 1390 1410 1275 Q1571 1181 1662 1024 Q1766 844 1766 605 Q1766 318 1612 177 Q1498 72 1328 72 Q1108 72 1053 242 Q949 67 767 67 Q640 67 555 152 Q449 258 449 458 Q449 714 590 855 Q697 962 848 962 Q1009 962 1069 844 L1086 946 L1385 946 L1301 403 Q1297 378 1297 353 Q1297 271 1373 271 Q1469 271 1522 364 Q1576 459 1576 622 Q1576 917 1404 1074 Q1241 1222 957 1222 Q653 1222 465 1032 Q269 834 269 501 Q269 180 461 6 Q625 -144 905 -144 Q1028 -144 1115 -117.5 Q1202 -91 1309 -21 L1409 -164 Z M915 720 Q837 720 797 649 Q758 579 758 463 Q758 319 858 319 Q939 319 980 388 Q1024 462 1024 580 Q1024 720 915 720 Z " />
<glyph glyph-name="A" unicode="A" horiz-adv-x="1538" d="M1021 248 L463 248 L381 0 L8 0 L536 1464 L1012 1464 L1530 0 L1102 0 L1021 248 Z M932 533 L746 1105 L554 533 L932 533 Z " />
<glyph glyph-name="B" unicode="B" horiz-adv-x="1462" d="M152 0 L152 1464 L856 1464 Q1123 1464 1246 1329 Q1338 1229 1338 1069 Q1338 955 1288.5 881.5 Q1239 808 1127 755 Q1232 716 1287 661 Q1381 567 1381 410 Q1381 210 1248 105 Q1115 0 862 0 L152 0 Z M547 303 L817 303 Q902 303 948 343.5 Q994 384 994 459 Q994 614 807 614 L547 614 L547 303 Z M547 893 L805 893 Q959 893 959 1025 Q959 1161 803 1161 L547 1161 L547 893 Z " />
<glyph glyph-name="C" unicode="C" horiz-adv-x="1503" d="M1446 393 Q1402 291 1352.5 225.5 Q1303 160 1228 105 Q1053 -25 805 -25 Q459 -25 263 194 Q82 397 82 726 Q82 1073 297 1288 Q496 1487 800 1487 Q1082 1487 1257 1329 Q1352 1244 1428 1083 L1071 934 Q1031 1034 986 1083 Q913 1163 794 1163 Q637 1163 563 1034 Q500 924 500 731 Q500 541 562 432 Q638 299 802 299 Q906 299 972 356 Q1038 413 1086 543 L1446 393 Z " />
<glyph glyph-name="D" unicode="D" horiz-adv-x="1556" d="M152 0 L152 1464 L727 1464 Q1106 1464 1305 1239 Q1475 1045 1475 740 Q1475 385 1254 181 Q1059 0 717 0 L152 0 Z M555 315 L733 315 Q882 315 964 410 Q1057 516 1057 733 Q1057 970 945 1074 Q864 1149 729 1149 L555 1149 L555 315 Z " />
<glyph glyph-name="E" unicode="E" horiz-adv-x="1341" d="M152 0 L152 1464 L1223 1464 L1223 1147 L547 1147 L547 897 L1039 897 L1039 594 L547 594 L547 317 L1254 317 L1254 0 L152 0 Z " />
<glyph glyph-name="F" unicode="F" horiz-adv-x="1282" d="M152 0 L152 1464 L1205 1464 L1205 1147 L555 1147 L555 831 L1047 831 L1047 528 L555 528 L555 0 L152 0 Z " />
<glyph glyph-name="G" unicode="G" horiz-adv-x="1632" d="M1215 192 Q1056 -25 773 -25 Q481 -25 293 162 Q82 371 82 726 Q82 1069 293 1282 Q497 1487 815 1487 Q1100 1487 1281 1328 Q1374 1247 1440 1106 L1071 956 Q1039 1042 998 1087 Q927 1163 805 1163 Q642 1163 566 1030 Q500 915 500 723 Q500 536 565 425 Q646 286 826 286 Q953 286 1030.5 353 Q1108 420 1108 530 L1108 536 L844 536 L844 821 L1499 821 L1499 0 L1288 0 L1215 192 Z " />
<glyph glyph-name="H" unicode="H" horiz-adv-x="1579" d="M152 0 L152 1464 L555 1464 L555 903 L1025 903 L1025 1464 L1428 1464 L1428 0 L1025 0 L1025 579 L555 579 L555 0 L152 0 Z " />
<glyph glyph-name="I" unicode="I" horiz-adv-x="739" d="M168 0 L168 1464 L571 1464 L571 0 L168 0 Z " />
<glyph glyph-name="J" unicode="J" horiz-adv-x="1337" d="M1196 1464 L1196 541 Q1196 -25 653 -25 Q365 -25 219 136 Q97 270 97 495 L97 561 L486 561 L486 516 Q486 299 638 299 Q724 299 758.5 356 Q793 413 793 553 L793 1464 L1196 1464 Z " />
<glyph glyph-name="K" unicode="K" horiz-adv-x="1499" d="M152 0 L152 1464 L555 1464 L555 897 L981 1464 L1421 1464 L934 840 L1462 0 L1016 0 L670 538 L555 395 L555 0 L152 0 Z " />
<glyph glyph-name="L" unicode="L" horiz-adv-x="1212" d="M152 0 L152 1464 L555 1464 L555 324 L1160 324 L1160 0 L152 0 Z " />
<glyph glyph-name="M" unicode="M" horiz-adv-x="2001" d="M152 0 L152 1464 L715 1464 L995 577 L1282 1464 L1850 1464 L1850 0 L1455 0 L1455 1007 L1119 0 L834 0 L502 1012 L502 0 L152 0 Z " />
<glyph glyph-name="N" unicode="N" horiz-adv-x="1581" d="M152 0 L152 1464 L590 1464 L1068 606 L1068 1464 L1430 1464 L1430 0 L1019 0 L514 903 L514 0 L152 0 Z " />
<glyph glyph-name="O" unicode="O" horiz-adv-x="1616" d="M818 1487 Q1108 1487 1303 1307 Q1534 1093 1534 731 Q1534 370 1303 155 Q1109 -25 808 -25 Q508 -25 314 155 Q82 370 82 729 Q82 1095 314 1307 Q511 1487 818 1487 Z M802 1163 Q656 1163 578 1051.5 Q500 940 500 731 Q500 560 553 452 Q629 299 808 299 Q958 299 1037 409 Q1116 519 1116 729 Q1116 1163 802 1163 Z " />
<glyph glyph-name="P" unicode="P" horiz-adv-x="1423" d="M152 0 L152 1464 L809 1464 Q1098 1464 1244 1304 Q1360 1178 1360 972 Q1360 749 1218 623 Q1076 498 829 498 L555 498 L555 0 L152 0 Z M555 791 L774 791 Q973 791 973 978 Q973 1161 776 1161 L555 1161 L555 791 Z " />
<glyph glyph-name="Q" unicode="Q" horiz-adv-x="1616" d="M1229 -164 L1071 20 Q938 -25 797 -25 Q485 -25 290 170 Q82 378 82 727 Q82 1069 296 1283 Q500 1487 810 1487 Q1124 1487 1326 1287 Q1534 1081 1534 740 Q1534 400 1317 174 L1454 16 L1229 -164 Z M1077 457 Q1116 570 1116 729 Q1116 916 1053 1026 Q974 1163 806 1163 Q640 1163 562 1028 Q500 921 500 726 Q500 494 578 381 Q656 268 817 268 Q842 268 856 270 L744 403 L965 588 L1077 457 Z " />
<glyph glyph-name="R" unicode="R" horiz-adv-x="1501" d="M152 0 L152 1464 L834 1464 Q1095 1464 1238 1337 Q1362 1226 1362 1036 Q1362 886 1301 798 Q1240 710 1104 663 Q1198 634 1243 582 Q1276 545 1293.5 497 Q1311 449 1345 304 Q1402 62 1442 8 L1442 0 L1028 0 Q976 95 934 289 Q904 426 872 467 Q830 520 741 520 L555 520 L555 0 L152 0 Z M555 809 L782 809 Q975 809 975 984 Q975 1076 922 1119 Q896 1141 862 1149 Q828 1157 764 1157 L555 1157 L555 809 Z " />
<glyph glyph-name="S" unicode="S" horiz-adv-x="1333" d="M907 1034 Q858 1112 797.5 1144 Q737 1176 640 1176 Q459 1176 459 1064 Q459 1009 504 979.5 Q549 950 667 928 Q836 896 924 869 Q1012 842 1076 803 Q1157 753 1198 687 Q1255 595 1255 455 Q1255 232 1114 107 Q966 -25 666 -25 Q428 -25 268 54.5 Q108 134 18 297 L356 461 Q437 286 654 286 Q754 286 811 319.5 Q868 353 868 412 Q868 466 821.5 497 Q775 528 662 550 Q391 603 280 664 Q84 771 84 1022 Q84 1228 219 1351 Q369 1487 636 1487 Q1041 1487 1222 1196 L907 1034 Z " />
<glyph glyph-name="T" unicode="T" horiz-adv-x="1247" d="M422 0 L422 1140 L29 1140 L29 1464 L1219 1464 L1219 1140 L825 1140 L825 0 L422 0 Z " />
<glyph glyph-name="U" unicode="U" horiz-adv-x="1550" d="M1409 1464 L1409 600 Q1409 352 1305 202 Q1149 -25 782 -25 Q450 -25 286 155 Q141 313 141 598 L141 1464 L544 1464 L544 614 Q544 449 601 374 Q658 299 784 299 Q910 299 968 375.5 Q1026 452 1026 618 L1026 1464 L1409 1464 Z " />
<glyph glyph-name="V" unicode="V" horiz-adv-x="1407" d="M482 0 L-16 1464 L420 1464 L727 467 L1033 1464 L1424 1464 L930 0 L482 0 Z " />
<glyph glyph-name="W" unicode="W" horiz-adv-x="2161" d="M406 0 L35 1464 L457 1464 L674 500 L922 1464 L1258 1464 L1510 489 L1739 1464 L2126 1464 L1755 0 L1323 0 L1084 903 L844 0 L406 0 Z " />
<glyph glyph-name="X" unicode="X" horiz-adv-x="1565" d="M47 0 L543 754 L84 1464 L565 1464 L795 1048 L1022 1464 L1450 1464 L1016 770 L1517 0 L1036 0 L760 485 L479 0 L47 0 Z " />
<glyph glyph-name="Y" unicode="Y" horiz-adv-x="1278" d="M445 0 L445 602 L-57 1464 L389 1464 L662 942 L930 1464 L1335 1464 L848 604 L848 0 L445 0 Z " />
<glyph glyph-name="Z" unicode="Z" horiz-adv-x="1311" d="M82 0 L82 340 L748 1140 L111 1140 L111 1464 L1204 1464 L1204 1122 L555 324 L1225 324 L1225 0 L82 0 Z " />
<glyph glyph-name="bracketleft" unicode="&#x5b;" horiz-adv-x="905" d="M165 -303 L165 1589 L788 1589 L788 1298 L550 1298 L550 -12 L788 -12 L788 -303 L165 -303 Z " />
<glyph glyph-name="backslash" unicode="&#x5c;" horiz-adv-x="932" d="M620 -303 L18 1589 L362 1589 L960 -303 L620 -303 Z " />
<glyph glyph-name="bracketright" unicode="&#x5d;" horiz-adv-x="905" d="M741 1589 L741 -303 L118 -303 L118 -12 L356 -12 L356 1298 L118 1298 L118 1589 L741 1589 Z " />
<glyph glyph-name="asciicircum" unicode="&#x5e;" horiz-adv-x="1106" d="M88 801 L420 1464 L682 1464 L1016 801 L727 801 L549 1087 L367 801 L88 801 Z " />
<glyph glyph-name="underscore" unicode="&#x5f;" horiz-adv-x="901" d="M-41 -432 L-41 -172 L942 -172 L942 -432 L-41 -432 Z " />
<glyph glyph-name="grave" unicode="&#x60;" horiz-adv-x="1024" d="M386 1175 L165 1542 L587 1542 L659 1175 L386 1175 Z " />
<glyph glyph-name="a" unicode="a" horiz-adv-x="1178" d="M703 133 Q597 -25 395 -25 Q223 -25 132 74 Q59 154 59 283 Q59 542 341 612 Q480 646 684 651 L684 662 Q684 733 649 765 Q614 797 536 797 Q372 797 227 696 L74 948 Q160 1008 238 1039 Q392 1100 592 1100 Q878 1100 990 953 Q1065 855 1065 665 L1065 201 Q1065 91 1096 12 L1096 0 L731 0 Q713 51 703 133 Z M686 440 Q581 437 535 427 Q434 404 434 327 Q434 286 460.5 263 Q487 240 534 240 Q601 240 643.5 278.5 Q686 317 686 377 L686 440 Z " />
<glyph glyph-name="b" unicode="b" horiz-adv-x="1307" d="M498 915 Q610 1100 808 1100 Q1010 1100 1129 934 Q1237 783 1237 536 Q1237 228 1075 77 Q965 -25 807 -25 Q590 -25 498 164 L498 0 L119 0 L119 1542 L498 1542 L498 915 Z M668 815 Q581 815 533.5 742.5 Q486 670 486 538 Q486 404 533 332 Q580 260 668 260 Q850 260 850 538 Q850 815 668 815 Z " />
<glyph glyph-name="c" unicode="c" horiz-adv-x="1145" d="M1108 279 Q967 -25 620 -25 Q349 -25 199 145 Q70 290 70 527 Q70 788 226 945 Q379 1100 620 1100 Q789 1100 907.5 1024 Q1026 948 1100 792 L783 657 Q751 752 720.5 783.5 Q690 815 630 815 Q457 815 457 541 Q457 260 637 260 Q756 260 807 418 L1108 279 Z " />
<glyph glyph-name="d" unicode="d" horiz-adv-x="1305" d="M807 170 Q710 -25 497 -25 Q316 -25 201 108 Q70 259 70 537 Q70 800 191 953 Q308 1100 502 1100 Q710 1100 807 921 L807 1542 L1186 1542 L1186 0 L807 0 L807 170 Z M633 815 Q457 815 457 539 Q457 260 635 260 Q819 260 819 536 Q819 815 633 815 Z " />
<glyph glyph-name="e" unicode="e" horiz-adv-x="1227" d="M1132 221 Q983 -25 647 -25 Q383 -25 221 137 Q70 287 70 530 Q70 785 231 944 Q388 1100 633 1100 Q883 1100 1025 943 Q1157 797 1157 535 L1157 440 L452 440 Q472 334 526 291 Q574 253 651 253 Q776 253 842 362 L1132 221 Z M792 651 Q783 745 745 787.5 Q707 830 631 830 Q555 830 515 788.5 Q475 747 457 651 L792 651 Z " />
<glyph glyph-name="f" unicode="f" horiz-adv-x="840" d="M45 786 L45 1071 L188 1071 L188 1175 Q188 1374 302 1477 Q405 1569 581 1569 Q731 1569 852 1493 L756 1233 Q711 1266 660 1266 Q617 1266 592 1237.5 Q567 1209 567 1159 L567 1071 L776 1071 L776 786 L567 786 L567 0 L188 0 L188 786 L45 786 Z " />
<glyph glyph-name="g" unicode="g" horiz-adv-x="1214" d="M895 1018 L1167 1093 L1167 827 L1048 827 Q1063 784 1063 733 Q1063 550 902 457 Q777 386 586 386 Q504 386 417 403 Q405 380 405 353 Q405 284 508 284 L743 284 Q972 284 1075 177 Q1149 100 1149 -26 Q1149 -231 974 -331 Q826 -416 571 -416 Q353 -416 224 -362 Q57 -293 57 -146 Q57 -6 245 59 Q120 131 120 247 Q120 379 264 462 Q102 565 102 735 Q102 903 245 1005 Q379 1100 582 1100 Q760 1100 895 1018 Z M439 14 Q383 -28 383 -85 Q383 -141 429.5 -166 Q476 -191 578 -191 Q815 -191 815 -75 Q815 10 675 10 L520 10 Q497 10 439 14 Z M585 885 Q520 885 483 845 Q446 805 446 735 Q446 665 483.5 624 Q521 583 585 583 Q652 583 689.5 623.5 Q727 664 727 736 Q727 807 690 846 Q653 885 585 885 Z " />
<glyph glyph-name="h" unicode="h" horiz-adv-x="1278" d="M119 0 L119 1542 L498 1542 L498 901 Q609 1100 834 1100 Q987 1100 1075 1001 Q1166 897 1166 704 L1166 0 L787 0 L787 647 Q787 813 653 813 Q498 813 498 625 L498 0 L119 0 Z " />
<glyph glyph-name="i" unicode="i" horiz-adv-x="637" d="M129 0 L129 1071 L508 1071 L508 0 L129 0 Z M322 1567 Q409 1567 469 1509 Q529 1451 529 1365 Q529 1280 468.5 1221.5 Q408 1163 320 1163 Q230 1163 169.5 1221.5 Q109 1280 109 1366 Q109 1452 169.5 1509.5 Q230 1567 322 1567 Z " />
<glyph glyph-name="j" unicode="j" horiz-adv-x="649" d="M520 1071 L520 -4 Q520 -192 429 -291.5 Q338 -391 165 -391 Q24 -391 -76 -332 L-9 -70 Q30 -88 61 -88 Q98 -88 119.5 -65.5 Q141 -43 141 -4 L141 1071 L520 1071 Z M333 1567 Q421 1567 480.5 1509 Q540 1451 540 1365 Q540 1280 480 1221.5 Q420 1163 332 1163 Q242 1163 181.5 1221.5 Q121 1280 121 1366 Q121 1452 181.5 1509.5 Q242 1567 333 1567 Z " />
<glyph glyph-name="k" unicode="k" horiz-adv-x="1245" d="M801 0 L582 389 L498 293 L498 0 L119 0 L119 1542 L498 1542 L498 704 L787 1071 L1190 1071 L838 653 L1219 0 L801 0 Z " />
<glyph glyph-name="l" unicode="l" horiz-adv-x="637" d="M129 0 L129 1542 L508 1542 L508 0 L129 0 Z " />
<glyph glyph-name="m" unicode="m" horiz-adv-x="1872" d="M498 913 Q613 1100 817 1100 Q1004 1100 1094 932 Q1235 1100 1426 1100 Q1579 1100 1668 999 Q1759 895 1759 704 L1759 0 L1380 0 L1380 666 Q1380 736 1349.5 774.5 Q1319 813 1264 813 Q1200 813 1164.5 769.5 Q1129 726 1129 647 L1129 0 L750 0 L750 666 Q750 736 719 774.5 Q688 813 631 813 Q568 813 533 769.5 Q498 726 498 647 L498 0 L119 0 L119 1071 L498 1071 L498 913 Z " />
<glyph glyph-name="n" unicode="n" horiz-adv-x="1276" d="M119 0 L119 1071 L498 1071 L498 901 Q609 1100 833 1100 Q985 1100 1072 1002 Q1163 899 1163 704 L1163 0 L784 0 L784 643 Q784 809 652 809 Q498 809 498 621 L498 0 L119 0 Z " />
<glyph glyph-name="o" unicode="o" horiz-adv-x="1274" d="M646 1100 Q763 1100 868.5 1058.5 Q974 1017 1050 942 Q1205 788 1205 540 Q1205 290 1048 134 Q888 -25 636 -25 Q381 -25 223 132 Q70 283 70 529 Q70 780 229 940 Q388 1100 646 1100 Z M637 815 Q457 815 457 542 Q457 260 638 260 Q818 260 818 542 Q818 683 774.5 749 Q731 815 637 815 Z " />
<glyph glyph-name="p" unicode="p" horiz-adv-x="1307" d="M119 -373 L119 1071 L498 1071 L498 915 Q610 1100 808 1100 Q1010 1100 1129 934 Q1237 783 1237 536 Q1237 228 1075 77 Q965 -25 807 -25 Q594 -25 498 154 L498 -373 L119 -373 Z M668 815 Q581 815 533.5 742 Q486 669 486 536 Q486 403 533 331.5 Q580 260 667 260 Q850 260 850 537 Q850 815 668 815 Z " />
<glyph glyph-name="q" unicode="q" horiz-adv-x="1305" d="M807 -373 L807 162 Q707 -25 497 -25 Q316 -25 201 108 Q70 259 70 537 Q70 800 191 953 Q308 1100 502 1100 Q710 1100 807 921 L807 1071 L1186 1071 L1186 -373 L807 -373 Z M633 815 Q457 815 457 538 Q457 260 635 260 Q819 260 819 535 Q819 815 633 815 Z " />
<glyph glyph-name="r" unicode="r" horiz-adv-x="915" d="M119 0 L119 1071 L498 1071 L498 887 Q596 1094 769 1094 Q853 1094 914 1050 L834 704 Q771 744 702 744 Q608 744 553 681.5 Q498 619 498 514 L498 0 L119 0 Z " />
<glyph glyph-name="s" unicode="s" horiz-adv-x="1098" d="M846 745 Q792 787 714.5 810.5 Q637 834 553 834 Q438 834 438 775 Q438 738 470 724 Q502 710 635 689 Q807 662 893 612 Q1032 531 1032 350 Q1032 168 901.5 71.5 Q771 -25 524 -25 Q366 -25 254 6 Q142 37 43 109 L184 362 Q335 245 512 245 Q657 245 657 316 Q657 345 635.5 356.5 Q614 368 535 380 Q353 408 272 447 Q88 535 88 741 Q88 940 250 1033 Q368 1100 558 1100 Q814 1100 995 987 L846 745 Z " />
<glyph glyph-name="t" unicode="t" horiz-adv-x="854" d="M45 786 L45 1071 L184 1071 L184 1259 L563 1395 L563 1071 L768 1071 L768 786 L563 786 L563 393 Q563 286 637 286 Q677 286 731 317 L811 61 Q698 -25 538 -25 Q361 -25 269 79 Q184 175 184 352 L184 786 L45 786 Z " />
<glyph glyph-name="u" unicode="u" horiz-adv-x="1255" d="M758 164 Q706 66 630 20.5 Q554 -25 441 -25 Q287 -25 200 77 Q113 181 113 371 L113 1071 L492 1071 L492 432 Q492 266 607 266 Q758 266 758 455 L758 1071 L1137 1071 L1137 0 L758 0 L758 164 Z " />
<glyph glyph-name="v" unicode="v" horiz-adv-x="1151" d="M371 0 L-4 1071 L402 1071 L596 414 L791 1071 L1155 1071 L784 0 L371 0 Z " />
<glyph glyph-name="w" unicode="w" horiz-adv-x="1724" d="M340 0 L33 1071 L428 1071 L563 467 L725 1071 L1032 1071 L1174 467 L1329 1071 L1692 1071 L1368 0 L1006 0 L858 571 L709 0 L340 0 Z " />
<glyph glyph-name="x" unicode="x" horiz-adv-x="1260" d="M31 0 L398 545 L54 1071 L492 1071 L647 805 L805 1071 L1196 1071 L848 573 L1229 0 L789 0 L606 303 L420 0 L31 0 Z " />
<glyph glyph-name="y" unicode="y" horiz-adv-x="1169" d="M1174 1071 L766 -4 Q691 -203 577.5 -296 Q464 -389 296 -389 Q155 -389 37 -320 L133 -64 Q195 -104 260 -104 Q363 -104 410 8 L-4 1071 L399 1071 L604 473 L805 1071 L1174 1071 Z " />
<glyph glyph-name="z" unicode="z" horiz-adv-x="1069" d="M61 0 L61 269 L535 786 L81 786 L81 1071 L997 1071 L997 814 L522 285 L1005 285 L1005 0 L61 0 Z " />
<glyph glyph-name="braceleft" unicode="&#x7b;" horiz-adv-x="905" d="M809 -305 Q655 -301 567.5 -284 Q480 -267 409 -227 Q245 -133 245 109 L245 344 Q245 423 204 455 Q163 487 57 489 L57 801 Q163 803 204 834.5 Q245 866 245 944 L245 1178 Q245 1402 370 1494 Q495 1586 809 1591 L809 1298 Q695 1289 659.5 1258 Q624 1227 624 1137 L624 922 Q623 697 426 649 Q623 599 624 377 L624 158 Q624 67 661 32 Q698 -2 809 -12 L809 -305 Z " />
<glyph glyph-name="bar" unicode="&#x7c;" horiz-adv-x="604" d="M156 -303 L156 1589 L449 1589 L449 -303 L156 -303 Z " />
<glyph glyph-name="braceright" unicode="&#x7d;" horiz-adv-x="905" d="M96 1591 Q250 1587 337 1570 Q424 1553 495 1513 Q659 1419 659 1178 L659 942 Q659 863 700.5 831.5 Q742 800 848 797 L848 485 Q742 483 700.5 451.5 Q659 420 659 342 L659 109 Q659 -116 534 -207.5 Q409 -299 96 -305 L96 -12 Q209 -3 244.5 28.5 Q280 60 280 150 L280 365 Q281 589 478 637 Q281 688 280 909 L280 1128 Q280 1219 243 1254 Q207 1288 96 1298 L96 1591 Z " />
<glyph glyph-name="asciitilde" unicode="&#x7e;" horiz-adv-x="1229" d="M386 468 L122 484 Q143 654 196 749 Q283 906 440 906 Q526 906 645 837 Q717 796 753 796 Q792 796 811.5 821 Q831 846 843 910 L1107 892 Q1084 722 1032 628 Q945 472 788 472 Q702 472 584 540 Q512 582 476 582 Q436 582 416.5 557 Q397 532 386 468 Z " />
<glyph glyph-name="Adieresis" unicode="&#xc4;" horiz-adv-x="1538" d="M1021 248 L463 248 L381 0 L8 0 L536 1464 L1012 1464 L1530 0 L1102 0 L1021 248 Z M932 533 L746 1105 L554 533 L932 533 Z M976 1878 Q1046 1878 1096 1828 Q1146 1778 1146 1708 Q1146 1639 1095.5 1589.5 Q1045 1540 975 1540 Q905 1540 856.5 1589 Q808 1638 808 1709 Q808 1781 856 1829.5 Q904 1878 976 1878 Z M556 1878 Q625 1878 673.5 1828.5 Q722 1779 722 1708 Q722 1639 673 1589.5 Q624 1540 555 1540 Q485 1540 434.5 1589.5 Q384 1639 384 1708 Q384 1779 434 1828.5 Q484 1878 556 1878 Z " />
<glyph glyph-name="Aring" unicode="&#xc5;" horiz-adv-x="1538" d="M1021 248 L463 248 L381 0 L8 0 L536 1464 L1012 1464 L1530 0 L1102 0 L1021 248 Z M932 533 L746 1105 L554 533 L932 533 Z M769 2003 Q870 2003 939 1937 Q1008 1871 1008 1775 Q1008 1678 939 1613 Q870 1548 767 1548 Q664 1548 595.5 1613 Q527 1678 527 1775 Q527 1873 596 1938 Q665 2003 769 2003 Z M766 1860 Q732 1860 710.5 1836.5 Q689 1813 689 1776 Q689 1739 711 1715 Q733 1691 766 1691 Q801 1691 823.5 1715 Q846 1739 846 1776 Q846 1813 823.5 1836.5 Q801 1860 766 1860 Z " />
<glyph glyph-name="Ccedilla" unicode="&#xc7;" horiz-adv-x="1503" d="M821 -25 L760 -103 Q781 -101 797 -101 Q870 -101 916.5 -149.5 Q963 -198 963 -274 Q963 -365 902 -416 Q841 -467 731 -467 Q564 -467 492 -340 L641 -283 Q669 -324 716 -324 Q783 -324 783 -269 Q783 -213 721 -213 Q681 -213 657 -246 L561 -178 L678 -16 Q489 11 357 109 Q212 215 142 392 Q82 544 82 725 Q82 1073 297 1288 Q496 1487 800 1487 Q1082 1487 1257 1329 Q1352 1243 1428 1083 L1071 934 Q1031 1034 986 1083 Q913 1163 794 1163 Q637 1163 563 1034 Q500 924 500 731 Q500 541 562 432 Q638 299 802 299 Q906 299 972.5 356 Q1039 413 1086 542 L1446 393 Q1355 167 1150 55 Q1007 -21 821 -25 Z " />
<glyph glyph-name="Eacute" unicode="&#xc9;" horiz-adv-x="1341" d="M152 0 L152 1464 L1223 1464 L1223 1147 L547 1147 L547 897 L1039 897 L1039 594 L547 594 L547 317 L1254 317 L1254 0 L152 0 Z M570 1568 L642 1935 L1064 1935 L842 1568 L570 1568 Z " />
<glyph glyph-name="Ntilde" unicode="&#xd1;" horiz-adv-x="1581" d="M152 0 L152 1464 L590 1464 L1068 606 L1068 1464 L1430 1464 L1430 0 L1019 0 L514 903 L514 0 L152 0 Z M1226 1886 Q1213 1779 1189 1723 Q1119 1563 965 1563 Q893 1563 801 1610 Q747 1637 720 1637 Q666 1637 649 1571 L448 1583 Q462 1713 499 1784 Q565 1907 702 1907 Q770 1907 858 1862 Q913 1833 943 1833 Q970 1833 983.5 1847 Q997 1861 1007 1898 L1226 1886 Z " />
<glyph glyph-name="Odieresis" unicode="&#xd6;" horiz-adv-x="1616" d="M818 1487 Q1108 1487 1303 1307 Q1534 1093 1534 731 Q1534 370 1303 155 Q1109 -25 808 -25 Q508 -25 314 155 Q82 370 82 729 Q82 1095 314 1307 Q511 1487 818 1487 Z M802 1163 Q656 1163 578 1051.5 Q500 940 500 731 Q500 560 553 452 Q629 299 808 299 Q958 299 1037 409 Q1116 519 1116 729 Q1116 1163 802 1163 Z M1015 1878 Q1085 1878 1135 1828 Q1185 1778 1185 1708 Q1185 1639 1134.5 1589.5 Q1084 1540 1014 1540 Q944 1540 895.5 1589 Q847 1638 847 1709 Q847 1781 895 1829.5 Q943 1878 1015 1878 Z M595 1878 Q664 1878 712.5 1828.5 Q761 1779 761 1708 Q761 1639 712 1589.5 Q663 1540 594 1540 Q524 1540 473.5 1589.5 Q423 1639 423 1708 Q423 1779 473 1828.5 Q523 1878 595 1878 Z " />
<glyph glyph-name="Udieresis" unicode="&#xdc;" horiz-adv-x="1550" d="M1409 1464 L1409 600 Q1409 352 1305 202 Q1149 -25 782 -25 Q450 -25 286 155 Q141 313 141 598 L141 1464 L544 1464 L544 614 Q544 449 601 374 Q658 299 784 299 Q910 299 968 375.5 Q1026 452 1026 618 L1026 1464 L1409 1464 Z M982 1878 Q1052 1878 1102 1828 Q1152 1778 1152 1708 Q1152 1639 1101.5 1589.5 Q1051 1540 981 1540 Q911 1540 862.5 1589 Q814 1638 814 1709 Q814 1781 862 1829.5 Q910 1878 982 1878 Z M562 1878 Q631 1878 679.5 1828.5 Q728 1779 728 1708 Q728 1639 679 1589.5 Q630 1540 561 1540 Q491 1540 440.5 1589.5 Q390 1639 390 1708 Q390 1779 440 1828.5 Q490 1878 562 1878 Z " />
<glyph glyph-name="aacute" unicode="&#xe1;" horiz-adv-x="1178" d="M703 133 Q597 -25 395 -25 Q223 -25 132 74 Q59 154 59 283 Q59 542 341 612 Q480 646 684 651 L684 662 Q684 733 649 765 Q614 797 536 797 Q372 797 227 696 L74 948 Q160 1008 238 1039 Q392 1100 592 1100 Q878 1100 990 953 Q1065 855 1065 665 L1065 201 Q1065 91 1096 12 L1096 0 L731 0 Q713 51 703 133 Z M686 440 Q581 437 535 427 Q434 404 434 327 Q434 286 460.5 263 Q487 240 534 240 Q601 240 643.5 278.5 Q686 317 686 377 L686 440 Z M442 1175 L514 1542 L936 1542 L714 1175 L442 1175 Z " />
<glyph glyph-name="agrave" unicode="&#xe0;" horiz-adv-x="1178" d="M703 133 Q597 -25 395 -25 Q223 -25 132 74 Q59 154 59 283 Q59 542 341 612 Q480 646 684 651 L684 662 Q684 733 649 765 Q614 797 536 797 Q372 797 227 696 L74 948 Q160 1008 238 1039 Q392 1100 592 1100 Q878 1100 990 953 Q1065 855 1065 665 L1065 201 Q1065 91 1096 12 L1096 0 L731 0 Q713 51 703 133 Z M686 440 Q581 437 535 427 Q434 404 434 327 Q434 286 460.5 263 Q487 240 534 240 Q601 240 643.5 278.5 Q686 317 686 377 L686 440 Z M462 1175 L241 1542 L663 1542 L735 1175 L462 1175 Z " />
<glyph glyph-name="acircumflex" unicode="&#xe2;" horiz-adv-x="1178" d="M703 133 Q597 -25 395 -25 Q223 -25 132 74 Q59 154 59 283 Q59 542 341 612 Q480 646 684 651 L684 662 Q684 733 649 765 Q614 797 536 797 Q372 797 227 696 L74 948 Q160 1008 238 1039 Q392 1100 592 1100 Q878 1100 990 953 Q1065 855 1065 665 L1065 201 Q1065 91 1096 12 L1096 0 L731 0 Q713 51 703 133 Z M686 440 Q581 437 535 427 Q434 404 434 327 Q434 286 460.5 263 Q487 240 534 240 Q601 240 643.5 278.5 Q686 317 686 377 L686 440 Z M215 1186 L448 1542 L725 1542 L958 1186 L696 1186 L582 1303 L473 1186 L215 1186 Z " />
<glyph glyph-name="adieresis" unicode="&#xe4;" horiz-adv-x="1178" d="M703 133 Q597 -25 395 -25 Q223 -25 132 74 Q59 154 59 283 Q59 542 341 612 Q480 646 684 651 L684 662 Q684 733 649 765 Q614 797 536 797 Q372 797 227 696 L74 948 Q160 1008 238 1039 Q392 1100 592 1100 Q878 1100 990 953 Q1065 855 1065 665 L1065 201 Q1065 91 1096 12 L1096 0 L731 0 Q713 51 703 133 Z M686 440 Q581 437 535 427 Q434 404 434 327 Q434 286 460.5 263 Q487 240 534 240 Q601 240 643.5 278.5 Q686 317 686 377 L686 440 Z M812 1544 Q886 1544 939.5 1491 Q993 1438 993 1365 Q993 1291 939.5 1238.5 Q886 1186 811 1186 Q737 1186 686 1238 Q635 1290 635 1365 Q635 1441 686 1492.5 Q737 1544 812 1544 Z M366 1544 Q439 1544 490.5 1491.5 Q542 1439 542 1365 Q542 1291 490 1238.5 Q438 1186 365 1186 Q290 1186 237 1238.5 Q184 1291 184 1365 Q184 1439 237 1491.5 Q290 1544 366 1544 Z " />
<glyph glyph-name="atilde" unicode="&#xe3;" horiz-adv-x="1178" d="M703 133 Q597 -25 395 -25 Q223 -25 132 74 Q59 154 59 283 Q59 542 341 612 Q480 646 684 651 L684 662 Q684 733 649 765 Q614 797 536 797 Q372 797 227 696 L74 948 Q160 1008 238 1039 Q392 1100 592 1100 Q878 1100 990 953 Q1065 855 1065 665 L1065 201 Q1065 91 1096 12 L1096 0 L731 0 Q713 51 703 133 Z M686 440 Q581 437 535 427 Q434 404 434 327 Q434 286 460.5 263 Q487 240 534 240 Q601 240 643.5 278.5 Q686 317 686 377 L686 440 Z M977 1509 Q964 1401 940 1345 Q870 1185 716 1185 Q644 1185 552 1232 Q498 1260 469 1260 Q417 1260 400 1194 L199 1206 Q213 1336 250 1407 Q316 1530 453 1530 Q521 1530 609 1484 Q664 1455 695 1455 Q721 1455 734.5 1469 Q748 1483 758 1521 L977 1509 Z " />
<glyph glyph-name="aring" unicode="&#xe5;" horiz-adv-x="1178" d="M703 133 Q597 -25 395 -25 Q223 -25 132 74 Q59 154 59 283 Q59 542 341 612 Q480 646 684 651 L684 662 Q684 733 649 765 Q614 797 536 797 Q372 797 227 696 L74 948 Q160 1008 238 1039 Q392 1100 592 1100 Q878 1100 990 953 Q1065 855 1065 665 L1065 201 Q1065 91 1096 12 L1096 0 L731 0 Q713 51 703 133 Z M686 440 Q581 437 535 427 Q434 404 434 327 Q434 286 460.5 263 Q487 240 534 240 Q601 240 643.5 278.5 Q686 317 686 377 L686 440 Z M590 1609 Q691 1609 760 1543.5 Q829 1478 829 1382 Q829 1285 760 1220 Q691 1155 588 1155 Q485 1155 416.5 1219.5 Q348 1284 348 1382 Q348 1479 417 1544 Q486 1609 590 1609 Z M587 1466 Q553 1466 531.5 1442.5 Q510 1419 510 1383 Q510 1346 532 1322 Q554 1298 587 1298 Q622 1298 644.5 1322 Q667 1346 667 1383 Q667 1419 644.5 1442.5 Q622 1466 587 1466 Z " />
<glyph glyph-name="ccedilla" unicode="&#xe7;" horiz-adv-x="1145" d="M518 -18 Q315 14 199 145 Q70 290 70 527 Q70 788 226 945 Q379 1100 620 1100 Q789 1100 907.5 1024 Q1026 948 1100 792 L783 657 Q751 752 720.5 783.5 Q690 815 630 815 Q457 815 457 541 Q457 260 637 260 Q756 260 807 418 L1108 278 Q977 -3 664 -23 L601 -103 Q624 -100 638 -100 Q710 -100 756.5 -149 Q803 -198 803 -274 Q803 -365 742 -416 Q681 -467 572 -467 Q405 -467 332 -340 L482 -283 Q510 -324 556 -324 Q623 -324 623 -268 Q623 -211 562 -211 Q521 -211 498 -246 L402 -178 L518 -18 Z " />
<glyph glyph-name="eacute" unicode="&#xe9;" horiz-adv-x="1227" d="M1132 221 Q983 -25 647 -25 Q383 -25 221 137 Q70 287 70 530 Q70 785 231 944 Q388 1100 633 1100 Q883 1100 1025 943 Q1157 797 1157 535 L1157 440 L452 440 Q472 334 526 291 Q574 253 651 253 Q776 253 842 362 L1132 221 Z M792 651 Q783 745 745 787.5 Q707 830 631 830 Q555 830 515 788.5 Q475 747 457 651 L792 651 Z M482 1175 L554 1542 L976 1542 L754 1175 L482 1175 Z " />
<glyph glyph-name="egrave" unicode="&#xe8;" horiz-adv-x="1227" d="M1132 221 Q983 -25 647 -25 Q383 -25 221 137 Q70 287 70 530 Q70 785 231 944 Q388 1100 633 1100 Q883 1100 1025 943 Q1157 797 1157 535 L1157 440 L452 440 Q472 334 526 291 Q574 253 651 253 Q776 253 842 362 L1132 221 Z M792 651 Q783 745 745 787.5 Q707 830 631 830 Q555 830 515 788.5 Q475 747 457 651 L792 651 Z M509 1175 L288 1542 L710 1542 L782 1175 L509 1175 Z " />
<glyph glyph-name="ecircumflex" unicode="&#xea;" horiz-adv-x="1227" d="M1132 221 Q983 -25 647 -25 Q383 -25 221 137 Q70 287 70 530 Q70 785 231 944 Q388 1100 633 1100 Q883 1100 1025 943 Q1157 797 1157 535 L1157 440 L452 440 Q472 334 526 291 Q574 253 651 253 Q776 253 842 362 L1132 221 Z M792 651 Q783 745 745 787.5 Q707 830 631 830 Q555 830 515 788.5 Q475 747 457 651 L792 651 Z M267 1186 L500 1542 L777 1542 L1010 1186 L748 1186 L634 1303 L525 1186 L267 1186 Z " />
<glyph glyph-name="edieresis" unicode="&#xeb;" horiz-adv-x="1227" d="M1132 221 Q983 -25 647 -25 Q383 -25 221 137 Q70 287 70 530 Q70 785 231 944 Q388 1100 633 1100 Q883 1100 1025 943 Q1157 797 1157 535 L1157 440 L452 440 Q472 334 526 291 Q574 253 651 253 Q776 253 842 362 L1132 221 Z M792 651 Q783 745 745 787.5 Q707 830 631 830 Q555 830 515 788.5 Q475 747 457 651 L792 651 Z M862 1544 Q936 1544 989.5 1491 Q1043 1438 1043 1365 Q1043 1291 989.5 1238.5 Q936 1186 861 1186 Q787 1186 736 1238 Q685 1290 685 1365 Q685 1441 736 1492.5 Q787 1544 862 1544 Z M416 1544 Q489 1544 540.5 1491.5 Q592 1439 592 1365 Q592 1291 540 1238.5 Q488 1186 415 1186 Q340 1186 287 1238.5 Q234 1291 234 1365 Q234 1439 287 1491.5 Q340 1544 416 1544 Z " />
<glyph glyph-name="iacute" unicode="&#xed;" horiz-adv-x="637" d="M129 0 L129 1071 L508 1071 L508 0 L129 0 Z M172 1175 L244 1542 L666 1542 L444 1175 L172 1175 Z " />
<glyph glyph-name="igrave" unicode="&#xec;" horiz-adv-x="637" d="M129 0 L129 1071 L508 1071 L508 0 L129 0 Z M192 1175 L-29 1542 L393 1542 L465 1175 L192 1175 Z " />
<glyph glyph-name="icircumflex" unicode="&#xee;" horiz-adv-x="637" d="M129 0 L129 1071 L508 1071 L508 0 L129 0 Z M-55 1186 L178 1542 L455 1542 L688 1186 L426 1186 L312 1303 L203 1186 L-55 1186 Z " />
<glyph glyph-name="idieresis" unicode="&#xef;" horiz-adv-x="637" d="M129 0 L129 1071 L508 1071 L508 0 L129 0 Z M542 1544 Q616 1544 669.5 1491 Q723 1438 723 1365 Q723 1291 669.5 1238.5 Q616 1186 541 1186 Q467 1186 416 1238 Q365 1290 365 1365 Q365 1441 416 1492.5 Q467 1544 542 1544 Z M96 1544 Q169 1544 220.5 1491.5 Q272 1439 272 1365 Q272 1291 220 1238.5 Q168 1186 95 1186 Q20 1186 -33 1238.5 Q-86 1291 -86 1365 Q-86 1439 -33 1491.5 Q20 1544 96 1544 Z " />
<glyph glyph-name="ntilde" unicode="&#xf1;" horiz-adv-x="1276" d="M119 0 L119 1071 L498 1071 L498 901 Q609 1100 833 1100 Q985 1100 1072 1002 Q1163 899 1163 704 L1163 0 L784 0 L784 643 Q784 809 652 809 Q498 809 498 621 L498 0 L119 0 Z M1027 1509 Q1014 1401 990 1345 Q920 1185 766 1185 Q694 1185 602 1232 Q548 1260 519 1260 Q467 1260 450 1194 L249 1206 Q263 1336 300 1407 Q366 1530 503 1530 Q571 1530 659 1484 Q714 1455 745 1455 Q771 1455 784.5 1469 Q798 1483 808 1521 L1027 1509 Z " />
<glyph glyph-name="oacute" unicode="&#xf3;" horiz-adv-x="1274" d="M646 1100 Q763 1100 868.5 1058.5 Q974 1017 1050 942 Q1205 788 1205 540 Q1205 290 1048 134 Q888 -25 636 -25 Q381 -25 223 132 Q70 283 70 529 Q70 780 229 940 Q388 1100 646 1100 Z M637 815 Q457 815 457 542 Q457 260 638 260 Q818 260 818 542 Q818 683 774.5 749 Q731 815 637 815 Z M491 1175 L563 1542 L985 1542 L763 1175 L491 1175 Z " />
<glyph glyph-name="ograve" unicode="&#xf2;" horiz-adv-x="1274" d="M646 1100 Q763 1100 868.5 1058.5 Q974 1017 1050 942 Q1205 788 1205 540 Q1205 290 1048 134 Q888 -25 636 -25 Q381 -25 223 132 Q70 283 70 529 Q70 780 229 940 Q388 1100 646 1100 Z M637 815 Q457 815 457 542 Q457 260 638 260 Q818 260 818 542 Q818 683 774.5 749 Q731 815 637 815 Z M511 1175 L290 1542 L712 1542 L784 1175 L511 1175 Z " />
<glyph glyph-name="ocircumflex" unicode="&#xf4;" horiz-adv-x="1274" d="M646 1100 Q763 1100 868.5 1058.5 Q974 1017 1050 942 Q1205 788 1205 540 Q1205 290 1048 134 Q888 -25 636 -25 Q381 -25 223 132 Q70 283 70 529 Q70 780 229 940 Q388 1100 646 1100 Z M637 815 Q457 815 457 542 Q457 260 638 260 Q818 260 818 542 Q818 683 774.5 749 Q731 815 637 815 Z M264 1186 L497 1542 L774 1542 L1007 1186 L745 1186 L631 1303 L522 1186 L264 1186 Z " />
<glyph glyph-name="odieresis" unicode="&#xf6;" horiz-adv-x="1274" d="M646 1100 Q763 1100 868.5 1058.5 Q974 1017 1050 942 Q1205 788 1205 540 Q1205 290 1048 134 Q888 -25 636 -25 Q381 -25 223 132 Q70 283 70 529 Q70 780 229 940 Q388 1100 646 1100 Z M637 815 Q457 815 457 542 Q457 260 638 260 Q818 260 818 542 Q818 683 774.5 749 Q731 815 637 815 Z M861 1544 Q935 1544 988.5 1491 Q1042 1438 1042 1365 Q1042 1291 988.5 1238.5 Q935 1186 860 1186 Q786 1186 735 1238 Q684 1290 684 1365 Q684 1441 735 1492.5 Q786 1544 861 1544 Z M415 1544 Q488 1544 539.5 1491.5 Q591 1439 591 1365 Q591 1291 539 1238.5 Q487 1186 414 1186 Q339 1186 286 1238.5 Q233 1291 233 1365 Q233 1439 286 1491.5 Q339 1544 415 1544 Z " />
<glyph glyph-name="otilde" unicode="&#xf5;" horiz-adv-x="1274" d="M646 1100 Q763 1100 868.5 1058.5 Q974 1017 1050 942 Q1205 788 1205 540 Q1205 290 1048 134 Q888 -25 636 -25 Q381 -25 223 132 Q70 283 70 529 Q70 780 229 940 Q388 1100 646 1100 Z M637 815 Q457 815 457 542 Q457 260 638 260 Q818 260 818 542 Q818 683 774.5 749 Q731 815 637 815 Z M1026 1509 Q1013 1401 989 1345 Q919 1185 765 1185 Q693 1185 601 1232 Q547 1260 518 1260 Q466 1260 449 1194 L248 1206 Q262 1336 299 1407 Q365 1530 502 1530 Q570 1530 658 1484 Q713 1455 744 1455 Q770 1455 783.5 1469 Q797 1483 807 1521 L1026 1509 Z " />
<glyph glyph-name="uacute" unicode="&#xfa;" horiz-adv-x="1255" d="M758 164 Q706 66 630 20.5 Q554 -25 441 -25 Q287 -25 200 77 Q113 181 113 371 L113 1071 L492 1071 L492 432 Q492 266 607 266 Q758 266 758 455 L758 1071 L1137 1071 L1137 0 L758 0 L758 164 Z M489 1175 L561 1542 L983 1542 L761 1175 L489 1175 Z " />
<glyph glyph-name="ugrave" unicode="&#xf9;" horiz-adv-x="1255" d="M758 164 Q706 66 630 20.5 Q554 -25 441 -25 Q287 -25 200 77 Q113 181 113 371 L113 1071 L492 1071 L492 432 Q492 266 607 266 Q758 266 758 455 L758 1071 L1137 1071 L1137 0 L758 0 L758 164 Z M503 1175 L282 1542 L704 1542 L776 1175 L503 1175 Z " />
<glyph glyph-name="ucircumflex" unicode="&#xfb;" horiz-adv-x="1256" d="M758 164 Q706 66 630 20.5 Q554 -25 441 -25 Q287 -25 200 77 Q113 181 113 371 L113 1071 L492 1071 L492 432 Q492 266 607 266 Q758 266 758 455 L758 1071 L1137 1071 L1137 0 L758 0 L758 164 Z M261 1186 L494 1542 L771 1542 L1004 1186 L742 1186 L628 1303 L519 1186 L261 1186 Z " />
<glyph glyph-name="udieresis" unicode="&#xfc;" horiz-adv-x="1255" d="M758 164 Q706 66 630 20.5 Q554 -25 441 -25 Q287 -25 200 77 Q113 181 113 371 L113 1071 L492 1071 L492 432 Q492 266 607 266 Q758 266 758 455 L758 1071 L1137 1071 L1137 0 L758 0 L758 164 Z M852 1544 Q926 1544 979.5 1491 Q1033 1438 1033 1365 Q1033 1291 979.5 1238.5 Q926 1186 851 1186 Q777 1186 726 1238 Q675 1290 675 1365 Q675 1441 726 1492.5 Q777 1544 852 1544 Z M406 1544 Q479 1544 530.5 1491.5 Q582 1439 582 1365 Q582 1291 530 1238.5 Q478 1186 405 1186 Q330 1186 277 1238.5 Q224 1291 224 1365 Q224 1439 277 1491.5 Q330 1544 406 1544 Z " />
<glyph glyph-name="dagger" unicode="&#x2020;" horiz-adv-x="737" d="M66 1022 L66 1266 L240 1266 L240 1464 L498 1464 L498 1266 L672 1266 L672 1022 L498 1022 L498 621 L240 621 L240 1022 L66 1022 Z " />
<glyph glyph-name="degree" unicode="&#xb0;" horiz-adv-x="983" d="M497 1487 Q666 1487 775 1379 Q880 1273 880 1112 Q880 947 774 841 Q664 731 489 731 Q315 731 206 840 Q102 944 102 1104 Q102 1269 210 1377 Q319 1487 497 1487 Z M490 1276 Q426 1276 390 1232.5 Q354 1189 354 1111 Q354 1032 391 987 Q428 942 494 942 Q557 942 592.5 986 Q628 1030 628 1108 Q628 1186 591.5 1231 Q555 1276 490 1276 Z " />
<glyph glyph-name="cent" unicode="&#xa2;" horiz-adv-x="1290" d="M593 -276 L593 -20 Q497 -6 441.5 13.5 Q386 33 328 72 Q106 222 106 528 Q106 767 246 923 Q313 997 392.5 1036.5 Q472 1076 593 1096 L593 1288 L753 1288 L753 1093 Q1042 1055 1156 795 L872 678 Q824 781 753 809 L753 246 Q851 288 898 399 L1165 279 Q1111 158 1023 87 Q922 5 753 -20 L753 -276 L593 -276 Z M593 807 Q458 746 458 536 Q458 314 593 250 L593 807 Z " />
<glyph glyph-name="sterling" unicode="&#xa3;" horiz-adv-x="1290" d="M80 594 L80 815 L219 815 Q172 935 172 1051 Q172 1249 298 1364 Q432 1487 693 1487 Q967 1487 1121 1356 Q1173 1313 1204.5 1265 Q1236 1217 1270 1132 L928 1005 Q890 1103 846.5 1139.5 Q803 1176 723 1176 Q573 1176 573 1019 Q573 945 621 815 L971 815 L971 594 L692 594 Q721 471 721 393 Q721 358 713 313 Q774 288 831 288 Q893 288 922.5 318 Q952 348 969 429 L1297 384 Q1270 197 1209 108 Q1120 -23 922 -23 Q755 -23 590 89 Q458 -20 293 -20 Q149 -20 66.5 47 Q-16 114 -16 230 Q-16 341 59 408 Q135 475 262 475 Q324 475 385 452 Q367 510 328 594 L80 594 Z M398 247 Q327 297 280 297 Q245 297 224 278.5 Q203 260 203 230 Q203 170 285 170 Q362 170 398 247 Z " />
<glyph glyph-name="section" unicode="&#xa7;" horiz-adv-x="1251" d="M981 373 Q1102 270 1102 107 Q1102 -44 1011 -144 Q882 -285 613 -285 Q276 -285 98 -84 L318 117 Q382 53 444.5 26.5 Q507 0 589 0 Q737 0 737 87 Q737 125 701.5 142.5 Q666 160 490 206 Q291 259 206 319 Q80 407 80 571 Q80 670 126 733 Q172 796 275 837 Q160 941 160 1096 Q160 1318 338 1420 Q455 1487 629 1487 Q919 1487 1104 1300 L885 1095 Q791 1202 642 1202 Q514 1202 514 1124 Q514 1084 549.5 1064 Q585 1044 714 1014 Q949 958 1040 896 Q1172 806 1172 639 Q1172 540 1127 477.5 Q1082 415 981 373 Z M735 485 Q818 507 818 576 Q818 635 759 660 Q670 699 509 724 Q434 705 434 639 Q434 568 533 534 Q619 503 735 485 Z " />
<glyph glyph-name="bullet" unicode="&#x2022;" horiz-adv-x="838" d="M422 1001 Q560 1001 651 908 Q743 815 743 676 Q743 536 651.5 444 Q560 352 420 352 Q277 352 185 446 Q94 538 94 675 Q94 813 186 907 Q277 1001 422 1001 Z " />
<glyph glyph-name="paragraph" unicode="&#xb6;" horiz-adv-x="1298" d="M499 0 L499 659 L481 659 Q281 659 168 772 Q63 877 63 1050 Q63 1244 187 1357 Q304 1464 509 1464 L1144 1464 L1144 0 L906 0 L906 1253 L737 1253 L737 0 L499 0 Z " />
<glyph glyph-name="germandbls" unicode="&#xdf;" horiz-adv-x="1317" d="M955 926 Q1082 886 1153 794 Q1247 672 1247 476 Q1247 240 1132.5 110 Q1018 -20 811 -20 Q702 -20 625 14 L625 283 L629 283 Q668 269 703 269 Q860 269 860 507 Q860 672 782 733 Q729 775 629 776 L629 1022 Q726 1028 762 1069 Q792 1104 792 1170 Q792 1319 643 1319 Q498 1319 498 1141 L498 0 L119 0 L119 1102 Q119 1383 320 1497 Q449 1571 653 1571 Q855 1571 983 1501 Q1157 1407 1157 1199 Q1157 1002 955 926 Z " />
<glyph glyph-name="registered" unicode="&#xae;" horiz-adv-x="1210" d="M387 729 L387 1212 L647 1212 Q736 1212 784.5 1172.5 Q833 1133 833 1060 Q833 969 743 942 Q783 935 802.5 902 Q822 869 835 788 Q842 744 856 735 L856 729 L690 729 Q676 752 665 810 Q657 851 643 866 Q629 881 598 881 L557 881 L557 729 L387 729 Z M557 1001 L618 1001 Q671 1001 671 1046 Q671 1091 618 1091 L557 1091 L557 1001 Z M609 1480 Q711 1480 807 1440.5 Q903 1401 975 1329 Q1124 1180 1124 963 Q1124 743 974 594 Q823 444 603 444 Q382 444 233 593 Q84 742 84 960 Q84 1177 235 1330 Q385 1480 609 1480 Z M601 1378 Q422 1378 312 1267 Q199 1154 199 964 Q199 774 316 657 Q427 546 603 546 Q781 546 893 658 Q1009 775 1009 967 Q1009 1154 898 1267 Q789 1378 601 1378 Z " />
<glyph glyph-name="copyright" unicode="&#xa9;" horiz-adv-x="1653" d="M1221 526 Q1160 418 1079 365 Q977 299 833 299 Q637 299 520 417 Q401 538 401 735 Q401 926 521 1046 Q644 1169 838 1169 Q1095 1169 1206 952 L975 817 Q932 907 844 907 Q775 907 736.5 862.5 Q698 818 698 738 Q698 654 737 607.5 Q776 561 846 561 Q934 561 981 664 L1221 526 Z M833 1480 Q978 1480 1112.5 1424.5 Q1247 1369 1347 1268 Q1455 1159 1510 1013 Q1561 879 1561 731 Q1561 411 1345 194 Q1134 -18 821 -18 Q513 -18 303 191 Q88 405 88 726 Q88 1047 305 1267 Q515 1480 833 1480 Z M819 1361 Q566 1361 397 1192 Q219 1013 219 728 Q219 447 396 270 Q565 101 821 101 Q1081 101 1252 272 Q1430 450 1430 731 Q1430 1013 1252 1192 Q1084 1361 819 1361 Z " />
<glyph glyph-name="trademark" unicode="&#x2122;" horiz-adv-x="1657" d="M763 807 L763 1464 L1040 1464 L1157 1053 L1268 1464 L1552 1464 L1552 807 L1351 807 L1351 1184 L1237 807 L1066 807 L956 1184 L956 807 L763 807 Z M260 807 L260 1274 L61 1274 L61 1464 L667 1464 L667 1274 L483 1274 L483 807 L260 807 Z " />
<glyph glyph-name="acute" unicode="&#xb4;" horiz-adv-x="1024" d="M366 1175 L438 1542 L860 1542 L638 1175 L366 1175 Z " />
<glyph glyph-name="dieresis" unicode="&#xa8;" horiz-adv-x="1024" d="M736 1544 Q810 1544 863.5 1491 Q917 1438 917 1365 Q917 1291 863.5 1238.5 Q810 1186 735 1186 Q661 1186 610 1238 Q559 1290 559 1365 Q559 1441 610 1492.5 Q661 1544 736 1544 Z M290 1544 Q363 1544 414.5 1491.5 Q466 1439 466 1365 Q466 1291 414 1238.5 Q362 1186 289 1186 Q214 1186 161 1238.5 Q108 1291 108 1365 Q108 1439 161 1491.5 Q214 1544 290 1544 Z " />
<glyph glyph-name="notequal" unicode="&#x2260;" horiz-adv-x="1229" d="M158 289 L158 604 L434 604 L527 764 L158 764 L158 1079 L710 1079 L838 1300 L1039 1185 L978 1079 L1071 1079 L1071 764 L795 764 L702 604 L1071 604 L1071 289 L519 289 L391 68 L190 183 L251 289 L158 289 Z " />
<glyph glyph-name="AE" unicode="&#xc6;" horiz-adv-x="2150" d="M543 248 L421 0 L8 0 L778 1464 L2036 1464 L2036 1147 L1361 1147 L1361 897 L1849 897 L1849 594 L1361 594 L1361 317 L2066 317 L2066 0 L966 0 L966 248 L543 248 Z M682 533 L966 533 L966 1113 L682 533 Z " />
<glyph glyph-name="Oslash" unicode="&#xd8;" horiz-adv-x="1616" d="M236 241 Q82 449 82 732 Q82 1092 314 1307 Q508 1487 808 1487 Q1050 1487 1231 1364 L1319 1464 L1594 1464 L1380 1222 Q1534 1015 1534 730 Q1534 370 1303 155 Q1109 -25 808 -25 Q571 -25 385 98 L297 0 L23 0 L236 241 Z M510 550 L1001 1104 Q922 1170 808 1170 Q623 1170 546 1014 Q492 904 492 736 Q492 625 510 550 Z M1106 914 L615 359 Q694 292 809 292 Q963 292 1043.5 404 Q1124 516 1124 732 Q1124 835 1106 914 Z " />
<glyph glyph-name="infinity" unicode="&#x221e;" horiz-adv-x="1741" d="M870 513 Q782 412 689.5 368 Q597 324 475 324 Q277 324 179 435 Q93 533 93 693 Q93 852 179 950 Q277 1061 475 1061 Q597 1061 689.5 1017 Q782 973 870 873 Q958 973 1050.5 1017 Q1143 1061 1266 1061 Q1464 1061 1562 950 Q1648 852 1648 692 Q1648 533 1562 435 Q1464 324 1266 324 Q1143 324 1050.5 368 Q958 412 870 513 Z M740 692 L718 713 Q593 826 491 826 Q427 826 388 789.5 Q349 753 349 693 Q349 633 388 596 Q427 559 490 559 Q587 559 713 669 L740 692 Z M1000 692 L1027 669 Q1154 559 1251 559 Q1315 559 1353.5 596 Q1392 633 1392 693 Q1392 753 1353 789.5 Q1314 826 1250 826 Q1148 826 1023 713 L1000 692 Z " />
<glyph glyph-name="plusminus" unicode="&#xb1;" horiz-adv-x="1229" d="M120 754 L120 1071 L450 1071 L450 1382 L784 1382 L784 1071 L1109 1071 L1109 754 L784 754 L784 442 L450 442 L450 754 L120 754 Z M120 0 L120 317 L1085 317 L1085 0 L120 0 Z " />
<glyph glyph-name="lessequal" unicode="&#x2264;" horiz-adv-x="1229" d="M1021 401 L194 802 L194 1064 L1021 1468 L1021 1095 L591 937 L1021 763 L1021 401 Z M194 0 L194 317 L1021 317 L1021 0 L194 0 Z " />
<glyph glyph-name="greaterequal" unicode="&#x2265;" horiz-adv-x="1229" d="M208 1468 L1035 1066 L1035 804 L208 401 L208 773 L638 931 L208 1105 L208 1468 Z M1035 0 L208 0 L208 317 L1035 317 L1035 0 Z " />
<glyph glyph-name="yen" unicode="&#xa5;" horiz-adv-x="1290" d="M130 610 L130 780 L369 780 L-20 1464 L418 1464 L662 946 L907 1464 L1309 1464 L924 780 L1169 780 L1169 610 L841 610 L841 487 L1169 487 L1169 317 L841 317 L841 0 L454 0 L454 317 L130 317 L130 487 L454 487 L454 610 L130 610 Z " />
<glyph glyph-name="mu" unicode="&#xb5;" horiz-adv-x="1290" d="M504 -23 L504 -373 L125 -373 L125 1071 L504 1071 L504 433 Q504 355 534.5 319 Q565 283 631 283 Q786 283 786 471 L786 1071 L1165 1071 L1165 0 L786 0 L786 164 Q701 -6 504 -23 Z " />
<glyph glyph-name="partialdiff" unicode="&#x2202;" horiz-adv-x="1290" d="M323 1390 L472 1618 Q763 1485 931 1318 Q1212 1039 1212 610 Q1212 270 1033 107 Q889 -25 645 -25 Q386 -25 231 129 Q79 280 79 528 Q79 766 220 906 Q347 1032 534 1032 Q670 1032 771 952 Q701 1080 601 1178 Q501 1276 323 1390 Z M644 780 Q558 780 512 712.5 Q466 645 466 519 Q466 254 644 254 Q825 254 825 517 Q825 780 644 780 Z " />
<glyph glyph-name="summation" unicode="&#x2211;" horiz-adv-x="1290" d="M1361 1464 L1361 1140 L1228 1140 L1228 -373 L825 -373 L825 1140 L465 1140 L465 -373 L62 -373 L62 1140 L-71 1140 L-71 1464 L1361 1464 Z " />
<glyph glyph-name="product" unicode="&#x220f;" horiz-adv-x="1290" d="M441 587 L115 1134 L115 1464 L1159 1464 L1159 1140 L546 1140 L866 583 L521 -49 L1229 -49 L1229 -373 L86 -373 L86 -33 L441 587 Z " />
<glyph glyph-name="pi" unicode="&#x3c0;" horiz-adv-x="1362" d="M191 0 L191 776 L70 776 L70 1071 L1293 1071 L1293 776 L1170 776 L1170 0 L791 0 L791 786 L553 786 L553 0 L191 0 Z " />
<glyph glyph-name="integral" unicode="&#x222b;" horiz-adv-x="1166" d="M133 -304 L191 -55 Q244 -83 288 -83 Q353 -83 375 -28 Q388 6 388 129 L388 1193 Q388 1365 398 1423 Q425 1574 537 1645 Q621 1699 776 1699 Q907 1699 1032 1659 L984 1403 Q922 1428 885 1428 Q827 1428 805 1375 Q791 1343 791 1258 L791 129 Q791 -24 780 -95 Q769 -166 738 -214 Q647 -354 423 -354 Q269 -354 133 -304 Z " />
<glyph glyph-name="ordfeminine" unicode="&#xaa;" horiz-adv-x="1032" d="M613 668 Q524 531 345 531 Q225 531 148 590 Q59 658 59 788 Q59 992 291 1062 Q414 1099 601 1102 L601 1110 Q601 1170 573.5 1194 Q546 1218 478 1218 Q328 1218 212 1134 L77 1358 Q181 1426 282.5 1455 Q384 1484 518 1484 Q933 1484 933 1139 L933 725 Q933 630 962 565 L962 551 L640 551 Q624 587 613 668 Z M603 919 Q482 917 434.5 896.5 Q387 876 387 827 Q387 760 469 760 Q528 760 565.5 792 Q603 824 603 874 L603 919 Z " />
<glyph glyph-name="ordmasculine" unicode="&#xba;" horiz-adv-x="1087" d="M552 1484 Q765 1484 901 1350 Q1032 1220 1032 1010 Q1032 798 899 665 Q763 530 544 530 Q319 530 182 667 Q55 795 55 1000 Q55 1212 191 1347 Q328 1484 552 1484 Z M544 1232 Q471 1232 432 1174.5 Q393 1117 393 1008 Q393 895 432 833.5 Q471 772 544 772 Q694 772 694 1007 Q694 1232 544 1232 Z " />
<glyph glyph-name="Omega" unicode="&#x2126;" horiz-adv-x="1731" d="M57 0 L57 272 L289 272 Q98 452 98 753 Q98 968 201 1143 Q402 1487 865 1487 Q1190 1487 1391 1311 Q1528 1191 1590 1011 Q1632 889 1632 753 Q1632 452 1441 272 L1673 272 L1673 0 L993 0 L993 272 Q1096 332 1146 411 Q1214 520 1214 715 Q1214 1163 865 1163 Q516 1163 516 715 Q516 543 566 443 Q616 343 737 272 L737 0 L57 0 Z " />
<glyph glyph-name="ae" unicode="&#xe6;" horiz-adv-x="1843" d="M918 970 Q1058 1100 1256 1100 Q1500 1100 1641 943 Q1773 796 1773 535 L1773 440 L1083 440 Q1101 329 1153 289 Q1198 253 1273 253 Q1393 253 1456 363 L1748 222 Q1599 -25 1270 -25 Q983 -25 825 163 Q732 59 645 22 Q538 -25 400 -25 Q223 -25 132 74 Q59 154 59 282 Q59 541 348 612 Q490 646 700 651 L700 661 Q700 733 661 765 Q622 797 537 797 Q370 797 227 696 L73 948 Q160 1009 237 1039 Q391 1100 584 1100 Q818 1100 918 970 Z M1408 651 Q1398 747 1362 788.5 Q1326 830 1253 830 Q1180 830 1141.5 788.5 Q1103 747 1087 651 L1408 651 Z M702 440 Q590 437 541 427 Q434 403 434 325 Q434 239 536 239 Q608 239 655 278 Q702 317 702 377 L702 440 Z " />
<glyph glyph-name="oslash" unicode="&#xf8;" horiz-adv-x="1266" d="M177 175 Q63 326 63 530 Q63 782 222 940 Q383 1100 633 1100 Q817 1100 960 1008 L1020 1071 L1249 1071 L1084 895 Q1198 747 1198 540 Q1198 290 1041 134 Q882 -25 628 -25 Q442 -25 302 64 L241 0 L12 0 L177 175 Z M447 462 L749 783 Q703 826 632 826 Q442 826 442 544 Q442 505 447 462 Z M816 610 L518 294 Q563 249 631 249 Q819 249 819 542 Q819 573 816 610 Z " />
<glyph glyph-name="questiondown" unicode="&#xbf;" horiz-adv-x="1210" d="M842 575 L842 544 Q842 429 794.5 352.5 Q747 276 630 200 Q564 157 537 121 Q510 85 510 39 Q510 -18 545 -52.5 Q580 -87 637 -87 Q769 -87 828 73 L1166 -27 Q1136 -113 1104 -165 Q1072 -217 1019 -265 Q870 -398 617 -398 Q431 -398 304 -325 Q115 -216 115 10 Q115 120 165 198 Q215 276 340 362 Q432 425 459 462 Q486 499 486 563 L486 575 L842 575 Z M672 1114 Q765 1114 829 1051.5 Q893 989 893 899 Q893 809 828.5 746.5 Q764 684 670 684 Q579 684 514 747.5 Q449 811 449 899 Q449 989 514 1051.5 Q579 1114 672 1114 Z " />
<glyph glyph-name="exclamdown" unicode="&#xa1;" horiz-adv-x="797" d="M567 578 L653 53 L653 -373 L225 -373 L225 53 L314 578 L567 578 Z M438 1116 Q531 1116 596 1053.5 Q661 991 661 901 Q661 812 595.5 749 Q530 686 437 686 Q347 686 282 749.5 Q217 813 217 901 Q217 990 281.5 1053 Q346 1116 438 1116 Z " />
<glyph glyph-name="logicalnot" unicode="&#xac;" horiz-adv-x="1229" d="M679 301 L679 553 L205 553 L205 887 L998 887 L998 301 L679 301 Z " />
<glyph glyph-name="radical" unicode="&#x221a;" horiz-adv-x="1290" d="M427 0 L189 594 L-10 594 L-10 827 L460 827 L639 339 L1087 1938 L1761 1938 L1761 1672 L1362 1672 L874 0 L427 0 Z " />
<glyph glyph-name="florin" unicode="&#x192;" horiz-adv-x="983" d="M116 584 L116 856 L307 856 L337 1118 Q380 1484 709 1484 Q856 1484 975 1431 L913 1180 Q863 1204 811 1204 Q715 1204 702 1098 L673 856 L866 856 L866 584 L641 584 L573 -2 Q531 -364 211 -364 Q82 -364 -19 -317 L32 -67 Q65 -83 111 -83 Q196 -83 208 21 L274 584 L116 584 Z " />
<glyph glyph-name="approxequal" unicode="&#x2248;" horiz-adv-x="1229" d="M386 222 L122 238 Q143 405 196 498 Q283 652 440 652 Q527 652 645 583 Q717 541 753 541 Q792 541 811.5 566 Q831 591 843 656 L1107 638 Q1084 471 1032 379 Q945 226 789 226 Q702 226 584 295 Q512 337 476 337 Q436 337 416 312 Q396 287 386 222 Z M386 721 L122 738 Q143 905 196 998 Q283 1152 440 1152 Q526 1152 645 1083 Q716 1041 753 1041 Q792 1041 811.5 1066 Q831 1091 843 1156 L1107 1137 Q1084 971 1032 879 Q945 726 789 726 Q702 726 584 795 Q512 837 476 837 Q436 837 416 812 Q396 787 386 721 Z " />
<glyph glyph-name="increment" unicode="&#x2206;" horiz-adv-x="1290" d="M1384 0 L-93 0 L407 1464 L894 1464 L1384 0 Z M869 293 L622 1125 L369 293 L869 293 Z " />
<glyph glyph-name="guillemotleft" unicode="&#xab;" horiz-adv-x="1116" d="M738 70 L516 492 L738 913 L1039 913 L811 492 L1039 70 L738 70 Z M293 70 L72 492 L293 913 L594 913 L365 492 L594 70 L293 70 Z " />
<glyph glyph-name="guillemotright" unicode="&#xbb;" horiz-adv-x="1116" d="M522 70 L752 492 L522 913 L823 913 L1045 492 L823 70 L522 70 Z M78 70 L307 492 L78 913 L379 913 L600 492 L379 70 L78 70 Z " />
<glyph glyph-name="ellipsis" unicode="&#x2026;" horiz-adv-x="1935" d="M320 417 Q410 417 474.5 352 Q539 287 539 197 Q539 104 474.5 39.5 Q410 -25 318 -25 Q226 -25 161.5 39.5 Q97 104 97 196 Q97 289 161.5 353 Q226 417 320 417 Z M965 417 Q1055 417 1119.5 352.5 Q1184 288 1184 197 Q1184 104 1119.5 39.5 Q1055 -25 963 -25 Q871 -25 806.5 39.5 Q742 104 742 196 Q742 289 806.5 353 Q871 417 965 417 Z M1610 417 Q1700 417 1764.5 352 Q1829 287 1829 197 Q1829 105 1764.5 40 Q1700 -25 1608 -25 Q1516 -25 1451.5 39.5 Q1387 104 1387 196 Q1387 289 1451.5 353 Q1516 417 1610 417 Z " />
<glyph glyph-name="Agrave" unicode="&#xc0;" horiz-adv-x="1538" d="M1021 248 L463 248 L381 0 L8 0 L536 1464 L1012 1464 L1530 0 L1102 0 L1021 248 Z M932 533 L746 1105 L554 533 L932 533 Z M634 1568 L413 1935 L835 1935 L907 1568 L634 1568 Z " />
<glyph glyph-name="Atilde" unicode="&#xc3;" horiz-adv-x="1538" d="M1021 248 L463 248 L381 0 L8 0 L536 1464 L1012 1464 L1530 0 L1102 0 L1021 248 Z M932 533 L746 1105 L554 533 L932 533 Z M1156 1886 Q1143 1779 1119 1723 Q1049 1563 895 1563 Q823 1563 731 1610 Q677 1637 650 1637 Q596 1637 579 1571 L378 1583 Q392 1713 429 1784 Q495 1907 632 1907 Q700 1907 788 1862 Q843 1833 873 1833 Q900 1833 913.5 1847 Q927 1861 937 1898 L1156 1886 Z " />
<glyph glyph-name="Otilde" unicode="&#xd5;" horiz-adv-x="1616" d="M818 1487 Q1108 1487 1303 1307 Q1534 1093 1534 731 Q1534 370 1303 155 Q1109 -25 808 -25 Q508 -25 314 155 Q82 370 82 729 Q82 1095 314 1307 Q511 1487 818 1487 Z M802 1163 Q656 1163 578 1051.5 Q500 940 500 731 Q500 560 553 452 Q629 299 808 299 Q958 299 1037 409 Q1116 519 1116 729 Q1116 1163 802 1163 Z M1195 1886 Q1182 1779 1158 1723 Q1088 1563 934 1563 Q862 1563 770 1610 Q716 1637 689 1637 Q635 1637 618 1571 L417 1583 Q431 1713 468 1784 Q534 1907 671 1907 Q739 1907 827 1862 Q882 1833 912 1833 Q939 1833 952.5 1847 Q966 1861 976 1898 L1195 1886 Z " />
<glyph glyph-name="OE" unicode="&#x152;" horiz-adv-x="2290" d="M999 0 Q902 -25 797 -25 Q485 -25 290 175 Q82 388 82 727 Q82 1061 296 1279 Q501 1487 808 1487 Q898 1487 997 1464 L2175 1464 L2175 1147 L1505 1147 L1505 897 L1989 897 L1989 594 L1505 594 L1505 317 L2206 317 L2206 0 L999 0 Z M1118 676 L1118 794 Q1118 997 1015 1091 Q936 1164 811 1164 Q641 1164 562 1028 Q500 921 500 733 Q500 477 617 369 Q693 298 810 298 Q949 298 1031 390 Q1118 489 1118 676 Z " />
<glyph glyph-name="oe" unicode="&#x153;" horiz-adv-x="1970" d="M1006 133 Q863 -25 631 -25 Q377 -25 219 132 Q66 283 66 530 Q66 783 225 940 Q386 1100 635 1100 Q863 1100 1008 941 Q1153 1100 1379 1100 Q1628 1100 1769 943 Q1901 796 1901 535 L1901 440 L1196 440 Q1216 333 1270 291 Q1318 253 1397 253 Q1523 253 1586 362 L1878 221 Q1728 -25 1394 -25 Q1155 -25 1006 133 Z M634 821 Q453 821 453 543 Q453 253 634 253 Q814 253 814 542 Q814 687 770.5 754 Q727 821 634 821 Z M1536 651 Q1527 747 1490 788.5 Q1453 830 1377 830 Q1301 830 1260 788 Q1219 746 1201 651 L1536 651 Z " />
<glyph glyph-name="endash" unicode="&#x2013;" horiz-adv-x="1290" d="M158 520 L158 823 L1133 823 L1133 520 L158 520 Z " />
<glyph glyph-name="emdash" unicode="&#x2014;" horiz-adv-x="1290" d="M-82 520 L-82 823 L1372 823 L1372 520 L-82 520 Z " />
<glyph glyph-name="quotedblleft" unicode="&#x201c;" horiz-adv-x="1096" d="M989 1563 L989 1415 Q847 1390 823 1266 Q910 1258 956.5 1213.5 Q1003 1169 1003 1095 Q1003 1019 949.5 969.5 Q896 920 813 920 Q715 920 655.5 988 Q596 1056 596 1169 Q596 1331 699 1441 Q754 1501 820.5 1528.5 Q887 1556 989 1563 Z M487 1563 L487 1415 Q345 1390 321 1266 Q408 1258 454.5 1213.5 Q501 1169 501 1095 Q501 1019 447.5 969.5 Q394 920 311 920 Q213 920 153.5 988.5 Q94 1057 94 1169 Q94 1331 197 1441 Q252 1501 318 1528.5 Q384 1556 487 1563 Z " />
<glyph glyph-name="quotedblright" unicode="&#x201d;" horiz-adv-x="1096" d="M106 920 L106 1067 Q248 1092 272 1217 Q185 1225 138.5 1269 Q92 1313 92 1388 Q92 1464 145.5 1513.5 Q199 1563 282 1563 Q380 1563 439.5 1494.5 Q499 1426 499 1314 Q499 1152 396 1041 Q341 981 275 953.5 Q209 926 106 920 Z M608 920 L608 1067 Q749 1092 774 1217 Q687 1225 640.5 1269 Q594 1313 594 1388 Q594 1464 647.5 1513.5 Q701 1563 784 1563 Q882 1563 941.5 1494.5 Q1001 1426 1001 1314 Q1001 1152 898 1041 Q843 981 777 953.5 Q711 926 608 920 Z " />
<glyph glyph-name="quoteleft" unicode="&#x2018;" horiz-adv-x="594" d="M487 1563 L487 1415 Q345 1390 321 1266 Q408 1258 454.5 1213.5 Q501 1169 501 1095 Q501 1019 447.5 969.5 Q394 920 311 920 Q213 920 153.5 988.5 Q94 1057 94 1169 Q94 1331 197 1441 Q252 1501 318 1528.5 Q384 1556 487 1563 Z " />
<glyph glyph-name="quoteright" unicode="&#x2019;" horiz-adv-x="594" d="M106 920 L106 1067 Q248 1092 272 1217 Q185 1225 138.5 1269 Q92 1313 92 1388 Q92 1464 145.5 1513.5 Q199 1563 282 1563 Q380 1563 439.5 1494.5 Q499 1426 499 1314 Q499 1152 396 1041 Q341 981 275 953.5 Q209 926 106 920 Z " />
<glyph glyph-name="divide" unicode="&#xf7;" horiz-adv-x="1229" d="M110 537 L110 854 L1120 854 L1120 537 L110 537 Z M616 444 Q699 444 756.5 386 Q814 328 814 245 Q814 162 756 103.5 Q698 45 615 45 Q531 45 473 103.5 Q415 162 415 246 Q415 329 473.5 386.5 Q532 444 616 444 Z M616 1345 Q698 1345 756 1286.5 Q814 1228 814 1146 Q814 1062 756 1004 Q698 946 615 946 Q532 946 473.5 1004.5 Q415 1063 415 1146 Q415 1229 473.5 1287 Q532 1345 616 1345 Z " />
<glyph glyph-name="lozenge" unicode="&#x25ca;" horiz-adv-x="1290" d="M645 -61 L-38 732 L645 1525 L1328 732 L645 -61 Z M645 424 L910 732 L645 1040 L380 732 L645 424 Z " />
<glyph glyph-name="ydieresis" unicode="&#xff;" horiz-adv-x="1169" d="M1174 1071 L766 -4 Q691 -203 577.5 -296 Q464 -389 296 -389 Q155 -389 37 -320 L133 -64 Q195 -104 260 -104 Q363 -104 410 8 L-4 1071 L399 1071 L604 473 L805 1071 L1174 1071 Z M824 1544 Q898 1544 951.5 1491 Q1005 1438 1005 1365 Q1005 1291 951.5 1238.5 Q898 1186 823 1186 Q749 1186 698 1238 Q647 1290 647 1365 Q647 1441 698 1492.5 Q749 1544 824 1544 Z M378 1544 Q451 1544 502.5 1491.5 Q554 1439 554 1365 Q554 1291 502 1238.5 Q450 1186 377 1186 Q302 1186 249 1238.5 Q196 1291 196 1365 Q196 1439 249 1491.5 Q302 1544 378 1544 Z " />
<glyph glyph-name="Ydieresis" unicode="&#x178;" horiz-adv-x="1278" d="M445 0 L445 602 L-57 1464 L389 1464 L662 942 L930 1464 L1335 1464 L848 604 L848 0 L445 0 Z M872 1878 Q942 1878 992 1828 Q1042 1778 1042 1708 Q1042 1639 991.5 1589.5 Q941 1540 871 1540 Q801 1540 752.5 1589 Q704 1638 704 1709 Q704 1781 752 1829.5 Q800 1878 872 1878 Z M452 1878 Q521 1878 569.5 1828.5 Q618 1779 618 1708 Q618 1639 569 1589.5 Q520 1540 451 1540 Q381 1540 330.5 1589.5 Q280 1639 280 1708 Q280 1779 330 1828.5 Q380 1878 452 1878 Z " />
<glyph glyph-name="fraction" unicode="&#x2044;" horiz-adv-x="246" d="M-409 0 L379 1464 L654 1464 L-133 0 L-409 0 Z " />
<glyph glyph-name="Euro" unicode="&#x20ac;" horiz-adv-x="1290" d="M-4 784 L-4 954 L137 954 Q190 1177 316 1309 Q485 1487 755 1487 Q1036 1487 1183 1297 Q1250 1209 1293 1067 L969 966 Q942 1049 913 1092 Q855 1176 753 1176 Q670 1176 618 1123 Q566 1070 533 954 L797 954 L797 784 L509 784 Q506 758 506 724 Q506 686 510 662 L797 662 L797 492 L539 492 Q601 287 759 287 Q849 287 898.5 337 Q948 387 979 511 L1311 425 Q1264 247 1165 143 Q1007 -25 743 -25 Q446 -25 272 195 Q187 303 137 492 L-4 492 L-4 662 L114 662 Q111 687 111 728 Q111 760 114 784 L-4 784 Z " />
<glyph glyph-name="guilsinglleft" unicode="&#x2039;" horiz-adv-x="672" d="M293 70 L72 492 L293 913 L594 913 L365 492 L594 70 L293 70 Z " />
<glyph glyph-name="guilsinglright" unicode="&#x203a;" horiz-adv-x="672" d="M78 70 L307 492 L78 913 L379 913 L600 492 L379 70 L78 70 Z " />
<glyph glyph-name="fi" unicode="&#xfb01;" horiz-adv-x="1430" d="M45 786 L45 1071 L188 1071 L188 1175 Q188 1374 302 1477 Q405 1569 581 1569 Q731 1569 852 1493 L756 1233 Q711 1266 660 1266 Q617 1266 592 1237.5 Q567 1209 567 1159 L567 1071 L776 1071 L776 786 L567 786 L567 0 L188 0 L188 786 L45 786 Z M921 0 L921 1071 L1300 1071 L1300 0 L921 0 Z M1114 1567 Q1201 1567 1261 1509 Q1321 1451 1321 1365 Q1321 1280 1260.5 1221.5 Q1200 1163 1112 1163 Q1022 1163 961.5 1221.5 Q901 1280 901 1366 Q901 1452 961.5 1509.5 Q1022 1567 1114 1567 Z " />
<glyph glyph-name="fl" unicode="&#xfb02;" horiz-adv-x="1427" d="M45 786 L45 1071 L188 1071 L188 1175 Q188 1374 302 1477 Q405 1569 581 1569 Q731 1569 852 1493 L756 1233 Q711 1266 660 1266 Q617 1266 592 1237.5 Q567 1209 567 1159 L567 1071 L776 1071 L776 786 L567 786 L567 0 L188 0 L188 786 L45 786 Z M919 0 L919 1542 L1298 1542 L1298 0 L919 0 Z " />
<glyph glyph-name="daggerdbl" unicode="&#x2021;" horiz-adv-x="737" d="M66 1092 L66 1303 L240 1303 L240 1464 L498 1464 L498 1303 L672 1303 L672 1092 L498 1092 L498 989 L672 989 L672 778 L498 778 L498 621 L240 621 L240 778 L66 778 L66 989 L240 989 L240 1092 L66 1092 Z " />
<glyph glyph-name="periodcentered" unicode="&#xb7;" horiz-adv-x="645" d="M320 893 Q410 893 474.5 827.5 Q539 762 539 671 Q539 580 474.5 515.5 Q410 451 319 451 Q226 451 161.5 515 Q97 579 97 671 Q97 763 162 828 Q227 893 320 893 Z " />
<glyph glyph-name="quotesinglbase" unicode="&#x201a;" horiz-adv-x="594" d="M106 -291 L106 -143 Q248 -118 272 4 Q176 15 130 69 Q92 112 92 177 Q92 253 145.5 302.5 Q199 352 282 352 Q380 352 439.5 283.5 Q499 215 499 103 Q499 -60 396 -170 Q341 -229 275 -256.5 Q209 -284 106 -291 Z " />
<glyph glyph-name="quotedblbase" unicode="&#x201e;" horiz-adv-x="1096" d="M106 -291 L106 -143 Q248 -118 272 6 Q185 14 138.5 58.5 Q92 103 92 177 Q92 253 145.5 302.5 Q199 352 282 352 Q380 352 439.5 283.5 Q499 215 499 103 Q499 -59 396 -169 Q341 -229 275 -256.5 Q209 -284 106 -291 Z M608 -291 L608 -143 Q749 -118 774 6 Q687 14 640.5 58.5 Q594 103 594 177 Q594 253 647.5 302.5 Q701 352 784 352 Q882 352 941.5 283.5 Q1001 215 1001 103 Q1001 -59 898 -169 Q843 -229 776.5 -256.5 Q710 -284 608 -291 Z " />
<glyph glyph-name="perthousand" unicode="&#x2030;" horiz-adv-x="3146" d="M1686 854 Q1872 854 1991 736 Q2111 617 2111 424 Q2111 217 1986 93 Q1869 -23 1679 -23 Q1491 -23 1378 89 Q1257 210 1257 414 Q1257 610 1380 735 Q1497 854 1686 854 Z M1679 610 Q1560 610 1560 419 Q1560 225 1680 225 Q1808 225 1808 419 Q1808 610 1679 610 Z M2629 854 Q2814 854 2932 736 Q3051 617 3051 423 Q3051 216 2926 92 Q2810 -23 2620 -23 Q2432 -23 2320 89 Q2199 210 2199 414 Q2199 610 2322 735 Q2439 854 2629 854 Z M2621 610 Q2502 610 2502 419 Q2502 225 2622 225 Q2748 225 2748 418 Q2748 610 2621 610 Z M519 1480 Q703 1480 822 1361 Q942 1242 942 1050 Q942 843 817 720 Q700 604 510 604 Q324 604 212 716 Q90 837 90 1043 Q90 1238 212 1361 Q329 1480 519 1480 Z M510 1238 Q393 1238 393 1047 Q393 852 512 852 Q637 852 637 1045 Q637 1238 510 1238 Z M549 0 L1374 1464 L1649 1464 L823 0 L549 0 Z " />
<glyph glyph-name="Acircumflex" unicode="&#xc2;" horiz-adv-x="1538" d="M1021 248 L463 248 L381 0 L8 0 L536 1464 L1012 1464 L1530 0 L1102 0 L1021 248 Z M932 533 L746 1105 L554 533 L932 533 Z M400 1579 L633 1935 L910 1935 L1143 1579 L881 1579 L767 1696 L658 1579 L400 1579 Z " />
<glyph glyph-name="Ecircumflex" unicode="&#xca;" horiz-adv-x="1341" d="M152 0 L152 1464 L1223 1464 L1223 1147 L547 1147 L547 897 L1039 897 L1039 594 L547 594 L547 317 L1254 317 L1254 0 L152 0 Z M333 1579 L566 1935 L843 1935 L1076 1579 L814 1579 L700 1696 L591 1579 L333 1579 Z " />
<glyph glyph-name="Aacute" unicode="&#xc1;" horiz-adv-x="1538" d="M1021 248 L463 248 L381 0 L8 0 L536 1464 L1012 1464 L1530 0 L1102 0 L1021 248 Z M932 533 L746 1105 L554 533 L932 533 Z M619 1568 L691 1935 L1113 1935 L891 1568 L619 1568 Z " />
<glyph glyph-name="Edieresis" unicode="&#xcb;" horiz-adv-x="1341" d="M152 0 L152 1464 L1223 1464 L1223 1147 L547 1147 L547 897 L1039 897 L1039 594 L547 594 L547 317 L1254 317 L1254 0 L152 0 Z M908 1878 Q978 1878 1028 1828 Q1078 1778 1078 1708 Q1078 1639 1027.5 1589.5 Q977 1540 907 1540 Q837 1540 788.5 1589 Q740 1638 740 1709 Q740 1781 788 1829.5 Q836 1878 908 1878 Z M488 1878 Q557 1878 605.5 1828.5 Q654 1779 654 1708 Q654 1639 605 1589.5 Q556 1540 487 1540 Q417 1540 366.5 1589.5 Q316 1639 316 1708 Q316 1779 366 1828.5 Q416 1878 488 1878 Z " />
<glyph glyph-name="Egrave" unicode="&#xc8;" horiz-adv-x="1341" d="M152 0 L152 1464 L1223 1464 L1223 1147 L547 1147 L547 897 L1039 897 L1039 594 L547 594 L547 317 L1254 317 L1254 0 L152 0 Z M566 1568 L345 1935 L767 1935 L839 1568 L566 1568 Z " />
<glyph glyph-name="Iacute" unicode="&#xcd;" horiz-adv-x="739" d="M168 0 L168 1464 L571 1464 L571 0 L168 0 Z M220 1568 L292 1935 L714 1935 L492 1568 L220 1568 Z " />
<glyph glyph-name="Icircumflex" unicode="&#xce;" horiz-adv-x="739" d="M168 0 L168 1464 L571 1464 L571 0 L168 0 Z M1 1579 L234 1935 L511 1935 L744 1579 L482 1579 L368 1696 L259 1579 L1 1579 Z " />
<glyph glyph-name="Idieresis" unicode="&#xcf;" horiz-adv-x="739" d="M168 0 L168 1464 L571 1464 L571 0 L168 0 Z M577 1878 Q647 1878 697 1828 Q747 1778 747 1708 Q747 1639 696.5 1589.5 Q646 1540 576 1540 Q506 1540 457.5 1589 Q409 1638 409 1709 Q409 1781 457 1829.5 Q505 1878 577 1878 Z M157 1878 Q226 1878 274.5 1828.5 Q323 1779 323 1708 Q323 1639 274 1589.5 Q225 1540 156 1540 Q86 1540 35.5 1589.5 Q-15 1639 -15 1708 Q-15 1779 35 1828.5 Q85 1878 157 1878 Z " />
<glyph glyph-name="Igrave" unicode="&#xcc;" horiz-adv-x="739" d="M168 0 L168 1464 L571 1464 L571 0 L168 0 Z M234 1568 L13 1935 L435 1935 L507 1568 L234 1568 Z " />
<glyph glyph-name="Oacute" unicode="&#xd3;" horiz-adv-x="1616" d="M818 1487 Q1108 1487 1303 1307 Q1534 1093 1534 731 Q1534 370 1303 155 Q1109 -25 808 -25 Q508 -25 314 155 Q82 370 82 729 Q82 1095 314 1307 Q511 1487 818 1487 Z M802 1163 Q656 1163 578 1051.5 Q500 940 500 731 Q500 560 553 452 Q629 299 808 299 Q958 299 1037 409 Q1116 519 1116 729 Q1116 1163 802 1163 Z M659 1568 L731 1935 L1153 1935 L931 1568 L659 1568 Z " />
<glyph glyph-name="Ocircumflex" unicode="&#xd4;" horiz-adv-x="1616" d="M818 1487 Q1108 1487 1303 1307 Q1534 1093 1534 731 Q1534 370 1303 155 Q1109 -25 808 -25 Q508 -25 314 155 Q82 370 82 729 Q82 1095 314 1307 Q511 1487 818 1487 Z M802 1163 Q656 1163 578 1051.5 Q500 940 500 731 Q500 560 553 452 Q629 299 808 299 Q958 299 1037 409 Q1116 519 1116 729 Q1116 1163 802 1163 Z M439 1579 L672 1935 L949 1935 L1182 1579 L920 1579 L806 1696 L697 1579 L439 1579 Z " />
<glyph glyph-name="Ograve" unicode="&#xd2;" horiz-adv-x="1616" d="M818 1487 Q1108 1487 1303 1307 Q1534 1093 1534 731 Q1534 370 1303 155 Q1109 -25 808 -25 Q508 -25 314 155 Q82 370 82 729 Q82 1095 314 1307 Q511 1487 818 1487 Z M802 1163 Q656 1163 578 1051.5 Q500 940 500 731 Q500 560 553 452 Q629 299 808 299 Q958 299 1037 409 Q1116 519 1116 729 Q1116 1163 802 1163 Z M673 1568 L452 1935 L874 1935 L946 1568 L673 1568 Z " />
<glyph glyph-name="Uacute" unicode="&#xda;" horiz-adv-x="1550" d="M1409 1464 L1409 600 Q1409 352 1305 202 Q1149 -25 782 -25 Q450 -25 286 155 Q141 313 141 598 L141 1464 L544 1464 L544 614 Q544 449 601 374 Q658 299 784 299 Q910 299 968 375.5 Q1026 452 1026 618 L1026 1464 L1409 1464 Z M641 1568 L713 1935 L1135 1935 L913 1568 L641 1568 Z " />
<glyph glyph-name="Ucircumflex" unicode="&#xdb;" horiz-adv-x="1550" d="M1409 1464 L1409 600 Q1409 352 1305 202 Q1149 -25 782 -25 Q450 -25 286 155 Q141 313 141 598 L141 1464 L544 1464 L544 614 Q544 449 601 374 Q658 299 784 299 Q910 299 968 375.5 Q1026 452 1026 618 L1026 1464 L1409 1464 Z M406 1579 L639 1935 L916 1935 L1149 1579 L887 1579 L773 1696 L664 1579 L406 1579 Z " />
<glyph glyph-name="Ugrave" unicode="&#xd9;" horiz-adv-x="1550" d="M1409 1464 L1409 600 Q1409 352 1305 202 Q1149 -25 782 -25 Q450 -25 286 155 Q141 313 141 598 L141 1464 L544 1464 L544 614 Q544 449 601 374 Q658 299 784 299 Q910 299 968 375.5 Q1026 452 1026 618 L1026 1464 L1409 1464 Z M649 1568 L428 1935 L850 1935 L922 1568 L649 1568 Z " />
<glyph glyph-name="dotlessi" unicode="&#x131;" horiz-adv-x="637" d="M129 0 L129 1071 L508 1071 L508 0 L129 0 Z " />
<glyph glyph-name="circumflex" unicode="&#x2c6;" horiz-adv-x="1024" d="M140 1186 L373 1542 L650 1542 L883 1186 L621 1186 L507 1303 L398 1186 L140 1186 Z " />
<glyph glyph-name="tilde" unicode="&#x2dc;" horiz-adv-x="1024" d="M901 1509 Q888 1401 864 1345 Q794 1185 640 1185 Q568 1185 476 1232 Q422 1260 393 1260 Q341 1260 324 1194 L123 1206 Q137 1336 174 1407 Q240 1530 377 1530 Q445 1530 533 1484 Q588 1455 619 1455 Q645 1455 658.5 1469 Q672 1483 682 1521 L901 1509 Z " />
<glyph glyph-name="overscore" unicode="&#xaf;" horiz-adv-x="1024" d="M239 1237 L239 1491 L786 1491 L786 1237 L239 1237 Z " />
<glyph glyph-name="breve" unicode="&#x2d8;" horiz-adv-x="1024" d="M153 1530 L393 1530 Q406 1419 513 1419 Q620 1419 633 1530 L872 1530 Q862 1379 800 1301 Q708 1186 513 1186 Q299 1186 209 1323 Q162 1396 153 1530 Z " />
<glyph glyph-name="dotaccent" unicode="&#x2d9;" horiz-adv-x="1024" d="M513 1555 Q591 1555 646.5 1499.5 Q702 1444 702 1367 Q702 1288 646 1232 Q590 1176 512 1176 Q434 1176 378.5 1232 Q323 1288 323 1366 Q323 1445 378.5 1500 Q434 1555 513 1555 Z " />
<glyph glyph-name="ring" unicode="&#x2da;" horiz-adv-x="1024" d="M513 1609 Q614 1609 683 1543.5 Q752 1478 752 1382 Q752 1285 683 1220 Q614 1155 511 1155 Q408 1155 339.5 1219.5 Q271 1284 271 1382 Q271 1479 340 1544 Q409 1609 513 1609 Z M510 1466 Q476 1466 454.5 1442.5 Q433 1419 433 1383 Q433 1346 455 1322 Q477 1298 510 1298 Q545 1298 567.5 1322 Q590 1346 590 1383 Q590 1419 567.5 1442.5 Q545 1466 510 1466 Z " />
<glyph glyph-name="cedilla" unicode="&#xb8;" horiz-adv-x="1024" d="M546 -102 Q570 -100 583 -100 Q656 -100 702.5 -149 Q749 -198 749 -274 Q749 -365 688 -416 Q627 -467 518 -467 Q351 -467 278 -340 L428 -283 Q455 -324 502 -324 Q569 -324 569 -268 Q569 -211 508 -211 Q467 -211 444 -246 L348 -178 L477 0 L628 0 L546 -102 Z " />
<glyph glyph-name="hungarumlaut" unicode="&#x2dd;" horiz-adv-x="1024" d="M132 1175 L181 1542 L546 1542 L396 1175 L132 1175 Z M572 1175 L619 1542 L984 1542 L834 1175 L572 1175 Z " />
<glyph glyph-name="ogonek" unicode="&#x2db;" horiz-adv-x="1024" d="M728 -346 Q680 -385 638 -399.5 Q596 -414 530 -414 Q424 -414 362 -363 Q300 -312 300 -226 Q300 -162 340 -102 Q380 -42 452 0 L626 0 Q507 -96 507 -195 Q507 -252 566 -252 Q597 -252 638 -219 L728 -346 Z " />
<glyph glyph-name="caron" unicode="&#x2c7;" horiz-adv-x="1024" d="M373 1186 L140 1542 L402 1542 L515 1423 L625 1542 L883 1542 L650 1186 L373 1186 Z " />
<glyph glyph-name="nbspace" unicode="&#xa0;" horiz-adv-x="471" d="" />
<glyph glyph-name="currency" unicode="&#xa4;" horiz-adv-x="1290" d="M-4 784 L-4 954 L137 954 Q190 1177 316 1309 Q485 1487 755 1487 Q1036 1487 1183 1297 Q1250 1209 1293 1067 L969 966 Q942 1049 913 1092 Q855 1176 753 1176 Q670 1176 618 1123 Q566 1070 533 954 L797 954 L797 784 L509 784 Q506 758 506 724 Q506 686 510 662 L797 662 L797 492 L539 492 Q601 287 759 287 Q849 287 898.5 337 Q948 387 979 511 L1311 425 Q1264 247 1165 143 Q1007 -25 743 -25 Q446 -25 272 195 Q187 303 137 492 L-4 492 L-4 662 L114 662 Q111 687 111 728 Q111 760 114 784 L-4 784 Z " />
<glyph glyph-name="brokenbar" unicode="&#xa6;" horiz-adv-x="604" d="M154 0 L154 588 L447 588 L447 0 L154 0 Z M154 877 L154 1464 L447 1464 L447 877 L154 877 Z " />
<glyph glyph-name="uni00AD" unicode="&#xad;" horiz-adv-x="645" d="M59 500 L59 844 L585 844 L585 500 L59 500 Z " />
<glyph glyph-name="twosuperior" unicode="&#xb2;" horiz-adv-x="1007" d="M109 861 L109 1097 Q321 1192 426 1272 Q549 1366 549 1462 Q549 1538 482 1538 Q423 1538 400 1442 L98 1516 Q121 1597 153 1645 Q185 1693 241 1732 Q344 1804 510 1804 Q721 1804 827 1690 Q905 1605 905 1480 Q905 1359 824 1265.5 Q743 1172 587 1115 L905 1115 L905 861 L109 861 Z " />
<glyph glyph-name="threesuperior" unicode="&#xb3;" horiz-adv-x="1007" d="M752 1345 Q926 1294 926 1133 Q926 998 814.5 920 Q703 842 510 842 Q288 842 173 940 Q132 975 109.5 1014 Q87 1053 70 1119 L358 1186 Q373 1131 401 1108 Q429 1085 481 1085 Q570 1085 570 1160 Q570 1227 484 1227 L412 1227 L412 1428 L484 1428 Q585 1428 585 1495 Q585 1561 495 1561 Q444 1561 415 1540 Q386 1519 367 1469 L97 1538 Q134 1641 199 1700 Q312 1804 519 1804 Q681 1804 785 1745 Q912 1674 912 1537 Q912 1401 752 1345 Z " />
<glyph glyph-name="onesuperior" unicode="&#xb9;" horiz-adv-x="1007" d="M185 860 L185 1092 L347 1092 L347 1405 Q281 1384 180 1380 L180 1610 Q354 1634 388 1788 L698 1788 L698 1092 L840 1092 L840 860 L185 860 Z " />
<glyph glyph-name="onequarter" unicode="&#xbc;" horiz-adv-x="2077" d="M168 620 L168 831 L316 831 L316 1116 Q254 1097 164 1093 L164 1302 Q322 1325 353 1464 L635 1464 L635 831 L764 831 L764 620 L168 620 Z M507 0 L1295 1464 L1570 1464 L783 0 L507 0 Z M1535 0 L1535 133 L1135 133 L1135 352 L1525 840 L1850 840 L1850 336 L1959 336 L1959 133 L1850 133 L1850 0 L1535 0 Z M1551 570 L1367 330 L1551 330 L1551 570 Z " />
<glyph glyph-name="onehalf" unicode="&#xbd;" horiz-adv-x="2077" d="M144 620 L144 831 L292 831 L292 1116 Q230 1097 140 1093 L140 1302 Q298 1325 329 1464 L611 1464 L611 831 L740 831 L740 620 L144 620 Z M483 0 L1271 1464 L1546 1464 L759 0 L483 0 Z M1236 0 L1236 215 Q1447 310 1541 388 Q1635 466 1635 547 Q1635 616 1575 616 Q1522 616 1500 528 L1226 596 Q1265 729 1356 792 Q1450 858 1600 858 Q1793 858 1888 754 Q1959 677 1959 563 Q1959 453 1886 368.5 Q1813 284 1670 231 L1959 231 L1959 0 L1236 0 Z " />
<glyph glyph-name="threequarters" unicode="&#xbe;" horiz-adv-x="2077" d="M684 1061 Q842 1015 842 868 Q842 746 741 675 Q640 604 464 604 Q291 604 194.5 665 Q98 726 64 856 L326 917 Q340 867 365 846 Q390 825 437 825 Q518 825 518 893 Q518 954 441 954 L375 954 L375 1136 L441 1136 Q533 1136 533 1197 Q533 1257 451 1257 Q365 1257 334 1173 L88 1237 Q123 1331 181 1384 Q284 1478 473 1478 Q620 1478 715 1425 Q830 1360 830 1235 Q830 1112 684 1061 Z M507 0 L1296 1464 L1570 1464 L784 0 L507 0 Z M1529 0 L1529 133 L1130 133 L1130 352 L1519 840 L1844 840 L1844 336 L1953 336 L1953 133 L1844 133 L1844 0 L1529 0 Z M1545 570 L1361 330 L1545 330 L1545 570 Z " />
<glyph glyph-name="Eth" unicode="&#xd0;" horiz-adv-x="1561" d="M152 581 L37 581 L37 874 L152 874 L152 1464 L727 1464 Q1106 1464 1305 1239 Q1475 1045 1475 740 Q1475 385 1254 181 Q1059 0 717 0 L152 0 L152 581 Z M555 581 L555 315 L734 315 Q882 315 964 410 Q1057 516 1057 732 Q1057 970 945 1074 Q864 1149 729 1149 L555 1149 L555 874 L791 874 L791 581 L555 581 Z " />
<glyph glyph-name="multiply" unicode="&#xd7;" horiz-adv-x="1229" d="M305 193 L99 397 L412 710 L99 1024 L305 1228 L614 915 L923 1228 L1129 1023 L819 710 L1129 397 L923 193 L614 506 L305 193 Z " />
<glyph glyph-name="Yacute" unicode="&#xdd;" horiz-adv-x="1278" d="M445 0 L445 602 L-57 1464 L389 1464 L662 942 L930 1464 L1335 1464 L848 604 L848 0 L445 0 Z M538 1568 L610 1935 L1032 1935 L810 1568 L538 1568 Z " />
<glyph glyph-name="Thorn" unicode="&#xde;" horiz-adv-x="1423" d="M152 0 L152 1464 L555 1464 L555 1239 L809 1239 Q1098 1239 1244 1079 Q1360 953 1360 746 Q1360 522 1217 396 Q1075 270 829 270 L555 270 L555 0 L152 0 Z M555 563 L774 563 Q973 563 973 752 Q973 936 776 936 L555 936 L555 563 Z " />
<glyph glyph-name="eth" unicode="&#xf0;" horiz-adv-x="1268" d="M422 1079 L308 1227 L422 1315 Q368 1353 324 1382 L310 1390 L459 1618 Q562 1571 672 1507 L805 1610 L920 1462 L832 1395 Q927 1313 981.5 1249.5 Q1036 1186 1082 1102 Q1199 889 1199 610 Q1199 270 1020 107 Q876 -25 632 -25 Q373 -25 218 129 Q66 280 66 528 Q66 766 207 906 Q334 1032 521 1032 Q657 1032 758 952 Q686 1083 572 1194 L422 1079 Z M631 780 Q545 780 499 712.5 Q453 645 453 519 Q453 254 631 254 Q812 254 812 517 Q812 780 631 780 Z " />
<glyph glyph-name="yacute" unicode="&#xfd;" horiz-adv-x="1169" d="M1174 1071 L766 -4 Q691 -203 577.5 -296 Q464 -389 296 -389 Q155 -389 37 -320 L133 -64 Q195 -104 260 -104 Q363 -104 410 8 L-4 1071 L399 1071 L604 473 L805 1071 L1174 1071 Z M472 1175 L544 1542 L966 1542 L744 1175 L472 1175 Z " />
<glyph glyph-name="thorn" unicode="&#xfe;" horiz-adv-x="1307" d="M119 -373 L119 1542 L498 1542 L498 915 Q610 1100 808 1100 Q1010 1100 1129 934 Q1237 783 1237 536 Q1237 228 1075 77 Q965 -25 807 -25 Q594 -25 498 154 L498 -373 L119 -373 Z M668 815 Q581 815 533.5 743 Q486 671 486 539 Q486 409 533 339.5 Q580 270 668 270 Q850 270 850 540 Q850 815 668 815 Z " />
<glyph glyph-name="Amacron" unicode="&#x100;" horiz-adv-x="1538" d="M1021 248 L463 248 L381 0 L8 0 L536 1464 L1012 1464 L1530 0 L1102 0 L1021 248 Z M932 533 L746 1105 L554 533 L932 533 Z M488 1614 L488 1868 L1035 1868 L1035 1614 L488 1614 Z " />
<glyph glyph-name="amacron" unicode="&#x101;" horiz-adv-x="1178" d="M703 133 Q597 -25 395 -25 Q223 -25 132 74 Q59 154 59 283 Q59 542 341 612 Q480 646 684 651 L684 662 Q684 733 649 765 Q614 797 536 797 Q372 797 227 696 L74 948 Q160 1008 238 1039 Q392 1100 592 1100 Q878 1100 990 953 Q1065 855 1065 665 L1065 201 Q1065 91 1096 12 L1096 0 L731 0 Q713 51 703 133 Z M686 440 Q581 437 535 427 Q434 404 434 327 Q434 286 460.5 263 Q487 240 534 240 Q601 240 643.5 278.5 Q686 317 686 377 L686 440 Z M315 1237 L315 1491 L862 1491 L862 1237 L315 1237 Z " />
<glyph glyph-name="Abreve" unicode="&#x102;" horiz-adv-x="1538" d="M1021 248 L463 248 L381 0 L8 0 L536 1464 L1012 1464 L1530 0 L1102 0 L1021 248 Z M932 533 L746 1105 L554 533 L932 533 Z M1095 1882 Q1081 1774 1040 1710 Q946 1567 747 1567 Q585 1567 492 1662 Q450 1705 430 1753 Q410 1801 400 1882 L640 1882 Q657 1800 747 1800 Q837 1800 855 1882 L1095 1882 Z " />
<glyph glyph-name="abreve" unicode="&#x103;" horiz-adv-x="1178" d="M703 133 Q597 -25 395 -25 Q223 -25 132 74 Q59 154 59 283 Q59 542 341 612 Q480 646 684 651 L684 662 Q684 733 649 765 Q614 797 536 797 Q372 797 227 696 L74 948 Q160 1008 238 1039 Q392 1100 592 1100 Q878 1100 990 953 Q1065 855 1065 665 L1065 201 Q1065 91 1096 12 L1096 0 L731 0 Q713 51 703 133 Z M686 440 Q581 437 535 427 Q434 404 434 327 Q434 286 460.5 263 Q487 240 534 240 Q601 240 643.5 278.5 Q686 317 686 377 L686 440 Z M936 1513 Q922 1405 881 1341 Q787 1198 588 1198 Q426 1198 333 1293 Q291 1336 271 1384 Q251 1432 241 1513 L481 1513 Q499 1431 588 1431 Q678 1431 696 1513 L936 1513 Z " />
<glyph glyph-name="Aogonek" unicode="&#x104;" horiz-adv-x="1538" d="M1522 22 Q1366 -69 1366 -194 Q1366 -252 1425 -252 Q1455 -252 1496 -219 L1586 -346 Q1539 -385 1496.5 -399.5 Q1454 -414 1389 -414 Q1283 -414 1221 -363 Q1159 -312 1159 -226 Q1159 -162 1199 -102 Q1239 -42 1310 0 L1102 0 L1021 248 L463 248 L381 0 L8 0 L536 1464 L1012 1464 L1522 22 Z M932 533 L746 1105 L554 533 L932 533 Z " />
<glyph glyph-name="aogonek" unicode="&#x105;" horiz-adv-x="1178" d="M1071 -219 L1161 -346 Q1113 -385 1071 -399.5 Q1029 -414 963 -414 Q857 -414 795 -363 Q733 -312 733 -226 Q733 -162 773.5 -102 Q814 -42 885 0 L731 0 Q713 51 703 133 Q597 -25 395 -25 Q223 -25 132 74 Q59 154 59 283 Q59 542 341 612 Q480 646 684 651 L684 662 Q684 733 649 765 Q614 797 536 797 Q372 797 227 696 L74 948 Q160 1008 238 1039 Q392 1100 592 1100 Q878 1100 990 953 Q1065 855 1065 665 L1065 201 Q1065 100 1094 16 Q1023 -21 981.5 -77.5 Q940 -134 940 -195 Q940 -252 999 -252 Q1030 -252 1071 -219 Z M686 440 Q581 437 535 427 Q434 404 434 327 Q434 286 460.5 263 Q487 240 534 240 Q601 240 643.5 278.5 Q686 317 686 377 L686 440 Z " />
<glyph glyph-name="Cacute" unicode="&#x106;" horiz-adv-x="1503" d="M1446 393 Q1402 291 1352.5 225.5 Q1303 160 1228 105 Q1053 -25 805 -25 Q459 -25 263 194 Q82 397 82 726 Q82 1073 297 1288 Q496 1487 800 1487 Q1082 1487 1257 1329 Q1352 1244 1428 1083 L1071 934 Q1031 1034 986 1083 Q913 1163 794 1163 Q637 1163 563 1034 Q500 924 500 731 Q500 541 562 432 Q638 299 802 299 Q906 299 972 356 Q1038 413 1086 543 L1446 393 Z M631 1568 L703 1935 L1125 1935 L903 1568 L631 1568 Z " />
<glyph glyph-name="cacute" unicode="&#x107;" horiz-adv-x="1145" d="M1108 279 Q967 -25 620 -25 Q349 -25 199 145 Q70 290 70 527 Q70 788 226 945 Q379 1100 620 1100 Q789 1100 907.5 1024 Q1026 948 1100 792 L783 657 Q751 752 720.5 783.5 Q690 815 630 815 Q457 815 457 541 Q457 260 637 260 Q756 260 807 418 L1108 279 Z M454 1175 L526 1542 L948 1542 L726 1175 L454 1175 Z " />
<glyph glyph-name="Ccircumflex" unicode="&#x108;" horiz-adv-x="1503" d="M1446 393 Q1402 291 1352.5 225.5 Q1303 160 1228 105 Q1053 -25 805 -25 Q459 -25 263 194 Q82 397 82 726 Q82 1073 297 1288 Q496 1487 800 1487 Q1082 1487 1257 1329 Q1352 1244 1428 1083 L1071 934 Q1031 1034 986 1083 Q913 1163 794 1163 Q637 1163 563 1034 Q500 924 500 731 Q500 541 562 432 Q638 299 802 299 Q906 299 972 356 Q1038 413 1086 543 L1446 393 Z M413 1579 L646 1935 L923 1935 L1156 1579 L894 1579 L780 1696 L671 1579 L413 1579 Z " />
<glyph glyph-name="ccircumflex" unicode="&#x109;" horiz-adv-x="1145" d="M1108 279 Q967 -25 620 -25 Q349 -25 199 145 Q70 290 70 527 Q70 788 226 945 Q379 1100 620 1100 Q789 1100 907.5 1024 Q1026 948 1100 792 L783 657 Q751 752 720.5 783.5 Q690 815 630 815 Q457 815 457 541 Q457 260 637 260 Q756 260 807 418 L1108 279 Z M247 1186 L480 1542 L757 1542 L990 1186 L728 1186 L614 1303 L505 1186 L247 1186 Z " />
<glyph glyph-name="Cdotaccent" unicode="&#x10a;" horiz-adv-x="1503" d="M1446 393 Q1402 291 1352.5 225.5 Q1303 160 1228 105 Q1053 -25 805 -25 Q459 -25 263 194 Q82 397 82 726 Q82 1073 297 1288 Q496 1487 800 1487 Q1082 1487 1257 1329 Q1352 1244 1428 1083 L1071 934 Q1031 1034 986 1083 Q913 1163 794 1163 Q637 1163 563 1034 Q500 924 500 731 Q500 541 562 432 Q638 299 802 299 Q906 299 972 356 Q1038 413 1086 543 L1446 393 Z M788 1913 Q866 1913 921.5 1857.5 Q977 1802 977 1725 Q977 1646 921 1590 Q865 1534 787 1534 Q709 1534 653.5 1590 Q598 1646 598 1724 Q598 1803 653.5 1858 Q709 1913 788 1913 Z " />
<glyph glyph-name="cdotaccent" unicode="&#x10b;" horiz-adv-x="1145" d="M1108 279 Q967 -25 620 -25 Q349 -25 199 145 Q70 290 70 527 Q70 788 226 945 Q379 1100 620 1100 Q789 1100 907.5 1024 Q1026 948 1100 792 L783 657 Q751 752 720.5 783.5 Q690 815 630 815 Q457 815 457 541 Q457 260 637 260 Q756 260 807 418 L1108 279 Z M631 1555 Q709 1555 764.5 1499.5 Q820 1444 820 1367 Q820 1288 764 1232 Q708 1176 630 1176 Q552 1176 496.5 1232 Q441 1288 441 1366 Q441 1445 496.5 1500 Q552 1555 631 1555 Z " />
<glyph glyph-name="Ccaron" unicode="&#x10c;" horiz-adv-x="1503" d="M1446 393 Q1402 291 1352.5 225.5 Q1303 160 1228 105 Q1053 -25 805 -25 Q459 -25 263 194 Q82 397 82 726 Q82 1073 297 1288 Q496 1487 800 1487 Q1082 1487 1257 1329 Q1352 1244 1428 1083 L1071 934 Q1031 1034 986 1083 Q913 1163 794 1163 Q637 1163 563 1034 Q500 924 500 731 Q500 541 562 432 Q638 299 802 299 Q906 299 972 356 Q1038 413 1086 543 L1446 393 Z M636 1579 L403 1935 L665 1935 L778 1816 L888 1935 L1146 1935 L913 1579 L636 1579 Z " />
<glyph glyph-name="ccaron" unicode="&#x10d;" horiz-adv-x="1145" d="M1108 279 Q967 -25 620 -25 Q349 -25 199 145 Q70 290 70 527 Q70 788 226 945 Q379 1100 620 1100 Q789 1100 907.5 1024 Q1026 948 1100 792 L783 657 Q751 752 720.5 783.5 Q690 815 630 815 Q457 815 457 541 Q457 260 637 260 Q756 260 807 418 L1108 279 Z M459 1186 L226 1542 L488 1542 L601 1423 L711 1542 L969 1542 L736 1186 L459 1186 Z " />
<glyph glyph-name="Dcaron" unicode="&#x10e;" horiz-adv-x="1556" d="M152 0 L152 1464 L727 1464 Q1106 1464 1305 1239 Q1475 1045 1475 740 Q1475 385 1254 181 Q1059 0 717 0 L152 0 Z M555 315 L733 315 Q882 315 964 410 Q1057 516 1057 733 Q1057 970 945 1074 Q864 1149 729 1149 L555 1149 L555 315 Z M577 1579 L344 1935 L606 1935 L719 1816 L829 1935 L1087 1935 L854 1579 L577 1579 Z " />
<glyph glyph-name="dcaron" unicode="&#x10f;" horiz-adv-x="1614" d="M807 170 Q710 -25 497 -25 Q316 -25 201 108 Q70 259 70 537 Q70 800 191 953 Q308 1100 502 1100 Q710 1100 807 921 L807 1542 L1186 1542 L1186 0 L807 0 L807 170 Z M633 815 Q457 815 457 539 Q457 260 635 260 Q819 260 819 536 Q819 815 633 815 Z M1305 1048 L1305 1177 Q1426 1196 1440 1268 Q1293 1285 1293 1412 Q1293 1475 1337 1515.5 Q1381 1556 1449 1556 Q1532 1556 1581.5 1500.5 Q1631 1445 1631 1352 Q1631 1214 1540 1131 Q1495 1090 1444 1072 Q1393 1054 1305 1048 Z " />
<glyph glyph-name="Dcroat" unicode="&#x110;" horiz-adv-x="1561" d="M152 581 L37 581 L37 874 L152 874 L152 1464 L727 1464 Q1106 1464 1305 1239 Q1475 1045 1475 740 Q1475 385 1254 181 Q1059 0 717 0 L152 0 L152 581 Z M555 581 L555 315 L734 315 Q882 315 964 410 Q1057 516 1057 732 Q1057 970 945 1074 Q864 1149 729 1149 L555 1149 L555 874 L791 874 L791 581 L555 581 Z " />
<glyph glyph-name="dcroat" unicode="&#x111;" horiz-adv-x="1305" d="M1186 1168 L1186 0 L807 0 L807 170 Q710 -25 497 -25 Q316 -25 201 108 Q70 259 70 537 Q70 800 191 953 Q308 1100 502 1100 Q710 1100 807 921 L807 1168 L594 1168 L594 1389 L807 1389 L807 1542 L1186 1542 L1186 1389 L1301 1389 L1301 1168 L1186 1168 Z M633 815 Q457 815 457 539 Q457 260 635 260 Q819 260 819 536 Q819 815 633 815 Z " />
<glyph glyph-name="Emacron" unicode="&#x112;" horiz-adv-x="1341" d="M152 0 L152 1464 L1223 1464 L1223 1147 L547 1147 L547 897 L1039 897 L1039 594 L547 594 L547 317 L1254 317 L1254 0 L152 0 Z M421 1614 L421 1868 L968 1868 L968 1614 L421 1614 Z " />
<glyph glyph-name="emacron" unicode="&#x113;" horiz-adv-x="1227" d="M1132 221 Q983 -25 647 -25 Q383 -25 221 137 Q70 287 70 530 Q70 785 231 944 Q388 1100 633 1100 Q883 1100 1025 943 Q1157 797 1157 535 L1157 440 L452 440 Q472 334 526 291 Q574 253 651 253 Q776 253 842 362 L1132 221 Z M792 651 Q783 745 745 787.5 Q707 830 631 830 Q555 830 515 788.5 Q475 747 457 651 L792 651 Z M349 1237 L349 1491 L896 1491 L896 1237 L349 1237 Z " />
<glyph glyph-name="Ebreve" unicode="&#x114;" horiz-adv-x="1341" d="M152 0 L152 1464 L1223 1464 L1223 1147 L547 1147 L547 897 L1039 897 L1039 594 L547 594 L547 317 L1254 317 L1254 0 L152 0 Z M1045 1882 Q1032 1774 990 1710 Q897 1567 697 1567 Q536 1567 443 1662 Q401 1705 381 1753 Q361 1801 351 1882 L591 1882 Q608 1800 697 1800 Q787 1800 806 1882 L1045 1882 Z " />
<glyph glyph-name="ebreve" unicode="&#x115;" horiz-adv-x="1227" d="M1132 221 Q983 -25 647 -25 Q383 -25 221 137 Q70 287 70 530 Q70 785 231 944 Q388 1100 633 1100 Q883 1100 1025 943 Q1157 797 1157 535 L1157 440 L452 440 Q472 334 526 291 Q574 253 651 253 Q776 253 842 362 L1132 221 Z M792 651 Q783 745 745 787.5 Q707 830 631 830 Q555 830 515 788.5 Q475 747 457 651 L792 651 Z M254 1530 L494 1530 Q507 1419 614 1419 Q721 1419 734 1530 L973 1530 Q963 1379 901 1301 Q809 1186 614 1186 Q400 1186 310 1323 Q263 1396 254 1530 Z " />
<glyph glyph-name="Edotaccent" unicode="&#x116;" horiz-adv-x="1341" d="M152 0 L152 1464 L1223 1464 L1223 1147 L547 1147 L547 897 L1039 897 L1039 594 L547 594 L547 317 L1254 317 L1254 0 L152 0 Z M706 1913 Q784 1913 839.5 1857.5 Q895 1802 895 1725 Q895 1646 839 1590 Q783 1534 705 1534 Q627 1534 571.5 1590 Q516 1646 516 1724 Q516 1803 571.5 1858 Q627 1913 706 1913 Z " />
<glyph glyph-name="edotaccent" unicode="&#x117;" horiz-adv-x="1227" d="M1132 221 Q983 -25 647 -25 Q383 -25 221 137 Q70 287 70 530 Q70 785 231 944 Q388 1100 633 1100 Q883 1100 1025 943 Q1157 797 1157 535 L1157 440 L452 440 Q472 334 526 291 Q574 253 651 253 Q776 253 842 362 L1132 221 Z M792 651 Q783 745 745 787.5 Q707 830 631 830 Q555 830 515 788.5 Q475 747 457 651 L792 651 Z M623 1555 Q701 1555 756.5 1499.5 Q812 1444 812 1367 Q812 1288 756 1232 Q700 1176 622 1176 Q544 1176 488.5 1232 Q433 1288 433 1366 Q433 1445 488.5 1500 Q544 1555 623 1555 Z " />
<glyph glyph-name="Eogonek" unicode="&#x118;" horiz-adv-x="1341" d="M1220 -219 L1311 -346 Q1263 -385 1220.5 -399.5 Q1178 -414 1113 -414 Q1007 -414 945 -363 Q883 -312 883 -226 Q883 -162 923.5 -102 Q964 -42 1034 0 L152 0 L152 1464 L1223 1464 L1223 1147 L547 1147 L547 897 L1039 897 L1039 594 L547 594 L547 317 L1254 317 L1254 24 Q1177 -13 1133.5 -71 Q1090 -129 1090 -194 Q1090 -252 1149 -252 Q1179 -252 1220 -219 Z " />
<glyph glyph-name="eogonek" unicode="&#x119;" horiz-adv-x="1227" d="M799 -9 L799 -9 Q691 -99 691 -195 Q691 -252 750 -252 Q781 -252 822 -219 L912 -346 Q865 -385 822.5 -399.5 Q780 -414 714 -414 Q608 -414 546 -363 Q484 -312 484 -226 Q484 -118 600 -23 Q400 -11 262 100 Q70 254 70 530 Q70 785 231 944 Q388 1100 633 1100 Q883 1100 1025 943 Q1157 797 1157 535 L1157 440 L452 440 Q472 334 526 291 Q574 254 651 254 Q776 254 842 362 L1132 221 Q1022 41 799 -9 Z M792 651 Q783 745 745 787.5 Q707 830 631 830 Q555 830 515 788.5 Q475 747 457 651 L792 651 Z " />
<glyph glyph-name="Ecaron" unicode="&#x11a;" horiz-adv-x="1341" d="M152 0 L152 1464 L1223 1464 L1223 1147 L547 1147 L547 897 L1039 897 L1039 594 L547 594 L547 317 L1254 317 L1254 0 L152 0 Z M557 1579 L324 1935 L586 1935 L699 1816 L809 1935 L1067 1935 L834 1579 L557 1579 Z " />
<glyph glyph-name="ecaron" unicode="&#x11b;" horiz-adv-x="1227" d="M1132 221 Q983 -25 647 -25 Q383 -25 221 137 Q70 287 70 530 Q70 785 231 944 Q388 1100 633 1100 Q883 1100 1025 943 Q1157 797 1157 535 L1157 440 L452 440 Q472 334 526 291 Q574 253 651 253 Q776 253 842 362 L1132 221 Z M792 651 Q783 745 745 787.5 Q707 830 631 830 Q555 830 515 788.5 Q475 747 457 651 L792 651 Z M491 1186 L258 1542 L520 1542 L633 1423 L743 1542 L1001 1542 L768 1186 L491 1186 Z " />
<glyph glyph-name="Gcircumflex" unicode="&#x11c;" horiz-adv-x="1632" d="M1215 192 Q1056 -25 773 -25 Q481 -25 293 162 Q82 371 82 726 Q82 1069 293 1282 Q497 1487 815 1487 Q1100 1487 1281 1328 Q1374 1247 1440 1106 L1071 956 Q1039 1042 998 1087 Q927 1163 805 1163 Q642 1163 566 1030 Q500 915 500 723 Q500 536 565 425 Q646 286 826 286 Q953 286 1030.5 353 Q1108 420 1108 530 L1108 536 L844 536 L844 821 L1499 821 L1499 0 L1288 0 L1215 192 Z M448 1579 L681 1935 L958 1935 L1191 1579 L929 1579 L815 1696 L706 1579 L448 1579 Z " />
<glyph glyph-name="gcircumflex" unicode="&#x11d;" horiz-adv-x="1214" d="M895 1018 L1167 1093 L1167 827 L1048 827 Q1063 784 1063 733 Q1063 550 902 457 Q777 386 586 386 Q504 386 417 403 Q405 380 405 353 Q405 284 508 284 L743 284 Q972 284 1075 177 Q1149 100 1149 -26 Q1149 -231 974 -331 Q826 -416 571 -416 Q353 -416 224 -362 Q57 -293 57 -146 Q57 -6 245 59 Q120 131 120 247 Q120 379 264 462 Q102 565 102 735 Q102 903 245 1005 Q379 1100 582 1100 Q760 1100 895 1018 Z M439 14 Q383 -28 383 -85 Q383 -141 429.5 -166 Q476 -191 578 -191 Q815 -191 815 -75 Q815 10 675 10 L520 10 Q497 10 439 14 Z M585 885 Q520 885 483 845 Q446 805 446 735 Q446 665 483.5 624 Q521 583 585 583 Q652 583 689.5 623.5 Q727 664 727 736 Q727 807 690 846 Q653 885 585 885 Z M223 1186 L456 1542 L733 1542 L966 1186 L704 1186 L590 1303 L481 1186 L223 1186 Z " />
<glyph glyph-name="Gbreve" unicode="&#x11e;" horiz-adv-x="1632" d="M1215 192 Q1056 -25 773 -25 Q481 -25 293 162 Q82 371 82 726 Q82 1069 293 1282 Q497 1487 815 1487 Q1100 1487 1281 1328 Q1374 1247 1440 1106 L1071 956 Q1039 1042 998 1087 Q927 1163 805 1163 Q642 1163 566 1030 Q500 915 500 723 Q500 536 565 425 Q646 286 826 286 Q953 286 1030.5 353 Q1108 420 1108 530 L1108 536 L844 536 L844 821 L1499 821 L1499 0 L1288 0 L1215 192 Z M1142 1882 Q1128 1774 1087 1710 Q994 1567 794 1567 Q633 1567 539 1662 Q498 1705 478 1753 Q458 1801 448 1882 L687 1882 Q705 1800 794 1800 Q884 1800 902 1882 L1142 1882 Z " />
<glyph glyph-name="gbreve" unicode="&#x11f;" horiz-adv-x="1214" d="M895 1018 L1167 1093 L1167 827 L1048 827 Q1063 784 1063 733 Q1063 550 902 457 Q777 386 586 386 Q504 386 417 403 Q405 380 405 353 Q405 284 508 284 L743 284 Q972 284 1075 177 Q1149 100 1149 -26 Q1149 -231 974 -331 Q826 -416 571 -416 Q353 -416 224 -362 Q57 -293 57 -146 Q57 -6 245 59 Q120 131 120 247 Q120 379 264 462 Q102 565 102 735 Q102 903 245 1005 Q379 1100 582 1100 Q760 1100 895 1018 Z M439 14 Q383 -28 383 -85 Q383 -141 429.5 -166 Q476 -191 578 -191 Q815 -191 815 -75 Q815 10 675 10 L520 10 Q497 10 439 14 Z M585 885 Q520 885 483 845 Q446 805 446 735 Q446 665 483.5 624 Q521 583 585 583 Q652 583 689.5 623.5 Q727 664 727 736 Q727 807 690 846 Q653 885 585 885 Z M945 1513 Q932 1405 890 1341 Q797 1198 597 1198 Q436 1198 343 1293 Q301 1336 281 1384 Q261 1432 251 1513 L490 1513 Q508 1431 597 1431 Q687 1431 706 1513 L945 1513 Z " />
<glyph glyph-name="Gdotaccent" unicode="&#x120;" horiz-adv-x="1632" d="M1215 192 Q1056 -25 773 -25 Q481 -25 293 162 Q82 371 82 726 Q82 1069 293 1282 Q497 1487 815 1487 Q1100 1487 1281 1328 Q1374 1247 1440 1106 L1071 956 Q1039 1042 998 1087 Q927 1163 805 1163 Q642 1163 566 1030 Q500 915 500 723 Q500 536 565 425 Q646 286 826 286 Q953 286 1030.5 353 Q1108 420 1108 530 L1108 536 L844 536 L844 821 L1499 821 L1499 0 L1288 0 L1215 192 Z M812 1913 Q890 1913 945.5 1857.5 Q1001 1802 1001 1725 Q1001 1646 945 1590 Q889 1534 811 1534 Q733 1534 677.5 1590 Q622 1646 622 1724 Q622 1803 677.5 1858 Q733 1913 812 1913 Z " />
<glyph glyph-name="gdotaccent" unicode="&#x121;" horiz-adv-x="1214" d="M895 1018 L1167 1093 L1167 827 L1048 827 Q1063 784 1063 733 Q1063 550 902 457 Q777 386 586 386 Q504 386 417 403 Q405 380 405 353 Q405 284 508 284 L743 284 Q972 284 1075 177 Q1149 100 1149 -26 Q1149 -231 974 -331 Q826 -416 571 -416 Q353 -416 224 -362 Q57 -293 57 -146 Q57 -6 245 59 Q120 131 120 247 Q120 379 264 462 Q102 565 102 735 Q102 903 245 1005 Q379 1100 582 1100 Q760 1100 895 1018 Z M439 14 Q383 -28 383 -85 Q383 -141 429.5 -166 Q476 -191 578 -191 Q815 -191 815 -75 Q815 10 675 10 L520 10 Q497 10 439 14 Z M585 885 Q520 885 483 845 Q446 805 446 735 Q446 665 483.5 624 Q521 583 585 583 Q652 583 689.5 623.5 Q727 664 727 736 Q727 807 690 846 Q653 885 585 885 Z M596 1555 Q674 1555 729.5 1499.5 Q785 1444 785 1367 Q785 1288 729 1232 Q673 1176 595 1176 Q517 1176 461.5 1232 Q406 1288 406 1366 Q406 1445 461.5 1500 Q517 1555 596 1555 Z " />
<glyph glyph-name="Gcommaaccent" unicode="&#x122;" horiz-adv-x="1632" d="M1215 192 Q1056 -25 773 -25 Q481 -25 293 162 Q82 371 82 726 Q82 1069 293 1282 Q497 1487 815 1487 Q1100 1487 1281 1328 Q1374 1247 1440 1106 L1071 956 Q1039 1042 998 1087 Q927 1163 805 1163 Q642 1163 566 1030 Q500 915 500 723 Q500 536 565 425 Q646 286 826 286 Q953 286 1030.5 353 Q1108 420 1108 530 L1108 536 L844 536 L844 821 L1499 821 L1499 0 L1288 0 L1215 192 Z M672 -584 L672 -455 Q793 -436 807 -365 Q660 -346 660 -220 Q660 -157 704 -116.5 Q748 -76 816 -76 Q899 -76 948.5 -131.5 Q998 -187 998 -280 Q998 -418 907 -501 Q863 -542 811.5 -560 Q760 -578 672 -584 Z " />
<glyph glyph-name="gcommaaccent" unicode="&#x123;" horiz-adv-x="1214" d="M895 1018 L1167 1093 L1167 827 L1048 827 Q1063 784 1063 733 Q1063 550 902 457 Q777 386 586 386 Q504 386 417 403 Q405 380 405 353 Q405 284 508 284 L743 284 Q972 284 1075 177 Q1149 100 1149 -26 Q1149 -231 974 -331 Q826 -416 571 -416 Q353 -416 224 -362 Q57 -293 57 -146 Q57 -6 245 59 Q120 131 120 247 Q120 379 264 462 Q102 565 102 735 Q102 903 245 1005 Q379 1100 582 1100 Q760 1100 895 1018 Z M439 14 Q383 -28 383 -85 Q383 -141 429.5 -166 Q476 -191 578 -191 Q815 -191 815 -75 Q815 10 675 10 L520 10 Q497 10 439 14 Z M585 885 Q520 885 483 845 Q446 805 446 735 Q446 665 483.5 624 Q521 583 585 583 Q652 583 689.5 623.5 Q727 664 727 736 Q727 807 690 846 Q653 885 585 885 Z M745 1679 L745 1550 Q623 1531 610 1460 Q757 1441 757 1315 Q757 1252 713 1211.5 Q669 1171 600 1171 Q518 1171 468.5 1226.5 Q419 1282 419 1375 Q419 1514 510 1597 Q554 1638 605.5 1656 Q657 1674 745 1679 Z " />
<glyph glyph-name="Hcircumflex" unicode="&#x124;" horiz-adv-x="1579" d="M152 0 L152 1464 L555 1464 L555 903 L1025 903 L1025 1464 L1428 1464 L1428 0 L1025 0 L1025 579 L555 579 L555 0 L152 0 Z M421 1579 L654 1935 L931 1935 L1164 1579 L902 1579 L788 1696 L679 1579 L421 1579 Z " />
<glyph glyph-name="hcircumflex" unicode="&#x125;" horiz-adv-x="1278" d="M118 0 L118 1542 L497 1542 L497 901 Q608 1100 833 1100 Q986 1100 1074 1001 Q1165 897 1165 704 L1165 0 L786 0 L786 647 Q786 813 652 813 Q497 813 497 625 L497 0 L118 0 Z M-26 1657 L207 2013 L484 2013 L717 1657 L455 1657 L341 1774 L232 1657 L-26 1657 Z " />
<glyph glyph-name="Hbar" unicode="&#x126;" horiz-adv-x="1579" d="M23 1063 L23 1266 L152 1266 L152 1464 L555 1464 L555 1266 L1022 1266 L1022 1464 L1428 1464 L1428 1266 L1557 1266 L1557 1063 L1428 1063 L1428 0 L1022 0 L1022 581 L555 581 L555 0 L152 0 L152 1063 L23 1063 Z M555 903 L1022 903 L1022 1063 L555 1063 L555 903 Z " />
<glyph glyph-name="hbar" unicode="&#x127;" horiz-adv-x="1278" d="M498 1168 L498 901 Q610 1100 833 1100 Q986 1100 1074 1001 Q1165 897 1165 704 L1165 0 L786 0 L786 647 Q786 813 653 813 Q498 813 498 625 L498 0 L119 0 L119 1168 L4 1168 L4 1389 L119 1389 L119 1542 L498 1542 L498 1389 L711 1389 L711 1168 L498 1168 Z " />
<glyph glyph-name="Itilde" unicode="&#x128;" horiz-adv-x="739" d="M167 0 L167 1464 L570 1464 L570 0 L167 0 Z M758 1886 Q745 1779 721 1723 Q651 1563 497 1563 Q425 1563 333 1610 Q279 1637 252 1637 Q198 1637 181 1571 L-20 1583 Q-6 1713 31 1784 Q97 1907 234 1907 Q302 1907 390 1862 Q445 1833 475 1833 Q502 1833 515.5 1847 Q529 1861 539 1898 L758 1886 Z " />
<glyph glyph-name="itilde" unicode="&#x129;" horiz-adv-x="637" d="M129 0 L129 1071 L508 1071 L508 0 L129 0 Z M707 1509 Q694 1401 670 1345 Q600 1185 446 1185 Q374 1185 282 1232 Q228 1260 199 1260 Q147 1260 130 1194 L-71 1206 Q-57 1336 -20 1407 Q46 1530 183 1530 Q251 1530 339 1484 Q394 1455 425 1455 Q451 1455 464.5 1469 Q478 1483 488 1521 L707 1509 Z " />
<glyph glyph-name="Imacron" unicode="&#x12a;" horiz-adv-x="739" d="M168 0 L168 1464 L571 1464 L571 0 L168 0 Z M89 1614 L89 1868 L636 1868 L636 1614 L89 1614 Z " />
<glyph glyph-name="imacron" unicode="&#x12b;" horiz-adv-x="637" d="M129 0 L129 1071 L508 1071 L508 0 L129 0 Z M45 1237 L45 1491 L592 1491 L592 1237 L45 1237 Z " />
<glyph glyph-name="Ibreve" unicode="&#x12c;" horiz-adv-x="739" d="M168 0 L168 1464 L571 1464 L571 0 L168 0 Z M-1 1898 L239 1898 Q251 1787 358 1787 Q466 1787 478 1898 L718 1898 Q708 1747 646 1669 Q554 1554 358 1554 Q145 1554 55 1691 Q8 1764 -1 1898 Z " />
<glyph glyph-name="ibreve" unicode="&#x12d;" horiz-adv-x="637" d="M129 0 L129 1071 L508 1071 L508 0 L129 0 Z M665 1513 Q652 1405 610 1341 Q517 1198 317 1198 Q156 1198 63 1293 Q21 1336 1 1384 Q-19 1432 -29 1513 L211 1513 Q228 1431 317 1431 Q407 1431 426 1513 L665 1513 Z " />
<glyph glyph-name="Iogonek" unicode="&#x12e;" horiz-adv-x="739" d="M571 22 Q416 -66 416 -194 Q416 -252 475 -252 Q505 -252 546 -219 L637 -346 Q589 -385 546.5 -399.5 Q504 -414 439 -414 Q333 -414 271 -363 Q209 -312 209 -226 Q209 -162 249 -102 Q289 -42 360 0 L168 0 L168 1464 L571 1464 L571 22 Z " />
<glyph glyph-name="iogonek" unicode="&#x12f;" horiz-adv-x="637" d="M476 -219 L566 -346 Q518 -385 476 -399.5 Q434 -414 368 -414 Q262 -414 200 -363 Q138 -312 138 -226 Q138 -162 178 -102 Q218 -42 290 0 L129 0 L129 1071 L508 1071 L508 25 Q433 -15 389 -74.5 Q345 -134 345 -195 Q345 -252 404 -252 Q435 -252 476 -219 Z M322 1567 Q409 1567 469 1509 Q529 1451 529 1365 Q529 1280 468.5 1221.5 Q408 1163 320 1163 Q230 1163 169.5 1221.5 Q109 1280 109 1366 Q109 1452 169.5 1509.5 Q230 1567 322 1567 Z " />
<glyph glyph-name="Idot" unicode="&#x130;" horiz-adv-x="739" d="M168 0 L168 1464 L571 1464 L571 0 L168 0 Z M365 1913 Q443 1913 498.5 1857.5 Q554 1802 554 1725 Q554 1646 498 1590 Q442 1534 364 1534 Q286 1534 230.5 1590 Q175 1646 175 1724 Q175 1803 230.5 1858 Q286 1913 365 1913 Z " />
<glyph glyph-name="IJ" unicode="&#x132;" horiz-adv-x="1901" d="M119 0 L119 1464 L522 1464 L522 0 L119 0 Z M1760 1464 L1760 541 Q1760 -25 1217 -25 Q929 -25 783 136 Q661 270 661 495 L661 561 L1050 561 L1050 516 Q1050 299 1202 299 Q1288 299 1322.5 356 Q1357 413 1357 553 L1357 1464 L1760 1464 Z " />
<glyph glyph-name="ij" unicode="&#x133;" horiz-adv-x="1182" d="M129 0 L129 1071 L508 1071 L508 0 L129 0 Z M322 1567 Q409 1567 469 1509 Q529 1451 529 1365 Q529 1280 468.5 1221.5 Q408 1163 320 1163 Q230 1163 169.5 1221.5 Q109 1280 109 1366 Q109 1452 169.5 1509.5 Q230 1567 322 1567 Z M1058 1071 L1058 -4 Q1058 -192 967 -291.5 Q876 -391 703 -391 Q562 -391 462 -332 L529 -70 Q568 -88 599 -88 Q636 -88 657.5 -65.5 Q679 -43 679 -4 L679 1071 L1058 1071 Z M871 1567 Q959 1567 1018.5 1509 Q1078 1451 1078 1365 Q1078 1280 1018 1221.5 Q958 1163 870 1163 Q780 1163 719.5 1221.5 Q659 1280 659 1366 Q659 1452 719.5 1509.5 Q780 1567 871 1567 Z " />
<glyph glyph-name="Jcircumflex" unicode="&#x134;" horiz-adv-x="1337" d="M1196 1464 L1196 541 Q1196 -25 653 -25 Q365 -25 219 136 Q97 270 97 495 L97 561 L486 561 L486 516 Q486 299 638 299 Q724 299 758.5 356 Q793 413 793 553 L793 1464 L1196 1464 Z M626 1579 L859 1935 L1136 1935 L1369 1579 L1107 1579 L993 1696 L884 1579 L626 1579 Z " />
<glyph glyph-name="jcircumflex" unicode="&#x135;" horiz-adv-x="649" d="M520 1071 L520 -4 Q520 -192 429 -291.5 Q338 -391 165 -391 Q24 -391 -76 -332 L-9 -70 Q30 -88 61 -88 Q98 -88 119.5 -65.5 Q141 -43 141 -4 L141 1071 L520 1071 Z M-49 1186 L184 1542 L461 1542 L694 1186 L432 1186 L318 1303 L209 1186 L-49 1186 Z " />
<glyph glyph-name="Kcommaaccent" unicode="&#x136;" horiz-adv-x="1499" d="M152 0 L152 1464 L555 1464 L555 897 L981 1464 L1421 1464 L934 840 L1462 0 L1016 0 L670 538 L555 395 L555 0 L152 0 Z M618 -584 L618 -455 Q739 -436 753 -365 Q606 -346 606 -220 Q606 -157 650 -116.5 Q694 -76 762 -76 Q845 -76 894.5 -131.5 Q944 -187 944 -280 Q944 -418 853 -501 Q809 -542 757.5 -560 Q706 -578 618 -584 Z " />
<glyph glyph-name="kcommaaccent" unicode="&#x137;" horiz-adv-x="1245" d="M801 0 L582 389 L498 293 L498 0 L119 0 L119 1542 L498 1542 L498 704 L787 1071 L1190 1071 L838 653 L1219 0 L801 0 Z M489 -584 L489 -455 Q610 -436 624 -365 Q477 -346 477 -220 Q477 -157 521 -116.5 Q565 -76 633 -76 Q716 -76 765.5 -131.5 Q815 -187 815 -280 Q815 -418 724 -501 Q680 -542 628.5 -560 Q577 -578 489 -584 Z " />
<glyph glyph-name="kgreenlandic" unicode="&#x138;" horiz-adv-x="1499" d="M111 0 L111 1069 L487 1069 L487 760 L737 1069 L1162 1069 L773 605 L1183 0 L760 0 L526 338 L487 293 L487 0 L111 0 Z " />
<glyph glyph-name="Lacute" unicode="&#x139;" horiz-adv-x="1212" d="M152 0 L152 1464 L555 1464 L555 324 L1160 324 L1160 0 L152 0 Z M210 1568 L282 1935 L704 1935 L482 1568 L210 1568 Z " />
<glyph glyph-name="lacute" unicode="&#x13a;" horiz-adv-x="637" d="M129 0 L129 1542 L508 1542 L508 0 L129 0 Z M169 1646 L241 2013 L663 2013 L441 1646 L169 1646 Z " />
<glyph glyph-name="Lcommaaccent" unicode="&#x13b;" horiz-adv-x="1212" d="M152 0 L152 1464 L555 1464 L555 324 L1160 324 L1160 0 L152 0 Z M493 -584 L493 -455 Q614 -436 628 -365 Q481 -346 481 -220 Q481 -157 525 -116.5 Q569 -76 637 -76 Q720 -76 769.5 -131.5 Q819 -187 819 -280 Q819 -418 728 -501 Q684 -542 632.5 -560 Q581 -578 493 -584 Z " />
<glyph glyph-name="lcommaaccent" unicode="&#x13c;" horiz-adv-x="637" d="M129 0 L129 1542 L508 1542 L508 0 L129 0 Z M161 -584 L161 -455 Q282 -436 296 -365 Q149 -346 149 -220 Q149 -157 193 -116.5 Q237 -76 305 -76 Q388 -76 437.5 -131.5 Q487 -187 487 -280 Q487 -418 396 -501 Q352 -542 300.5 -560 Q249 -578 161 -584 Z " />
<glyph glyph-name="Lcaron" unicode="&#x13d;" horiz-adv-x="1237" d="M152 0 L152 1464 L555 1464 L555 324 L1160 324 L1160 0 L152 0 Z M832 983 L832 1112 Q953 1130 967 1202 Q820 1220 820 1347 Q820 1410 864 1450.5 Q908 1491 976 1491 Q1059 1491 1108.5 1435.5 Q1158 1380 1158 1287 Q1158 1148 1067 1065 Q1022 1024 971 1006 Q920 988 832 983 Z " />
<glyph glyph-name="lcaron" unicode="&#x13e;" horiz-adv-x="936" d="M129 0 L129 1542 L508 1542 L508 0 L129 0 Z M629 1048 L629 1177 Q750 1196 764 1268 Q617 1285 617 1412 Q617 1475 661 1515.5 Q705 1556 773 1556 Q856 1556 905.5 1500.5 Q955 1445 955 1352 Q955 1214 864 1131 Q819 1090 768 1072 Q717 1054 629 1048 Z " />
<glyph glyph-name="Ldot" unicode="&#x13f;" horiz-adv-x="1212" d="M152 0 L152 1464 L555 1464 L555 324 L1160 324 L1160 0 L152 0 Z M945 893 Q1035 893 1099.5 827.5 Q1164 762 1164 671 Q1164 580 1099.5 515.5 Q1035 451 944 451 Q851 451 786.5 515 Q722 579 722 671 Q722 763 787 828 Q852 893 945 893 Z " />
<glyph glyph-name="ldot" unicode="&#x140;" horiz-adv-x="812" d="M129 0 L129 1542 L508 1542 L508 0 L129 0 Z M905 893 Q995 893 1059.5 827.5 Q1124 762 1124 671 Q1124 580 1059.5 515.5 Q995 451 904 451 Q811 451 746.5 515 Q682 579 682 671 Q682 763 747 828 Q812 893 905 893 Z " />
<glyph glyph-name="Lslash" unicode="&#x141;" horiz-adv-x="1260" d="M35 457 L35 737 L172 782 L172 1464 L575 1464 L575 918 L912 1033 L912 751 L575 639 L575 324 L1182 324 L1182 0 L172 0 L172 502 L35 457 Z " />
<glyph glyph-name="lslash" unicode="&#x142;" horiz-adv-x="721" d="M550 710 L550 0 L171 0 L171 521 L39 455 L39 756 L171 821 L171 1542 L550 1542 L550 1010 L682 1079 L682 776 L550 710 Z " />
<glyph glyph-name="Nacute" unicode="&#x143;" horiz-adv-x="1581" d="M152 0 L152 1464 L590 1464 L1068 606 L1068 1464 L1430 1464 L1430 0 L1019 0 L514 903 L514 0 L152 0 Z M684 1568 L756 1935 L1178 1935 L956 1568 L684 1568 Z " />
<glyph glyph-name="nacute" unicode="&#x144;" horiz-adv-x="1276" d="M119 0 L119 1071 L498 1071 L498 901 Q609 1100 833 1100 Q985 1100 1072 1002 Q1163 899 1163 704 L1163 0 L784 0 L784 643 Q784 809 652 809 Q498 809 498 621 L498 0 L119 0 Z M492 1175 L564 1542 L986 1542 L764 1175 L492 1175 Z " />
<glyph glyph-name="Ncommaaccent" unicode="&#x145;" horiz-adv-x="1581" d="M152 0 L152 1464 L590 1464 L1068 606 L1068 1464 L1430 1464 L1430 0 L1019 0 L514 903 L514 0 L152 0 Z M629 -584 L629 -455 Q750 -436 764 -365 Q617 -346 617 -220 Q617 -157 661 -116.5 Q705 -76 773 -76 Q856 -76 905.5 -131.5 Q955 -187 955 -280 Q955 -418 864 -501 Q820 -542 768.5 -560 Q717 -578 629 -584 Z " />
<glyph glyph-name="ncommaaccent" unicode="&#x146;" horiz-adv-x="1276" d="M119 0 L119 1071 L498 1071 L498 901 Q609 1100 833 1100 Q985 1100 1072 1002 Q1163 899 1163 704 L1163 0 L784 0 L784 643 Q784 809 652 809 Q498 809 498 621 L498 0 L119 0 Z M499 -584 L499 -455 Q620 -436 634 -365 Q487 -346 487 -220 Q487 -157 531 -116.5 Q575 -76 643 -76 Q726 -76 775.5 -131.5 Q825 -187 825 -280 Q825 -418 734 -501 Q690 -542 638.5 -560 Q587 -578 499 -584 Z " />
<glyph glyph-name="Ncaron" unicode="&#x147;" horiz-adv-x="1581" d="M152 0 L152 1464 L590 1464 L1068 606 L1068 1464 L1430 1464 L1430 0 L1019 0 L514 903 L514 0 L152 0 Z M692 1579 L459 1935 L721 1935 L834 1816 L944 1935 L1202 1935 L969 1579 L692 1579 Z " />
<glyph glyph-name="ncaron" unicode="&#x148;" horiz-adv-x="1276" d="M119 0 L119 1071 L498 1071 L498 901 Q609 1100 833 1100 Q985 1100 1072 1002 Q1163 899 1163 704 L1163 0 L784 0 L784 643 Q784 809 652 809 Q498 809 498 621 L498 0 L119 0 Z M497 1186 L264 1542 L526 1542 L639 1423 L749 1542 L1007 1542 L774 1186 L497 1186 Z " />
<glyph glyph-name="napostrophe" unicode="&#x149;" horiz-adv-x="1264" d="M119 0 L119 1071 L498 1071 L498 901 Q610 1100 835 1100 Q986 1100 1073 1002 Q1164 899 1164 704 L1164 0 L785 0 L785 643 Q785 809 653 809 Q498 809 498 621 L498 0 L119 0 Z M-322 920 L-322 1067 Q-180 1092 -156 1217 Q-243 1225 -289.5 1269 Q-336 1313 -336 1388 Q-336 1464 -282.5 1513.5 Q-229 1563 -146 1563 Q-48 1563 11.5 1494.5 Q71 1426 71 1314 Q71 1152 -32 1041 Q-87 981 -153 953.5 Q-219 926 -322 920 Z " />
<glyph glyph-name="Eng" unicode="&#x14a;" horiz-adv-x="1283" d="M497 1232 Q615 1503 866 1503 Q965 1503 1030 1465 Q1227 1351 1227 963 L1227 0 Q1227 -97 1180 -206.5 Q1133 -316 1067 -374 Q926 -497 659 -497 Q624 -497 589 -494 L589 -164 Q616 -174 650 -174 Q747 -174 786 -117 Q825 -60 825 80 L825 879 Q825 1001 789.5 1053.5 Q754 1106 673 1106 Q497 1106 497 849 L497 0 L95 0 L95 1464 L497 1464 L497 1232 Z " />
<glyph glyph-name="eng" unicode="&#x14b;" horiz-adv-x="1276" d="M498 901 Q610 1100 833 1100 Q985 1100 1072 1002 Q1163 899 1163 704 L1163 15 Q1163 -254 1012 -396 Q880 -520 621 -520 Q581 -520 556 -518 L556 -187 Q577 -196 616 -196 Q710 -196 745 -137 Q784 -71 784 29 L784 643 Q784 809 653 809 Q498 809 498 621 L498 0 L119 0 L119 1071 L498 1071 L498 901 Z " />
<glyph glyph-name="Omacron" unicode="&#x14c;" horiz-adv-x="1616" d="M818 1487 Q1108 1487 1303 1307 Q1534 1093 1534 731 Q1534 370 1303 155 Q1109 -25 808 -25 Q508 -25 314 155 Q82 370 82 729 Q82 1095 314 1307 Q511 1487 818 1487 Z M802 1163 Q656 1163 578 1051.5 Q500 940 500 731 Q500 560 553 452 Q629 299 808 299 Q958 299 1037 409 Q1116 519 1116 729 Q1116 1163 802 1163 Z M528 1614 L528 1868 L1075 1868 L1075 1614 L528 1614 Z " />
<glyph glyph-name="omacron" unicode="&#x14d;" horiz-adv-x="1274" d="M646 1100 Q763 1100 868.5 1058.5 Q974 1017 1050 942 Q1205 788 1205 540 Q1205 290 1048 134 Q888 -25 636 -25 Q381 -25 223 132 Q70 283 70 529 Q70 780 229 940 Q388 1100 646 1100 Z M637 815 Q457 815 457 542 Q457 260 638 260 Q818 260 818 542 Q818 683 774.5 749 Q731 815 637 815 Z M364 1237 L364 1491 L911 1491 L911 1237 L364 1237 Z " />
<glyph glyph-name="Obreve" unicode="&#x14e;" horiz-adv-x="1616" d="M818 1487 Q1108 1487 1303 1307 Q1534 1093 1534 731 Q1534 370 1303 155 Q1109 -25 808 -25 Q508 -25 314 155 Q82 370 82 729 Q82 1095 314 1307 Q511 1487 818 1487 Z M802 1163 Q656 1163 578 1051.5 Q500 940 500 731 Q500 560 553 452 Q629 299 808 299 Q958 299 1037 409 Q1116 519 1116 729 Q1116 1163 802 1163 Z M462 1898 L702 1898 Q714 1787 821 1787 Q929 1787 941 1898 L1181 1898 Q1171 1747 1109 1669 Q1017 1554 821 1554 Q608 1554 518 1691 Q471 1764 462 1898 Z " />
<glyph glyph-name="obreve" unicode="&#x14f;" horiz-adv-x="1274" d="M646 1100 Q763 1100 868.5 1058.5 Q974 1017 1050 942 Q1205 788 1205 540 Q1205 290 1048 134 Q888 -25 636 -25 Q381 -25 223 132 Q70 283 70 529 Q70 780 229 940 Q388 1100 646 1100 Z M637 815 Q457 815 457 542 Q457 260 638 260 Q818 260 818 542 Q818 683 774.5 749 Q731 815 637 815 Z M278 1530 L518 1530 Q531 1419 638 1419 Q745 1419 758 1530 L997 1530 Q987 1379 925 1301 Q833 1186 638 1186 Q424 1186 334 1323 Q287 1396 278 1530 Z " />
<glyph glyph-name="Ohungarumlaut" unicode="&#x150;" horiz-adv-x="1616" d="M818 1487 Q1108 1487 1303 1307 Q1534 1093 1534 731 Q1534 370 1303 155 Q1109 -25 808 -25 Q508 -25 314 155 Q82 370 82 729 Q82 1095 314 1307 Q511 1487 818 1487 Z M802 1163 Q656 1163 578 1051.5 Q500 940 500 731 Q500 560 553 452 Q629 299 808 299 Q958 299 1037 409 Q1116 519 1116 729 Q1116 1163 802 1163 Z M450 1568 L499 1935 L864 1935 L714 1568 L450 1568 Z M890 1568 L937 1935 L1302 1935 L1152 1568 L890 1568 Z " />
<glyph glyph-name="ohungarumlaut" unicode="&#x151;" horiz-adv-x="1274" d="M646 1100 Q763 1100 868.5 1058.5 Q974 1017 1050 942 Q1205 788 1205 540 Q1205 290 1048 134 Q888 -25 636 -25 Q381 -25 223 132 Q70 283 70 529 Q70 780 229 940 Q388 1100 646 1100 Z M637 815 Q457 815 457 542 Q457 260 638 260 Q818 260 818 542 Q818 683 774.5 749 Q731 815 637 815 Z M288 1175 L337 1542 L702 1542 L552 1175 L288 1175 Z M728 1175 L775 1542 L1140 1542 L990 1175 L728 1175 Z " />
<glyph glyph-name="Racute" unicode="&#x154;" horiz-adv-x="1501" d="M152 0 L152 1464 L834 1464 Q1095 1464 1238 1337 Q1362 1226 1362 1036 Q1362 886 1301 798 Q1240 710 1104 663 Q1198 634 1243 582 Q1276 545 1293.5 497 Q1311 449 1345 304 Q1402 62 1442 8 L1442 0 L1028 0 Q976 95 934 289 Q904 426 872 467 Q830 520 741 520 L555 520 L555 0 L152 0 Z M555 809 L782 809 Q975 809 975 984 Q975 1076 922 1119 Q896 1141 862 1149 Q828 1157 764 1157 L555 1157 L555 809 Z M565 1568 L637 1935 L1059 1935 L837 1568 L565 1568 Z " />
<glyph glyph-name="racute" unicode="&#x155;" horiz-adv-x="915" d="M119 0 L119 1071 L498 1071 L498 887 Q596 1094 769 1094 Q853 1094 914 1050 L834 704 Q771 744 702 744 Q608 744 553 681.5 Q498 619 498 514 L498 0 L119 0 Z M354 1175 L426 1542 L848 1542 L626 1175 L354 1175 Z " />
<glyph glyph-name="Rcommaaccent" unicode="&#x156;" horiz-adv-x="1501" d="M152 0 L152 1464 L834 1464 Q1095 1464 1238 1337 Q1362 1226 1362 1036 Q1362 886 1301 798 Q1240 710 1104 663 Q1198 634 1243 582 Q1276 545 1293.5 497 Q1311 449 1345 304 Q1402 62 1442 8 L1442 0 L1028 0 Q976 95 934 289 Q904 426 872 467 Q830 520 741 520 L555 520 L555 0 L152 0 Z M555 809 L782 809 Q975 809 975 984 Q975 1076 922 1119 Q896 1141 862 1149 Q828 1157 764 1157 L555 1157 L555 809 Z M625 -584 L625 -455 Q746 -436 760 -365 Q613 -346 613 -220 Q613 -157 657 -116.5 Q701 -76 769 -76 Q852 -76 901.5 -131.5 Q951 -187 951 -280 Q951 -418 860 -501 Q816 -542 764.5 -560 Q713 -578 625 -584 Z " />
<glyph glyph-name="rcommaaccent" unicode="&#x157;" horiz-adv-x="915" d="M119 0 L119 1071 L498 1071 L498 887 Q596 1094 769 1094 Q853 1094 914 1050 L834 704 Q771 744 702 744 Q608 744 553 681.5 Q498 619 498 514 L498 0 L119 0 Z M146 -584 L146 -455 Q267 -436 281 -365 Q134 -346 134 -220 Q134 -157 178 -116.5 Q222 -76 290 -76 Q373 -76 422.5 -131.5 Q472 -187 472 -280 Q472 -418 381 -501 Q337 -542 285.5 -560 Q234 -578 146 -584 Z " />
<glyph glyph-name="Rcaron" unicode="&#x158;" horiz-adv-x="1501" d="M152 0 L152 1464 L834 1464 Q1095 1464 1238 1337 Q1362 1226 1362 1036 Q1362 886 1301 798 Q1240 710 1104 663 Q1198 634 1243 582 Q1276 545 1293.5 497 Q1311 449 1345 304 Q1402 62 1442 8 L1442 0 L1028 0 Q976 95 934 289 Q904 426 872 467 Q830 520 741 520 L555 520 L555 0 L152 0 Z M555 809 L782 809 Q975 809 975 984 Q975 1076 922 1119 Q896 1141 862 1149 Q828 1157 764 1157 L555 1157 L555 809 Z M574 1579 L341 1935 L603 1935 L716 1816 L826 1935 L1084 1935 L851 1579 L574 1579 Z " />
<glyph glyph-name="rcaron" unicode="&#x159;" horiz-adv-x="915" d="M119 0 L119 1071 L498 1071 L498 887 Q596 1094 769 1094 Q853 1094 914 1050 L834 704 Q771 744 702 744 Q608 744 553 681.5 Q498 619 498 514 L498 0 L119 0 Z M341 1186 L108 1542 L370 1542 L483 1423 L593 1542 L851 1542 L618 1186 L341 1186 Z " />
<glyph glyph-name="Sacute" unicode="&#x15a;" horiz-adv-x="1333" d="M907 1034 Q858 1112 797.5 1144 Q737 1176 640 1176 Q459 1176 459 1064 Q459 1009 504 979.5 Q549 950 667 928 Q836 896 924 869 Q1012 842 1076 803 Q1157 753 1198 687 Q1255 595 1255 455 Q1255 232 1114 107 Q966 -25 666 -25 Q428 -25 268 54.5 Q108 134 18 297 L356 461 Q437 286 654 286 Q754 286 811 319.5 Q868 353 868 412 Q868 466 821.5 497 Q775 528 662 550 Q391 603 280 664 Q84 771 84 1022 Q84 1228 219 1351 Q369 1487 636 1487 Q1041 1487 1222 1196 L907 1034 Z M499 1568 L571 1935 L993 1935 L771 1568 L499 1568 Z " />
<glyph glyph-name="sacute" unicode="&#x15b;" horiz-adv-x="1098" d="M846 745 Q792 787 714.5 810.5 Q637 834 553 834 Q438 834 438 775 Q438 738 470 724 Q502 710 635 689 Q807 662 893 612 Q1032 531 1032 350 Q1032 168 901.5 71.5 Q771 -25 524 -25 Q366 -25 254 6 Q142 37 43 109 L184 362 Q335 245 512 245 Q657 245 657 316 Q657 345 635.5 356.5 Q614 368 535 380 Q353 408 272 447 Q88 535 88 741 Q88 940 250 1033 Q368 1100 558 1100 Q814 1100 995 987 L846 745 Z M415 1175 L487 1542 L909 1542 L687 1175 L415 1175 Z " />
<glyph glyph-name="Scircumflex" unicode="&#x15c;" horiz-adv-x="1333" d="M907 1034 Q858 1112 797.5 1144 Q737 1176 640 1176 Q459 1176 459 1064 Q459 1009 504 979.5 Q549 950 667 928 Q836 896 924 869 Q1012 842 1076 803 Q1157 753 1198 687 Q1255 595 1255 455 Q1255 232 1114 107 Q966 -25 666 -25 Q428 -25 268 54.5 Q108 134 18 297 L356 461 Q437 286 654 286 Q754 286 811 319.5 Q868 353 868 412 Q868 466 821.5 497 Q775 528 662 550 Q391 603 280 664 Q84 771 84 1022 Q84 1228 219 1351 Q369 1487 636 1487 Q1041 1487 1222 1196 L907 1034 Z M279 1579 L512 1935 L789 1935 L1022 1579 L760 1579 L646 1696 L537 1579 L279 1579 Z " />
<glyph glyph-name="scircumflex" unicode="&#x15d;" horiz-adv-x="1098" d="M846 745 Q792 787 714.5 810.5 Q637 834 553 834 Q438 834 438 775 Q438 738 470 724 Q502 710 635 689 Q807 662 893 612 Q1032 531 1032 350 Q1032 168 901.5 71.5 Q771 -25 524 -25 Q366 -25 254 6 Q142 37 43 109 L184 362 Q335 245 512 245 Q657 245 657 316 Q657 345 635.5 356.5 Q614 368 535 380 Q353 408 272 447 Q88 535 88 741 Q88 940 250 1033 Q368 1100 558 1100 Q814 1100 995 987 L846 745 Z M202 1186 L435 1542 L712 1542 L945 1186 L683 1186 L569 1303 L460 1186 L202 1186 Z " />
<glyph glyph-name="Scedilla" unicode="&#x15e;" horiz-adv-x="1333" d="M725 -23 L662 -103 Q683 -101 699 -101 Q772 -101 818.5 -149.5 Q865 -198 865 -274 Q865 -365 804 -416 Q743 -467 634 -467 Q467 -467 394 -340 L544 -283 Q572 -324 618 -324 Q685 -324 685 -269 Q685 -214 624 -214 Q583 -214 560 -246 L464 -178 L577 -21 Q166 10 18 297 L356 461 Q436 286 654 286 Q754 286 811 319.5 Q868 353 868 412 Q868 466 821.5 497 Q775 528 662 550 Q391 603 280 664 Q84 771 84 1022 Q84 1228 219 1351 Q369 1487 636 1487 Q1041 1487 1222 1196 L907 1034 Q858 1112 797.5 1144 Q737 1176 640 1176 Q459 1176 459 1064 Q459 1009 504 979.5 Q549 950 667 928 Q837 896 924.5 869 Q1012 842 1076 803 Q1157 753 1198 687 Q1255 595 1255 455 Q1255 234 1120 112.5 Q985 -9 725 -23 Z " />
<glyph glyph-name="scedilla" unicode="&#x15f;" horiz-adv-x="1098" d="M624 -20 L559 -103 Q582 -100 596 -100 Q668 -100 714.5 -149 Q761 -198 761 -274 Q761 -365 700 -416 Q639 -467 530 -467 Q363 -467 290 -340 L440 -283 Q468 -324 514 -324 Q581 -324 581 -268 Q581 -211 520 -211 Q479 -211 456 -246 L360 -178 L472 -24 Q204 -13 43 108 L184 362 Q335 246 512 246 Q657 246 657 317 Q657 346 635.5 357 Q614 368 535 381 Q354 409 272 448 Q88 536 88 741 Q88 940 250 1033 Q368 1100 558 1100 Q814 1100 995 987 L846 745 Q792 787 714.5 810.5 Q637 834 553 834 Q438 834 438 775 Q438 738 470 724 Q502 710 635 689 Q807 662 893 612 Q1032 531 1032 350 Q1032 188 928 93.5 Q824 -1 624 -20 Z " />
<glyph glyph-name="Scaron" unicode="&#x160;" horiz-adv-x="1333" d="M907 1034 Q858 1112 797.5 1144 Q737 1176 640 1176 Q459 1176 459 1064 Q459 1009 504 979.5 Q549 950 667 928 Q836 896 924 869 Q1012 842 1076 803 Q1157 753 1198 687 Q1255 595 1255 455 Q1255 232 1114 107 Q966 -25 666 -25 Q428 -25 268 54.5 Q108 134 18 297 L356 461 Q437 286 654 286 Q754 286 811 319.5 Q868 353 868 412 Q868 466 821.5 497 Q775 528 662 550 Q391 603 280 664 Q84 771 84 1022 Q84 1228 219 1351 Q369 1487 636 1487 Q1041 1487 1222 1196 L907 1034 Z M525 1579 L292 1935 L554 1935 L667 1816 L777 1935 L1035 1935 L802 1579 L525 1579 Z " />
<glyph glyph-name="scaron" unicode="&#x161;" horiz-adv-x="1098" d="M846 745 Q792 787 714.5 810.5 Q637 834 553 834 Q438 834 438 775 Q438 738 470 724 Q502 710 635 689 Q807 662 893 612 Q1032 531 1032 350 Q1032 168 901.5 71.5 Q771 -25 524 -25 Q366 -25 254 6 Q142 37 43 109 L184 362 Q335 245 512 245 Q657 245 657 316 Q657 345 635.5 356.5 Q614 368 535 380 Q353 408 272 447 Q88 535 88 741 Q88 940 250 1033 Q368 1100 558 1100 Q814 1100 995 987 L846 745 Z M414 1186 L181 1542 L443 1542 L556 1423 L666 1542 L924 1542 L691 1186 L414 1186 Z " />
<glyph glyph-name="Tcommaaccent" unicode="&#x162;" horiz-adv-x="1247" d="M422 0 L422 1140 L29 1140 L29 1464 L1219 1464 L1219 1140 L825 1140 L825 0 L422 0 Z M480 -584 L480 -455 Q601 -436 615 -365 Q468 -346 468 -220 Q468 -157 512 -116.5 Q556 -76 624 -76 Q707 -76 756.5 -131.5 Q806 -187 806 -280 Q806 -418 715 -501 Q671 -542 619.5 -560 Q568 -578 480 -584 Z " />
<glyph glyph-name="tcommaaccent" unicode="&#x163;" horiz-adv-x="854" d="M45 786 L45 1071 L184 1071 L184 1259 L563 1395 L563 1071 L768 1071 L768 786 L563 786 L563 393 Q563 286 637 286 Q677 286 731 317 L811 61 Q698 -25 538 -25 Q361 -25 269 79 Q184 175 184 352 L184 786 L45 786 Z M309 -584 L309 -455 Q430 -436 444 -365 Q297 -346 297 -220 Q297 -157 341 -116.5 Q385 -76 453 -76 Q536 -76 585.5 -131.5 Q635 -187 635 -280 Q635 -418 544 -501 Q500 -542 448.5 -560 Q397 -578 309 -584 Z " />
<glyph glyph-name="Tcaron" unicode="&#x164;" horiz-adv-x="1247" d="M422 0 L422 1140 L29 1140 L29 1464 L1219 1464 L1219 1140 L825 1140 L825 0 L422 0 Z M471 1579 L238 1935 L500 1935 L613 1816 L723 1935 L981 1935 L748 1579 L471 1579 Z " />
<glyph glyph-name="tcaron" unicode="&#x165;" horiz-adv-x="1165" d="M45 786 L45 1071 L184 1071 L184 1259 L563 1395 L563 1071 L768 1071 L768 786 L563 786 L563 393 Q563 286 637 286 Q677 286 731 317 L811 61 Q698 -25 538 -25 Q361 -25 269 79 Q184 175 184 352 L184 786 L45 786 Z M854 1048 L854 1177 Q975 1196 989 1268 Q842 1285 842 1412 Q842 1475 886 1515.5 Q930 1556 998 1556 Q1081 1556 1130.5 1500.5 Q1180 1445 1180 1352 Q1180 1214 1089 1131 Q1044 1090 993 1072 Q942 1054 854 1048 Z " />
<glyph glyph-name="Tbar" unicode="&#x166;" horiz-adv-x="1247" d="M422 500 L209 500 L209 844 L422 844 L422 1140 L29 1140 L29 1464 L1219 1464 L1219 1140 L825 1140 L825 844 L1040 844 L1040 500 L825 500 L825 0 L422 0 L422 500 Z " />
<glyph glyph-name="tbar" unicode="&#x167;" horiz-adv-x="854" d="M563 730 L767 730 L767 447 L563 447 L563 394 Q563 287 637 287 Q677 287 730 318 L811 61 Q697 -25 538 -25 Q361 -25 269 79 Q184 176 184 353 L184 447 L44 447 L44 730 L184 730 L184 786 L45 786 L45 1071 L184 1071 L184 1259 L563 1395 L563 1071 L768 1071 L768 786 L563 786 L563 730 Z " />
<glyph glyph-name="Utilde" unicode="&#x168;" horiz-adv-x="1550" d="M1409 1464 L1409 600 Q1409 352 1305 202 Q1149 -25 782 -25 Q450 -25 286 155 Q141 313 141 598 L141 1464 L544 1464 L544 614 Q544 449 601 374 Q658 299 784 299 Q910 299 968 375.5 Q1026 452 1026 618 L1026 1464 L1409 1464 Z M1164 1886 Q1151 1779 1127 1723 Q1057 1563 903 1563 Q831 1563 739 1610 Q685 1637 658 1637 Q604 1637 587 1571 L386 1583 Q400 1713 437 1784 Q503 1907 640 1907 Q708 1907 796 1862 Q851 1833 881 1833 Q908 1833 921.5 1847 Q935 1861 945 1898 L1164 1886 Z " />
<glyph glyph-name="utilde" unicode="&#x169;" horiz-adv-x="1255" d="M758 164 Q706 66 630 20.5 Q554 -25 441 -25 Q287 -25 200 77 Q113 181 113 371 L113 1071 L492 1071 L492 432 Q492 266 607 266 Q758 266 758 455 L758 1071 L1137 1071 L1137 0 L758 0 L758 164 Z M1014 1509 Q1001 1401 977 1345 Q907 1185 753 1185 Q681 1185 589 1232 Q535 1260 506 1260 Q454 1260 437 1194 L236 1206 Q250 1336 287 1407 Q353 1530 490 1530 Q558 1530 646 1484 Q701 1455 732 1455 Q758 1455 771.5 1469 Q785 1483 795 1521 L1014 1509 Z " />
<glyph glyph-name="Umacron" unicode="&#x16a;" horiz-adv-x="1550" d="M1409 1464 L1409 600 Q1409 352 1305 202 Q1149 -25 782 -25 Q450 -25 286 155 Q141 313 141 598 L141 1464 L544 1464 L544 614 Q544 449 601 374 Q658 299 784 299 Q910 299 968 375.5 Q1026 452 1026 618 L1026 1464 L1409 1464 Z M494 1614 L494 1868 L1041 1868 L1041 1614 L494 1614 Z " />
<glyph glyph-name="umacron" unicode="&#x16b;" horiz-adv-x="1255" d="M758 164 Q706 66 630 20.5 Q554 -25 441 -25 Q287 -25 200 77 Q113 181 113 371 L113 1071 L492 1071 L492 432 Q492 266 607 266 Q758 266 758 455 L758 1071 L1137 1071 L1137 0 L758 0 L758 164 Z M355 1237 L355 1491 L902 1491 L902 1237 L355 1237 Z " />
<glyph glyph-name="Ubreve" unicode="&#x16c;" horiz-adv-x="1550" d="M1122 1882 Q1108 1774 1067 1710 Q974 1567 774 1567 Q613 1567 519 1662 Q478 1705 458 1753 Q438 1801 428 1882 L667 1882 Q685 1800 774 1800 Q864 1800 882 1882 L1122 1882 Z M1409 1464 L1409 600 Q1409 352 1305 202 Q1149 -25 782 -25 Q450 -25 286 155 Q141 313 141 598 L141 1464 L544 1464 L544 614 Q544 449 601 374 Q658 299 784 299 Q910 299 968 375.5 Q1026 452 1026 618 L1026 1464 L1409 1464 Z " />
<glyph glyph-name="ubreve" unicode="&#x16d;" horiz-adv-x="1255" d="M758 164 Q706 66 630 20.5 Q554 -25 441 -25 Q287 -25 200 77 Q113 181 113 371 L113 1071 L492 1071 L492 432 Q492 266 607 266 Q758 266 758 455 L758 1071 L1137 1071 L1137 0 L758 0 L758 164 Z M975 1513 Q962 1405 920 1341 Q827 1198 627 1198 Q466 1198 373 1293 Q331 1336 311 1384 Q291 1432 281 1513 L521 1513 Q538 1431 627 1431 Q717 1431 736 1513 L975 1513 Z " />
<glyph glyph-name="Uring" unicode="&#x16e;" horiz-adv-x="1550" d="M1409 1464 L1409 600 Q1409 352 1305 202 Q1149 -25 782 -25 Q450 -25 286 155 Q141 313 141 598 L141 1464 L544 1464 L544 614 Q544 449 601 374 Q658 299 784 299 Q910 299 968 375.5 Q1026 452 1026 618 L1026 1464 L1409 1464 Z M775 2003 Q876 2003 945 1937 Q1014 1871 1014 1775 Q1014 1678 945 1613 Q876 1548 773 1548 Q670 1548 601.5 1613 Q533 1678 533 1775 Q533 1873 602 1938 Q671 2003 775 2003 Z M772 1860 Q738 1860 716.5 1836.5 Q695 1813 695 1776 Q695 1739 717 1715 Q739 1691 772 1691 Q807 1691 829.5 1715 Q852 1739 852 1776 Q852 1813 829.5 1836.5 Q807 1860 772 1860 Z " />
<glyph glyph-name="uring" unicode="&#x16f;" horiz-adv-x="1255" d="M758 164 Q706 66 630 20.5 Q554 -25 441 -25 Q287 -25 200 77 Q113 181 113 371 L113 1071 L492 1071 L492 432 Q492 266 607 266 Q758 266 758 455 L758 1071 L1137 1071 L1137 0 L758 0 L758 164 Z M630 1609 Q731 1609 800 1543.5 Q869 1478 869 1382 Q869 1285 800 1220 Q731 1155 628 1155 Q525 1155 456.5 1219.5 Q388 1284 388 1382 Q388 1479 457 1544 Q526 1609 630 1609 Z M627 1466 Q593 1466 571.5 1442.5 Q550 1419 550 1383 Q550 1346 572 1322 Q594 1298 627 1298 Q662 1298 684.5 1322 Q707 1346 707 1383 Q707 1419 684.5 1442.5 Q662 1466 627 1466 Z " />
<glyph glyph-name="Uhungarumlaut" unicode="&#x170;" horiz-adv-x="1550" d="M1409 1464 L1409 600 Q1409 352 1305 202 Q1149 -25 782 -25 Q450 -25 286 155 Q141 313 141 598 L141 1464 L544 1464 L544 614 Q544 449 601 374 Q658 299 784 299 Q910 299 968 375.5 Q1026 452 1026 618 L1026 1464 L1409 1464 Z M426 1568 L475 1935 L840 1935 L690 1568 L426 1568 Z M866 1568 L913 1935 L1278 1935 L1128 1568 L866 1568 Z " />
<glyph glyph-name="uhungarumlaut" unicode="&#x171;" horiz-adv-x="1255" d="M758 164 Q706 66 630 20.5 Q554 -25 441 -25 Q287 -25 200 77 Q113 181 113 371 L113 1071 L492 1071 L492 432 Q492 266 607 266 Q758 266 758 455 L758 1071 L1137 1071 L1137 0 L758 0 L758 164 Z M263 1175 L312 1542 L677 1542 L527 1175 L263 1175 Z M703 1175 L750 1542 L1115 1542 L965 1175 L703 1175 Z " />
<glyph glyph-name="Uogonek" unicode="&#x172;" horiz-adv-x="1550" d="M995 -2 Q877 -83 877 -194 Q877 -252 936 -252 Q967 -252 1008 -219 L1098 -346 Q1050 -385 1007.5 -399.5 Q965 -414 900 -414 Q794 -414 732 -363 Q670 -312 670 -226 Q670 -116 784 -25 Q491 -26 329 113 Q141 273 141 598 L141 1464 L544 1464 L544 614 Q544 449 601 374 Q658 299 784 299 Q910 299 968 375.5 Q1026 452 1026 618 L1026 1464 L1409 1464 L1409 600 Q1409 104 995 -2 Z " />
<glyph glyph-name="uogonek" unicode="&#x173;" horiz-adv-x="1255" d="M758 0 L758 164 Q706 66 630 20.5 Q554 -25 441 -25 Q287 -25 201 77 Q113 181 113 371 L113 1071 L492 1071 L492 432 Q492 266 607 266 Q758 266 758 455 L758 1071 L1137 1071 L1137 27 Q1059 -12 1013.5 -72 Q968 -132 968 -195 Q968 -252 1027 -252 Q1058 -252 1099 -219 L1189 -346 Q1141 -385 1099 -399.5 Q1057 -414 991 -414 Q885 -414 823 -363 Q761 -312 761 -226 Q761 -162 801.5 -102 Q842 -42 913 0 L758 0 Z " />
<glyph glyph-name="Wcircumflex" unicode="&#x174;" horiz-adv-x="2161" d="M406 0 L35 1464 L457 1464 L674 500 L922 1464 L1258 1464 L1510 489 L1739 1464 L2126 1464 L1755 0 L1323 0 L1084 903 L844 0 L406 0 Z M712 1579 L945 1935 L1222 1935 L1455 1579 L1193 1579 L1079 1696 L970 1579 L712 1579 Z " />
<glyph glyph-name="wcircumflex" unicode="&#x175;" horiz-adv-x="1724" d="M340 0 L33 1071 L428 1071 L563 467 L725 1071 L1032 1071 L1174 467 L1329 1071 L1692 1071 L1368 0 L1006 0 L858 571 L709 0 L340 0 Z M491 1186 L724 1542 L1001 1542 L1234 1186 L972 1186 L858 1303 L749 1186 L491 1186 Z " />
<glyph glyph-name="Ycircumflex" unicode="&#x176;" horiz-adv-x="1278" d="M445 0 L445 602 L-57 1464 L389 1464 L662 942 L930 1464 L1335 1464 L848 604 L848 0 L445 0 Z M295 1579 L528 1935 L805 1935 L1038 1579 L776 1579 L662 1696 L553 1579 L295 1579 Z " />
<glyph glyph-name="ycircumflex" unicode="&#x177;" horiz-adv-x="1169" d="M1174 1071 L766 -4 Q691 -203 577.5 -296 Q464 -389 296 -389 Q155 -389 37 -320 L133 -64 Q195 -104 260 -104 Q363 -104 410 8 L-4 1071 L399 1071 L604 473 L805 1071 L1174 1071 Z M229 1186 L462 1542 L739 1542 L972 1186 L710 1186 L596 1303 L487 1186 L229 1186 Z " />
<glyph glyph-name="Zacute" unicode="&#x179;" horiz-adv-x="1311" d="M82 0 L82 340 L748 1140 L111 1140 L111 1464 L1204 1464 L1204 1122 L555 324 L1225 324 L1225 0 L82 0 Z M524 1568 L596 1935 L1018 1935 L796 1568 L524 1568 Z " />
<glyph glyph-name="zacute" unicode="&#x17a;" horiz-adv-x="1069" d="M61 0 L61 269 L535 786 L81 786 L81 1071 L997 1071 L997 814 L522 285 L1005 285 L1005 0 L61 0 Z M421 1175 L493 1542 L915 1542 L693 1175 L421 1175 Z " />
<glyph glyph-name="Zdotaccent" unicode="&#x17b;" horiz-adv-x="1311" d="M82 0 L82 340 L748 1140 L111 1140 L111 1464 L1204 1464 L1204 1122 L555 324 L1225 324 L1225 0 L82 0 Z M693 1913 Q771 1913 826.5 1857.5 Q882 1802 882 1725 Q882 1646 826 1590 Q770 1534 692 1534 Q614 1534 558.5 1590 Q503 1646 503 1724 Q503 1803 558.5 1858 Q614 1913 693 1913 Z " />
<glyph glyph-name="zdotaccent" unicode="&#x17c;" horiz-adv-x="1069" d="M61 0 L61 269 L535 786 L81 786 L81 1071 L997 1071 L997 814 L522 285 L1005 285 L1005 0 L61 0 Z M550 1555 Q628 1555 683.5 1499.5 Q739 1444 739 1367 Q739 1288 683 1232 Q627 1176 549 1176 Q471 1176 415.5 1232 Q360 1288 360 1366 Q360 1445 415.5 1500 Q471 1555 550 1555 Z " />
<glyph glyph-name="Zcaron" unicode="&#x17d;" horiz-adv-x="1311" d="M82 0 L82 340 L748 1140 L111 1140 L111 1464 L1204 1464 L1204 1122 L555 324 L1225 324 L1225 0 L82 0 Z M527 1579 L294 1935 L556 1935 L669 1816 L779 1935 L1037 1935 L804 1579 L527 1579 Z " />
<glyph glyph-name="zcaron" unicode="&#x17e;" horiz-adv-x="1069" d="M61 0 L61 269 L535 786 L81 786 L81 1071 L997 1071 L997 814 L522 285 L1005 285 L1005 0 L61 0 Z M421 1186 L188 1542 L450 1542 L563 1423 L673 1542 L931 1542 L698 1186 L421 1186 Z " />
<glyph glyph-name="uni018F" unicode="&#x18f;" horiz-adv-x="1640" d="M145 1049 Q192 1173 260 1249 Q472 1487 821 1487 Q1120 1487 1317 1313 Q1559 1098 1559 731 Q1559 363 1317 149 Q1120 -25 821 -25 Q521 -25 324 149 Q189 269 128 447 Q82 583 82 712 Q82 763 96 870 L1130 870 Q1076 1163 820 1163 Q712 1163 635.5 1107.5 Q559 1052 534 955 L145 1049 Z M1127 573 L514 573 Q576 298 820 298 Q1071 298 1127 573 Z " />
<glyph glyph-name="Ohorn" unicode="&#x1a0;" horiz-adv-x="1616" d="M1210 1378 Q1351 1400 1369 1481 Q1222 1499 1222 1626 Q1222 1689 1266 1729.5 Q1310 1770 1378 1770 Q1461 1770 1510.5 1714.5 Q1560 1659 1560 1566 Q1560 1425 1471 1340 Q1416 1287 1341 1268 Q1534 1059 1534 730 Q1534 370 1303 155 Q1109 -25 808 -25 Q507 -25 313 155 Q82 370 82 731 Q82 1092 313 1307 Q507 1487 807 1487 Q1041 1487 1210 1378 Z M802 1163 Q656 1163 578 1051.5 Q500 940 500 731 Q500 560 553 452 Q629 299 808 299 Q958 299 1037 409 Q1116 519 1116 729 Q1116 1163 802 1163 Z " />
<glyph glyph-name="ohorn" unicode="&#x1a1;" horiz-adv-x="1274" d="M956 1015 Q1040 1044 1051 1121 Q904 1139 904 1265 Q904 1328 948 1368.5 Q992 1409 1060 1409 Q1143 1409 1192.5 1353.5 Q1242 1298 1242 1204 Q1242 998 1071 919 Q1205 765 1205 540 Q1205 290 1048 134 Q889 -25 636 -25 Q381 -25 223 132 Q70 283 70 529 Q70 782 229 940 Q389 1100 640 1100 Q815 1100 956 1015 Z M637 815 Q457 815 457 542 Q457 260 638 260 Q818 260 818 542 Q818 683 774.5 749 Q731 815 637 815 Z " />
<glyph glyph-name="Uhorn" unicode="&#x1af;" horiz-adv-x="1550" d="M1409 1404 Q1477 1429 1487 1481 Q1340 1499 1340 1626 Q1340 1689 1384 1729.5 Q1428 1770 1496 1770 Q1578 1770 1627.5 1714.5 Q1677 1659 1677 1566 Q1677 1395 1543 1311 Q1486 1276 1409 1267 L1409 600 Q1409 352 1305 202 Q1149 -25 782 -25 Q450 -25 286 155 Q141 313 141 598 L141 1464 L544 1464 L544 614 Q544 449 601 374 Q658 299 784 299 Q910 299 968 375.5 Q1026 452 1026 618 L1026 1464 L1409 1464 L1409 1404 Z " />
<glyph glyph-name="uhorn" unicode="&#x1b0;" horiz-adv-x="1255" d="M1137 1044 Q1202 1068 1213 1121 Q1065 1138 1065 1265 Q1065 1328 1109 1368.5 Q1153 1409 1221 1409 Q1304 1409 1353.5 1353.5 Q1403 1298 1403 1205 Q1403 1067 1312 984 Q1242 919 1137 907 L1137 0 L758 0 L758 164 Q706 66 630 20.5 Q554 -25 441 -25 Q287 -25 200 77 Q113 181 113 371 L113 1071 L492 1071 L492 432 Q492 266 607 266 Q758 266 758 455 L758 1071 L1137 1071 L1137 1044 Z " />
<glyph glyph-name="uni01CD" unicode="&#x1cd;" horiz-adv-x="1538" d="M1021 248 L463 248 L381 0 L8 0 L536 1464 L1012 1464 L1530 0 L1102 0 L1021 248 Z M932 533 L746 1105 L554 533 L932 533 Z M616 1579 L383 1935 L645 1935 L758 1816 L868 1935 L1126 1935 L893 1579 L616 1579 Z " />
<glyph glyph-name="uni01CE" unicode="&#x1ce;" horiz-adv-x="1178" d="M703 133 Q597 -25 395 -25 Q223 -25 132 74 Q59 154 59 283 Q59 542 341 612 Q480 646 684 651 L684 662 Q684 733 649 765 Q614 797 536 797 Q372 797 227 696 L74 948 Q160 1008 238 1039 Q392 1100 592 1100 Q878 1100 990 953 Q1065 855 1065 665 L1065 201 Q1065 91 1096 12 L1096 0 L731 0 Q713 51 703 133 Z M686 440 Q581 437 535 427 Q434 404 434 327 Q434 286 460.5 263 Q487 240 534 240 Q601 240 643.5 278.5 Q686 317 686 377 L686 440 Z M448 1186 L215 1542 L477 1542 L590 1423 L700 1542 L958 1542 L725 1186 L448 1186 Z " />
<glyph glyph-name="uni01CF" unicode="&#x1cf;" horiz-adv-x="739" d="M168 0 L168 1464 L571 1464 L571 0 L168 0 Z M231 1579 L-2 1935 L260 1935 L373 1816 L483 1935 L741 1935 L508 1579 L231 1579 Z " />
<glyph glyph-name="uni01D0" unicode="&#x1d0;" horiz-adv-x="637" d="M129 0 L129 1071 L508 1071 L508 0 L129 0 Z M180 1186 L-53 1542 L209 1542 L322 1423 L432 1542 L690 1542 L457 1186 L180 1186 Z " />
<glyph glyph-name="uni01D1" unicode="&#x1d1;" horiz-adv-x="1616" d="M818 1487 Q1108 1487 1303 1307 Q1534 1093 1534 731 Q1534 370 1303 155 Q1109 -25 808 -25 Q508 -25 314 155 Q82 370 82 729 Q82 1095 314 1307 Q511 1487 818 1487 Z M802 1163 Q656 1163 578 1051.5 Q500 940 500 731 Q500 560 553 452 Q629 299 808 299 Q958 299 1037 409 Q1116 519 1116 729 Q1116 1163 802 1163 Z M670 1579 L436 1935 L699 1935 L811 1816 L922 1935 L1180 1935 L946 1579 L670 1579 Z " />
<glyph glyph-name="uni01D2" unicode="&#x1d2;" horiz-adv-x="1274" d="M646 1100 Q763 1100 868.5 1058.5 Q974 1017 1050 942 Q1205 788 1205 540 Q1205 290 1048 134 Q888 -25 636 -25 Q381 -25 223 132 Q70 283 70 529 Q70 780 229 940 Q388 1100 646 1100 Z M637 815 Q457 815 457 542 Q457 260 638 260 Q818 260 818 542 Q818 683 774.5 749 Q731 815 637 815 Z M499 1186 L266 1542 L528 1542 L641 1423 L751 1542 L1009 1542 L776 1186 L499 1186 Z " />
<glyph glyph-name="uni01D3" unicode="&#x1d3;" horiz-adv-x="1550" d="M1409 1464 L1409 600 Q1409 352 1305 202 Q1149 -25 782 -25 Q450 -25 286 155 Q141 313 141 598 L141 1464 L544 1464 L544 614 Q544 449 601 374 Q658 299 784 299 Q910 299 968 375.5 Q1026 452 1026 618 L1026 1464 L1409 1464 Z M622 1579 L389 1935 L651 1935 L764 1816 L874 1935 L1132 1935 L899 1579 L622 1579 Z " />
<glyph glyph-name="uni01D4" unicode="&#x1d4;" horiz-adv-x="1255" d="M758 164 Q706 66 630 20.5 Q554 -25 441 -25 Q287 -25 200 77 Q113 181 113 371 L113 1071 L492 1071 L492 432 Q492 266 607 266 Q758 266 758 455 L758 1071 L1137 1071 L1137 0 L758 0 L758 164 Z M486 1186 L253 1542 L515 1542 L628 1423 L738 1542 L996 1542 L763 1186 L486 1186 Z " />
<glyph glyph-name="uni01DD" unicode="&#x1dd;" horiz-adv-x="1227" d="M95 854 Q245 1100 579 1100 Q812 1100 970 971 Q1157 817 1157 544 Q1157 310 1019 155 Q858 -25 593 -25 Q343 -25 201 132 Q70 276 70 540 L70 635 L775 635 Q756 734 709 778 Q662 822 576 822 Q451 822 385 713 L95 854 Z M435 424 Q442 347 466 309 Q507 245 597 245 Q671 245 711.5 287 Q752 329 770 424 L435 424 Z " />
<glyph glyph-name="Gcaron" unicode="&#x1e6;" horiz-adv-x="1632" d="M1215 192 Q1056 -25 773 -25 Q481 -25 293 162 Q82 371 82 726 Q82 1069 293 1282 Q497 1487 815 1487 Q1100 1487 1281 1328 Q1374 1247 1440 1106 L1071 956 Q1039 1042 998 1087 Q927 1163 805 1163 Q642 1163 566 1030 Q500 915 500 723 Q500 536 565 425 Q646 286 826 286 Q953 286 1030.5 353 Q1108 420 1108 530 L1108 536 L844 536 L844 821 L1499 821 L1499 0 L1288 0 L1215 192 Z M681 1579 L448 1935 L710 1935 L823 1816 L933 1935 L1191 1935 L958 1579 L681 1579 Z " />
<glyph glyph-name="gcaron" unicode="&#x1e7;" horiz-adv-x="1214" d="M895 1018 L1167 1093 L1167 827 L1048 827 Q1063 784 1063 733 Q1063 550 902 457 Q777 386 586 386 Q504 386 417 403 Q405 380 405 353 Q405 284 508 284 L743 284 Q972 284 1075 177 Q1149 100 1149 -26 Q1149 -231 974 -331 Q826 -416 571 -416 Q353 -416 224 -362 Q57 -293 57 -146 Q57 -6 245 59 Q120 131 120 247 Q120 379 264 462 Q102 565 102 735 Q102 903 245 1005 Q379 1100 582 1100 Q760 1100 895 1018 Z M439 14 Q383 -28 383 -85 Q383 -141 429.5 -166 Q476 -191 578 -191 Q815 -191 815 -75 Q815 10 675 10 L520 10 Q497 10 439 14 Z M585 885 Q520 885 483 845 Q446 805 446 735 Q446 665 483.5 624 Q521 583 585 583 Q652 583 689.5 623.5 Q727 664 727 736 Q727 807 690 846 Q653 885 585 885 Z M459 1186 L226 1542 L488 1542 L601 1423 L711 1542 L969 1542 L736 1186 L459 1186 Z " />
<glyph glyph-name="uni01F4" unicode="&#x1f4;" horiz-adv-x="1632" d="M1215 192 Q1056 -25 773 -25 Q481 -25 293 162 Q82 371 82 726 Q82 1069 293 1282 Q497 1487 815 1487 Q1100 1487 1281 1328 Q1374 1247 1440 1106 L1071 956 Q1039 1042 998 1087 Q927 1163 805 1163 Q642 1163 566 1030 Q500 915 500 723 Q500 536 565 425 Q646 286 826 286 Q953 286 1030.5 353 Q1108 420 1108 530 L1108 536 L844 536 L844 821 L1499 821 L1499 0 L1288 0 L1215 192 Z M667 1568 L739 1935 L1161 1935 L939 1568 L667 1568 Z " />
<glyph glyph-name="uni01F5" unicode="&#x1f5;" horiz-adv-x="1214" d="M895 1018 L1167 1093 L1167 827 L1048 827 Q1063 784 1063 733 Q1063 550 902 457 Q777 386 586 386 Q504 386 417 403 Q405 380 405 353 Q405 284 508 284 L743 284 Q972 284 1075 177 Q1149 100 1149 -26 Q1149 -231 974 -331 Q826 -416 571 -416 Q353 -416 224 -362 Q57 -293 57 -146 Q57 -6 245 59 Q120 131 120 247 Q120 379 264 462 Q102 565 102 735 Q102 903 245 1005 Q379 1100 582 1100 Q760 1100 895 1018 Z M439 14 Q383 -28 383 -85 Q383 -141 429.5 -166 Q476 -191 578 -191 Q815 -191 815 -75 Q815 10 675 10 L520 10 Q497 10 439 14 Z M585 885 Q520 885 483 845 Q446 805 446 735 Q446 665 483.5 624 Q521 583 585 583 Q652 583 689.5 623.5 Q727 664 727 736 Q727 807 690 846 Q653 885 585 885 Z M466 1175 L538 1542 L960 1542 L738 1175 L466 1175 Z " />
<glyph glyph-name="Aringacute" unicode="&#x1fa;" horiz-adv-x="1538" d="M684 1464 Q612 1488 569.5 1546 Q527 1604 527 1678 Q527 1775 596 1840.5 Q665 1906 767 1906 Q873 1906 944 1837 Q1009 1772 1009 1678 Q1009 1604 966 1546 Q923 1488 851 1464 L1012 1464 L1530 0 L1102 0 L1021 248 L463 248 L381 0 L8 0 L536 1464 L684 1464 Z M932 533 L746 1105 L554 533 L932 533 Z M767 1763 Q733 1763 711 1739.5 Q689 1716 689 1679 Q689 1643 711 1619 Q733 1595 767 1595 Q802 1595 824.5 1619 Q847 1643 847 1680 Q847 1716 824.5 1739.5 Q802 1763 767 1763 Z M209 1725 L281 2092 L702 2092 L481 1725 L209 1725 Z " />
<glyph glyph-name="aringacute" unicode="&#x1fb;" horiz-adv-x="1178" d="M703 133 Q597 -25 395 -25 Q223 -25 132 74 Q59 154 59 283 Q59 542 341 612 Q480 646 684 651 L684 662 Q684 733 649 765 Q614 797 536 797 Q372 797 227 696 L74 948 Q160 1008 238 1039 Q392 1100 592 1100 Q878 1100 990 953 Q1065 855 1065 665 L1065 201 Q1065 91 1096 12 L1096 0 L731 0 Q713 51 703 133 Z M686 440 Q581 437 535 427 Q434 404 434 327 Q434 286 460.5 263 Q487 240 534 240 Q601 240 643.5 278.5 Q686 317 686 377 L686 440 Z M590 1609 Q691 1609 760 1543.5 Q829 1478 829 1382 Q829 1285 760 1220 Q691 1155 588 1155 Q485 1155 416.5 1219.5 Q348 1284 348 1382 Q348 1479 417 1544 Q486 1609 590 1609 Z M587 1466 Q553 1466 531.5 1442.5 Q510 1419 510 1383 Q510 1346 532 1322 Q554 1298 587 1298 Q622 1298 644.5 1322 Q667 1346 667 1383 Q667 1419 644.5 1442.5 Q622 1466 587 1466 Z M69 1505 L141 1872 L563 1872 L341 1505 L69 1505 Z " />
<glyph glyph-name="AEacute" unicode="&#x1fc;" horiz-adv-x="2150" d="M543 248 L421 0 L8 0 L778 1464 L2036 1464 L2036 1147 L1361 1147 L1361 897 L1849 897 L1849 594 L1361 594 L1361 317 L2066 317 L2066 0 L966 0 L966 248 L543 248 Z M682 533 L966 533 L966 1113 L682 533 Z M888 1568 L960 1935 L1382 1935 L1160 1568 L888 1568 Z " />
<glyph glyph-name="aeacute" unicode="&#x1fd;" horiz-adv-x="1843" d="M918 970 Q1058 1100 1256 1100 Q1500 1100 1641 943 Q1773 796 1773 535 L1773 440 L1083 440 Q1101 329 1153 289 Q1198 253 1273 253 Q1393 253 1456 363 L1748 222 Q1599 -25 1270 -25 Q983 -25 825 163 Q732 59 645 22 Q538 -25 400 -25 Q223 -25 132 74 Q59 154 59 282 Q59 541 348 612 Q490 646 700 651 L700 661 Q700 733 661 765 Q622 797 537 797 Q370 797 227 696 L73 948 Q160 1009 237 1039 Q391 1100 584 1100 Q818 1100 918 970 Z M1408 651 Q1398 747 1362 788.5 Q1326 830 1253 830 Q1180 830 1141.5 788.5 Q1103 747 1087 651 L1408 651 Z M702 440 Q590 437 541 427 Q434 403 434 325 Q434 239 536 239 Q608 239 655 278 Q702 317 702 377 L702 440 Z M770 1175 L842 1542 L1264 1542 L1042 1175 L770 1175 Z " />
<glyph glyph-name="Oslashacute" unicode="&#x1fe;" horiz-adv-x="1616" d="M236 241 Q82 449 82 732 Q82 1092 314 1307 Q508 1487 808 1487 Q1050 1487 1231 1364 L1319 1464 L1594 1464 L1380 1222 Q1534 1015 1534 730 Q1534 370 1303 155 Q1109 -25 808 -25 Q571 -25 385 98 L297 0 L23 0 L236 241 Z M510 550 L1001 1104 Q922 1170 808 1170 Q623 1170 546 1014 Q492 904 492 736 Q492 625 510 550 Z M1106 914 L615 359 Q694 292 809 292 Q963 292 1043.5 404 Q1124 516 1124 732 Q1124 835 1106 914 Z M659 1568 L731 1935 L1153 1935 L931 1568 L659 1568 Z " />
<glyph glyph-name="oslashacute" unicode="&#x1ff;" horiz-adv-x="1266" d="M177 175 Q63 326 63 530 Q63 782 222 940 Q383 1100 633 1100 Q817 1100 960 1008 L1020 1071 L1249 1071 L1084 895 Q1198 747 1198 540 Q1198 290 1041 134 Q882 -25 628 -25 Q442 -25 302 64 L241 0 L12 0 L177 175 Z M447 462 L749 783 Q703 826 632 826 Q442 826 442 544 Q442 505 447 462 Z M816 610 L518 294 Q563 249 631 249 Q819 249 819 542 Q819 573 816 610 Z M484 1175 L556 1542 L978 1542 L756 1175 L484 1175 Z " />
<glyph glyph-name="Scommaaccent" unicode="&#x218;" horiz-adv-x="1325" d="M907 1034 Q858 1112 797.5 1144 Q737 1176 640 1176 Q459 1176 459 1064 Q459 1009 504 979.5 Q549 950 667 928 Q836 896 924 869 Q1012 842 1076 803 Q1157 753 1198 687 Q1255 595 1255 455 Q1255 232 1114 107 Q966 -25 666 -25 Q428 -25 268 54.5 Q108 134 18 297 L356 461 Q437 286 654 286 Q754 286 811 319.5 Q868 353 868 412 Q868 466 821.5 497 Q775 528 662 550 Q391 603 280 664 Q84 771 84 1022 Q84 1228 219 1351 Q369 1487 636 1487 Q1041 1487 1222 1196 L907 1034 Z M507 -584 L507 -455 Q628 -436 642 -365 Q495 -346 495 -220 Q495 -157 539 -116.5 Q583 -76 651 -76 Q734 -76 783.5 -131.5 Q833 -187 833 -280 Q833 -418 742 -501 Q698 -542 646.5 -560 Q595 -578 507 -584 Z " />
<glyph glyph-name="scommaaccent" unicode="&#x219;" horiz-adv-x="1098" d="M846 745 Q792 787 714.5 810.5 Q637 834 553 834 Q438 834 438 775 Q438 738 470 724 Q502 710 635 689 Q807 662 893 612 Q1032 531 1032 350 Q1032 168 901.5 71.5 Q771 -25 524 -25 Q366 -25 254 6 Q142 37 43 109 L184 362 Q335 245 512 245 Q657 245 657 316 Q657 345 635.5 356.5 Q614 368 535 380 Q353 408 272 447 Q88 535 88 741 Q88 940 250 1033 Q368 1100 558 1100 Q814 1100 995 987 L846 745 Z M367 -584 L367 -455 Q488 -436 502 -365 Q355 -346 355 -220 Q355 -157 399 -116.5 Q443 -76 511 -76 Q594 -76 643.5 -131.5 Q693 -187 693 -280 Q693 -418 602 -501 Q558 -542 506.5 -560 Q455 -578 367 -584 Z " />
<glyph glyph-name="uni021A" unicode="&#x21a;" horiz-adv-x="1247" d="M422 0 L422 1140 L29 1140 L29 1464 L1219 1464 L1219 1140 L825 1140 L825 0 L422 0 Z M480 -584 L480 -455 Q601 -436 615 -365 Q468 -346 468 -220 Q468 -157 512 -116.5 Q556 -76 624 -76 Q707 -76 756.5 -131.5 Q806 -187 806 -280 Q806 -418 715 -501 Q671 -542 619.5 -560 Q568 -578 480 -584 Z " />
<glyph glyph-name="uni021B" unicode="&#x21b;" horiz-adv-x="854" d="M45 786 L45 1071 L184 1071 L184 1259 L563 1395 L563 1071 L768 1071 L768 786 L563 786 L563 393 Q563 286 637 286 Q677 286 731 317 L811 61 Q698 -25 538 -25 Q361 -25 269 79 Q184 175 184 352 L184 786 L45 786 Z M309 -584 L309 -455 Q430 -436 444 -365 Q297 -346 297 -220 Q297 -157 341 -116.5 Q385 -76 453 -76 Q536 -76 585.5 -131.5 Q635 -187 635 -280 Q635 -418 544 -501 Q500 -542 448.5 -560 Q397 -578 309 -584 Z " />
<glyph glyph-name="uni0226" unicode="&#x226;" horiz-adv-x="1538" d="M1021 248 L463 248 L381 0 L8 0 L536 1464 L1012 1464 L1530 0 L1102 0 L1021 248 Z M932 533 L746 1105 L554 533 L932 533 Z M764 1913 Q842 1913 897.5 1857.5 Q953 1802 953 1725 Q953 1646 897 1590 Q841 1534 763 1534 Q685 1534 629.5 1590 Q574 1646 574 1724 Q574 1803 629.5 1858 Q685 1913 764 1913 Z " />
<glyph glyph-name="uni0227" unicode="&#x227;" horiz-adv-x="1178" d="M703 133 Q597 -25 395 -25 Q223 -25 132 74 Q59 154 59 283 Q59 542 341 612 Q480 646 684 651 L684 662 Q684 733 649 765 Q614 797 536 797 Q372 797 227 696 L74 948 Q160 1008 238 1039 Q392 1100 592 1100 Q878 1100 990 953 Q1065 855 1065 665 L1065 201 Q1065 91 1096 12 L1096 0 L731 0 Q713 51 703 133 Z M686 440 Q581 437 535 427 Q434 404 434 327 Q434 286 460.5 263 Q487 240 534 240 Q601 240 643.5 278.5 Q686 317 686 377 L686 440 Z M589 1555 Q667 1555 722.5 1499.5 Q778 1444 778 1367 Q778 1288 722 1232 Q666 1176 588 1176 Q510 1176 454.5 1232 Q399 1288 399 1366 Q399 1445 454.5 1500 Q510 1555 589 1555 Z " />
<glyph glyph-name="uni0237" unicode="&#x237;" horiz-adv-x="649" d="M520 1071 L520 -4 Q520 -192 429 -291.5 Q338 -391 165 -391 Q24 -391 -76 -332 L-9 -70 Q30 -88 61 -88 Q98 -88 119.5 -65.5 Q141 -43 141 -4 L141 1071 L520 1071 Z " />
<glyph glyph-name="uni0259" unicode="&#x259;" horiz-adv-x="1227" d="M95 854 Q245 1100 579 1100 Q812 1100 970 971 Q1157 817 1157 544 Q1157 310 1019 155 Q858 -25 593 -25 Q343 -25 201 132 Q70 276 70 540 L70 635 L775 635 Q756 734 709 778 Q662 822 576 822 Q451 822 385 713 L95 854 Z M435 424 Q442 347 466 309 Q507 245 597 245 Q671 245 711.5 287 Q752 329 770 424 L435 424 Z " />
<glyph glyph-name="afii57929" unicode="&#x2bc;" horiz-adv-x="594" d="M108 920 L108 1067 Q250 1092 274 1217 Q187 1225 140.5 1269 Q94 1313 94 1388 Q94 1464 147.5 1513.5 Q201 1563 284 1563 Q382 1563 441.5 1494.5 Q501 1426 501 1314 Q501 1152 398 1041 Q343 981 277 953.5 Q211 926 108 920 Z " />
<glyph glyph-name="uni02C9" unicode="&#x2c9;" horiz-adv-x="1024" d="M239 1237 L239 1491 L786 1491 L786 1237 L239 1237 Z " />
<glyph glyph-name="uni0309" unicode="&#x309;" horiz-adv-x="1024" d="M587 1526 L432 1526 L432 1693 Q444 1695 461 1698 Q518 1706 531 1712 Q544 1718 544 1738 Q544 1756 540.5 1761 Q537 1766 524 1766 Q485 1766 459 1756 Q433 1746 374 1709 Q354 1697 345 1691 L269 1810 Q283 1820 311 1837 Q427 1910 517 1910 Q591 1910 645 1869 Q714 1817 714 1732 Q714 1612 587 1585 L587 1526 Z " />
<glyph glyph-name="uni037E" unicode="&#x37e;" horiz-adv-x="645" d="M320 1001 Q410 1001 475.5 935 Q541 869 541 779 Q541 688 475.5 622.5 Q410 557 318 557 Q226 557 161.5 622 Q97 687 97 779 Q97 871 162 936 Q227 1001 320 1001 Z M122 -369 L122 -195 Q275 -154 296 10 Q95 37 95 209 Q95 301 154.5 359.5 Q214 418 306 418 Q420 418 486 338 Q552 258 552 120 Q552 -119 411 -254 Q356 -306 295 -330.5 Q234 -355 122 -369 Z " />
<glyph glyph-name="tonos" unicode="&#x384;" horiz-adv-x="1024" d="M352 1204 L311 1571 L712 1571 L671 1204 L352 1204 Z " />
<glyph glyph-name="dieresistonos" unicode="&#x385;" horiz-adv-x="1024" d="M166 1528 Q232 1528 279 1480 Q326 1432 326 1365 Q326 1297 278.5 1249.5 Q231 1202 165 1202 Q97 1202 48.5 1250 Q0 1298 0 1364 Q0 1433 48.5 1480.5 Q97 1528 166 1528 Z M389 1204 L348 1571 L676 1571 L635 1204 L389 1204 Z M859 1528 Q927 1528 975.5 1480 Q1024 1432 1024 1365 Q1024 1298 975 1250 Q926 1202 858 1202 Q791 1202 744.5 1249 Q698 1296 698 1365 Q698 1434 744.5 1481 Q791 1528 859 1528 Z " />
<glyph glyph-name="Alphatonos" unicode="&#x386;" horiz-adv-x="1629" d="M1621 0 L1193 0 L1113 248 L554 248 L472 0 L99 0 L628 1464 L1103 1464 L1621 0 Z M1023 533 L837 1105 L646 533 L1023 533 Z M21 1015 L-20 1464 L381 1464 L340 1015 L21 1015 Z " />
<glyph glyph-name="uni0387" unicode="&#x387;" horiz-adv-x="645" d="M320 893 Q410 893 474.5 827.5 Q539 762 539 671 Q539 580 474.5 515.5 Q410 451 319 451 Q226 451 161.5 515 Q97 579 97 671 Q97 763 162 828 Q227 893 320 893 Z " />
<glyph glyph-name="Epsilontonos" unicode="&#x388;" horiz-adv-x="1681" d="M492 0 L492 1464 L1563 1464 L1563 1147 L887 1147 L887 897 L1379 897 L1379 594 L887 594 L887 317 L1594 317 L1594 0 L492 0 Z M21 1015 L-20 1464 L381 1464 L340 1015 L21 1015 Z " />
<glyph glyph-name="Etatonos" unicode="&#x389;" horiz-adv-x="1919" d="M492 0 L492 1464 L895 1464 L895 903 L1365 903 L1365 1464 L1768 1464 L1768 0 L1365 0 L1365 579 L895 579 L895 0 L492 0 Z M21 1015 L-20 1464 L381 1464 L340 1015 L21 1015 Z " />
<glyph glyph-name="Iotatonos" unicode="&#x38a;" horiz-adv-x="1063" d="M492 0 L492 1464 L895 1464 L895 0 L492 0 Z M21 1015 L-20 1464 L381 1464 L340 1015 L21 1015 Z " />
<glyph glyph-name="Omicrontonos" unicode="&#x38c;" horiz-adv-x="1918" d="M1111 1487 Q1408 1487 1601 1311 Q1837 1097 1837 731 Q1837 365 1601 151 Q1408 -25 1111 -25 Q815 -25 621 151 Q385 366 385 738 Q385 959 482 1135 Q577 1306 738.5 1396.5 Q900 1487 1111 1487 Z M1111 1163 Q959 1163 881 1052 Q803 941 803 726 Q803 525 877 416 Q957 299 1111 299 Q1262 299 1340.5 409.5 Q1419 520 1419 731 Q1419 938 1345 1046 Q1264 1163 1111 1163 Z M21 1015 L-20 1464 L381 1464 L340 1015 L21 1015 Z " />
<glyph glyph-name="Upsilontonos" unicode="&#x38e;" horiz-adv-x="1809" d="M1867 1464 L1380 604 L1380 0 L977 0 L977 602 L475 1464 L922 1464 L1194 942 L1462 1464 L1867 1464 Z M21 1015 L-20 1464 L381 1464 L340 1015 L21 1015 Z " />
<glyph glyph-name="Omegatonos" unicode="&#x38f;" horiz-adv-x="2027" d="M354 0 L354 272 L586 272 Q395 452 395 753 Q395 968 498 1143 Q699 1487 1162 1487 Q1487 1487 1688 1311 Q1825 1191 1887 1011 Q1929 889 1929 753 Q1929 452 1738 272 L1970 272 L1970 0 L1290 0 L1290 272 Q1381 325 1428 389 Q1511 502 1511 718 Q1511 1163 1162 1163 Q813 1163 813 718 Q813 543 862.5 443 Q912 343 1034 272 L1034 0 L354 0 Z M21 1015 L-20 1464 L381 1464 L340 1015 L21 1015 Z " />
<glyph glyph-name="iotadieresistonos" unicode="&#x390;" horiz-adv-x="696" d="M127 1071 L506 1071 L506 456 Q506 349 521.5 321 Q537 293 594 293 Q624 293 680 300 L680 0 Q548 -10 470 -10 Q251 -10 174 121 Q147 166 137 229 Q127 292 127 415 L127 1071 Z M-61 1528 Q5 1528 52 1480 Q99 1432 99 1365 Q99 1297 51.5 1249.5 Q4 1202 -62 1202 Q-130 1202 -178.5 1250 Q-227 1298 -227 1364 Q-227 1433 -178.5 1480.5 Q-130 1528 -61 1528 Z M203 1204 L162 1571 L490 1571 L449 1204 L203 1204 Z M714 1528 Q782 1528 830.5 1480 Q879 1432 879 1365 Q879 1298 830 1250 Q781 1202 713 1202 Q646 1202 599.5 1249 Q553 1296 553 1365 Q553 1434 599.5 1481 Q646 1528 714 1528 Z " />
<glyph glyph-name="Alpha" unicode="&#x391;" horiz-adv-x="1538" d="M1530 0 L1102 0 L1021 248 L463 248 L381 0 L8 0 L536 1464 L1012 1464 L1530 0 Z M932 533 L746 1105 L554 533 L932 533 Z " />
<glyph glyph-name="Beta" unicode="&#x392;" horiz-adv-x="1462" d="M152 0 L152 1464 L856 1464 Q1123 1464 1246 1329 Q1338 1229 1338 1069 Q1338 955 1288.5 881.5 Q1239 808 1127 755 Q1232 716 1287 661 Q1381 567 1381 410 Q1381 210 1248 105 Q1115 0 862 0 L152 0 Z M547 303 L817 303 Q902 303 948 343.5 Q994 384 994 459 Q994 614 807 614 L547 614 L547 303 Z M547 893 L805 893 Q959 893 959 1025 Q959 1161 803 1161 L547 1161 L547 893 Z " />
<glyph glyph-name="Gamma" unicode="&#x393;" horiz-adv-x="1202" d="M152 0 L152 1464 L1133 1464 L1133 1140 L547 1140 L547 0 L152 0 Z " />
<glyph glyph-name="uni0394" unicode="&#x394;" horiz-adv-x="1550" d="M37 0 L537 1464 L1024 1464 L1514 0 L37 0 Z M499 293 L999 293 L752 1125 L499 293 Z " />
<glyph glyph-name="Epsilon" unicode="&#x395;" horiz-adv-x="1341" d="M152 0 L152 1464 L1223 1464 L1223 1147 L547 1147 L547 897 L1039 897 L1039 594 L547 594 L547 317 L1254 317 L1254 0 L152 0 Z " />
<glyph glyph-name="Zeta" unicode="&#x396;" horiz-adv-x="1311" d="M82 0 L82 340 L748 1140 L111 1140 L111 1464 L1204 1464 L1204 1122 L555 324 L1225 324 L1225 0 L82 0 Z " />
<glyph glyph-name="Eta" unicode="&#x397;" horiz-adv-x="1579" d="M152 0 L152 1464 L555 1464 L555 903 L1025 903 L1025 1464 L1428 1464 L1428 0 L1025 0 L1025 579 L555 579 L555 0 L152 0 Z " />
<glyph glyph-name="Theta" unicode="&#x398;" horiz-adv-x="1640" d="M592 596 L592 893 L1049 893 L1049 596 L592 596 Z M821 1487 Q1120 1487 1317 1313 Q1559 1098 1559 731 Q1559 363 1317 149 Q1120 -25 821 -25 Q521 -25 324 149 Q82 364 82 738 Q82 961 182 1138 Q287 1322 469 1411 Q626 1487 821 1487 Z M820 1163 Q663 1163 581.5 1052 Q500 941 500 726 Q500 522 580 413 Q662 299 820 299 Q977 299 1059 409.5 Q1141 520 1141 731 Q1141 941 1062 1049 Q978 1163 820 1163 Z " />
<glyph glyph-name="Iota" unicode="&#x399;" horiz-adv-x="739" d="M168 0 L168 1464 L571 1464 L571 0 L168 0 Z " />
<glyph glyph-name="Kappa" unicode="&#x39a;" horiz-adv-x="1499" d="M152 0 L152 1464 L555 1464 L555 897 L981 1464 L1421 1464 L934 840 L1462 0 L1016 0 L670 538 L555 395 L555 0 L152 0 Z " />
<glyph glyph-name="Lambda" unicode="&#x39b;" horiz-adv-x="1493" d="M37 0 L537 1464 L967 1464 L1456 0 L1028 0 L723 1030 L410 0 L37 0 Z " />
<glyph glyph-name="Mu" unicode="&#x39c;" horiz-adv-x="2001" d="M152 0 L152 1464 L715 1464 L995 577 L1282 1464 L1850 1464 L1850 0 L1455 0 L1455 1007 L1119 0 L834 0 L502 1012 L502 0 L152 0 Z " />
<glyph glyph-name="Nu" unicode="&#x39d;" horiz-adv-x="1581" d="M152 0 L152 1464 L590 1464 L1068 606 L1068 1464 L1430 1464 L1430 0 L1019 0 L514 903 L514 0 L152 0 Z " />
<glyph glyph-name="Xi" unicode="&#x39e;" horiz-adv-x="1339" d="M119 0 L119 324 L1221 324 L1221 0 L119 0 Z M119 1140 L119 1464 L1221 1464 L1221 1140 L119 1140 Z M252 594 L252 897 L1088 897 L1088 594 L252 594 Z " />
<glyph glyph-name="Omicron" unicode="&#x39f;" horiz-adv-x="1616" d="M808 1487 Q1105 1487 1298 1311 Q1534 1097 1534 731 Q1534 365 1298 151 Q1105 -25 808 -25 Q512 -25 318 151 Q82 366 82 738 Q82 959 179 1135 Q274 1306 435.5 1396.5 Q597 1487 808 1487 Z M808 1163 Q656 1163 578 1052 Q500 941 500 726 Q500 525 574 416 Q654 299 808 299 Q959 299 1037.5 409.5 Q1116 520 1116 731 Q1116 938 1042 1046 Q961 1163 808 1163 Z " />
<glyph glyph-name="Pi" unicode="&#x3a0;" horiz-adv-x="1559" d="M166 0 L166 1140 L41 1140 L41 1464 L1518 1464 L1518 1140 L1393 1140 L1393 0 L990 0 L990 1140 L569 1140 L569 0 L166 0 Z " />
<glyph glyph-name="Rho" unicode="&#x3a1;" horiz-adv-x="1423" d="M152 0 L152 1464 L809 1464 Q1098 1464 1244 1304 Q1360 1178 1360 972 Q1360 749 1218 623 Q1076 498 829 498 L555 498 L555 0 L152 0 Z M555 791 L774 791 Q973 791 973 978 Q973 1161 776 1161 L555 1161 L555 791 Z " />
<glyph glyph-name="Sigma" unicode="&#x3a3;" horiz-adv-x="1348" d="M90 0 L90 340 L476 751 L119 1134 L119 1464 L1237 1464 L1237 1140 L550 1140 L911 747 L525 324 L1274 324 L1274 0 L90 0 Z " />
<glyph glyph-name="Tau" unicode="&#x3a4;" horiz-adv-x="1247" d="M1219 1464 L1219 1140 L825 1140 L825 0 L422 0 L422 1140 L29 1140 L29 1464 L1219 1464 Z " />
<glyph glyph-name="Upsilon" unicode="&#x3a5;" horiz-adv-x="1278" d="M1335 1464 L848 604 L848 0 L445 0 L445 602 L-57 1464 L389 1464 L662 942 L930 1464 L1335 1464 Z " />
<glyph glyph-name="Phi" unicode="&#x3a6;" horiz-adv-x="1948" d="M799 -61 L799 88 Q541 117 357 240 Q82 423 82 733 Q82 1042 357 1225 Q541 1348 799 1377 L799 1526 L1149 1526 L1149 1377 Q1407 1348 1591 1225 Q1866 1042 1866 733 Q1866 423 1591 240 Q1407 117 1149 88 L1149 -61 L799 -61 Z M1149 378 Q1456 442 1456 733 Q1456 1023 1149 1087 L1149 378 Z M799 378 L799 1087 Q492 1023 492 733 Q492 442 799 378 Z " />
<glyph glyph-name="Chi" unicode="&#x3a7;" horiz-adv-x="1565" d="M47 0 L543 754 L84 1464 L565 1464 L795 1048 L1022 1464 L1450 1464 L1016 770 L1517 0 L1036 0 L760 485 L479 0 L47 0 Z " />
<glyph glyph-name="Psi" unicode="&#x3a8;" horiz-adv-x="2052" d="M1942 1464 L1942 941 Q1942 784 1913 677 Q1884 570 1819 487 Q1664 289 1325 289 L1225 289 L1225 0 L830 0 L830 289 L718 289 Q415 289 263 452.5 Q111 616 111 941 L111 1464 L514 1464 L514 929 Q514 745 567.5 668.5 Q621 592 750 592 L830 592 L830 1464 L1225 1464 L1225 592 L1305 592 Q1380 592 1422.5 612 Q1465 632 1493 680 Q1539 759 1539 929 L1539 1464 L1942 1464 Z " />
<glyph glyph-name="uni03A9" unicode="&#x3a9;" horiz-adv-x="1731" d="M57 0 L57 272 L289 272 Q98 452 98 753 Q98 968 201 1143 Q402 1487 865 1487 Q1190 1487 1391 1311 Q1528 1191 1590 1011 Q1632 889 1632 753 Q1632 452 1441 272 L1673 272 L1673 0 L993 0 L993 272 Q1084 325 1131 389 Q1214 502 1214 718 Q1214 1163 865 1163 Q516 1163 516 718 Q516 543 565.5 443.5 Q615 344 737 272 L737 0 L57 0 Z " />
<glyph glyph-name="Iotadieresis" unicode="&#x3aa;" horiz-adv-x="739" d="M168 0 L168 1464 L571 1464 L571 0 L168 0 Z M577 1878 Q647 1878 697 1828 Q747 1778 747 1708 Q747 1639 696.5 1589.5 Q646 1540 576 1540 Q506 1540 457.5 1589 Q409 1638 409 1709 Q409 1781 457 1829.5 Q505 1878 577 1878 Z M157 1878 Q226 1878 274.5 1828.5 Q323 1779 323 1708 Q323 1639 274 1589.5 Q225 1540 156 1540 Q86 1540 35.5 1589.5 Q-15 1639 -15 1708 Q-15 1779 35 1828.5 Q85 1878 157 1878 Z " />
<glyph glyph-name="Upsilondieresis" unicode="&#x3ab;" horiz-adv-x="1278" d="M1335 1464 L848 604 L848 0 L445 0 L445 602 L-57 1464 L389 1464 L662 942 L930 1464 L1335 1464 Z M872 1878 Q942 1878 992 1828 Q1042 1778 1042 1708 Q1042 1639 991.5 1589.5 Q941 1540 871 1540 Q801 1540 752.5 1589 Q704 1638 704 1709 Q704 1781 752 1829.5 Q800 1878 872 1878 Z M452 1878 Q521 1878 569.5 1828.5 Q618 1779 618 1708 Q618 1639 569 1589.5 Q520 1540 451 1540 Q381 1540 330.5 1589.5 Q280 1639 280 1708 Q280 1779 330 1828.5 Q380 1878 452 1878 Z " />
<glyph glyph-name="alphatonos" unicode="&#x3ac;" horiz-adv-x="1260" d="M1141 0 L762 0 L762 170 Q671 -25 471 -25 Q379 -25 301 17 Q223 59 172 136 Q70 290 70 536 Q70 763 157 912 Q266 1100 475 1100 Q670 1100 762 921 L762 1071 L1141 1071 L1141 0 Z M611 815 Q457 815 457 544 Q457 270 614 270 Q690 270 732 340 Q774 410 774 537 Q774 660 737 733 Q697 815 611 815 Z M470 1204 L429 1571 L830 1571 L789 1204 L470 1204 Z " />
<glyph glyph-name="epsilontonos" unicode="&#x3ad;" horiz-adv-x="1172" d="M1120 894 L889 699 Q787 815 661 815 Q503 815 471 655 L836 655 L836 434 L468 434 Q493 260 673 260 Q790 260 887 362 L1144 198 Q1056 80 941 27.5 Q826 -25 656 -25 Q457 -25 338 38 Q199 113 131 252 Q70 377 70 537 Q70 792 215 944 Q365 1100 637 1100 Q952 1100 1120 894 Z M481 1204 L440 1571 L841 1571 L800 1204 L481 1204 Z " />
<glyph glyph-name="etatonos" unicode="&#x3ae;" horiz-adv-x="1276" d="M119 0 L119 1071 L498 1071 L498 901 Q609 1100 833 1100 Q985 1100 1072 1002 Q1163 899 1163 704 L1163 -373 L784 -373 L784 627 Q784 792 652 792 Q498 792 498 604 L498 0 L119 0 Z M479 1204 L438 1571 L839 1571 L798 1204 L479 1204 Z " />
<glyph glyph-name="iotatonos" unicode="&#x3af;" horiz-adv-x="696" d="M127 1071 L506 1071 L506 456 Q506 349 521.5 321 Q537 293 594 293 Q624 293 680 300 L680 0 Q548 -10 470 -10 Q251 -10 174 121 Q147 166 137 229 Q127 292 127 415 L127 1071 Z M161 1204 L120 1571 L521 1571 L480 1204 L161 1204 Z " />
<glyph glyph-name="upsilondieresistonos" unicode="&#x3b0;" horiz-adv-x="1268" d="M131 1071 L510 1071 L510 421 Q510 260 634 260 Q758 260 758 421 L758 1071 L1137 1071 L1137 436 Q1137 224 1038 113 Q914 -25 634 -25 Q331 -25 211 137 Q131 245 131 436 L131 1071 Z M247 1528 Q313 1528 360 1480 Q407 1432 407 1365 Q407 1297 359.5 1249.5 Q312 1202 246 1202 Q178 1202 129.5 1250 Q81 1298 81 1364 Q81 1433 129.5 1480.5 Q178 1528 247 1528 Z M511 1204 L470 1571 L798 1571 L757 1204 L511 1204 Z M1022 1528 Q1090 1528 1138.5 1480 Q1187 1432 1187 1365 Q1187 1298 1138 1250 Q1089 1202 1021 1202 Q954 1202 907.5 1249 Q861 1296 861 1365 Q861 1434 907.5 1481 Q954 1528 1022 1528 Z " />
<glyph glyph-name="alpha" unicode="&#x3b1;" horiz-adv-x="1260" d="M1141 0 L762 0 L762 170 Q671 -25 471 -25 Q379 -25 301 17 Q223 59 172 136 Q70 290 70 536 Q70 763 157 912 Q266 1100 475 1100 Q670 1100 762 921 L762 1071 L1141 1071 L1141 0 Z M611 815 Q457 815 457 544 Q457 270 614 270 Q690 270 732 340 Q774 410 774 537 Q774 660 737 733 Q697 815 611 815 Z " />
<glyph glyph-name="beta" unicode="&#x3b2;" horiz-adv-x="1313" d="M119 -373 L119 1084 Q119 1571 664 1571 Q903 1571 1035 1466 Q1153 1372 1153 1200 Q1153 1002 951 926 Q1243 835 1243 476 Q1243 201 1092 73 Q981 -20 810 -20 Q700 -20 621 14 L621 283 Q663 265 707 265 Q856 265 856 508 Q856 698 761 752 Q717 776 625 776 L625 1022 Q714 1027 751 1061 Q788 1095 788 1171 Q788 1319 649 1319 Q570 1319 534 1271 Q498 1223 498 1117 L498 -373 L119 -373 Z " />
<glyph glyph-name="gamma" unicode="&#x3b3;" horiz-adv-x="1177" d="M782 -373 L403 -373 L403 0 L0 1071 L403 1071 L607 440 L808 1071 L1177 1071 L782 0 L782 -373 Z " />
<glyph glyph-name="delta" unicode="&#x3b4;" horiz-adv-x="1262" d="M318 998 Q219 1077 219 1213 Q219 1378 341 1475 Q460 1569 676 1569 Q926 1569 1088 1460 L931 1223 Q819 1290 686 1290 Q573 1290 573 1209 Q573 1171 602.5 1147.5 Q632 1124 704 1103 Q839 1064 913.5 1028.5 Q988 993 1043 941 Q1192 801 1192 550 Q1192 303 1049 147 Q891 -25 630 -25 Q487 -25 367 30.5 Q247 86 173 187 Q70 328 70 527 Q70 834 318 998 Z M631 815 Q457 815 457 543 Q457 260 633 260 Q805 260 805 541 Q805 683 763 749 Q721 815 631 815 Z " />
<glyph glyph-name="epsilon" unicode="&#x3b5;" horiz-adv-x="1172" d="M1120 894 L889 699 Q787 815 661 815 Q503 815 471 655 L836 655 L836 434 L468 434 Q493 260 673 260 Q790 260 887 362 L1144 198 Q1056 80 941 27.5 Q826 -25 656 -25 Q457 -25 338 38 Q199 113 131 252 Q70 377 70 537 Q70 792 215 944 Q365 1100 637 1100 Q952 1100 1120 894 Z " />
<glyph glyph-name="zeta" unicode="&#x3b6;" horiz-adv-x="1051" d="M195 1249 L195 1542 L961 1542 L961 1257 Q802 1095 729 1008 Q510 748 510 489 Q510 352 561 295 Q582 270 625.5 252 Q669 234 706 234 Q731 234 783 215 Q835 196 868 175 Q936 131 974 49.5 Q1012 -32 1012 -134 Q1012 -203 999.5 -256.5 Q987 -310 947 -406 L618 -406 Q663 -292 675.5 -246.5 Q688 -201 688 -154 Q688 -66 627 -41 Q605 -32 518 -19 Q395 5 379 10 Q307 33 240 107 Q123 235 123 459 Q123 617 189.5 751 Q256 885 403 1025 Q497 1114 669 1249 L195 1249 Z " />
<glyph glyph-name="eta" unicode="&#x3b7;" horiz-adv-x="1276" d="M119 0 L119 1071 L498 1071 L498 901 Q609 1100 833 1100 Q985 1100 1072 1002 Q1163 899 1163 704 L1163 -373 L784 -373 L784 627 Q784 792 652 792 Q498 792 498 604 L498 0 L119 0 Z " />
<glyph glyph-name="theta" unicode="&#x3b8;" horiz-adv-x="1298" d="M649 1571 Q772 1571 880 1513 Q988 1455 1066 1346 Q1225 1124 1225 770 Q1225 419 1067 199 Q906 -25 652 -25 Q398 -25 235 201 Q74 425 74 790 Q74 1131 229 1348 Q304 1452 412 1512 Q520 1571 649 1571 Z M837 922 Q825 1066 798 1147 Q751 1286 649 1286 Q490 1286 460 922 L837 922 Z M840 678 L457 678 Q474 260 651 260 Q757 260 801 400 Q833 503 840 678 Z " />
<glyph glyph-name="iota" unicode="&#x3b9;" horiz-adv-x="696" d="M127 1071 L506 1071 L506 456 Q506 349 521.5 321 Q537 293 594 293 Q624 293 680 300 L680 0 Q548 -10 470 -10 Q251 -10 174 121 Q147 166 137 229 Q127 292 127 415 L127 1071 Z " />
<glyph glyph-name="kappa" unicode="&#x3ba;" horiz-adv-x="1237" d="M119 0 L119 1071 L498 1071 L498 668 L815 1071 L1219 1071 L867 653 L1248 0 L830 0 L611 389 L498 260 L498 0 L119 0 Z " />
<glyph glyph-name="lambda" unicode="&#x3bb;" horiz-adv-x="1250" d="M20 0 L455 1118 L314 1542 L701 1542 L1229 0 L829 0 L612 689 L390 0 L20 0 Z " />
<glyph glyph-name="uni03BC" unicode="&#x3bc;" horiz-adv-x="1286" d="M123 -373 L123 1071 L502 1071 L502 433 Q502 355 532.5 319 Q563 283 629 283 Q784 283 784 471 L784 1071 L1163 1071 L1163 0 L784 0 L784 164 Q699 -7 502 -23 L502 -373 L123 -373 Z " />
<glyph glyph-name="nu" unicode="&#x3bd;" horiz-adv-x="1225" d="M408 0 L33 1071 L439 1071 L633 414 L828 1071 L1192 1071 L821 0 L408 0 Z " />
<glyph glyph-name="xi" unicode="&#x3be;" horiz-adv-x="1030" d="M115 1249 L115 1542 L948 1542 L948 1249 L788 1249 Q663 1249 615 1213 Q554 1167 554 1074 Q554 988 608 943 Q644 913 731 913 L924 913 L924 626 L731 626 Q652 626 613.5 618.5 Q575 611 546 589 Q469 531 469 409 Q469 330 502.5 294.5 Q536 259 643 225 Q743 193 787 168.5 Q831 144 866 101 Q934 17 934 -121 Q934 -242 868 -406 L541 -406 Q585 -296 598 -248 Q611 -200 611 -151 Q611 -89 580 -62 Q549 -35 462 -23 Q268 6 182 87 Q82 181 82 369 Q82 568 224 686 Q281 733 386 779 Q268 828 229 858 Q195 883 173.5 924 Q152 965 152 1002 Q152 1082 226.5 1147.5 Q301 1213 434 1249 L115 1249 Z " />
<glyph glyph-name="omicron" unicode="&#x3bf;" horiz-adv-x="1274" d="M640 1100 Q891 1100 1050 942 Q1205 788 1205 540 Q1205 290 1048 134 Q888 -25 636 -25 Q381 -25 223 132 Q70 283 70 535 Q70 780 229 940 Q388 1100 640 1100 Z M641 815 Q457 815 457 541 Q457 260 641 260 Q818 260 818 541 Q818 669 780 741 Q740 815 641 815 Z " />
<glyph glyph-name="rho" unicode="&#x3c1;" horiz-adv-x="1288" d="M239 -373 Q82 119 82 476 Q82 782 247 943 Q407 1100 658 1100 Q885 1100 1038 968 Q1219 810 1219 540 Q1219 407 1174 293 Q1129 179 1047 103 Q908 -25 673 -25 Q576 -25 501 2 Q553 -201 615 -373 L239 -373 Z M652 815 Q469 815 469 545 Q469 260 655 260 Q832 260 832 542 Q832 682 788.5 748.5 Q745 815 652 815 Z " />
<glyph glyph-name="uni03C2" unicode="&#x3c2;" horiz-adv-x="1079" d="M928 -406 L599 -406 Q668 -228 668 -155 Q668 -82 631 -52 Q610 -35 527 -21 Q376 5 327 26 Q70 133 70 511 Q70 788 220 946 Q368 1100 599 1100 Q921 1100 1059 793 L742 657 Q714 745 687.5 775 Q661 805 610 805 Q457 805 457 539 Q457 381 511 308 Q542 266 635 247 Q735 228 766 219 Q797 210 830 192 Q907 149 949.5 64 Q992 -21 992 -132 Q992 -249 928 -406 Z " />
<glyph glyph-name="sigma" unicode="&#x3c3;" horiz-adv-x="1286" d="M1262 1071 L1262 776 L1062 793 Q1093 762 1108 743 Q1188 643 1188 485 Q1188 252 1032 112 Q879 -25 628 -25 Q354 -25 201 150 Q70 300 70 535 Q70 810 252 969 Q403 1100 636 1100 L1016 1071 L1262 1071 Z M630 815 Q457 815 457 543 Q457 260 631 260 Q801 260 801 547 Q801 683 759 749 Q717 815 630 815 Z " />
<glyph glyph-name="tau" unicode="&#x3c4;" horiz-adv-x="1018" d="M320 0 L320 778 L41 778 L41 1071 L977 1071 L977 778 L699 778 L699 0 L320 0 Z " />
<glyph glyph-name="upsilon" unicode="&#x3c5;" horiz-adv-x="1268" d="M131 1071 L510 1071 L510 421 Q510 260 634 260 Q758 260 758 421 L758 1071 L1137 1071 L1137 436 Q1137 224 1038 113 Q914 -25 634 -25 Q331 -25 211 137 Q131 246 131 436 L131 1071 Z " />
<glyph glyph-name="phi" unicode="&#x3c6;" horiz-adv-x="1706" d="M678 -373 L678 -13 Q496 11 360 76 Q70 216 70 520 Q70 671 142.5 779.5 Q215 888 376 978 L564 744 Q445 670 445 527 Q445 319 678 259 L678 1085 Q793 1098 871 1098 Q1171 1098 1383 976 Q1512 902 1577 782 Q1636 671 1636 535 Q1636 219 1339 77 Q1198 10 1018 -13 L1018 -373 L678 -373 Z M1018 257 Q1261 314 1261 540 Q1261 762 1018 809 L1018 257 Z " />
<glyph glyph-name="chi" unicode="&#x3c7;" horiz-adv-x="1249" d="M-12 -373 L413 418 L57 1071 L470 1071 L648 710 L839 1071 L1208 1071 L838 382 L1249 -373 L835 -373 L602 99 L357 -373 L-12 -373 Z " />
<glyph glyph-name="psi" unicode="&#x3c8;" horiz-adv-x="1833" d="M1712 1071 L1712 613 Q1712 0 1180 0 L1095 0 L1095 -373 L733 -373 L733 0 L650 0 Q388 0 254.5 155 Q121 310 121 613 L121 1071 L500 1071 L500 579 Q500 418 541 351.5 Q582 285 681 285 L733 285 L733 1071 L1095 1071 L1095 285 L1148 285 Q1208 285 1241.5 302 Q1275 319 1297 362 Q1333 431 1333 579 L1333 1071 L1712 1071 Z " />
<glyph glyph-name="omega" unicode="&#x3c9;" horiz-adv-x="1696" d="M645 967 Q565 864 528 787 Q456 637 456 457 Q456 365 488 315 Q525 258 592 258 Q650 258 669 314 Q688 370 688 539 L688 791 L1007 791 L1007 539 Q1007 370 1026 314 Q1045 258 1103 258 Q1167 258 1202.5 310 Q1238 362 1238 457 Q1238 603 1196 717.5 Q1154 832 1050 967 L1288 1112 Q1452 976 1527 854 Q1625 694 1625 470 Q1625 246 1514 115 Q1394 -25 1175 -25 Q1013 -25 926 57 Q886 96 848 166 Q789 60 716.5 17.5 Q644 -25 520 -25 Q300 -25 181 115 Q69 246 69 470 Q69 671 144.5 814.5 Q220 958 407 1112 L645 967 Z " />
<glyph glyph-name="iotadieresis" unicode="&#x3ca;" horiz-adv-x="696" d="M127 1071 L506 1071 L506 456 Q506 349 521.5 321 Q537 293 594 293 Q624 293 680 300 L680 0 Q548 -10 470 -10 Q251 -10 174 121 Q147 166 137 229 Q127 292 127 415 L127 1071 Z M572 1544 Q646 1544 699.5 1491 Q753 1438 753 1365 Q753 1291 699.5 1238.5 Q646 1186 571 1186 Q497 1186 446 1238 Q395 1290 395 1365 Q395 1441 446 1492.5 Q497 1544 572 1544 Z M126 1544 Q199 1544 250.5 1491.5 Q302 1439 302 1365 Q302 1291 250 1238.5 Q198 1186 125 1186 Q50 1186 -3 1238.5 Q-56 1291 -56 1365 Q-56 1439 -3 1491.5 Q50 1544 126 1544 Z " />
<glyph glyph-name="upsilondieresis" unicode="&#x3cb;" horiz-adv-x="1268" d="M131 1071 L510 1071 L510 421 Q510 260 634 260 Q758 260 758 421 L758 1071 L1137 1071 L1137 436 Q1137 224 1038 113 Q914 -25 634 -25 Q331 -25 211 137 Q131 246 131 436 L131 1071 Z M857 1544 Q931 1544 984.5 1491 Q1038 1438 1038 1365 Q1038 1291 984.5 1238.5 Q931 1186 856 1186 Q782 1186 731 1238 Q680 1290 680 1365 Q680 1441 731 1492.5 Q782 1544 857 1544 Z M411 1544 Q484 1544 535.5 1491.5 Q587 1439 587 1365 Q587 1290 535 1238 Q483 1186 410 1186 Q335 1186 282 1238.5 Q229 1291 229 1365 Q229 1439 282 1491.5 Q335 1544 411 1544 Z " />
<glyph glyph-name="omicrontonos" unicode="&#x3cc;" horiz-adv-x="1274" d="M640 1100 Q891 1100 1050 942 Q1205 788 1205 540 Q1205 290 1048 134 Q888 -25 636 -25 Q381 -25 223 132 Q70 283 70 535 Q70 780 229 940 Q388 1100 640 1100 Z M641 815 Q457 815 457 541 Q457 260 641 260 Q818 260 818 541 Q818 669 780 741 Q740 815 641 815 Z M478 1204 L437 1571 L838 1571 L797 1204 L478 1204 Z " />
<glyph glyph-name="upsilontonos" unicode="&#x3cd;" horiz-adv-x="1268" d="M131 1071 L510 1071 L510 421 Q510 260 634 260 Q758 260 758 421 L758 1071 L1137 1071 L1137 436 Q1137 224 1038 113 Q914 -25 634 -25 Q331 -25 211 137 Q131 246 131 436 L131 1071 Z M474 1204 L433 1571 L834 1571 L793 1204 L474 1204 Z " />
<glyph glyph-name="omegatonos" unicode="&#x3ce;" horiz-adv-x="1696" d="M645 967 Q565 864 528 787 Q456 637 456 457 Q456 365 488 315 Q525 258 592 258 Q650 258 669 314 Q688 370 688 539 L688 791 L1007 791 L1007 539 Q1007 370 1026 314 Q1045 258 1103 258 Q1167 258 1202.5 310 Q1238 362 1238 457 Q1238 603 1196 717.5 Q1154 832 1050 967 L1288 1112 Q1452 976 1527 854 Q1625 694 1625 470 Q1625 246 1514 115 Q1394 -25 1175 -25 Q1013 -25 926 57 Q886 96 848 166 Q789 60 716.5 17.5 Q644 -25 520 -25 Q300 -25 181 115 Q69 246 69 470 Q69 671 144.5 814.5 Q220 958 407 1112 L645 967 Z M688 1204 L647 1571 L1048 1571 L1007 1204 L688 1204 Z " />
<glyph glyph-name="phi1" unicode="&#x3d5;" horiz-adv-x="1706" d="M679 1085 L679 1514 L1017 1514 L1017 1089 Q1149 1074 1269 1029 Q1462 957 1552 824 Q1636 698 1636 535 Q1636 307 1476.5 166 Q1317 25 1018 -12 L1018 -373 L678 -373 L678 -13 Q496 11 360 76 Q70 216 70 520 Q70 782 311 940 Q385 988 487 1028.5 Q589 1069 679 1085 Z M678 259 L678 804 Q538 739 492 677 Q443 611 443 531 Q443 427 502.5 358 Q562 289 678 259 Z M1018 257 Q1261 314 1261 540 Q1261 763 1018 809 L1018 257 Z " />
<glyph glyph-name="uni0400" unicode="&#x400;" horiz-adv-x="1341" d="M152 0 L152 1464 L1223 1464 L1223 1147 L547 1147 L547 897 L1039 897 L1039 594 L547 594 L547 317 L1254 317 L1254 0 L152 0 Z M568 1568 L347 1935 L769 1935 L841 1568 L568 1568 Z " />
<glyph glyph-name="afii10023" unicode="&#x401;" horiz-adv-x="1341" d="M152 0 L152 1464 L1223 1464 L1223 1147 L547 1147 L547 897 L1039 897 L1039 594 L547 594 L547 317 L1254 317 L1254 0 L152 0 Z M908 1878 Q978 1878 1028 1828 Q1078 1778 1078 1708 Q1078 1639 1027.5 1589.5 Q977 1540 907 1540 Q837 1540 788.5 1589 Q740 1638 740 1709 Q740 1781 788 1829.5 Q836 1878 908 1878 Z M488 1878 Q557 1878 605.5 1828.5 Q654 1779 654 1708 Q654 1639 605 1589.5 Q556 1540 487 1540 Q417 1540 366.5 1589.5 Q316 1639 316 1708 Q316 1779 366 1828.5 Q416 1878 488 1878 Z " />
<glyph glyph-name="afii10051" unicode="&#x402;" horiz-adv-x="1655" d="M723 0 L320 0 L320 1140 L29 1140 L29 1464 L1178 1464 L1178 1140 L723 1140 L723 804 Q825 884 912 916 Q999 948 1112 948 Q1520 948 1520 502 L1520 204 Q1520 -53 1496 -144 Q1463 -268 1348 -319 Q1233 -370 978 -373 L962 -118 Q1042 -112 1065 -77 Q1085 -47 1089 -10.5 Q1093 26 1098 220 L1098 454 Q1098 563 1077 597 Q1048 645 972 645 Q870 645 723 523 L723 0 Z " />
<glyph glyph-name="afii10052" unicode="&#x403;" horiz-adv-x="1202" d="M152 0 L152 1464 L1133 1464 L1133 1140 L547 1140 L547 0 L152 0 Z M506 1568 L578 1935 L1000 1935 L778 1568 L506 1568 Z " />
<glyph glyph-name="afii10053" unicode="&#x404;" horiz-adv-x="1475" d="M1410 1152 L1076 1002 Q1028 1088 967 1126 Q906 1164 814 1164 Q569 1164 517 885 L1051 885 L1051 600 L513 600 Q559 299 822 299 Q913 299 975 336 Q1037 373 1083 455 L1418 291 Q1231 -25 814 -25 Q521 -25 332 122 Q82 316 82 705 Q82 1063 275 1270 Q477 1487 814 1487 Q1064 1487 1232 1366 Q1295 1320 1334 1273.5 Q1373 1227 1410 1152 Z " />
<glyph glyph-name="afii10054" unicode="&#x405;" horiz-adv-x="1333" d="M18 297 L356 461 Q437 286 654 286 Q754 286 811 319.5 Q868 353 868 412 Q868 485 781 518 Q733 536 522 579 Q315 621 208 712 Q84 818 84 1016 Q84 1249 248 1376 Q393 1487 638 1487 Q1041 1487 1222 1196 L907 1034 Q857 1112 796.5 1144 Q736 1176 639 1176 Q459 1176 459 1064 Q459 993 533 963 Q575 946 797 902 Q999 862 1109 781 Q1255 672 1255 455 Q1255 232 1114 107 Q966 -25 669 -25 Q429 -25 261 59 Q177 102 123 154.5 Q69 207 18 297 Z " />
<glyph glyph-name="afii10055" unicode="&#x406;" horiz-adv-x="739" d="M168 0 L168 1464 L571 1464 L571 0 L168 0 Z " />
<glyph glyph-name="afii10056" unicode="&#x407;" horiz-adv-x="739" d="M168 0 L168 1464 L571 1464 L571 0 L168 0 Z M577 1878 Q647 1878 697 1828 Q747 1778 747 1708 Q747 1639 696.5 1589.5 Q646 1540 576 1540 Q506 1540 457.5 1589 Q409 1638 409 1709 Q409 1781 457 1829.5 Q505 1878 577 1878 Z M157 1878 Q226 1878 274.5 1828.5 Q323 1779 323 1708 Q323 1639 274 1589.5 Q225 1540 156 1540 Q86 1540 35.5 1589.5 Q-15 1639 -15 1708 Q-15 1779 35 1828.5 Q85 1878 157 1878 Z " />
<glyph glyph-name="afii10057" unicode="&#x408;" horiz-adv-x="1337" d="M1196 1464 L1196 541 Q1196 331 1121 201 Q990 -25 653 -25 Q365 -25 219 136 Q97 270 97 495 L97 561 L486 561 L486 516 Q486 404 523.5 351.5 Q561 299 641 299 Q724 299 758.5 356.5 Q793 414 793 553 L793 1464 L1196 1464 Z " />
<glyph glyph-name="afii10058" unicode="&#x409;" horiz-adv-x="2168" d="M914 0 L914 1140 L584 1140 L584 843 Q584 341 424 0 L-16 0 Q105 195 147 386 Q199 626 199 1079 L199 1464 L1317 1464 L1317 944 L1534 944 Q1714 944 1810 917 Q2112 832 2112 472 Q2112 198 1940 84 Q1871 38 1779 19 Q1687 0 1534 0 L914 0 Z M1317 303 L1526 303 Q1725 303 1725 471 Q1725 641 1526 641 L1317 641 L1317 303 Z " />
<glyph glyph-name="afii10059" unicode="&#x40a;" horiz-adv-x="2260" d="M152 0 L152 1464 L555 1464 L555 944 L1006 944 L1006 1464 L1409 1464 L1409 944 L1627 944 Q1806 944 1902 917 Q2204 832 2204 471 Q2204 198 2032 84 Q1963 38 1871 19 Q1779 0 1627 0 L1006 0 L1006 620 L555 620 L555 0 L152 0 Z M1409 303 L1618 303 Q1817 303 1817 471 Q1817 641 1618 641 L1409 641 L1409 303 Z " />
<glyph glyph-name="afii10060" unicode="&#x40b;" horiz-adv-x="1655" d="M723 0 L320 0 L320 1140 L29 1140 L29 1464 L1178 1464 L1178 1140 L723 1140 L723 804 Q826 884 912.5 916 Q999 948 1112 948 Q1520 948 1520 502 L1520 0 L1098 0 L1098 454 Q1098 563 1077 597 Q1048 645 973 645 Q870 645 723 523 L723 0 Z " />
<glyph glyph-name="afii10061" unicode="&#x40c;" horiz-adv-x="1420" d="M152 0 L152 1464 L555 1464 L555 885 L571 885 Q607 885 636.5 928.5 Q666 972 728 1118 Q783 1247 826.5 1311 Q870 1375 928 1412 Q1020 1471 1229 1471 Q1264 1471 1362 1464 L1362 1175 Q1310 1178 1272 1178 Q1206 1178 1170.5 1163.5 Q1135 1149 1107 1111 Q1086 1081 1036 964 Q995 867 975 832.5 Q955 798 925 771 Q996 732 1052.5 663.5 Q1109 595 1188 454 L1441 0 L978 0 L807 334 Q718 508 671.5 562 Q625 616 564 616 L555 616 L555 0 L152 0 Z M633 1568 L705 1935 L1127 1935 L905 1568 L633 1568 Z " />
<glyph glyph-name="uni040D" unicode="&#x40d;" horiz-adv-x="1526" d="M152 0 L152 1464 L547 1464 L547 669 L980 1341 L980 1464 L1375 1464 L1375 0 L980 0 L980 803 L547 131 L547 0 L152 0 Z M628 1568 L407 1935 L829 1935 L901 1568 L628 1568 Z " />
<glyph glyph-name="afii10062" unicode="&#x40e;" horiz-adv-x="1385" d="M565 404 L0 1464 L446 1464 L734 816 L978 1464 L1364 1464 L954 402 Q866 175 748 74 Q687 21 612 -2 Q537 -25 427 -25 Q308 -25 192 0 L221 317 Q297 303 366 303 Q447 303 493.5 326.5 Q540 350 565 404 Z M365 1898 L605 1898 Q617 1787 724 1787 Q832 1787 844 1898 L1084 1898 Q1074 1747 1012 1669 Q920 1554 724 1554 Q511 1554 421 1691 Q374 1764 365 1898 Z " />
<glyph glyph-name="afii10145" unicode="&#x40f;" horiz-adv-x="1505" d="M158 0 L158 1464 L561 1464 L561 317 L945 317 L945 1464 L1348 1464 L1348 0 L927 0 L893 -356 L613 -356 L579 0 L158 0 Z " />
<glyph glyph-name="afii10017" unicode="&#x410;" horiz-adv-x="1538" d="M1530 0 L1102 0 L1021 248 L463 248 L381 0 L8 0 L536 1464 L1012 1464 L1530 0 Z M932 533 L746 1105 L554 533 L932 533 Z " />
<glyph glyph-name="afii10018" unicode="&#x411;" horiz-adv-x="1460" d="M152 0 L152 1464 L1242 1464 L1242 1161 L547 1161 L547 893 L802 893 Q983 893 1078 868 Q1381 787 1381 446 Q1381 186 1208 79 Q1140 36 1047 18 Q954 0 802 0 L152 0 Z M547 303 L794 303 Q994 303 994 446 Q994 590 794 590 L547 590 L547 303 Z " />
<glyph glyph-name="afii10019" unicode="&#x412;" horiz-adv-x="1462" d="M152 0 L152 1464 L856 1464 Q1123 1464 1246 1329 Q1338 1229 1338 1069 Q1338 955 1288.5 881.5 Q1239 808 1127 755 Q1232 716 1287 661 Q1381 567 1381 410 Q1381 210 1248 105 Q1115 0 862 0 L152 0 Z M547 303 L817 303 Q902 303 948 343.5 Q994 384 994 459 Q994 614 807 614 L547 614 L547 303 Z M547 893 L805 893 Q959 893 959 1025 Q959 1161 803 1161 L547 1161 L547 893 Z " />
<glyph glyph-name="afii10020" unicode="&#x413;" horiz-adv-x="1202" d="M152 0 L152 1464 L1133 1464 L1133 1140 L547 1140 L547 0 L152 0 Z " />
<glyph glyph-name="afii10021" unicode="&#x414;" horiz-adv-x="1533" d="M1208 0 L284 0 L250 -356 L-29 -356 L-29 324 L108 324 Q186 481 217 690 Q248 899 248 1272 L248 1464 L1358 1464 L1358 324 L1520 324 L1520 -356 L1241 -356 L1208 0 Z M959 311 L959 1140 L624 1140 L624 1024 Q624 844 596.5 641.5 Q569 439 528 311 L959 311 Z " />
<glyph glyph-name="afii10022" unicode="&#x415;" horiz-adv-x="1341" d="M152 0 L152 1464 L1223 1464 L1223 1147 L547 1147 L547 897 L1039 897 L1039 594 L547 594 L547 317 L1254 317 L1254 0 L152 0 Z " />
<glyph glyph-name="afii10024" unicode="&#x416;" horiz-adv-x="2075" d="M847 0 L847 624 Q759 606 709.5 552.5 Q660 499 581 334 L421 0 L-20 0 L225 454 Q302 596 356.5 664.5 Q411 733 479 771 Q450 798 431 833 Q412 868 373 964 Q322 1090 298 1120 Q272 1153 240 1165.5 Q208 1178 149 1178 Q111 1178 59 1175 L59 1464 Q157 1471 191 1471 Q391 1471 479 1413 Q535 1376 576.5 1313.5 Q618 1251 671 1123 Q735 968 764.5 928.5 Q794 889 847 883 L847 1464 L1230 1464 L1230 883 Q1283 889 1312 928.5 Q1341 968 1405 1123 Q1458 1251 1499.5 1313.5 Q1541 1376 1597 1413 Q1685 1471 1886 1471 Q1919 1471 2018 1464 L2018 1175 Q1966 1178 1928 1178 Q1833 1178 1797.5 1144 Q1762 1110 1703 964 Q1665 868 1645.5 833 Q1626 798 1597 771 Q1665 733 1720 664.5 Q1775 596 1851 454 L2096 0 L1655 0 L1495 334 Q1416 498 1368 551 Q1315 607 1230 624 L1230 0 L847 0 Z " />
<glyph glyph-name="afii10025" unicode="&#x417;" horiz-adv-x="1401" d="M41 390 L399 482 Q430 389 481 346 Q552 286 673 286 Q772 286 833 325 Q901 369 901 449 Q901 600 684 600 L555 600 L555 885 L674 885 Q780 885 835 921 Q899 964 899 1035 Q899 1102 844.5 1139 Q790 1176 692 1176 Q593 1176 532 1135.5 Q471 1095 430 1002 L102 1108 Q152 1246 246 1331 Q418 1487 709 1487 Q944 1487 1103 1389 Q1199 1330 1248 1236 Q1286 1160 1286 1071 Q1286 858 1063 769 Q1319 681 1319 434 Q1319 273 1216 155 Q1140 69 1004.5 22 Q869 -25 697 -25 Q380 -25 205 119 Q137 175 101 234.5 Q65 294 41 390 Z " />
<glyph glyph-name="afii10026" unicode="&#x418;" horiz-adv-x="1526" d="M152 0 L152 1464 L547 1464 L547 669 L980 1341 L980 1464 L1375 1464 L1375 0 L980 0 L980 803 L547 131 L547 0 L152 0 Z " />
<glyph glyph-name="afii10027" unicode="&#x419;" horiz-adv-x="1526" d="M152 0 L152 1464 L547 1464 L547 669 L980 1341 L980 1464 L1375 1464 L1375 0 L980 0 L980 803 L547 131 L547 0 L152 0 Z M418 1898 L658 1898 Q670 1787 777 1787 Q885 1787 897 1898 L1137 1898 Q1127 1747 1065 1669 Q973 1554 777 1554 Q564 1554 474 1691 Q427 1764 418 1898 Z " />
<glyph glyph-name="afii10028" unicode="&#x41a;" horiz-adv-x="1420" d="M152 0 L152 1464 L555 1464 L555 885 L571 885 Q607 885 636.5 928.5 Q666 972 728 1118 Q783 1247 826.5 1311 Q870 1375 928 1412 Q1020 1471 1229 1471 Q1264 1471 1362 1464 L1362 1175 Q1310 1178 1272 1178 Q1206 1178 1170.5 1163.5 Q1135 1149 1107 1111 Q1086 1081 1036 964 Q995 867 975 832.5 Q955 798 925 771 Q996 732 1052.5 663.5 Q1109 595 1188 454 L1441 0 L978 0 L807 334 Q718 508 671.5 562 Q625 616 564 616 L555 616 L555 0 L152 0 Z " />
<glyph glyph-name="afii10029" unicode="&#x41b;" horiz-adv-x="1469" d="M914 0 L914 1140 L584 1140 L584 842 Q584 341 424 0 L-16 0 Q105 195 147 386 Q199 625 199 1078 L199 1464 L1317 1464 L1317 0 L914 0 Z " />
<glyph glyph-name="afii10030" unicode="&#x41c;" horiz-adv-x="2001" d="M152 0 L152 1464 L715 1464 L995 577 L1282 1464 L1850 1464 L1850 0 L1455 0 L1455 1007 L1119 0 L834 0 L502 1012 L502 0 L152 0 Z " />
<glyph glyph-name="afii10031" unicode="&#x41d;" horiz-adv-x="1579" d="M152 0 L152 1464 L555 1464 L555 903 L1025 903 L1025 1464 L1428 1464 L1428 0 L1025 0 L1025 579 L555 579 L555 0 L152 0 Z " />
<glyph glyph-name="afii10032" unicode="&#x41e;" horiz-adv-x="1616" d="M808 1487 Q1105 1487 1298 1311 Q1534 1097 1534 731 Q1534 365 1298 151 Q1105 -25 808 -25 Q512 -25 318 151 Q82 366 82 738 Q82 959 179 1135 Q274 1306 435.5 1396.5 Q597 1487 808 1487 Z M808 1163 Q656 1163 578 1052 Q500 941 500 726 Q500 525 574 416 Q654 299 808 299 Q959 299 1037.5 409.5 Q1116 520 1116 731 Q1116 938 1042 1046 Q961 1163 808 1163 Z " />
<glyph glyph-name="afii10033" unicode="&#x41f;" horiz-adv-x="1542" d="M152 0 L152 1464 L1391 1464 L1391 0 L988 0 L988 1140 L555 1140 L555 0 L152 0 Z " />
<glyph glyph-name="afii10034" unicode="&#x420;" horiz-adv-x="1423" d="M152 0 L152 1464 L809 1464 Q1098 1464 1244 1304 Q1360 1178 1360 972 Q1360 749 1218 623 Q1076 498 829 498 L555 498 L555 0 L152 0 Z M555 791 L774 791 Q973 791 973 978 Q973 1161 776 1161 L555 1161 L555 791 Z " />
<glyph glyph-name="afii10035" unicode="&#x421;" horiz-adv-x="1503" d="M1446 393 Q1402 291 1352.5 225.5 Q1303 160 1228 105 Q1053 -25 805 -25 Q512 -25 324 134 Q209 233 147 380 Q82 535 82 725 Q82 1073 297 1288 Q496 1487 800 1487 Q1082 1487 1257 1329 Q1352 1244 1428 1083 L1071 934 Q1031 1034 986 1083 Q913 1163 794 1163 Q637 1163 563 1034 Q500 924 500 731 Q500 541 562 432 Q638 299 802 299 Q906 299 972 356 Q1038 413 1086 543 L1446 393 Z " />
<glyph glyph-name="afii10036" unicode="&#x422;" horiz-adv-x="1247" d="M1219 1464 L1219 1140 L825 1140 L825 0 L422 0 L422 1140 L29 1140 L29 1464 L1219 1464 Z " />
<glyph glyph-name="afii10037" unicode="&#x423;" horiz-adv-x="1385" d="M565 404 L0 1464 L446 1464 L734 816 L978 1464 L1364 1464 L954 402 Q866 175 748 74 Q687 21 612 -2 Q537 -25 427 -25 Q308 -25 192 0 L221 317 Q297 303 366 303 Q447 303 493.5 326.5 Q540 350 565 404 Z " />
<glyph glyph-name="afii10038" unicode="&#x424;" horiz-adv-x="1948" d="M799 -82 L799 149 Q644 161 542 187.5 Q440 214 350 267 Q222 341 151 463 Q82 582 82 732 Q82 941 216 1089 Q309 1192 446.5 1245.5 Q584 1299 799 1315 L799 1546 L1149 1546 L1149 1315 Q1433 1294 1598 1197 Q1726 1123 1797 1001 Q1866 882 1866 732 Q1866 523 1732 375 Q1639 272 1501.5 218.5 Q1364 165 1149 149 L1149 -82 L799 -82 Z M799 439 L799 1025 Q661 1006 594 960 Q492 889 492 732 Q492 597 563 529 Q634 461 799 439 Z M1149 439 Q1287 458 1354 504 Q1456 575 1456 732 Q1456 867 1384.5 935 Q1313 1003 1149 1025 L1149 439 Z " />
<glyph glyph-name="afii10039" unicode="&#x425;" horiz-adv-x="1565" d="M47 0 L543 754 L84 1464 L565 1464 L795 1048 L1022 1464 L1450 1464 L1016 770 L1517 0 L1036 0 L760 485 L479 0 L47 0 Z " />
<glyph glyph-name="afii10040" unicode="&#x426;" horiz-adv-x="1518" d="M152 0 L152 1464 L555 1464 L555 324 L939 324 L939 1464 L1342 1464 L1342 324 L1506 324 L1506 -356 L1227 -356 L1193 0 L152 0 Z " />
<glyph glyph-name="afii10041" unicode="&#x427;" horiz-adv-x="1427" d="M1276 0 L873 0 L873 506 Q755 364 515 364 Q302 364 197 483 Q102 590 102 803 L102 1464 L505 1464 L505 886 Q505 812 515 775 Q525 738 552 714 Q595 675 677 675 Q778 675 825.5 729 Q873 783 873 898 L873 1464 L1276 1464 L1276 0 Z " />
<glyph glyph-name="afii10042" unicode="&#x428;" horiz-adv-x="2243" d="M152 0 L152 1464 L555 1464 L555 324 L920 324 L920 1464 L1323 1464 L1323 324 L1688 324 L1688 1464 L2091 1464 L2091 0 L152 0 Z " />
<glyph glyph-name="afii10043" unicode="&#x429;" horiz-adv-x="2267" d="M152 0 L152 1464 L555 1464 L555 324 L920 324 L920 1464 L1323 1464 L1323 324 L1688 324 L1688 1464 L2091 1464 L2091 324 L2255 324 L2255 -356 L1976 -356 L1943 0 L152 0 Z " />
<glyph glyph-name="afii10044" unicode="&#x42a;" horiz-adv-x="1576" d="M322 0 L322 1140 L0 1140 L0 1464 L717 1464 L717 975 L943 975 Q1123 975 1218 947 Q1520 859 1520 487 Q1520 204 1348 87 Q1279 39 1186.5 19.5 Q1094 0 943 0 L322 0 Z M717 303 L934 303 Q1042 303 1089 354 Q1133 402 1133 488 Q1133 672 934 672 L717 672 L717 303 Z " />
<glyph glyph-name="afii10045" unicode="&#x42b;" horiz-adv-x="2093" d="M152 0 L152 1464 L547 1464 L547 975 L773 975 Q953 975 1048 947 Q1350 859 1350 487 Q1350 204 1178 87 Q1109 39 1016.5 19.5 Q924 0 773 0 L152 0 Z M547 303 L764 303 Q963 303 963 488 Q963 672 764 672 L547 672 L547 303 Z M1539 0 L1539 1464 L1942 1464 L1942 0 L1539 0 Z " />
<glyph glyph-name="afii10046" unicode="&#x42c;" horiz-adv-x="1406" d="M152 0 L152 1464 L547 1464 L547 975 L773 975 Q953 975 1048 947 Q1350 859 1350 487 Q1350 204 1178 87 Q1109 39 1016.5 19.5 Q924 0 773 0 L152 0 Z M547 303 L764 303 Q963 303 963 488 Q963 672 764 672 L547 672 L547 303 Z " />
<glyph glyph-name="afii10047" unicode="&#x42d;" horiz-adv-x="1446" d="M395 600 L395 885 L929 885 Q877 1164 628 1164 Q533 1164 468.5 1130 Q404 1096 352 1018 L67 1201 Q229 1487 632 1487 Q986 1487 1189 1250 Q1364 1046 1364 705 Q1364 315 1113 121 Q924 -25 622 -25 Q424 -25 276.5 43 Q129 111 41 244 L363 426 Q451 299 621 299 Q887 299 933 600 L395 600 Z " />
<glyph glyph-name="afii10048" unicode="&#x42e;" horiz-adv-x="2232" d="M152 0 L152 1464 L555 1464 L555 903 L787 903 Q832 1143 980 1295 Q1167 1487 1461 1487 Q1742 1487 1927 1311 Q2150 1097 2150 729 Q2150 362 1924 149 Q1740 -25 1461 -25 Q1133 -25 940 211 Q820 358 783 579 L555 579 L555 0 L152 0 Z M1461 1163 Q1328 1163 1259 1052.5 Q1190 942 1190 730 Q1190 518 1261 405 Q1328 298 1459 298 Q1732 298 1732 736 Q1732 924 1675 1031 Q1605 1163 1461 1163 Z " />
<glyph glyph-name="afii10049" unicode="&#x42f;" horiz-adv-x="1526" d="M1374 0 L971 0 L971 512 L740 512 Q652 512 615 467 Q578 422 544 274 Q500 79 453 0 L60 0 Q87 45 106 104 Q125 163 156 296 Q192 448 211.5 498.5 Q231 549 268 585 Q312 629 398 655 Q285 694 228 759 Q140 859 140 1034 Q140 1271 327 1383 Q403 1429 494.5 1446.5 Q586 1464 745 1464 L1374 1464 L1374 0 Z M971 801 L971 1157 L742 1157 Q624 1157 580 1120 Q527 1075 527 984 Q527 896 576.5 848.5 Q626 801 719 801 L971 801 Z " />
<glyph glyph-name="afii10065" unicode="&#x430;" horiz-adv-x="1178" d="M703 133 Q597 -25 394 -25 Q222 -25 132 74 Q59 154 59 283 Q59 542 341 612 Q480 646 684 651 L684 662 Q684 733 649 765 Q614 797 536 797 Q372 797 227 696 L74 948 Q160 1008 238 1039 Q392 1100 592 1100 Q878 1100 990 953 Q1065 855 1065 665 L1065 201 Q1065 91 1096 12 L1096 0 L731 0 Q713 51 703 133 Z M686 440 Q581 437 535 427 Q434 404 434 327 Q434 286 460.5 263 Q487 240 534 240 Q601 240 643.5 278.5 Q686 317 686 377 L686 440 Z " />
<glyph glyph-name="afii10066" unicode="&#x431;" horiz-adv-x="1295" d="M1141 1542 L1092 1267 L795 1267 Q655 1267 589.5 1252.5 Q524 1238 482 1197 Q434 1151 413 1081.5 Q392 1012 387 883 Q476 980 558 1018.5 Q640 1057 758 1057 Q987 1057 1117 886 Q1225 744 1225 530 Q1225 289 1082 139 Q927 -25 658 -25 Q399 -25 253 125 Q166 214 129.5 340 Q93 466 93 677 Q93 1008 161 1219 Q203 1350 303 1433 Q375 1493 475.5 1517.5 Q576 1542 747 1542 L1141 1542 Z M658 805 Q480 805 480 522 Q480 254 658 254 Q838 254 838 526 Q838 643 800 718 Q755 805 658 805 Z " />
<glyph glyph-name="afii10067" unicode="&#x432;" horiz-adv-x="1284" d="M152 0 L152 1071 L779 1071 Q1166 1071 1166 769 Q1166 689 1135.5 638.5 Q1105 588 1033 550 Q1123 511 1160 457.5 Q1197 404 1197 312 Q1197 0 784 0 L152 0 Z M514 254 L721 254 Q782 254 807 275 Q832 296 832 348 Q832 397 807.5 416.5 Q783 436 721 436 L514 436 L514 254 Z M521 653 L713 653 Q768 653 790 670.5 Q812 688 812 732 Q812 779 790 798 Q768 817 713 817 L521 817 L521 653 Z " />
<glyph glyph-name="afii10068" unicode="&#x433;" horiz-adv-x="1008" d="M152 0 L152 1071 L955 1071 L955 778 L531 778 L531 0 L152 0 Z " />
<glyph glyph-name="afii10069" unicode="&#x434;" horiz-adv-x="1373" d="M1044 0 L280 0 L246 -315 L-20 -315 L-20 291 L100 291 Q173 365 217 499 Q242 573 260 708 Q278 843 278 950 L278 1071 L1200 1071 L1200 291 L1337 291 L1337 -315 L1071 -315 L1044 0 Z M831 283 L831 780 L610 780 L610 745 Q594 455 505 283 L831 283 Z " />
<glyph glyph-name="afii10070" unicode="&#x435;" horiz-adv-x="1227" d="M1132 221 Q983 -25 648 -25 Q414 -25 257 104 Q70 258 70 530 Q70 765 208 920 Q368 1100 634 1100 Q884 1100 1026 943 Q1157 799 1157 535 L1157 440 L452 440 Q471 341 518 297 Q565 253 651 253 Q776 253 842 362 L1132 221 Z M792 651 Q785 728 761 766 Q720 830 630 830 Q556 830 515 788 Q474 746 457 651 L792 651 Z " />
<glyph glyph-name="afii10072" unicode="&#x436;" horiz-adv-x="1741" d="M689 0 L689 430 L679 430 Q643 430 617 402 Q591 374 555 300 L411 0 L-4 0 L197 341 Q256 442 288 480 Q320 518 379 556 Q329 610 297 694 Q264 783 240.5 801.5 Q217 820 142 820 L83 820 L83 1071 L213 1071 Q378 1071 439 1027 Q505 979 565 829 Q605 728 626 698 Q647 668 679 668 L689 668 L689 1071 L1052 1071 L1052 668 L1061 668 Q1093 668 1114.5 698.5 Q1136 729 1176 829 Q1235 979 1302 1027 Q1363 1071 1528 1071 L1659 1071 L1659 820 L1600 820 Q1524 820 1500.5 801.5 Q1477 783 1444 694 Q1412 611 1362 556 Q1421 518 1453 480 Q1485 442 1544 341 L1745 0 L1330 0 L1186 300 Q1150 374 1123.5 402 Q1097 430 1062 430 L1052 430 L1052 0 L689 0 Z " />
<glyph glyph-name="afii10073" unicode="&#x437;" horiz-adv-x="1151" d="M25 308 L342 393 Q369 321 401 292 Q453 245 559 245 Q695 245 695 338 Q695 430 586 430 L449 430 L449 651 L579 651 Q694 651 694 735 Q694 830 546 830 Q472 830 421.5 803.5 Q371 777 321 711 L53 834 Q130 975 252 1037.5 Q374 1100 569 1100 Q785 1100 910 1027 Q1059 940 1059 764 Q1059 691 1030 644.5 Q1001 598 931 559 Q1082 487 1082 334 Q1082 141 925 54 Q782 -25 556 -25 Q262 -25 124 107 Q84 145 63.5 186.5 Q43 228 25 308 Z " />
<glyph glyph-name="afii10074" unicode="&#x438;" horiz-adv-x="1298" d="M152 0 L152 1071 L519 1071 L519 553 L780 972 L780 1071 L1147 1071 L1147 0 L780 0 L780 523 L519 105 L519 0 L152 0 Z " />
<glyph glyph-name="afii10075" unicode="&#x439;" horiz-adv-x="1298" d="M152 0 L152 1071 L519 1071 L519 553 L780 972 L780 1071 L1147 1071 L1147 0 L780 0 L780 523 L519 105 L519 0 L152 0 Z M290 1530 L530 1530 Q543 1419 650 1419 Q757 1419 770 1530 L1009 1530 Q999 1379 937 1301 Q845 1186 650 1186 Q436 1186 346 1323 Q299 1396 290 1530 Z " />
<glyph glyph-name="afii10076" unicode="&#x43a;" horiz-adv-x="1253" d="M152 0 L152 1071 L531 1071 L531 664 L540 664 Q576 665 600 695.5 Q624 726 668 829 Q738 989 809 1032 Q875 1071 1040 1071 L1171 1071 L1171 820 L1112 820 Q1031 820 1006 801.5 Q981 783 945 694 Q908 604 858 556 Q917 520 952 480.5 Q987 441 1048 341 L1258 0 L826 0 L668 300 Q630 372 603.5 400 Q577 428 546 428 L531 428 L531 0 L152 0 Z " />
<glyph glyph-name="afii10077" unicode="&#x43b;" horiz-adv-x="1278" d="M751 0 L751 778 L530 778 L530 654 Q530 459 499 312 Q468 165 392 0 L8 0 Q97 153 136 290 Q198 507 198 862 L198 1071 L1126 1071 L1126 0 L751 0 Z " />
<glyph glyph-name="afii10078" unicode="&#x43c;" horiz-adv-x="1706" d="M152 0 L152 1071 L647 1071 L846 461 L1048 1071 L1555 1071 L1555 0 L1176 0 L1176 685 L950 0 L715 0 L492 683 L492 0 L152 0 Z " />
<glyph glyph-name="afii10079" unicode="&#x43d;" horiz-adv-x="1317" d="M152 0 L152 1071 L531 1071 L531 688 L787 688 L787 1071 L1166 1071 L1166 0 L787 0 L787 395 L531 395 L531 0 L152 0 Z " />
<glyph glyph-name="afii10080" unicode="&#x43e;" horiz-adv-x="1274" d="M640 1100 Q891 1100 1050 942 Q1205 788 1205 540 Q1205 290 1048 134 Q888 -25 636 -25 Q381 -25 223 132 Q70 283 70 535 Q70 780 229 940 Q388 1100 640 1100 Z M641 815 Q457 815 457 542 Q457 260 641 260 Q818 260 818 544 Q818 815 641 815 Z " />
<glyph glyph-name="afii10081" unicode="&#x43f;" horiz-adv-x="1319" d="M152 0 L152 1071 L1168 1071 L1168 0 L789 0 L789 778 L531 778 L531 0 L152 0 Z " />
<glyph glyph-name="afii10082" unicode="&#x440;" horiz-adv-x="1307" d="M119 -373 L119 1071 L498 1071 L498 915 Q610 1100 809 1100 Q987 1100 1103 967 Q1237 814 1237 536 Q1237 254 1100 102 Q984 -25 807 -25 Q594 -25 498 154 L498 -373 L119 -373 Z M671 815 Q581 815 533.5 742.5 Q486 670 486 534 Q486 403 533 331.5 Q580 260 667 260 Q850 260 850 538 Q850 815 671 815 Z " />
<glyph glyph-name="afii10083" unicode="&#x441;" horiz-adv-x="1145" d="M1108 279 Q967 -25 620 -25 Q391 -25 245 99 Q70 248 70 526 Q70 788 226 945 Q379 1100 620 1100 Q789 1100 907.5 1024 Q1026 948 1100 792 L783 657 Q759 731 741 758 Q704 815 630 815 Q457 815 457 545 Q457 260 636 260 Q756 260 807 418 L1108 279 Z " />
<glyph glyph-name="afii10084" unicode="&#x442;" horiz-adv-x="1018" d="M320 0 L320 778 L41 778 L41 1071 L977 1071 L977 778 L699 778 L699 0 L320 0 Z " />
<glyph glyph-name="afii10085" unicode="&#x443;" horiz-adv-x="1169" d="M37 -320 L133 -64 Q195 -104 260 -104 Q361 -104 405 -4 L410 8 L-4 1071 L399 1071 L604 473 L805 1071 L1174 1071 L766 -4 Q691 -203 577.5 -296 Q464 -389 296 -389 Q155 -389 37 -320 Z " />
<glyph glyph-name="afii10086" unicode="&#x444;" horiz-adv-x="1819" d="M740 -373 L740 154 Q655 -25 465 -25 Q269 -25 160 153 Q70 301 70 535 Q70 800 182 952 Q291 1100 464 1100 Q641 1100 740 932 L740 1542 L1080 1542 L1080 932 Q1180 1100 1355 1100 Q1553 1100 1661 917 Q1750 767 1750 535 Q1750 284 1647 134 Q1539 -25 1355 -25 Q1166 -25 1080 154 L1080 -373 L740 -373 Z M1219 815 Q1146 815 1107 743 Q1068 671 1068 535 Q1068 260 1217 260 Q1363 260 1363 540 Q1363 815 1219 815 Z M598 815 Q457 815 457 539 Q457 260 602 260 Q674 260 713.5 332 Q753 404 753 534 Q753 669 712.5 742 Q672 815 598 815 Z " />
<glyph glyph-name="afii10087" unicode="&#x445;" horiz-adv-x="1260" d="M31 0 L398 545 L54 1071 L492 1071 L647 805 L805 1071 L1196 1071 L848 573 L1229 0 L789 0 L606 303 L420 0 L31 0 Z " />
<glyph glyph-name="afii10088" unicode="&#x446;" horiz-adv-x="1329" d="M152 0 L152 1071 L531 1071 L531 293 L777 293 L777 1071 L1156 1071 L1156 293 L1293 293 L1293 -315 L1027 -315 L1003 0 L152 0 Z " />
<glyph glyph-name="afii10089" unicode="&#x447;" horiz-adv-x="1245" d="M78 1071 L457 1071 L457 711 Q457 545 571 545 Q715 545 715 733 L715 1071 L1094 1071 L1094 0 L715 0 L715 426 Q612 248 402 248 Q225 248 140 385 Q78 484 78 643 L78 1071 Z " />
<glyph glyph-name="afii10090" unicode="&#x448;" horiz-adv-x="1886" d="M152 0 L152 1071 L527 1071 L527 293 L768 293 L768 1071 L1118 1071 L1118 293 L1360 293 L1360 1071 L1735 1071 L1735 0 L152 0 Z " />
<glyph glyph-name="afii10091" unicode="&#x449;" horiz-adv-x="1909" d="M152 0 L152 1071 L527 1071 L527 293 L768 293 L768 1071 L1118 1071 L1118 293 L1360 293 L1360 1071 L1735 1071 L1735 291 L1872 291 L1872 -315 L1611 -315 L1588 0 L152 0 Z " />
<glyph glyph-name="afii10092" unicode="&#x44a;" horiz-adv-x="1307" d="M596 748 L786 748 Q916 748 993.5 730.5 Q1071 713 1124 671 Q1237 582 1237 374 Q1237 148 1102 62 Q1049 28 977.5 14 Q906 0 786 0 L233 0 L233 807 L0 807 L0 1071 L596 1071 L596 748 Z M598 262 L716 262 Q782 262 808 269 Q834 276 849 299 Q870 329 870 380 Q870 437 845 467 Q829 486 804 492 Q779 498 716 498 L598 498 L598 262 Z " />
<glyph glyph-name="afii10093" unicode="&#x44b;" horiz-adv-x="1841" d="M152 0 L152 1071 L514 1071 L514 748 L705 748 Q835 748 912.5 730.5 Q990 713 1043 671 Q1156 582 1156 374 Q1156 148 1021 62 Q968 28 896.5 14 Q825 0 705 0 L152 0 Z M517 262 L635 262 Q701 262 727 269.5 Q753 277 769 299 Q789 329 789 380 Q789 437 764 467 Q747 486 722.5 492 Q698 498 635 498 L517 498 L517 262 Z M1311 0 L1311 1071 L1690 1071 L1690 0 L1311 0 Z " />
<glyph glyph-name="afii10094" unicode="&#x44c;" horiz-adv-x="1227" d="M152 0 L152 1071 L514 1071 L514 748 L705 748 Q835 748 912.5 730.5 Q990 713 1043 671 Q1156 582 1156 374 Q1156 148 1021 62 Q968 28 896.5 14 Q825 0 705 0 L152 0 Z M517 262 L635 262 Q701 262 727 269.5 Q753 277 769 299 Q789 329 789 380 Q789 437 764 467 Q747 486 722.5 492 Q698 498 635 498 L517 498 L517 262 Z " />
<glyph glyph-name="afii10095" unicode="&#x44d;" horiz-adv-x="1185" d="M338 434 L338 655 L702 655 Q669 815 512 815 Q385 815 283 699 L52 894 Q217 1100 534 1100 Q775 1100 918 980 Q1102 824 1102 536 Q1102 283 957 131 Q887 59 804 23 Q693 -25 512 -25 Q184 -25 29 198 L286 362 Q382 260 501 260 Q679 260 705 434 L338 434 Z " />
</font>
</svg>
