<?xml version="1.0" encoding="UTF-8"?>
<svg xmlns="http://www.w3.org/2000/svg" xmlns:xlink="http://www.w3.org/1999/xlink" version="1.2" >
<font id="Bosch Sans Light">
<font-face  font-family="Bosch Sans" units-per-em="2048" ascent="1638" descent="-555" font-style="normal" font-weight="300" font-stretch="normal" cap-height="1464" x-height="1071" underline-position="-212" underline-thickness="100" />
<missing-glyph  horiz-adv-x="442" d="M44 0 L44 1464 L398 1464 L398 0 L44 0 Z M354 44 L354 1420 L88 1420 L88 44 L354 44 Z " />
<glyph glyph-name="space" unicode="&#x20;" horiz-adv-x="442" d="" />
<glyph glyph-name="exclam" unicode="&#x21;" horiz-adv-x="639" d="M328 411 L297 979 L297 1464 L424 1464 L424 979 L393 411 L328 411 Z M360 178 Q398 178 426 150.5 Q454 123 454 84 Q454 46 426 18 Q398 -10 359 -10 Q320 -10 293 17.5 Q266 45 266 84 Q266 124 293 151 Q320 178 360 178 Z " />
<glyph glyph-name="quotedbl" unicode="&#x22;" horiz-adv-x="690" d="M166 961 L143 1464 L272 1464 L249 961 L166 961 Z M442 961 L419 1464 L546 1464 L524 961 L442 961 Z " />
<glyph glyph-name="numbersign" unicode="&#x23;" horiz-adv-x="1049" d="M111 1037 L111 1137 L334 1137 L371 1464 L465 1464 L428 1137 L676 1137 L713 1464 L807 1464 L770 1137 L984 1137 L984 1037 L758 1037 L723 731 L938 731 L938 631 L713 631 L676 293 L582 293 L619 631 L371 631 L334 293 L240 293 L277 631 L66 631 L66 731 L287 731 L322 1037 L111 1037 Z M416 1037 L381 731 L629 731 L664 1037 L416 1037 Z " />
<glyph glyph-name="dollar" unicode="&#x24;" horiz-adv-x="1163" d="M524 -14 Q343 1 221.5 103.5 Q100 206 52 385 L167 408 Q243 120 524 91 L524 730 Q357 775 284 819 Q115 920 115 1115 Q115 1239 181 1329 Q290 1478 524 1483 L524 1665 L614 1665 L614 1478 Q908 1447 1016 1159 L910 1131 Q857 1247 789.5 1302.5 Q722 1358 614 1373 L614 823 Q810 770 891 713 Q1049 600 1049 398 Q1049 214 932.5 103 Q816 -8 614 -15 L614 -276 L524 -276 L524 -14 Z M524 848 L524 1378 Q427 1376 361 1342 Q236 1277 236 1117 Q236 968 378 897 Q414 880 524 848 Z M614 705 L614 90 Q700 95 765 124 Q928 199 928 396 Q928 565 776 645 Q724 672 614 705 Z " />
<glyph glyph-name="percent" unicode="&#x25;" horiz-adv-x="1673" d="M409 1474 Q551 1474 635 1355 Q710 1250 710 1084 Q710 882 602 774 Q522 694 407 694 Q290 694 208 776 Q100 883 100 1082 Q100 1260 185 1367 Q269 1474 409 1474 Z M401 1378 Q309 1378 260 1302 Q211 1226 211 1083 Q211 940 260.5 864 Q310 788 403 788 Q600 788 600 1082 Q600 1378 401 1378 Z M1272 768 Q1415 768 1499 650 Q1573 546 1573 381 Q1573 177 1466 69 Q1386 -12 1270 -12 Q1125 -12 1039 109 Q964 214 964 378 Q964 555 1049 663 Q1132 768 1272 768 Z M1266 668 Q1174 668 1124.5 593 Q1075 518 1075 378 Q1075 239 1124.5 163.5 Q1174 88 1265 88 Q1370 88 1419 174 Q1462 250 1462 378 Q1462 520 1411.5 594 Q1361 668 1266 668 Z M381 0 L1187 1464 L1292 1464 L485 0 L381 0 Z " />
<glyph glyph-name="ampersand" unicode="&#x26;" horiz-adv-x="1360" d="M919 137 Q742 -14 532 -14 Q332 -14 213 106 Q106 213 106 383 Q106 595 279 737 Q342 790 466 855 Q407 1018 407 1141 Q407 1292 490 1383 Q573 1474 706 1474 Q836 1474 909 1378 Q966 1305 966 1206 Q966 1085 885.5 1000 Q805 915 600 818 Q721 554 925 304 Q1035 465 1069 711 L1177 711 Q1150 414 997 222 Q1065 149 1110 120.5 Q1155 92 1200 92 Q1226 92 1265 109 L1294 6 Q1237 -12 1196 -12 Q1127 -12 1063 22 Q999 56 919 137 Z M501 771 Q404 717 354 674 Q227 561 227 395 Q227 255 311 172 Q397 86 538 86 Q703 86 849 217 Q626 496 501 771 Z M567 902 Q662 949 702 974 Q855 1070 855 1207 Q855 1283 814 1328.5 Q773 1374 704 1374 Q617 1374 567.5 1311 Q518 1248 518 1139 Q518 1040 567 902 Z " />
<glyph glyph-name="quotesingle" unicode="&#x27;" horiz-adv-x="414" d="M166 961 L143 1464 L272 1464 L249 961 L166 961 Z " />
<glyph glyph-name="parenleft" unicode="&#x28;" horiz-adv-x="819" d="M577 -303 Q445 -134 379 6 Q247 286 247 640 Q247 922 324.5 1145.5 Q402 1369 577 1589 L685 1589 Q555 1405 491 1258 Q372 984 372 641 Q372 363 441 154.5 Q510 -54 685 -303 L577 -303 Z " />
<glyph glyph-name="parenright" unicode="&#x29;" horiz-adv-x="819" d="M243 1589 Q374 1422 440 1280 Q572 1001 572 646 Q572 364 494.5 140.5 Q417 -83 243 -303 L134 -303 Q264 -120 328 28 Q447 302 447 645 Q447 923 378 1131.5 Q309 1340 134 1589 L243 1589 Z " />
<glyph glyph-name="asterisk" unicode="&#x2a;" horiz-adv-x="860" d="M266 872 L176 936 L362 1171 L102 1245 L135 1349 L383 1243 L364 1542 L477 1542 L458 1243 L704 1349 L739 1245 L479 1171 L663 936 L575 872 L419 1122 L266 872 Z " />
<glyph glyph-name="plus" unicode="&#x2b;" horiz-adv-x="1049" d="M101 652 L101 752 L470 752 L470 1165 L581 1165 L581 752 L947 752 L947 652 L581 652 L581 233 L470 233 L470 652 L101 652 Z " />
<glyph glyph-name="comma" unicode="&#x2c;" horiz-adv-x="582" d="M207 -233 L207 -164 Q290 -135 297 -8 Q197 0 197 85 Q197 125 223.5 151.5 Q250 178 289 178 Q337 178 364 140.5 Q391 103 391 35 Q391 -85 346 -150.5 Q301 -216 207 -233 Z " />
<glyph glyph-name="hyphen" unicode="&#x2d;" horiz-adv-x="582" d="M90 585 L90 700 L491 700 L491 585 L90 585 Z " />
<glyph glyph-name="period" unicode="&#x2e;" horiz-adv-x="582" d="M291 178 Q329 178 357 150.5 Q385 123 385 84 Q385 46 357 18 Q329 -10 290 -10 Q251 -10 224 17.5 Q197 45 197 84 Q197 124 224 151 Q251 178 291 178 Z " />
<glyph glyph-name="slash" unicode="&#x2f;" horiz-adv-x="852" d="M51 -303 L639 1589 L751 1589 L164 -303 L51 -303 Z " />
<glyph glyph-name="zero" unicode="0" horiz-adv-x="1163" d="M591 1482 Q752 1482 876 1353 Q1069 1152 1069 734 Q1069 491 999 312 Q914 96 757 22 Q677 -16 589 -16 Q363 -16 226 197 Q94 402 94 730 Q94 1026 196 1222 Q332 1482 591 1482 Z M577 1382 Q460 1382 371 1285 Q219 1119 219 734 Q219 350 370 183 Q459 84 583 84 Q767 84 859 273 Q944 449 944 728 Q944 1017 858 1188 Q760 1382 577 1382 Z " />
<glyph glyph-name="one" unicode="1" horiz-adv-x="1163" d="M190 0 L190 100 L538 100 L538 1244 Q426 1169 223 1160 L223 1246 Q515 1277 576 1493 L655 1493 L655 100 L981 100 L981 0 L190 0 Z " />
<glyph glyph-name="two" unicode="2" horiz-adv-x="1163" d="M111 0 L111 106 Q442 373 571 505 Q861 802 861 1065 Q861 1174 817 1252 Q743 1382 569 1382 Q329 1382 246 1088 L136 1113 Q169 1257 249 1344 Q376 1482 574 1482 Q793 1482 908 1324 Q986 1218 986 1065 Q986 768 667 449 Q529 311 250 100 L996 100 L996 0 L111 0 Z " />
<glyph glyph-name="three" unicode="3" horiz-adv-x="1163" d="M750 780 Q824 760 867.5 733.5 Q911 707 949 660 Q1030 557 1030 405 Q1030 229 918 116 Q788 -16 557 -16 Q343 -16 204 107 Q141 162 107.5 224.5 Q74 287 58 381 L166 406 Q241 84 557 84 Q740 84 831 186 Q905 268 905 404 Q905 557 809 642 Q718 723 557 723 L414 723 L414 823 L547 823 Q701 823 785 902 Q864 976 864 1103 Q864 1217 799 1291 Q719 1382 570 1382 Q322 1382 232 1108 L131 1132 Q235 1482 574 1482 Q771 1482 887 1358 Q985 1254 985 1105 Q985 875 750 780 Z " />
<glyph glyph-name="four" unicode="4" horiz-adv-x="1163" d="M774 0 L774 322 L72 322 L72 443 L762 1487 L887 1487 L887 422 L1090 422 L1090 322 L887 322 L887 0 L774 0 Z M774 1339 L174 422 L774 422 L774 1339 Z " />
<glyph glyph-name="five" unicode="5" horiz-adv-x="1163" d="M279 822 Q396 956 584 956 Q769 956 893 832 Q1027 696 1027 472 Q1027 247 891 112 Q763 -16 559 -16 Q375 -16 250 82 Q139 169 91 332 L197 360 Q288 84 558 84 Q720 84 811 186 Q902 288 902 467 Q902 658 795 766 Q706 856 567 856 Q469 856 398 817 Q327 778 265 690 L162 690 L228 1464 L957 1464 L957 1364 L326 1364 L279 822 Z " />
<glyph glyph-name="six" unicode="6" horiz-adv-x="1163" d="M229 684 Q357 923 614 923 Q809 923 935 795 Q1062 665 1062 462 Q1062 248 932 115 Q803 -16 597 -16 Q478 -16 377.5 37.5 Q277 91 211 189 Q110 339 110 651 Q110 1012 234 1233 Q373 1482 632 1482 Q770 1482 862 1409.5 Q954 1337 1011 1183 L903 1152 Q859 1256 816 1302 Q743 1382 625 1382 Q412 1382 306 1126 Q269 1036 252 940.5 Q235 845 229 684 Z M600 823 Q448 823 347 720 Q245 616 245 459 Q245 294 350 186 Q449 84 595 84 Q740 84 834 182 Q937 288 937 460 Q937 629 840 730 Q751 823 600 823 Z " />
<glyph glyph-name="seven" unicode="7" horiz-adv-x="1163" d="M324 0 Q401 826 926 1364 L123 1364 L123 1464 L1041 1464 L1041 1348 Q934 1236 876.5 1163 Q819 1090 758 988 Q491 544 447 0 L324 0 Z " />
<glyph glyph-name="eight" unicode="8" horiz-adv-x="1163" d="M795 794 Q1084 683 1084 413 Q1084 177 880 59 Q750 -16 582 -16 Q373 -16 228 99 Q80 217 80 413 Q80 685 371 796 Q160 895 160 1110 Q160 1293 304 1398 Q419 1482 582 1482 Q758 1482 876 1385 Q1004 1281 1004 1112 Q1004 896 795 794 Z M581 744 Q423 744 318 660 Q205 570 205 415 Q205 249 334 157 Q436 84 583 84 Q767 84 871 188 Q959 276 959 413 Q959 582 834 672 Q733 744 581 744 Z M579 1382 Q447 1382 364 1306 Q281 1230 281 1109 Q281 988 363.5 916 Q446 844 585 844 Q739 844 818 931 Q883 1002 883 1113 Q883 1225 810 1298 Q726 1382 579 1382 Z " />
<glyph glyph-name="nine" unicode="9" horiz-adv-x="1163" d="M911 794 Q789 569 544 569 Q357 569 237 694 Q116 820 116 1016 Q116 1180 200 1300 Q328 1482 569 1482 Q724 1482 835 1398 Q960 1305 1003 1121 Q1031 1003 1031 821 Q1031 310 829 106 Q708 -16 528 -16 Q373 -16 270 61.5 Q167 139 118 291 L229 323 Q268 217 317 166 Q396 84 525 84 Q749 84 842 332 Q876 420 890.5 521 Q905 622 911 794 Z M565 1382 Q407 1382 313 1258 Q241 1161 241 1021 Q241 857 334 760 Q420 669 558 669 Q704 669 801 769 Q898 868 898 1020 Q898 1181 800 1286 Q710 1382 565 1382 Z " />
<glyph glyph-name="colon" unicode="&#x3a;" horiz-adv-x="582" d="M291 178 Q329 178 357 150.5 Q385 123 385 84 Q385 46 357 18 Q329 -10 290 -10 Q251 -10 224 17.5 Q197 45 197 84 Q197 124 224 151 Q251 178 291 178 Z M290 764 Q328 764 355.5 736.5 Q383 709 383 672 Q383 633 355.5 605.5 Q328 578 289 578 Q250 578 223.5 605 Q197 632 197 672 Q197 711 224 737.5 Q251 764 290 764 Z " />
<glyph glyph-name="semicolon" unicode="&#x3b;" horiz-adv-x="582" d="M207 -233 L207 -164 Q290 -135 297 -8 Q197 0 197 85 Q197 125 223.5 151.5 Q250 178 289 178 Q337 178 364 140.5 Q391 103 391 35 Q391 -85 346 -150.5 Q301 -216 207 -233 Z M292 764 Q330 764 357.5 736.5 Q385 709 385 672 Q385 633 357.5 605.5 Q330 578 291 578 Q252 578 225.5 605 Q199 632 199 672 Q199 711 226 737.5 Q253 764 292 764 Z " />
<glyph glyph-name="less" unicode="&#x3c;" horiz-adv-x="1049" d="M906 211 L128 610 L128 708 L906 1110 L906 989 L249 661 L906 327 L906 211 Z " />
<glyph glyph-name="equal" unicode="&#x3d;" horiz-adv-x="1049" d="M135 783 L135 883 L913 883 L913 783 L135 783 Z M135 442 L135 542 L913 542 L913 442 L135 442 Z " />
<glyph glyph-name="greater" unicode="&#x3e;" horiz-adv-x="1049" d="M142 215 L142 332 L797 657 L142 991 L142 1106 L920 706 L920 614 L142 215 Z " />
<glyph glyph-name="question" unicode="&#x3f;" horiz-adv-x="1040" d="M436 412 L436 543 Q436 658 474 722.5 Q512 787 635 881 Q723 948 756.5 1004.5 Q790 1061 790 1143 Q790 1252 721 1317 Q652 1382 536 1382 Q293 1382 231 1118 L123 1136 Q156 1297 259 1386 Q372 1482 538 1482 Q714 1482 818 1378 Q911 1284 911 1144 Q911 1036 864.5 962 Q818 888 692 797 Q596 727 566 676.5 Q536 626 536 533 L536 412 L436 412 Z M486 178 Q524 178 551.5 150.5 Q579 123 579 84 Q579 46 551 18 Q523 -10 485 -10 Q446 -10 418.5 18 Q391 46 391 84 Q391 123 418.5 150.5 Q446 178 486 178 Z " />
<glyph glyph-name="at" unicode="&#x40;" horiz-adv-x="1876" d="M1409 -168 Q1284 -252 1170.5 -286 Q1057 -320 906 -320 Q582 -320 378 -114 Q267 -2 209 153 Q152 303 152 471 Q152 715 268 914 Q375 1098 555 1203 Q739 1310 961 1310 Q1186 1310 1369 1204 Q1534 1108 1629 943 Q1725 777 1725 572 Q1725 374 1647 235 Q1599 150 1520 104 Q1448 63 1364 63 Q1269 63 1211 116.5 Q1153 170 1139 270 Q1085 166 1024 116 Q941 49 830 49 Q699 49 624 140 Q549 231 549 389 Q549 505 583.5 613.5 Q618 722 679 799 Q792 940 950 940 Q1119 940 1180 774 L1211 915 L1321 915 L1239 442 Q1229 381 1229 334 Q1229 163 1369 163 Q1493 163 1563 285 Q1627 398 1627 572 Q1627 848 1448 1025 Q1261 1210 960 1210 Q663 1210 467 1015 Q256 805 256 475 Q256 189 411 -2 Q587 -220 911 -220 Q1037 -220 1136.5 -190.5 Q1236 -161 1356 -88 L1409 -168 Z M949 836 Q868 836 800 771 Q740 713 705 610 Q670 507 670 389 Q670 153 844 153 Q986 153 1064 293 Q1099 354 1120 442.5 Q1141 531 1141 612 Q1141 717 1088 778 Q1037 836 949 836 Z " />
<glyph glyph-name="A" unicode="A" horiz-adv-x="1244" d="M293 387 L156 0 L37 0 L576 1464 L673 1464 L1207 0 L1091 0 L952 387 L293 387 Z M329 487 L916 487 L621 1310 L329 487 Z " />
<glyph glyph-name="B" unicode="B" horiz-adv-x="1364" d="M190 0 L190 1464 L708 1464 Q972 1464 1087 1339 Q1173 1246 1173 1090 Q1173 974 1123 899.5 Q1073 825 962 776 Q1048 751 1097.5 720.5 Q1147 690 1185 636 Q1251 545 1251 414 Q1251 177 1062 69 Q941 0 768 0 L190 0 Z M307 100 L784 100 Q965 100 1057 202 Q1130 282 1130 412 Q1130 556 1044 634 Q954 715 776 715 L307 715 L307 100 Z M307 815 L762 815 Q914 815 989 899 Q1052 969 1052 1093 Q1052 1364 717 1364 L307 1364 L307 815 Z " />
<glyph glyph-name="C" unicode="C" horiz-adv-x="1448" d="M1325 405 Q1271 259 1206 179 Q1050 -16 774 -16 Q466 -16 292 226 Q147 428 147 729 Q147 1054 318 1267 Q492 1484 779 1484 Q1007 1484 1148 1344 Q1198 1294 1231 1239 Q1264 1184 1302 1087 L1198 1052 Q1142 1200 1069 1273 Q957 1384 779 1384 Q539 1384 400 1190 Q272 1010 272 731 Q272 492 367 323 Q501 84 778 84 Q978 84 1099 218 Q1170 297 1218 444 L1325 405 Z " />
<glyph glyph-name="D" unicode="D" horiz-adv-x="1458" d="M190 0 L190 1464 L635 1464 Q963 1464 1140 1265 Q1311 1073 1311 729 Q1311 344 1104 155 Q934 0 633 0 L190 0 Z M307 100 L643 100 Q907 100 1045 256 Q1186 416 1186 733 Q1186 1077 1013 1238 Q877 1364 641 1364 L307 1364 L307 100 Z " />
<glyph glyph-name="E" unicode="E" horiz-adv-x="1239" d="M190 0 L190 1464 L1081 1464 L1081 1364 L307 1364 L307 795 L960 795 L960 695 L307 695 L307 100 L1118 100 L1118 0 L190 0 Z " />
<glyph glyph-name="F" unicode="F" horiz-adv-x="1182" d="M190 0 L190 1464 L1062 1464 L1062 1364 L307 1364 L307 758 L925 758 L925 658 L307 658 L307 0 L190 0 Z " />
<glyph glyph-name="G" unicode="G" horiz-adv-x="1526" d="M1255 293 Q1175 146 1075 74 Q950 -16 778 -16 Q560 -16 402 113 Q285 209 219 361 Q147 529 147 730 Q147 1047 318 1261 Q496 1484 786 1484 Q1011 1484 1154 1349 Q1205 1301 1238.5 1248 Q1272 1195 1312 1101 L1208 1063 Q1150 1208 1074 1279 Q962 1384 786 1384 Q544 1384 401 1186 Q272 1006 272 732 Q272 497 368 326 Q432 210 539 147 Q645 84 780 84 Q970 84 1097 213 Q1240 357 1240 590 L1240 635 L831 635 L831 735 L1357 735 L1357 0 L1277 0 L1255 293 Z " />
<glyph glyph-name="H" unicode="H" horiz-adv-x="1411" d="M190 0 L190 1464 L307 1464 L307 778 L1103 778 L1103 1464 L1220 1464 L1220 0 L1103 0 L1103 678 L307 678 L307 0 L190 0 Z " />
<glyph glyph-name="I" unicode="I" horiz-adv-x="567" d="M225 0 L225 1464 L342 1464 L342 0 L225 0 Z " />
<glyph glyph-name="J" unicode="J" horiz-adv-x="1081" d="M901 1464 L901 455 Q901 -16 504 -16 Q306 -16 196 105 Q100 212 100 391 L100 498 L217 498 L217 406 Q217 248 289 166 Q361 84 499 84 Q784 84 784 439 L784 1464 L901 1464 Z " />
<glyph glyph-name="K" unicode="K" horiz-adv-x="1249" d="M190 0 L190 1464 L307 1464 L307 686 L995 1464 L1132 1464 L594 858 L1161 0 L1028 0 L516 770 L307 534 L307 0 L190 0 Z " />
<glyph glyph-name="L" unicode="L" horiz-adv-x="1153" d="M190 0 L190 1464 L307 1464 L307 100 L1054 100 L1054 0 L190 0 Z " />
<glyph glyph-name="M" unicode="M" horiz-adv-x="1733" d="M190 1464 L373 1464 L872 126 L1359 1464 L1542 1464 L1542 0 L1425 0 L1425 1342 L937 0 L808 0 L301 1341 L301 0 L190 0 L190 1464 Z " />
<glyph glyph-name="N" unicode="N" horiz-adv-x="1407" d="M190 0 L190 1464 L348 1464 L1103 125 L1103 1464 L1216 1464 L1216 0 L1044 0 L303 1315 L303 0 L190 0 Z " />
<glyph glyph-name="O" unicode="O" horiz-adv-x="1599" d="M805 1482 Q1016 1482 1182 1349 Q1310 1245 1381 1083 Q1452 920 1452 729 Q1452 488 1345 301 Q1256 146 1112 63 Q972 -16 803 -16 Q542 -16 361 166 Q147 381 147 733 Q147 1042 316 1251 Q501 1482 805 1482 Z M792 1382 Q675 1382 572.5 1328 Q470 1274 399 1175 Q272 998 272 731 Q272 409 450 228 Q592 84 801 84 Q1002 84 1137 210 Q1238 305 1288 460 Q1327 584 1327 729 Q1327 1013 1179 1197 Q1030 1382 792 1382 Z " />
<glyph glyph-name="P" unicode="P" horiz-adv-x="1286" d="M190 0 L190 1464 L698 1464 Q950 1464 1072 1330 Q1167 1226 1167 1052 Q1167 862 1047 757 Q924 648 696 648 L307 648 L307 0 L190 0 Z M307 748 L706 748 Q886 748 975 846 Q1046 924 1046 1057 Q1046 1207 958 1286 Q871 1364 706 1364 L307 1364 L307 748 Z " />
<glyph glyph-name="Q" unicode="Q" horiz-adv-x="1599" d="M1178 107 Q1020 -16 803 -16 Q541 -16 361 166 Q147 381 147 732 Q147 1042 316 1251 Q380 1332 464 1385 Q613 1482 798 1482 Q1017 1482 1182 1349 Q1310 1245 1381 1083 Q1452 921 1452 729 Q1452 566 1401 422.5 Q1350 279 1255 178 L1452 -8 L1382 -86 L1178 107 Z M1101 180 L897 375 L968 450 L1177 253 Q1327 432 1327 728 Q1327 1012 1178 1197 Q1030 1382 798 1382 Q547 1382 399 1175 Q272 998 272 731 Q272 408 450 228 Q592 84 801 84 Q973 84 1101 180 Z " />
<glyph glyph-name="R" unicode="R" horiz-adv-x="1329" d="M190 0 L190 1464 L696 1464 Q938 1464 1058 1334 Q1149 1235 1149 1076 Q1149 924 1061 832 Q1018 786 968.5 762 Q919 738 835 722 Q957 685 1015 613 Q1049 570 1066.5 521 Q1084 472 1105 365 Q1127 249 1161 151 Q1195 53 1229 10 L1229 0 L1108 0 Q1030 131 984 397 Q955 551 874 616.5 Q793 682 631 682 L307 682 L307 0 L190 0 Z M307 782 L676 782 Q847 782 937.5 857.5 Q1028 933 1028 1075 Q1028 1215 944 1289 Q861 1364 698 1364 L307 1364 L307 782 Z " />
<glyph glyph-name="S" unicode="S" horiz-adv-x="1286" d="M987 1130 Q936 1239 877 1291 Q779 1378 606 1378 Q462 1378 379 1316 Q288 1249 288 1116 Q288 1002 364 942 Q409 907 468.5 884.5 Q528 862 671 826 Q809 792 887.5 757.5 Q966 723 1022 674 Q1138 570 1138 398 Q1138 188 983 76 Q856 -16 654 -16 Q401 -16 248 131 Q149 226 104 385 L219 407 Q254 290 314 221 Q430 88 650 88 Q788 88 880 141 Q1017 220 1017 395 Q1017 529 927 601 Q882 636 818.5 661.5 Q755 687 638 717 Q486 757 416.5 784 Q347 811 291 853 Q167 946 167 1114 Q167 1273 276 1372 Q397 1482 604 1482 Q847 1482 983 1339 Q1047 1272 1093 1159 L987 1130 Z " />
<glyph glyph-name="T" unicode="T" horiz-adv-x="1165" d="M525 0 L525 1364 L74 1364 L74 1464 L1092 1464 L1092 1364 L642 1364 L642 0 L525 0 Z " />
<glyph glyph-name="U" unicode="U" horiz-adv-x="1378" d="M1085 1464 L1196 1464 L1196 524 Q1196 326 1123 199 Q1000 -16 692 -16 Q443 -16 312.5 122.5 Q182 261 182 524 L182 1464 L299 1464 L299 532 Q299 301 394 192.5 Q489 84 692 84 Q923 84 1016 227 Q1085 333 1085 532 L1085 1464 Z " />
<glyph glyph-name="V" unicode="V" horiz-adv-x="1184" d="M539 0 L29 1464 L152 1464 L594 172 L1039 1464 L1155 1464 L641 0 L539 0 Z " />
<glyph glyph-name="W" unicode="W" horiz-adv-x="1876" d="M463 0 L66 1464 L189 1464 L523 201 L897 1464 L1000 1464 L1360 199 L1698 1464 L1811 1464 L1416 0 L1311 0 L947 1272 L568 0 L463 0 Z " />
<glyph glyph-name="X" unicode="X" horiz-adv-x="1212" d="M61 0 L540 751 L92 1464 L227 1464 L618 844 L1009 1464 L1134 1464 L677 747 L1148 0 L1015 0 L602 657 L186 0 L61 0 Z " />
<glyph glyph-name="Y" unicode="Y" horiz-adv-x="1075" d="M486 0 L486 645 L-12 1464 L121 1464 L544 747 L963 1464 L1088 1464 L603 643 L603 0 L486 0 Z " />
<glyph glyph-name="Z" unicode="Z" horiz-adv-x="1208" d="M127 0 L127 111 L946 1364 L173 1364 L173 1464 L1051 1464 L1051 1332 L248 100 L1061 100 L1061 0 L127 0 Z " />
<glyph glyph-name="bracketleft" unicode="&#x5b;" horiz-adv-x="819" d="M248 -303 L248 1589 L656 1589 L656 1489 L365 1489 L365 -203 L656 -203 L656 -303 L248 -303 Z " />
<glyph glyph-name="backslash" unicode="&#x5c;" horiz-adv-x="852" d="M688 -303 L98 1589 L211 1589 L800 -303 L688 -303 Z " />
<glyph glyph-name="bracketright" unicode="&#x5d;" horiz-adv-x="819" d="M572 1589 L572 -303 L164 -303 L164 -203 L455 -203 L455 1489 L164 1489 L164 1589 L572 1589 Z " />
<glyph glyph-name="asciicircum" unicode="&#x5e;" horiz-adv-x="1034" d="M162 850 L469 1464 L572 1464 L879 850 L758 850 L518 1337 L279 850 L162 850 Z " />
<glyph glyph-name="underscore" unicode="&#x5f;" horiz-adv-x="819" d="M-41 -262 L-41 -162 L860 -162 L860 -262 L-41 -262 Z " />
<glyph glyph-name="grave" unicode="&#x60;" horiz-adv-x="1024" d="M471 1237 L281 1542 L435 1542 L557 1237 L471 1237 Z " />
<glyph glyph-name="a" unicode="a" horiz-adv-x="1075" d="M776 160 Q648 -16 435 -16 Q279 -16 185 77 Q106 155 106 274 Q106 501 365 574 Q509 614 774 628 L774 733 Q774 987 544 987 Q373 987 221 844 L149 920 Q317 1087 545 1087 Q719 1087 809 988 Q891 897 891 731 L891 207 Q891 143 920 117 Q949 91 1025 88 L1025 -6 Q996 -8 974 -8 Q809 -8 776 160 Z M774 537 Q598 534 469 506 Q227 454 227 278 Q227 189 287.5 136.5 Q348 84 452 84 Q575 84 668 154 Q716 191 745 241.5 Q774 292 774 341 L774 537 Z " />
<glyph glyph-name="b" unicode="b" horiz-adv-x="1233" d="M310 852 Q436 1087 680 1087 Q853 1087 973 966 Q1125 814 1125 539 Q1125 243 962 91 Q847 -16 680 -16 Q556 -16 461.5 43 Q367 102 310 215 L310 0 L193 0 L193 1542 L310 1542 L310 852 Z M660 987 Q525 987 429 891 Q306 768 306 534 Q306 291 434 171 Q527 84 664 84 Q852 84 938 233 Q1004 348 1004 529 Q1004 712 937 827 Q844 987 660 987 Z " />
<glyph glyph-name="c" unicode="c" horiz-adv-x="1047" d="M990 231 Q850 -16 582 -16 Q392 -16 264 112 Q109 267 109 536 Q109 809 263 962 Q388 1087 577 1087 Q706 1087 798.5 1031.5 Q891 976 963 856 L871 796 Q804 905 741.5 946 Q679 987 581 987 Q389 987 297 825 Q230 708 230 534 Q230 361 296 246 Q388 84 586 84 Q692 84 763 131 Q834 178 897 289 L990 231 Z " />
<glyph glyph-name="d" unicode="d" horiz-adv-x="1231" d="M922 215 Q801 -16 556 -16 Q341 -16 216 160 Q109 310 109 539 Q109 816 257 967 Q376 1087 553 1087 Q802 1087 922 852 L922 1542 L1039 1542 L1039 0 L922 0 L922 215 Z M565 987 Q386 987 296 831 Q230 716 230 533 Q230 280 354 164 Q438 84 568 84 Q712 84 807 179 Q928 301 928 535 Q928 768 806 892 Q711 987 565 987 Z " />
<glyph glyph-name="e" unicode="e" horiz-adv-x="1110" d="M996 227 Q869 -16 594 -16 Q392 -16 262 114 Q109 265 109 534 Q109 809 264 963 Q389 1087 573 1087 Q765 1087 884 954 Q1006 816 1006 567 L1006 527 L230 527 Q234 391 261 317 Q344 84 594 84 Q703 84 774 129.5 Q845 175 900 280 L996 227 Z M887 627 Q878 740 853 800 Q778 987 575 987 Q424 987 331 876 Q290 827 269 773 Q248 719 234 627 L887 627 Z " />
<glyph glyph-name="f" unicode="f" horiz-adv-x="686" d="M78 971 L78 1071 L232 1071 L232 1253 Q232 1417 323 1500 Q396 1566 513 1566 Q604 1566 686 1521 L651 1429 Q574 1466 516 1466 Q437 1466 393 1413.5 Q349 1361 349 1267 L349 1071 L608 1071 L608 971 L349 971 L349 0 L232 0 L232 971 L78 971 Z " />
<glyph glyph-name="g" unicode="g" horiz-adv-x="1087" d="M713 1055 L1024 1081 L1024 973 L932 973 L865 973 L840 973 Q936 875 936 748 Q936 584 800 487 Q692 410 546 410 Q437 410 342 459 Q272 413 272 349 Q272 288 313 262 Q354 236 452 236 L655 236 Q831 236 912 179 Q1024 100 1024 -47 Q1024 -226 863 -318 Q735 -391 542 -391 Q355 -391 233 -322 Q86 -239 86 -89 Q86 67 276 162 Q166 214 166 325 Q166 432 276 500 Q156 605 156 751 Q156 916 288 1011 Q395 1087 539 1087 Q624 1087 713 1055 Z M379 137 Q203 60 203 -81 Q203 -190 299 -243 Q388 -293 541 -293 Q701 -293 797 -240 Q907 -180 907 -53 Q907 135 664 135 L426 135 Q402 135 379 137 Z M541 991 Q432 991 359 936 Q272 871 272 752 Q272 627 367 560 Q443 506 547 506 Q650 506 724 557 Q819 622 819 750 Q819 861 744 926 Q669 991 541 991 Z " />
<glyph glyph-name="h" unicode="h" horiz-adv-x="1176" d="M193 0 L193 1542 L310 1542 L310 882 Q418 1087 655 1087 Q816 1087 904 988 Q994 886 994 688 L994 0 L877 0 L877 696 Q877 983 630 983 Q489 983 398 893 Q310 806 310 662 L310 0 L193 0 Z " />
<glyph glyph-name="i" unicode="i" horiz-adv-x="518" d="M201 0 L201 1071 L318 1071 L318 0 L201 0 Z M260 1493 Q293 1493 317.5 1468.5 Q342 1444 342 1411 Q342 1376 317.5 1351.5 Q293 1327 259 1327 Q224 1327 200 1351.5 Q176 1376 176 1411 Q176 1445 200.5 1469 Q225 1493 260 1493 Z " />
<glyph glyph-name="j" unicode="j" horiz-adv-x="516" d="M318 1071 L318 -131 Q318 -266 245 -332 Q183 -389 74 -389 Q9 -389 -49 -361 L-20 -270 Q39 -289 68 -289 Q201 -289 201 -139 L201 1071 L318 1071 Z M259 1493 Q293 1493 317.5 1468.5 Q342 1444 342 1411 Q342 1376 317.5 1351.5 Q293 1327 259 1327 Q224 1327 200 1351.5 Q176 1376 176 1411 Q176 1445 200 1469 Q224 1493 259 1493 Z " />
<glyph glyph-name="k" unicode="k" horiz-adv-x="1047" d="M855 0 L488 561 L310 352 L310 0 L193 0 L193 1542 L310 1542 L310 506 L787 1071 L924 1071 L562 649 L986 0 L855 0 Z " />
<glyph glyph-name="l" unicode="l" horiz-adv-x="514" d="M199 0 L199 1542 L316 1542 L316 0 L199 0 Z " />
<glyph glyph-name="m" unicode="m" horiz-adv-x="1765" d="M310 895 Q413 1087 614 1087 Q727 1087 801 1034.5 Q875 982 918 872 Q1029 1087 1251 1087 Q1402 1087 1491 987 Q1584 883 1584 684 L1584 0 L1467 0 L1467 690 Q1467 983 1231 983 Q1113 983 1036 905 Q947 815 947 655 L947 0 L830 0 L830 690 Q830 983 594 983 Q476 983 399 905 Q310 815 310 655 L310 0 L193 0 L193 1071 L310 1071 L310 895 Z " />
<glyph glyph-name="n" unicode="n" horiz-adv-x="1180" d="M193 0 L193 1071 L310 1071 L310 889 Q420 1087 647 1087 Q812 1087 905 984 Q998 880 998 684 L998 0 L881 0 L881 690 Q881 983 621 983 Q485 983 401 899 Q310 809 310 647 L310 0 L193 0 Z " />
<glyph glyph-name="o" unicode="o" horiz-adv-x="1174" d="M591 1087 Q777 1087 909 955 Q1065 798 1065 536 Q1065 271 909 115 Q778 -16 586 -16 Q396 -16 265 114 Q109 270 109 536 Q109 800 265 956 Q395 1087 591 1087 Z M583 987 Q413 987 316 849 Q230 728 230 535 Q230 292 361 169 Q452 84 585 84 Q759 84 856 220 Q944 342 944 535 Q944 742 846 865 Q749 987 583 987 Z " />
<glyph glyph-name="p" unicode="p" horiz-adv-x="1233" d="M193 -373 L193 1071 L310 1071 L310 852 Q436 1087 680 1087 Q853 1087 973 966 Q1125 814 1125 539 Q1125 337 1043 194 Q986 94 892 39 Q798 -16 679 -16 Q556 -16 461.5 43 Q367 102 310 215 L310 -373 L193 -373 Z M660 987 Q525 987 429 891 Q306 768 306 534 Q306 291 434 171 Q527 84 664 84 Q852 84 938 233 Q1004 348 1004 529 Q1004 712 937 827 Q844 987 660 987 Z " />
<glyph glyph-name="q" unicode="q" horiz-adv-x="1229" d="M922 -373 L922 215 Q801 -16 557 -16 Q341 -16 216 160 Q109 310 109 539 Q109 816 257 967 Q376 1087 553 1087 Q802 1087 922 852 L922 1071 L1039 1071 L1039 -373 L922 -373 Z M565 987 Q386 987 296 831 Q230 716 230 533 Q230 280 354 164 Q438 84 568 84 Q712 84 807 179 Q928 301 928 535 Q928 768 806 892 Q711 987 565 987 Z " />
<glyph glyph-name="r" unicode="r" horiz-adv-x="758" d="M193 0 L193 1071 L310 1071 L310 881 Q411 1085 601 1085 Q688 1085 759 1044 L707 944 Q648 976 587 976 Q486 976 413 903 Q310 800 310 592 L310 0 L193 0 Z " />
<glyph glyph-name="s" unicode="s" horiz-adv-x="1024" d="M776 841 Q718 919 653 953 Q588 987 498 987 Q277 987 277 813 Q277 731 328.5 691 Q380 651 540 608 Q650 579 706.5 555.5 Q763 532 808 497 Q903 423 903 291 Q903 153 798 68.5 Q693 -16 522 -16 Q239 -16 90 211 L180 276 Q235 192 281 155 Q371 84 516 84 Q625 84 692 123 Q782 175 782 284 Q782 370 723 415 Q664 460 491 505 Q380 534 320.5 562.5 Q261 591 220 635 Q156 704 156 807 Q156 964 286 1038 Q372 1087 500 1087 Q619 1087 704.5 1045.5 Q790 1004 858 913 L776 841 Z " />
<glyph glyph-name="t" unicode="t" horiz-adv-x="739" d="M74 971 L74 1071 L234 1071 L234 1364 L351 1388 L351 1071 L631 1071 L631 971 L351 971 L351 250 Q351 170 389 127 Q427 84 497 84 Q564 84 637 129 L684 45 Q595 -16 495 -16 Q376 -16 305 53 Q234 122 234 238 L234 971 L74 971 Z " />
<glyph glyph-name="u" unicode="u" horiz-adv-x="1171" d="M862 182 Q756 -16 528 -16 Q363 -16 272 89 Q182 192 182 387 L182 1071 L299 1071 L299 381 Q299 88 552 88 Q686 88 771 172 Q862 262 862 424 L862 1071 L979 1071 L979 0 L862 0 L862 182 Z " />
<glyph glyph-name="v" unicode="v" horiz-adv-x="973" d="M422 0 L45 1071 L172 1071 L491 131 L805 1071 L928 1071 L555 0 L422 0 Z " />
<glyph glyph-name="w" unicode="w" horiz-adv-x="1606" d="M385 0 L70 1071 L197 1071 L453 154 L752 1071 L877 1071 L1155 154 L1416 1071 L1536 1071 L1217 0 L1088 0 L813 915 L512 0 L385 0 Z " />
<glyph glyph-name="x" unicode="x" horiz-adv-x="1004" d="M55 0 L432 555 L80 1071 L219 1071 L504 647 L782 1071 L911 1071 L567 559 L948 0 L811 0 L495 469 L184 0 L55 0 Z " />
<glyph glyph-name="y" unicode="y" horiz-adv-x="975" d="M930 1071 L479 -184 Q407 -385 231 -385 Q133 -385 57 -330 L104 -244 Q163 -285 226 -285 Q340 -285 385 -150 L436 6 L45 1071 L172 1071 L496 174 L807 1071 L930 1071 Z " />
<glyph glyph-name="z" unicode="z" horiz-adv-x="969" d="M94 0 L94 100 L725 971 L127 971 L127 1071 L852 1071 L852 950 L236 100 L868 100 L868 0 L94 0 Z " />
<glyph glyph-name="braceleft" unicode="&#x7b;" horiz-adv-x="815" d="M713 -307 Q355 -306 354 43 L354 336 Q354 470 293.5 528 Q233 586 86 592 L86 702 Q172 705 219.5 721 Q267 737 300 773 Q354 833 354 958 L354 1243 Q355 1592 713 1593 L713 1493 Q568 1482 517 1424 Q471 1369 471 1235 L471 932 Q471 699 268 647 Q471 592 471 362 L471 51 Q471 -94 528 -148 Q576 -195 713 -207 L713 -307 Z " />
<glyph glyph-name="bar" unicode="&#x7c;" horiz-adv-x="512" d="M205 -303 L205 1589 L307 1589 L307 -303 L205 -303 Z " />
<glyph glyph-name="braceright" unicode="&#x7d;" horiz-adv-x="815" d="M102 1593 Q460 1592 461 1243 L461 950 Q461 816 521.5 758 Q582 700 729 694 L729 584 Q643 581 595.5 565 Q548 549 515 513 Q461 453 461 328 L461 43 Q460 -306 102 -307 L102 -207 Q247 -196 298 -138 Q344 -83 344 51 L344 354 Q345 588 547 639 Q345 694 344 924 L344 1235 Q344 1380 287 1435 Q239 1481 102 1493 L102 1593 Z " />
<glyph glyph-name="asciitilde" unicode="&#x7e;" horiz-adv-x="1049" d="M248 576 L154 586 Q182 732 250 785 Q298 824 365 824 Q404 824 443.5 807.5 Q483 791 551 747 Q647 684 693 684 Q775 684 803 830 L895 819 Q868 673 800 619 Q751 580 686 580 Q647 580 607 596.5 Q567 613 499 658 Q404 720 359 720 Q276 720 248 576 Z " />
<glyph glyph-name="Adieresis" unicode="&#xc4;" horiz-adv-x="1244" d="M457 1792 Q489 1792 513.5 1767.5 Q538 1743 538 1712 Q538 1679 513.5 1654.5 Q489 1630 456 1630 Q423 1630 399.5 1654 Q376 1678 376 1711 Q376 1744 400 1768 Q424 1792 457 1792 Z M788 1792 Q820 1792 844 1768 Q868 1744 868 1711 Q868 1678 844 1654 Q820 1630 787 1630 Q754 1630 730 1654 Q706 1678 706 1711 Q706 1744 730 1768 Q754 1792 788 1792 Z M293 387 L156 0 L37 0 L576 1464 L673 1464 L1207 0 L1091 0 L952 387 L293 387 Z M329 487 L916 487 L621 1310 L329 487 Z " />
<glyph glyph-name="Aring" unicode="&#xc5;" horiz-adv-x="1244" d="M293 387 L156 0 L37 0 L576 1464 L673 1464 L1207 0 L1091 0 L952 387 L293 387 Z M329 487 L916 487 L621 1310 L329 487 Z M624 1980 Q702 1980 758.5 1923.5 Q815 1867 815 1789 Q815 1710 758.5 1653.5 Q702 1597 623 1597 Q543 1597 486.5 1653.5 Q430 1710 430 1789 Q430 1868 487 1924 Q544 1980 624 1980 Z M622 1902 Q577 1902 546.5 1869.5 Q516 1837 516 1790 Q516 1740 546 1707.5 Q576 1675 622 1675 Q668 1675 698.5 1707.5 Q729 1740 729 1789 Q729 1838 698 1870 Q667 1902 622 1902 Z " />
<glyph glyph-name="Ccedilla" unicode="&#xc7;" horiz-adv-x="1448" d="M696 -128 Q726 -119 745 -119 Q807 -119 847.5 -160 Q888 -201 888 -265 Q888 -336 837.5 -379 Q787 -422 703 -422 Q595 -422 514 -341 L573 -287 Q627 -344 699 -344 Q790 -344 790 -265 Q790 -187 708 -187 Q672 -187 645 -211 L587 -171 L694 -13 Q599 3 545.5 23 Q492 43 435 83 Q317 164 245 300 Q147 484 147 728 Q147 1054 317 1267 Q492 1484 779 1484 Q1007 1484 1148 1344 Q1198 1294 1230.5 1239.5 Q1263 1185 1302 1087 L1198 1052 Q1141 1201 1069 1273 Q957 1384 779 1384 Q539 1384 400 1190 Q272 1010 272 731 Q272 493 367 326 Q501 88 779 88 Q978 88 1099 221 Q1170 299 1218 444 L1325 405 Q1183 -16 770 -17 L696 -128 Z " />
<glyph glyph-name="Eacute" unicode="&#xc9;" horiz-adv-x="1239" d="M190 0 L190 1464 L1081 1464 L1081 1364 L307 1364 L307 795 L960 795 L960 695 L307 695 L307 100 L1118 100 L1118 0 L190 0 Z M600 1610 L723 1915 L876 1915 L686 1610 L600 1610 Z " />
<glyph glyph-name="Ntilde" unicode="&#xd1;" horiz-adv-x="1407" d="M190 0 L190 1464 L348 1464 L1103 125 L1103 1464 L1216 1464 L1216 0 L1044 0 L303 1315 L303 0 L190 0 Z M532 1634 L448 1644 Q463 1737 505 1785 Q550 1837 612 1837 Q662 1837 754 1782 Q823 1740 855 1740 Q913 1740 929 1843 L1013 1833 Q998 1740 957 1692 Q912 1640 849 1640 Q800 1640 707 1695 Q637 1737 608 1737 Q548 1737 532 1634 Z " />
<glyph glyph-name="Odieresis" unicode="&#xd6;" horiz-adv-x="1600" d="M635 1792 Q667 1792 691.5 1767.5 Q716 1743 716 1712 Q716 1679 691.5 1654.5 Q667 1630 634 1630 Q601 1630 577.5 1654 Q554 1678 554 1711 Q554 1744 578 1768 Q602 1792 635 1792 Z M966 1792 Q998 1792 1022 1768 Q1046 1744 1046 1711 Q1046 1678 1022 1654 Q998 1630 965 1630 Q932 1630 908 1654 Q884 1678 884 1711 Q884 1744 908 1768 Q932 1792 966 1792 Z M806 1482 Q1017 1482 1183 1349 Q1311 1245 1382 1083 Q1453 920 1453 729 Q1453 488 1346 301 Q1257 146 1113 63 Q973 -16 804 -16 Q543 -16 362 166 Q148 381 148 733 Q148 1042 317 1251 Q502 1482 806 1482 Z M793 1382 Q676 1382 573.5 1328 Q471 1274 400 1175 Q273 998 273 731 Q273 409 451 228 Q593 84 802 84 Q1003 84 1138 210 Q1239 305 1289 460 Q1328 584 1328 729 Q1328 1013 1180 1197 Q1031 1382 793 1382 Z " />
<glyph glyph-name="Udieresis" unicode="&#xdc;" horiz-adv-x="1378" d="M1085 1464 L1196 1464 L1196 524 Q1196 326 1123 199 Q1000 -16 692 -16 Q443 -16 312.5 122.5 Q182 261 182 524 L182 1464 L299 1464 L299 532 Q299 301 394 192.5 Q489 84 692 84 Q923 84 1016 227 Q1085 333 1085 532 L1085 1464 Z M524 1792 Q556 1792 580.5 1767.5 Q605 1743 605 1712 Q605 1679 580.5 1654.5 Q556 1630 523 1630 Q490 1630 466.5 1654 Q443 1678 443 1711 Q443 1744 467 1768 Q491 1792 524 1792 Z M855 1792 Q887 1792 911 1768 Q935 1744 935 1711 Q935 1679 911 1654.5 Q887 1630 854 1630 Q821 1630 797 1654 Q773 1678 773 1711 Q773 1744 797 1768 Q821 1792 855 1792 Z " />
<glyph glyph-name="aacute" unicode="&#xe1;" horiz-adv-x="1075" d="M776 160 Q648 -16 435 -16 Q279 -16 185 77 Q106 155 106 274 Q106 501 365 574 Q509 614 774 628 L774 733 Q774 987 544 987 Q373 987 221 844 L149 920 Q317 1087 545 1087 Q719 1087 809 988 Q891 897 891 731 L891 207 Q891 143 920 117 Q949 91 1025 88 L1025 -6 Q996 -8 974 -8 Q809 -8 776 160 Z M774 537 Q598 534 469 506 Q227 454 227 278 Q227 189 287.5 136.5 Q348 84 452 84 Q575 84 668 154 Q716 191 745 241.5 Q774 292 774 341 L774 537 Z M494 1237 L617 1542 L770 1542 L580 1237 L494 1237 Z " />
<glyph glyph-name="agrave" unicode="&#xe0;" horiz-adv-x="1075" d="M776 160 Q648 -16 435 -16 Q279 -16 185 77 Q106 155 106 274 Q106 501 365 574 Q509 614 774 628 L774 733 Q774 987 544 987 Q373 987 221 844 L149 920 Q317 1087 545 1087 Q719 1087 809 988 Q891 897 891 731 L891 207 Q891 143 920 117 Q949 91 1025 88 L1025 -6 Q996 -8 974 -8 Q809 -8 776 160 Z M774 537 Q598 534 469 506 Q227 454 227 278 Q227 189 287.5 136.5 Q348 84 452 84 Q575 84 668 154 Q716 191 745 241.5 Q774 292 774 341 L774 537 Z M522 1237 L332 1542 L486 1542 L608 1237 L522 1237 Z " />
<glyph glyph-name="acircumflex" unicode="&#xe2;" horiz-adv-x="1075" d="M776 160 Q648 -16 435 -16 Q279 -16 185 77 Q106 155 106 274 Q106 501 365 574 Q509 614 774 628 L774 733 Q774 987 544 987 Q373 987 221 844 L149 920 Q317 1087 545 1087 Q719 1087 809 988 Q891 897 891 731 L891 207 Q891 143 920 117 Q949 91 1025 88 L1025 -6 Q996 -8 974 -8 Q809 -8 776 160 Z M774 537 Q598 534 469 506 Q227 454 227 278 Q227 189 287.5 136.5 Q348 84 452 84 Q575 84 668 154 Q716 191 745 241.5 Q774 292 774 341 L774 537 Z M293 1237 L483 1542 L594 1542 L782 1237 L696 1237 L537 1438 L377 1237 L293 1237 Z " />
<glyph glyph-name="adieresis" unicode="&#xe4;" horiz-adv-x="1075" d="M776 160 Q648 -16 435 -16 Q279 -16 185 77 Q106 155 106 274 Q106 501 365 574 Q509 614 774 628 L774 733 Q774 987 544 987 Q373 987 221 844 L149 920 Q317 1087 545 1087 Q719 1087 809 988 Q891 897 891 731 L891 207 Q891 143 920 117 Q949 91 1025 88 L1025 -6 Q996 -8 974 -8 Q809 -8 776 160 Z M774 537 Q598 534 469 506 Q227 454 227 278 Q227 189 287.5 136.5 Q348 84 452 84 Q575 84 668 154 Q716 191 745 241.5 Q774 292 774 341 L774 537 Z M372 1491 Q404 1491 428.5 1466.5 Q453 1442 453 1411 Q453 1378 428.5 1353.5 Q404 1329 371 1329 Q338 1329 314.5 1353 Q291 1377 291 1411 Q291 1443 315 1467 Q339 1491 372 1491 Z M703 1491 Q735 1491 759 1467 Q783 1443 783 1411 Q783 1377 759 1353 Q735 1329 702 1329 Q669 1329 645 1353 Q621 1377 621 1411 Q621 1443 645 1467 Q669 1491 703 1491 Z " />
<glyph glyph-name="atilde" unicode="&#xe3;" horiz-adv-x="1075" d="M776 160 Q648 -16 435 -16 Q279 -16 185 77 Q106 155 106 274 Q106 501 365 574 Q509 614 774 628 L774 733 Q774 987 544 987 Q373 987 221 844 L149 920 Q317 1087 545 1087 Q719 1087 809 988 Q891 897 891 731 L891 207 Q891 143 920 117 Q949 91 1025 88 L1025 -6 Q996 -8 974 -8 Q809 -8 776 160 Z M774 537 Q598 534 469 506 Q227 454 227 278 Q227 189 287.5 136.5 Q348 84 452 84 Q575 84 668 154 Q716 191 745 241.5 Q774 292 774 341 L774 537 Z M338 1294 L254 1304 Q269 1400 315 1449 Q359 1497 418 1497 Q468 1497 560 1442 Q629 1400 660 1400 Q719 1400 735 1503 L819 1492 Q804 1396 760 1348 Q715 1300 655 1300 Q605 1300 513 1355 Q444 1397 413 1397 Q354 1397 338 1294 Z " />
<glyph glyph-name="aring" unicode="&#xe5;" horiz-adv-x="1075" d="M776 160 Q648 -16 435 -16 Q279 -16 185 77 Q106 155 106 274 Q106 501 365 574 Q509 614 774 628 L774 733 Q774 987 544 987 Q373 987 221 844 L149 920 Q317 1087 545 1087 Q719 1087 809 988 Q891 897 891 731 L891 207 Q891 143 920 117 Q949 91 1025 88 L1025 -6 Q996 -8 974 -8 Q809 -8 776 160 Z M774 537 Q598 534 469 506 Q227 454 227 278 Q227 189 287.5 136.5 Q348 84 452 84 Q575 84 668 154 Q716 191 745 241.5 Q774 292 774 341 L774 537 Z M541 1599 Q619 1599 675.5 1542.5 Q732 1486 732 1409 Q732 1330 675.5 1273.5 Q619 1217 540 1217 Q460 1217 403.5 1273.5 Q347 1330 347 1409 Q347 1487 404 1543 Q461 1599 541 1599 Z M539 1521 Q494 1521 463.5 1488.5 Q433 1456 433 1409 Q433 1360 463 1327.5 Q493 1295 539 1295 Q585 1295 615.5 1327.5 Q646 1360 646 1409 Q646 1457 615 1489 Q584 1521 539 1521 Z " />
<glyph glyph-name="ccedilla" unicode="&#xe7;" horiz-adv-x="1047" d="M517 -127 Q546 -119 565 -119 Q628 -119 668.5 -160 Q709 -201 709 -265 Q709 -336 658.5 -379 Q608 -422 524 -422 Q416 -422 334 -340 L394 -287 Q448 -344 520 -344 Q611 -344 611 -264 Q611 -187 529 -187 Q492 -187 465 -211 L408 -170 L515 -13 Q395 10 321 62 Q219 134 164 256.5 Q109 379 109 535 Q109 808 263 962 Q388 1087 577 1087 Q707 1087 798.5 1032 Q890 977 963 856 L871 796 Q814 888 769 925 Q694 987 581 987 Q389 987 297 825 Q230 708 230 534 Q230 361 296 246 Q388 84 586 84 Q692 84 763.5 131 Q835 178 897 288 L990 231 Q858 -10 590 -17 L517 -127 Z " />
<glyph glyph-name="eacute" unicode="&#xe9;" horiz-adv-x="1110" d="M996 227 Q869 -16 594 -16 Q392 -16 262 114 Q109 265 109 534 Q109 809 264 963 Q389 1087 573 1087 Q765 1087 884 954 Q1006 816 1006 567 L1006 527 L230 527 Q234 391 261 317 Q344 84 594 84 Q703 84 774 129.5 Q845 175 900 280 L996 227 Z M887 627 Q878 740 853 800 Q778 987 575 987 Q424 987 331 876 Q290 827 269 773 Q248 719 234 627 L887 627 Z M529 1237 L652 1542 L805 1542 L615 1237 L529 1237 Z " />
<glyph glyph-name="egrave" unicode="&#xe8;" horiz-adv-x="1110" d="M996 227 Q869 -16 594 -16 Q392 -16 262 114 Q109 265 109 534 Q109 809 264 963 Q389 1087 573 1087 Q765 1087 884 954 Q1006 816 1006 567 L1006 527 L230 527 Q234 391 261 317 Q344 84 594 84 Q703 84 774 129.5 Q845 175 900 280 L996 227 Z M887 627 Q878 740 853 800 Q778 987 575 987 Q424 987 331 876 Q290 827 269 773 Q248 719 234 627 L887 627 Z M557 1237 L367 1542 L521 1542 L643 1237 L557 1237 Z " />
<glyph glyph-name="ecircumflex" unicode="&#xea;" horiz-adv-x="1110" d="M996 227 Q869 -16 594 -16 Q392 -16 262 114 Q109 265 109 534 Q109 809 264 963 Q389 1087 573 1087 Q765 1087 884 954 Q1006 816 1006 567 L1006 527 L230 527 Q234 391 261 317 Q344 84 594 84 Q703 84 774 129.5 Q845 175 900 280 L996 227 Z M887 627 Q878 740 853 800 Q778 987 575 987 Q424 987 331 876 Q290 827 269 773 Q248 719 234 627 L887 627 Z M328 1237 L518 1542 L629 1542 L817 1237 L731 1237 L572 1438 L412 1237 L328 1237 Z " />
<glyph glyph-name="edieresis" unicode="&#xeb;" horiz-adv-x="1110" d="M996 227 Q869 -16 594 -16 Q392 -16 262 114 Q109 265 109 534 Q109 809 264 963 Q389 1087 573 1087 Q765 1087 884 954 Q1006 816 1006 567 L1006 527 L230 527 Q234 391 261 317 Q344 84 594 84 Q703 84 774 129.5 Q845 175 900 280 L996 227 Z M887 627 Q878 740 853 800 Q778 987 575 987 Q424 987 331 876 Q290 827 269 773 Q248 719 234 627 L887 627 Z M407 1491 Q439 1491 463.5 1466.5 Q488 1442 488 1411 Q488 1378 463.5 1353.5 Q439 1329 406 1329 Q373 1329 349.5 1353 Q326 1377 326 1411 Q326 1443 350 1467 Q374 1491 407 1491 Z M738 1491 Q770 1491 794 1467 Q818 1443 818 1411 Q818 1377 794 1353 Q770 1329 737 1329 Q704 1329 680 1353 Q656 1377 656 1411 Q656 1443 680 1467 Q704 1491 738 1491 Z " />
<glyph glyph-name="iacute" unicode="&#xed;" horiz-adv-x="516" d="M199 0 L199 1071 L316 1071 L316 0 L199 0 Z M205 1237 L328 1542 L481 1542 L291 1237 L205 1237 Z " />
<glyph glyph-name="igrave" unicode="&#xec;" horiz-adv-x="516" d="M200 0 L200 1071 L317 1071 L317 0 L200 0 Z M238 1237 L48 1542 L202 1542 L324 1237 L238 1237 Z " />
<glyph glyph-name="icircumflex" unicode="&#xee;" horiz-adv-x="516" d="M202 0 L202 1071 L319 1071 L319 0 L202 0 Z M14 1237 L204 1542 L315 1542 L503 1237 L417 1237 L258 1438 L98 1237 L14 1237 Z " />
<glyph glyph-name="idieresis" unicode="&#xef;" horiz-adv-x="516" d="M202 0 L202 1071 L319 1071 L319 0 L202 0 Z M93 1491 Q125 1491 149.5 1466.5 Q174 1442 174 1411 Q174 1378 149.5 1353.5 Q125 1329 92 1329 Q59 1329 35.5 1353 Q12 1377 12 1411 Q12 1443 36 1467 Q60 1491 93 1491 Z M424 1491 Q456 1491 480 1467 Q504 1443 504 1411 Q504 1377 480 1353 Q456 1329 423 1329 Q390 1329 366 1353 Q342 1377 342 1411 Q342 1443 366 1467 Q390 1491 424 1491 Z " />
<glyph glyph-name="ntilde" unicode="&#xf1;" horiz-adv-x="1180" d="M193 0 L193 1071 L310 1071 L310 889 Q420 1087 647 1087 Q812 1087 905 984 Q998 880 998 684 L998 0 L881 0 L881 690 Q881 983 621 983 Q485 983 401 899 Q310 809 310 647 L310 0 L193 0 Z M390 1294 L306 1304 Q321 1400 367 1449 Q411 1497 470 1497 Q520 1497 612 1442 Q681 1400 712 1400 Q771 1400 787 1503 L871 1492 Q856 1396 812 1348 Q767 1300 707 1300 Q657 1300 565 1355 Q496 1397 465 1397 Q406 1397 390 1294 Z " />
<glyph glyph-name="oacute" unicode="&#xf3;" horiz-adv-x="1174" d="M591 1087 Q777 1087 909 955 Q1065 798 1065 536 Q1065 271 909 115 Q778 -16 586 -16 Q396 -16 265 114 Q109 270 109 536 Q109 800 265 956 Q395 1087 591 1087 Z M583 987 Q413 987 316 849 Q230 728 230 535 Q230 292 361 169 Q452 84 585 84 Q759 84 856 220 Q944 342 944 535 Q944 742 846 865 Q749 987 583 987 Z M547 1237 L670 1542 L823 1542 L633 1237 L547 1237 Z " />
<glyph glyph-name="ograve" unicode="&#xf2;" horiz-adv-x="1174" d="M591 1087 Q777 1087 909 955 Q1065 798 1065 536 Q1065 271 909 115 Q778 -16 586 -16 Q396 -16 265 114 Q109 270 109 536 Q109 800 265 956 Q395 1087 591 1087 Z M583 987 Q413 987 316 849 Q230 728 230 535 Q230 292 361 169 Q452 84 585 84 Q759 84 856 220 Q944 342 944 535 Q944 742 846 865 Q749 987 583 987 Z M599 1237 L409 1542 L563 1542 L685 1237 L599 1237 Z " />
<glyph glyph-name="ocircumflex" unicode="&#xf4;" horiz-adv-x="1174" d="M591 1087 Q777 1087 909 955 Q1065 798 1065 536 Q1065 271 909 115 Q778 -16 586 -16 Q396 -16 265 114 Q109 270 109 536 Q109 800 265 956 Q395 1087 591 1087 Z M583 987 Q413 987 316 849 Q230 728 230 535 Q230 292 361 169 Q452 84 585 84 Q759 84 856 220 Q944 342 944 535 Q944 742 846 865 Q749 987 583 987 Z M349 1237 L539 1542 L650 1542 L838 1237 L752 1237 L593 1438 L433 1237 L349 1237 Z " />
<glyph glyph-name="odieresis" unicode="&#xf6;" horiz-adv-x="1174" d="M591 1087 Q777 1087 909 955 Q1065 798 1065 536 Q1065 271 909 115 Q778 -16 586 -16 Q396 -16 265 114 Q109 270 109 536 Q109 800 265 956 Q395 1087 591 1087 Z M583 987 Q413 987 316 849 Q230 728 230 535 Q230 292 361 169 Q452 84 585 84 Q759 84 856 220 Q944 342 944 535 Q944 742 846 865 Q749 987 583 987 Z M428 1491 Q460 1491 484.5 1466.5 Q509 1442 509 1411 Q509 1378 484.5 1353.5 Q460 1329 427 1329 Q394 1329 370.5 1353 Q347 1377 347 1411 Q347 1443 371 1467 Q395 1491 428 1491 Z M759 1491 Q791 1491 815 1467 Q839 1443 839 1411 Q839 1377 815 1353 Q791 1329 758 1329 Q725 1329 701 1353 Q677 1377 677 1411 Q677 1443 701 1467 Q725 1491 759 1491 Z " />
<glyph glyph-name="otilde" unicode="&#xf5;" horiz-adv-x="1174" d="M591 1087 Q777 1087 909 955 Q1065 798 1065 536 Q1065 271 909 115 Q778 -16 586 -16 Q396 -16 265 114 Q109 270 109 536 Q109 800 265 956 Q395 1087 591 1087 Z M583 987 Q413 987 316 849 Q230 728 230 535 Q230 292 361 169 Q452 84 585 84 Q759 84 856 220 Q944 342 944 535 Q944 742 846 865 Q749 987 583 987 Z M394 1294 L310 1304 Q325 1400 371 1449 Q415 1497 474 1497 Q524 1497 616 1442 Q685 1400 716 1400 Q775 1400 791 1503 L875 1492 Q860 1396 816 1348 Q771 1300 711 1300 Q661 1300 569 1355 Q500 1397 469 1397 Q410 1397 394 1294 Z " />
<glyph glyph-name="uacute" unicode="&#xfa;" horiz-adv-x="1171" d="M862 182 Q756 -16 528 -16 Q363 -16 272 89 Q182 192 182 387 L182 1071 L299 1071 L299 381 Q299 88 552 88 Q686 88 771 172 Q862 262 862 424 L862 1071 L979 1071 L979 0 L862 0 L862 182 Z M514 1237 L637 1542 L790 1542 L600 1237 L514 1237 Z " />
<glyph glyph-name="ugrave" unicode="&#xf9;" horiz-adv-x="1171" d="M862 182 Q756 -16 528 -16 Q363 -16 272 89 Q182 192 182 387 L182 1071 L299 1071 L299 381 Q299 88 552 88 Q686 88 771 172 Q862 262 862 424 L862 1071 L979 1071 L979 0 L862 0 L862 182 Z M578 1237 L388 1542 L542 1542 L664 1237 L578 1237 Z " />
<glyph glyph-name="ucircumflex" unicode="&#xfb;" horiz-adv-x="1171" d="M862 182 Q756 -16 528 -16 Q363 -16 272 89 Q182 192 182 387 L182 1071 L299 1071 L299 381 Q299 88 552 88 Q686 88 771 172 Q862 262 862 424 L862 1071 L979 1071 L979 0 L862 0 L862 182 Z M336 1237 L526 1542 L637 1542 L825 1237 L739 1237 L580 1438 L420 1237 L336 1237 Z " />
<glyph glyph-name="udieresis" unicode="&#xfc;" horiz-adv-x="1172" d="M862 182 Q756 -16 528 -16 Q363 -16 272 89 Q182 192 182 387 L182 1071 L299 1071 L299 381 Q299 88 552 88 Q686 88 771 172 Q862 262 862 424 L862 1071 L979 1071 L979 0 L862 0 L862 182 Z M416 1491 Q448 1491 472.5 1466.5 Q497 1442 497 1411 Q497 1378 472.5 1353.5 Q448 1329 415 1329 Q382 1329 358.5 1353 Q335 1377 335 1411 Q335 1443 359 1467 Q383 1491 416 1491 Z M747 1491 Q779 1491 803 1467 Q827 1443 827 1411 Q827 1377 803 1353 Q779 1329 746 1329 Q713 1329 689 1353 Q665 1377 665 1411 Q665 1443 689 1467 Q713 1491 747 1491 Z " />
<glyph glyph-name="dagger" unicode="&#x2020;" horiz-adv-x="653" d="M96 1155 L96 1243 L276 1243 L276 1464 L376 1464 L376 1243 L559 1243 L559 1155 L376 1155 L376 651 L276 651 L276 1155 L96 1155 Z " />
<glyph glyph-name="degree" unicode="&#xb0;" horiz-adv-x="868" d="M437 1482 Q560 1482 644.5 1393 Q729 1304 729 1174 Q729 1038 641 950 Q557 866 435 866 Q315 866 230 951 Q139 1041 139 1175 Q139 1306 228 1396 Q312 1482 437 1482 Z M430 1394 Q345 1394 291 1334 Q237 1274 237 1178 Q237 1078 291.5 1016 Q346 954 434 954 Q522 954 576.5 1014 Q631 1074 631 1172 Q631 1270 575 1332 Q519 1394 430 1394 Z " />
<glyph glyph-name="cent" unicode="&#xa2;" horiz-adv-x="1163" d="M569 -276 L569 -14 Q445 4 368 56 Q261 127 203 251.5 Q145 376 145 536 Q145 795 285 948 Q342 1010 406 1041 Q470 1072 569 1085 L569 1288 L659 1288 L659 1085 Q872 1065 1001 866 L913 803 Q849 897 796.5 934.5 Q744 972 659 985 L659 86 Q755 99 815.5 143.5 Q876 188 933 289 L1026 232 Q904 5 659 -14 L659 -276 L569 -276 Z M569 985 Q487 970 435 937 Q383 904 342 840 Q266 721 266 532 Q266 305 378 184 Q417 141 458 120 Q499 99 569 86 L569 985 Z " />
<glyph glyph-name="sterling" unicode="&#xa3;" horiz-adv-x="1163" d="M118 660 L118 760 L274 760 Q208 926 208 1065 Q208 1255 323 1368 Q437 1482 621 1482 Q784 1482 896 1391 Q957 1343 992.5 1281 Q1028 1219 1054 1120 L945 1096 Q906 1222 850 1286 Q765 1382 621 1382 Q485 1382 407 1295 Q333 1212 333 1066 Q333 941 401 760 L800 760 L800 660 L440 660 Q499 516 520.5 434 Q542 352 542 273 Q542 240 536 214 Q641 136 696 110 Q751 84 810 84 Q890 84 932.5 130 Q975 176 995 283 L1099 271 Q1078 159 1041 99 Q970 -16 818 -16 Q740 -16 672.5 14 Q605 44 507 122 Q422 -16 264 -16 Q169 -16 109.5 35.5 Q50 87 50 168 Q50 246 106 296 Q162 346 250 346 Q329 346 433 285 Q429 364 409 429 Q389 494 333 620 Q326 635 315 660 L118 660 Z M421 189 L413 195 Q324 258 258 258 Q211 258 182.5 233 Q154 208 154 166 Q154 123 185 97.5 Q216 72 269 72 Q380 72 421 189 Z " />
<glyph glyph-name="section" unicode="&#xa7;" horiz-adv-x="1122" d="M784 272 Q855 221 886 163.5 Q917 106 917 25 Q917 -150 775 -229 Q683 -281 564 -281 Q313 -281 184 -56 L272 -1 Q376 -177 562 -177 Q675 -177 735.5 -126 Q796 -75 796 20 Q796 135 697 193 Q639 227 442 296 Q303 344 224 403 Q104 492 104 644 Q104 847 335 925 Q208 1016 208 1169 Q208 1328 326 1414 Q421 1482 558 1482 Q803 1482 921 1263 L835 1206 Q792 1280 747 1316 Q672 1378 555 1378 Q444 1378 381.5 1325.5 Q319 1273 319 1178 Q319 1086 375 1034.5 Q431 983 588 932 Q796 865 869 819 Q1019 725 1019 557 Q1019 351 784 272 Z M669 331 Q898 377 898 555 Q898 659 809 719 Q720 779 443 863 Q225 821 225 645 Q225 561 269 514 Q313 467 437 418 Q541 378 669 331 Z " />
<glyph glyph-name="bullet" unicode="&#x2022;" horiz-adv-x="819" d="M412 891 Q504 891 567 827.5 Q630 764 630 672 Q630 579 566.5 515 Q503 451 410 451 Q318 451 254 515 Q190 579 190 672 Q190 765 254 828 Q318 891 412 891 Z " />
<glyph glyph-name="paragraph" unicode="&#xb6;" horiz-adv-x="1141" d="M557 0 L557 756 L536 756 Q377 756 272 816 Q115 905 115 1103 Q115 1304 276 1400 Q382 1464 530 1464 L946 1464 L946 0 L835 0 L835 1364 L668 1364 L668 0 L557 0 Z " />
<glyph glyph-name="germandbls" unicode="&#xdf;" horiz-adv-x="1180" d="M735 889 Q874 843 951 761 Q1071 634 1071 427 Q1071 201 944 83 Q838 -14 668 -14 Q566 -14 484 18 L484 123 L488 123 Q563 86 660 86 Q796 86 873 173 Q950 261 950 424 Q950 622 829 732 Q773 782 710.5 804 Q648 826 543 831 L543 934 Q641 935 690 952 Q852 1010 852 1206 Q852 1328 783 1395 Q714 1462 588 1462 Q458 1462 385 1384 Q310 1305 310 1161 L310 0 L193 0 L193 1142 Q193 1345 308 1457 Q414 1562 587 1562 Q758 1562 863 1460 Q963 1362 963 1205 Q963 1083 908 1007 Q853 931 735 889 Z " />
<glyph glyph-name="registered" unicode="&#xae;" horiz-adv-x="1110" d="M387 801 L387 1268 L592 1268 Q664 1268 704.5 1233.5 Q745 1199 745 1138 Q745 1046 655 1025 Q692 1012 707 988.5 Q722 965 737 898 Q746 858 752 840 Q758 818 768 805 L768 801 L684 801 Q664 834 653 906 Q640 994 565 994 L471 994 L471 801 L387 801 Z M471 1057 L580 1057 Q659 1057 659 1132 Q659 1202 590 1202 L471 1202 L471 1057 Z M561 1482 Q748 1482 879 1351 Q1011 1220 1011 1029 Q1011 838 881 707 Q749 575 555 575 Q363 575 231 706 Q100 837 100 1027 Q100 1215 232 1349 Q364 1482 561 1482 Z M553 1414 Q393 1414 287 1306 Q178 1196 178 1027 Q178 858 287 749 Q393 643 554 643 Q718 643 824 751 Q933 861 933 1029 Q933 1199 824 1309 Q720 1414 553 1414 Z " />
<glyph glyph-name="copyright" unicode="&#xa9;" horiz-adv-x="1772" d="M1241 540 Q1148 285 890 285 Q720 285 613 392 Q489 515 489 732 Q489 952 617 1080 Q724 1186 884 1186 Q1011 1186 1093 1128 Q1175 1070 1228 944 L1128 907 Q1095 994 1053 1035 Q988 1098 887 1098 Q736 1098 663 968 Q610 874 610 733 Q610 594 661 502 Q733 373 892 373 Q986 373 1045 422 Q1104 471 1138 577 L1241 540 Z M893 1482 Q1038 1482 1172.5 1426 Q1307 1370 1409 1268 Q1624 1052 1624 734 Q1624 414 1406 197 Q1193 -16 884 -16 Q577 -16 364 196 Q147 412 147 731 Q147 1048 365 1268 Q577 1482 893 1482 Z M881 1404 Q754 1404 635 1355.5 Q516 1307 427 1218 Q233 1024 233 731 Q233 442 427 249 Q614 62 884 62 Q1156 62 1344 250 Q1538 445 1538 735 Q1538 1025 1345 1219 Q1160 1404 881 1404 Z " />
<glyph glyph-name="trademark" unicode="&#x2122;" horiz-adv-x="1454" d="M643 805 L643 1464 L768 1464 L969 922 L1164 1464 L1291 1464 L1291 805 L1201 805 L1201 1349 L1002 805 L928 805 L727 1349 L727 805 L643 805 Z M230 805 L230 1390 L29 1390 L29 1464 L518 1464 L518 1390 L320 1390 L320 805 L230 805 Z " />
<glyph glyph-name="acute" unicode="&#xb4;" horiz-adv-x="1024" d="M467 1237 L590 1542 L743 1542 L553 1237 L467 1237 Z " />
<glyph glyph-name="dieresis" unicode="&#xa8;" horiz-adv-x="1024" d="M347 1491 Q379 1491 403.5 1466.5 Q428 1442 428 1411 Q428 1378 403.5 1353.5 Q379 1329 346 1329 Q313 1329 289.5 1353 Q266 1377 266 1411 Q266 1443 290 1467 Q314 1491 347 1491 Z M678 1491 Q710 1491 734 1467 Q758 1443 758 1411 Q758 1377 734 1353 Q710 1329 677 1329 Q644 1329 620 1353 Q596 1377 596 1411 Q596 1443 620 1467 Q644 1491 678 1491 Z " />
<glyph glyph-name="notequal" unicode="&#x2260;" horiz-adv-x="1049" d="M686 883 L913 883 L913 783 L638 783 L524 542 L913 542 L913 442 L476 442 L355 187 L260 228 L362 442 L135 442 L135 542 L410 542 L524 783 L135 783 L135 883 L572 883 L693 1138 L788 1097 L686 883 Z " />
<glyph glyph-name="AE" unicode="&#xc6;" horiz-adv-x="2007" d="M397 375 L173 0 L50 0 L937 1464 L1849 1464 L1849 1364 L1095 1364 L1095 795 L1728 795 L1728 695 L1095 695 L1095 100 L1888 100 L1888 0 L978 0 L978 375 L397 375 Z M458 475 L978 475 L978 1348 L490 529 L458 475 Z " />
<glyph glyph-name="Oslash" unicode="&#xd8;" horiz-adv-x="1600" d="M297 240 Q148 450 148 733 Q148 1041 317 1251 Q381 1332 464 1385 Q614 1482 798 1482 Q1058 1482 1240 1296 L1390 1464 L1517 1464 L1302 1223 Q1452 1016 1452 730 Q1452 488 1345 301 Q1256 146 1112 63 Q972 -16 803 -16 Q546 -16 361 166 L214 0 L83 0 L297 240 Z M374 326 L1166 1213 Q1015 1382 799 1382 Q548 1382 400 1175 Q273 999 273 733 Q273 493 374 326 Z M1223 1134 L433 246 Q582 84 802 84 Q1002 84 1137 210 Q1238 305 1288 460 Q1327 584 1327 729 Q1327 955 1223 1134 Z " />
<glyph glyph-name="infinity" unicode="&#x221e;" horiz-adv-x="1572" d="M787 630 Q626 377 413 377 Q269 377 178 477 Q100 563 100 702 Q100 861 201 950 Q289 1028 413 1028 Q626 1028 787 775 Q945 1028 1160 1028 Q1304 1028 1395 928 Q1473 842 1473 702 Q1473 544 1372 455 Q1284 377 1160 377 Q945 377 787 630 Z M730 703 L722 719 Q687 789 621 851 Q568 900 522.5 920.5 Q477 941 419 941 Q313 941 254 874 Q198 810 198 702 Q198 579 269 515 Q327 464 418 464 Q505 464 573 515 Q623 553 667 603 Q711 653 724 687 L730 703 Z M843 703 L848 687 Q855 667 924 584 Q1023 464 1155 464 Q1260 464 1319 531 Q1375 595 1375 702 Q1375 825 1304 889 Q1246 941 1154 941 Q1097 941 1051.5 921 Q1006 901 954 852 Q886 789 851 719 L843 703 Z " />
<glyph glyph-name="plusminus" unicode="&#xb1;" horiz-adv-x="1049" d="M101 672 L101 772 L470 772 L470 1165 L581 1165 L581 772 L947 772 L947 672 L581 672 L581 276 L470 276 L470 672 L101 672 Z M101 0 L101 100 L947 100 L947 0 L101 0 Z " />
<glyph glyph-name="lessequal" unicode="&#x2264;" horiz-adv-x="1049" d="M914 173 L112 559 L112 676 L914 1062 L914 935 L235 619 L914 297 L914 173 Z M112 0 L112 102 L914 102 L914 0 L112 0 Z " />
<glyph glyph-name="greaterequal" unicode="&#x2265;" horiz-adv-x="1049" d="M134 1062 L936 676 L936 559 L134 173 L134 300 L813 616 L134 938 L134 1062 Z M936 0 L134 0 L134 102 L936 102 L936 0 Z " />
<glyph glyph-name="yen" unicode="&#xa5;" horiz-adv-x="1163" d="M135 738 L135 838 L426 838 L88 1464 L221 1464 L583 766 L954 1464 L1075 1464 L738 838 L1030 838 L1030 738 L686 738 L641 655 L641 544 L1030 544 L1030 444 L641 444 L641 0 L524 0 L524 444 L135 444 L135 544 L524 544 L524 655 L479 738 L135 738 Z " />
<glyph glyph-name="mu" unicode="&#xb5;" horiz-adv-x="1163" d="M299 62 L299 -373 L183 -373 L183 1071 L300 1071 L300 381 Q300 88 553 88 Q687 88 772 172 Q863 262 863 424 L863 1071 L980 1071 L980 0 L863 0 L863 182 Q757 -16 529 -16 Q393 -16 299 62 Z " />
<glyph glyph-name="partialdiff" unicode="&#x2202;" horiz-adv-x="1163" d="M408 1496 L477 1590 Q620 1494 721 1400 Q852 1279 940 1114 Q1073 864 1073 570 Q1073 359 991 218 Q926 106 821 45 Q715 -17 585 -17 Q371 -17 230 142 Q156 225 119 345 Q91 437 91 535 Q91 704 171 849 Q240 974 361 1042 Q466 1102 587 1102 Q741 1102 851 995 Q803 1101 765.5 1159.5 Q728 1218 663 1286 Q610 1341 566.5 1377 Q523 1413 408 1496 Z M575 986 Q417 986 321 868 Q219 745 219 539 Q219 426 253.5 330 Q288 234 348 179 Q443 93 581 93 Q741 93 839 204 Q887 259 916 351.5 Q945 444 945 544 Q945 693 879 814 Q787 986 575 986 Z " />
<glyph glyph-name="summation" unicode="&#x2211;" horiz-adv-x="1163" d="M1201 1484 L1201 1376 L1045 1376 L1045 -313 L928 -313 L928 1376 L236 1376 L236 -313 L119 -313 L119 1376 L-37 1376 L-37 1484 L1201 1484 Z " />
<glyph glyph-name="product" unicode="&#x220f;" horiz-adv-x="1163" d="M117 -373 L117 -261 L564 577 L153 1338 L153 1464 L1027 1464 L1027 1364 L271 1364 L691 584 L229 -273 L1096 -273 L1096 -373 L117 -373 Z " />
<glyph glyph-name="pi" unicode="&#x3c0;" horiz-adv-x="1149" d="M203 0 L203 971 L88 971 L88 1071 L1061 1071 L1061 971 L946 971 L946 0 L829 0 L829 971 L320 971 L320 0 L203 0 Z " />
<glyph glyph-name="integral" unicode="&#x222b;" horiz-adv-x="670" d="M36 -319 L68 -213 Q123 -233 167 -233 Q242 -233 265 -162 Q272 -139 274 -14 L274 1309 Q277 1492 281.5 1530.5 Q286 1569 309 1604 Q367 1694 498 1694 Q566 1694 629 1665 L597 1559 Q543 1579 499 1579 Q423 1579 400 1508 Q393 1485 391 1360 L391 37 Q388 -146 383.5 -184.5 Q379 -223 356 -258 Q298 -348 166 -348 Q98 -348 36 -319 Z " />
<glyph glyph-name="ordfeminine" unicode="&#xaa;" horiz-adv-x="942" d="M673 690 Q562 541 387 541 Q261 541 182.5 610 Q104 679 104 790 Q104 944 240.5 1016 Q377 1088 671 1089 L671 1176 Q671 1392 479 1392 Q322 1392 198 1255 L132 1327 Q281 1480 481 1480 Q632 1480 710 1394 Q782 1315 782 1170 L782 717 Q782 617 807 561 L807 555 L696 555 Q676 608 673 690 Z M671 1009 Q506 1007 408 984 Q215 939 215 792 Q215 717 266 673 Q317 629 404 629 Q511 629 589 692 Q671 760 671 856 L671 1009 Z " />
<glyph glyph-name="ordmasculine" unicode="&#xba;" horiz-adv-x="1034" d="M521 1480 Q683 1480 797 1365 Q929 1232 929 1010 Q929 784 794 651 Q680 538 516 538 Q352 538 239 650 Q106 784 106 1009 Q106 1233 239 1367 Q351 1480 521 1480 Z M513 1392 Q355 1392 274 1251 Q217 1153 217 1009 Q217 802 328 698 Q404 626 515 626 Q661 626 744 742 Q818 845 818 1010 Q818 1183 736 1288 Q654 1392 513 1392 Z " />
<glyph glyph-name="Omega" unicode="&#x2126;" horiz-adv-x="1650" d="M692 106 L692 0 L115 0 L115 97 L421 97 Q286 207 223 346 Q158 491 158 693 Q158 972 269 1166 Q355 1316 497 1398 Q640 1481 825 1481 Q1085 1481 1259 1320 Q1492 1105 1492 693 Q1492 492 1430 351 Q1368 210 1229 97 L1535 97 L1535 0 L958 0 L958 106 L986 106 Q1128 106 1229 229 Q1366 396 1366 692 Q1366 955 1265 1132 Q1198 1250 1085 1315 Q971 1381 825 1381 Q620 1381 482 1254 Q284 1072 284 692 Q284 369 444 203 Q538 106 664 106 L692 106 Z " />
<glyph glyph-name="ae" unicode="&#xe6;" horiz-adv-x="1751" d="M842 229 Q769 102 682 50 Q570 -16 437 -16 Q279 -16 185 77 Q106 156 106 274 Q106 498 365 571 Q509 612 774 624 L774 734 Q774 987 544 987 Q373 987 221 844 L149 920 Q318 1087 544 1087 Q799 1087 863 872 Q992 1087 1222 1087 Q1392 1087 1505 973 Q1644 833 1644 568 L1644 527 L891 527 Q894 421 907.5 361.5 Q921 302 955 242 Q1044 84 1243 84 Q1346 84 1414 129 Q1482 174 1536 278 L1634 227 Q1505 -16 1241 -16 Q1107 -16 1004 47 Q901 110 842 229 Z M774 533 Q587 528 469 503 Q227 452 227 278 Q227 189 287.5 136.5 Q348 84 452 84 Q575 84 668 154 Q716 191 745 242 Q774 293 774 341 L774 533 Z M1524 627 Q1514 741 1490 802 Q1416 987 1223 987 Q1064 987 974 856 Q941 808 924.5 760 Q908 712 895 627 L1524 627 Z " />
<glyph glyph-name="oslash" unicode="&#xf8;" horiz-adv-x="1165" d="M53 0 L209 179 Q112 333 112 538 Q112 810 265 965 Q390 1091 583 1091 Q767 1091 901 966 L991 1071 L1118 1071 L962 893 Q1059 737 1059 538 Q1059 264 903 109 Q777 -18 585 -18 Q405 -18 272 105 L180 0 L53 0 Z M829 886 Q730 991 587 991 Q363 991 275 780 Q233 679 233 539 Q233 381 286 267 L829 886 Z M342 185 Q438 82 582 82 Q779 82 872 246 Q938 363 938 535 Q938 682 884 804 L342 185 Z " />
<glyph glyph-name="questiondown" unicode="&#xbf;" horiz-adv-x="1040" d="M645 682 L645 551 Q645 436 607 371.5 Q569 307 446 213 Q358 146 324.5 89.5 Q291 33 291 -50 Q291 -159 360 -224 Q429 -289 545 -289 Q787 -289 850 -25 L958 -43 Q925 -205 822 -292 Q709 -389 542 -389 Q367 -389 263 -285 Q170 -191 170 -51 Q170 86 256 184 Q296 229 389 297 Q485 366 515 417 Q545 468 545 561 L545 682 L645 682 Z M597 1103 Q635 1103 662.5 1075 Q690 1047 690 1009 Q690 970 662.5 942.5 Q635 915 596 915 Q557 915 529.5 942.5 Q502 970 502 1009 Q502 1048 530 1075.5 Q558 1103 597 1103 Z " />
<glyph glyph-name="exclamdown" unicode="&#xa1;" horiz-adv-x="639" d="M393 680 L424 112 L424 -373 L297 -373 L297 112 L328 680 L393 680 Z M362 1101 Q400 1101 427 1073 Q454 1045 454 1007 Q454 968 427 940.5 Q400 913 361 913 Q322 913 294 940.5 Q266 968 266 1007 Q266 1046 294.5 1073.5 Q323 1101 362 1101 Z " />
<glyph glyph-name="logicalnot" unicode="&#xac;" horiz-adv-x="1049" d="M711 371 L711 672 L209 672 L209 772 L811 772 L811 371 L711 371 Z " />
<glyph glyph-name="radical" unicode="&#x221a;" horiz-adv-x="1163" d="M476 0 L278 679 L120 679 L120 778 L370 778 L540 185 L1038 1741 L1568 1741 L1568 1643 L1122 1643 L601 0 L476 0 Z " />
<glyph glyph-name="florin" unicode="&#x192;" horiz-adv-x="819" d="M113 713 L113 813 L320 813 L359 1173 Q392 1482 653 1482 Q749 1482 832 1431 L793 1341 Q717 1382 655 1382 Q499 1382 478 1179 L439 813 L697 813 L697 713 L426 713 L338 -108 Q310 -372 75 -372 Q-12 -372 -75 -334 L-39 -243 Q17 -272 72 -272 Q203 -272 220 -116 L308 713 L113 713 Z " />
<glyph glyph-name="approxequal" unicode="&#x2248;" horiz-adv-x="1049" d="M248 370 L154 380 Q182 526 250 579 Q299 617 365 617 Q404 617 443.5 600.5 Q483 584 551 540 Q647 478 693 478 Q737 478 762.5 512 Q788 546 803 624 L895 613 Q868 467 800 413 Q751 374 686 374 Q647 374 606.5 390.5 Q566 407 499 451 Q404 513 359 513 Q276 513 248 370 Z M248 697 L154 708 Q182 854 250 907 Q299 945 365 945 Q404 945 443.5 928.5 Q483 912 551 868 Q646 805 693 805 Q737 805 762.5 839 Q788 873 803 951 L895 941 Q868 794 800 740 Q751 701 686 701 Q647 701 606.5 717.5 Q566 734 499 779 Q404 841 359 841 Q276 841 248 697 Z " />
<glyph glyph-name="increment" unicode="&#x2206;" horiz-adv-x="1163" d="M1226 0 L-62 0 L526 1464 L643 1464 L1226 0 Z M103 107 L1060 107 L580 1322 L103 107 Z " />
<glyph glyph-name="guillemotleft" unicode="&#xab;" horiz-adv-x="934" d="M690 92 L442 493 L690 897 L809 897 L567 493 L809 92 L690 92 Z M377 92 L131 493 L377 897 L496 897 L254 493 L496 92 L377 92 Z " />
<glyph glyph-name="guillemotright" unicode="&#xbb;" horiz-adv-x="934" d="M434 92 L676 493 L434 897 L553 897 L801 493 L553 92 L434 92 Z M123 92 L365 493 L123 897 L242 897 L488 493 L242 92 L123 92 Z " />
<glyph glyph-name="ellipsis" unicode="&#x2026;" horiz-adv-x="1745" d="M291 178 Q329 178 357 150.5 Q385 123 385 84 Q385 46 357 18 Q329 -10 290 -10 Q251 -10 224 17.5 Q197 45 197 84 Q197 124 224 151 Q251 178 291 178 Z M873 178 Q911 178 939 150.5 Q967 123 967 84 Q967 46 939 18 Q911 -10 872 -10 Q833 -10 806 17.5 Q779 45 779 84 Q779 124 806 151 Q833 178 873 178 Z M1454 178 Q1492 178 1520 150.5 Q1548 123 1548 84 Q1548 46 1520 18 Q1492 -10 1453 -10 Q1414 -10 1387 17.5 Q1360 45 1360 84 Q1360 124 1387 151 Q1414 178 1454 178 Z " />
<glyph glyph-name="Agrave" unicode="&#xc0;" horiz-adv-x="1244" d="M293 387 L156 0 L37 0 L576 1464 L673 1464 L1207 0 L1091 0 L952 387 L293 387 Z M329 487 L916 487 L621 1310 L329 487 Z M594 1610 L404 1915 L558 1915 L680 1610 L594 1610 Z " />
<glyph glyph-name="Atilde" unicode="&#xc3;" horiz-adv-x="1244" d="M293 387 L156 0 L37 0 L576 1464 L673 1464 L1207 0 L1091 0 L952 387 L293 387 Z M329 487 L916 487 L621 1310 L329 487 Z M423 1634 L339 1644 Q354 1737 396 1785 Q441 1837 503 1837 Q553 1837 645 1782 Q714 1740 746 1740 Q804 1740 820 1843 L904 1833 Q889 1740 848 1692 Q803 1640 740 1640 Q691 1640 598 1695 Q528 1737 499 1737 Q439 1737 423 1634 Z " />
<glyph glyph-name="Otilde" unicode="&#xd5;" horiz-adv-x="1600" d="M806 1482 Q1017 1482 1183 1349 Q1311 1245 1382 1083 Q1453 920 1453 729 Q1453 488 1346 301 Q1257 146 1113 63 Q973 -16 804 -16 Q543 -16 362 166 Q148 381 148 733 Q148 1042 317 1251 Q502 1482 806 1482 Z M793 1382 Q676 1382 573.5 1328 Q471 1274 400 1175 Q273 998 273 731 Q273 409 451 228 Q593 84 802 84 Q1003 84 1138 210 Q1239 305 1289 460 Q1328 584 1328 729 Q1328 1013 1180 1197 Q1031 1382 793 1382 Z M602 1634 L518 1644 Q533 1737 575 1785 Q620 1837 682 1837 Q732 1837 824 1782 Q893 1740 925 1740 Q983 1740 999 1843 L1083 1833 Q1068 1740 1027 1692 Q982 1640 919 1640 Q870 1640 777 1695 Q707 1737 678 1737 Q618 1737 602 1634 Z " />
<glyph glyph-name="OE" unicode="&#x152;" horiz-adv-x="2351" d="M1322 294 Q1236 140 1115 66 Q981 -16 805 -16 Q541 -16 362 164 Q257 269 202 418 Q147 564 147 733 Q147 977 256 1166 Q346 1320 489 1402 Q631 1482 802 1482 Q1146 1482 1322 1165 L1322 1464 L2191 1464 L2191 1364 L1439 1364 L1439 795 L2070 795 L2070 695 L1439 695 L1439 100 L2230 100 L2230 0 L1322 0 L1322 294 Z M1321 672 L1321 799 Q1321 1026 1188 1192 Q1036 1382 798 1382 Q548 1382 399 1176 Q272 999 272 731 Q272 407 452 226 Q593 84 802 84 Q1013 84 1154 226 Q1321 393 1321 672 Z " />
<glyph glyph-name="oe" unicode="&#x153;" horiz-adv-x="1948" d="M1004 274 Q876 -16 586 -16 Q396 -16 265 114 Q109 269 109 536 Q109 802 265 957 Q397 1087 588 1087 Q875 1087 1004 797 Q1125 1087 1410 1087 Q1603 1087 1722 954 Q1844 816 1844 567 L1844 527 L1065 527 Q1070 392 1096 318 Q1180 84 1432 84 Q1540 84 1611.5 129.5 Q1683 175 1737 280 L1833 227 Q1707 -16 1431 -16 Q1127 -16 1004 274 Z M584 987 Q454 987 362 900 Q230 778 230 534 Q230 293 361 171 Q453 84 587 84 Q761 84 860 221 Q947 343 947 535 Q947 741 849 864 Q751 987 584 987 Z M1725 627 Q1715 740 1691 800 Q1616 987 1412 987 Q1245 987 1150 853 Q1117 805 1100 757.5 Q1083 710 1070 627 L1725 627 Z " />
<glyph glyph-name="endash" unicode="&#x2013;" horiz-adv-x="1163" d="M130 585 L130 700 L1033 700 L1033 585 L130 585 Z " />
<glyph glyph-name="emdash" unicode="&#x2014;" horiz-adv-x="1163" d="M-82 585 L-82 700 L1245 700 L1245 585 L-82 585 Z " />
<glyph glyph-name="quotedblleft" unicode="&#x201c;" horiz-adv-x="791" d="M336 1563 L336 1493 Q253 1464 246 1337 Q346 1329 346 1244 Q346 1204 319.5 1177.5 Q293 1151 254 1151 Q206 1151 179 1188.5 Q152 1226 152 1294 Q152 1414 197 1479.5 Q242 1545 336 1563 Z M627 1563 L627 1493 Q544 1464 537 1337 Q637 1329 637 1244 Q637 1204 610.5 1177.5 Q584 1151 545 1151 Q497 1151 470 1188.5 Q443 1226 443 1294 Q443 1414 488 1479.5 Q533 1545 627 1563 Z " />
<glyph glyph-name="quotedblright" unicode="&#x201d;" horiz-adv-x="791" d="M455 1151 L455 1221 Q538 1250 545 1376 Q445 1384 445 1470 Q445 1510 471.5 1536.5 Q498 1563 537 1563 Q585 1563 612 1525.5 Q639 1488 639 1420 Q639 1300 594 1234 Q549 1168 455 1151 Z M164 1151 L164 1221 Q247 1250 254 1376 Q154 1384 154 1470 Q154 1510 180.5 1536.5 Q207 1563 246 1563 Q294 1563 321 1525.5 Q348 1488 348 1420 Q348 1300 303 1234 Q258 1168 164 1151 Z " />
<glyph glyph-name="quoteleft" unicode="&#x2018;" horiz-adv-x="500" d="M336 1563 L336 1493 Q253 1464 246 1337 Q346 1329 346 1244 Q346 1204 319.5 1177.5 Q293 1151 254 1151 Q206 1151 179 1188.5 Q152 1226 152 1294 Q152 1414 197 1479.5 Q242 1545 336 1563 Z " />
<glyph glyph-name="quoteright" unicode="&#x2019;" horiz-adv-x="500" d="M164 1151 L164 1221 Q247 1250 254 1376 Q154 1384 154 1470 Q154 1510 180.5 1536.5 Q207 1563 246 1563 Q294 1563 321 1525.5 Q348 1488 348 1420 Q348 1300 303 1234 Q258 1168 164 1151 Z " />
<glyph glyph-name="divide" unicode="&#xf7;" horiz-adv-x="1049" d="M101 652 L101 752 L947 752 L947 652 L101 652 Z M524 1157 Q562 1157 589.5 1129.5 Q617 1102 617 1063 Q617 1024 589 996.5 Q561 969 523 969 Q484 969 456.5 997 Q429 1025 429 1063 Q429 1102 456.5 1129.5 Q484 1157 524 1157 Z M524 432 Q561 432 589 404 Q617 376 617 338 Q617 299 589.5 271.5 Q562 244 523 244 Q484 244 456.5 271.5 Q429 299 429 338 Q429 377 457 404.5 Q485 432 524 432 Z " />
<glyph glyph-name="lozenge" unicode="&#x25ca;" horiz-adv-x="1163" d="M581 -71 L15 731 L581 1533 L1148 731 L581 -71 Z M581 116 L1013 731 L581 1347 L150 731 L581 116 Z " />
<glyph glyph-name="ydieresis" unicode="&#xff;" horiz-adv-x="975" d="M930 1071 L479 -184 Q407 -385 231 -385 Q133 -385 57 -330 L104 -244 Q163 -285 226 -285 Q340 -285 385 -150 L436 6 L45 1071 L172 1071 L496 174 L807 1071 L930 1071 Z M327 1491 Q359 1491 383.5 1466.5 Q408 1442 408 1411 Q408 1378 383.5 1353.5 Q359 1329 326 1329 Q293 1329 269.5 1353 Q246 1377 246 1411 Q246 1443 270 1467 Q294 1491 327 1491 Z M658 1491 Q690 1491 714 1467 Q738 1443 738 1411 Q738 1377 714 1353 Q690 1329 657 1329 Q624 1329 600 1353 Q576 1377 576 1411 Q576 1443 600 1467 Q624 1491 658 1491 Z " />
<glyph glyph-name="Ydieresis" unicode="&#x178;" horiz-adv-x="1075" d="M486 0 L486 645 L-12 1464 L121 1464 L544 747 L963 1464 L1088 1464 L603 643 L603 0 L486 0 Z M379 1792 Q412 1792 436.5 1767.5 Q461 1743 461 1712 Q461 1679 436.5 1654.5 Q412 1630 379 1630 Q346 1630 322.5 1654 Q299 1678 299 1711 Q299 1744 322.5 1768 Q346 1792 379 1792 Z M710 1792 Q743 1792 767 1768 Q791 1744 791 1711 Q791 1678 767 1654 Q743 1630 710 1630 Q677 1630 653 1654 Q629 1678 629 1711 Q629 1744 653 1768 Q677 1792 710 1792 Z " />
<glyph glyph-name="fraction" unicode="&#x2044;" horiz-adv-x="164" d="M-373 0 L434 1464 L536 1464 L-269 0 L-373 0 Z " />
<glyph glyph-name="Euro" unicode="&#x20ac;" horiz-adv-x="1163" d="M-13 819 L-13 915 L153 915 Q184 1088 233 1184 Q386 1484 685 1484 Q869 1484 986 1363 Q1029 1317 1057.5 1266 Q1086 1215 1120 1122 L1016 1091 Q968 1224 906 1291 Q820 1384 681 1384 Q468 1384 358 1183 Q304 1086 276 915 L737 915 L737 819 L268 819 Q266 787 266 733 Q266 696 270 633 L737 633 L737 537 L280 537 Q310 369 370 271 Q482 84 693 84 Q828 84 916 162 Q962 203 990.5 256 Q1019 309 1044 402 L1151 369 Q1117 252 1080 192 Q951 -16 692 -16 Q468 -16 322 151 Q256 227 219.5 311 Q183 395 155 537 L-13 537 L-13 633 L145 633 Q141 688 141 738 Q141 787 143 819 L-13 819 Z " />
<glyph glyph-name="guilsinglleft" unicode="&#x2039;" horiz-adv-x="621" d="M377 92 L131 493 L377 897 L496 897 L254 493 L496 92 L377 92 Z " />
<glyph glyph-name="guilsinglright" unicode="&#x203a;" horiz-adv-x="621" d="M123 92 L365 493 L123 897 L242 897 L488 493 L242 92 L123 92 Z " />
<glyph glyph-name="fi" unicode="&#xfb01;" horiz-adv-x="1153" d="M78 971 L78 1071 L232 1071 L232 1253 Q232 1417 323 1500 Q396 1566 513 1566 Q604 1566 686 1521 L651 1429 Q574 1466 516 1466 Q437 1466 393 1413.5 Q349 1361 349 1267 L349 1071 L608 1071 L608 971 L349 971 L349 0 L232 0 L232 971 L78 971 Z M835 0 L835 1071 L952 1071 L952 0 L835 0 Z M895 1493 Q928 1493 952.5 1468.5 Q977 1444 977 1411 Q977 1376 952.5 1351.5 Q928 1327 894 1327 Q859 1327 835 1351.5 Q811 1376 811 1411 Q811 1445 835.5 1469 Q860 1493 895 1493 Z " />
<glyph glyph-name="fl" unicode="&#xfb02;" horiz-adv-x="1153" d="M78 971 L78 1071 L232 1071 L232 1253 Q232 1417 323 1500 Q396 1566 513 1566 Q604 1566 686 1521 L651 1429 Q574 1466 516 1466 Q437 1466 393 1413.5 Q349 1361 349 1267 L349 1071 L608 1071 L608 971 L349 971 L349 0 L232 0 L232 971 L78 971 Z M838 0 L838 1542 L955 1542 L955 0 L838 0 Z " />
<glyph glyph-name="daggerdbl" unicode="&#x2021;" horiz-adv-x="653" d="M96 1155 L96 1243 L276 1243 L276 1464 L376 1464 L376 1243 L559 1243 L559 1155 L376 1155 L376 963 L559 963 L559 875 L376 875 L376 651 L276 651 L276 875 L96 875 L96 963 L276 963 L276 1155 L96 1155 Z " />
<glyph glyph-name="periodcentered" unicode="&#xb7;" horiz-adv-x="582" d="M291 739 Q329 739 357 711.5 Q385 684 385 645 Q385 607 357 579 Q329 551 290 551 Q251 551 224 578.5 Q197 606 197 645 Q197 685 224 712 Q251 739 291 739 Z " />
<glyph glyph-name="quotesinglbase" unicode="&#x201a;" horiz-adv-x="500" d="M164 -244 L164 -174 Q247 -145 254 -18 Q154 -10 154 75 Q154 115 180.5 141.5 Q207 168 246 168 Q294 168 321 130.5 Q348 93 348 25 Q348 -95 303 -160.5 Q258 -226 164 -244 Z " />
<glyph glyph-name="quotedblbase" unicode="&#x201e;" horiz-adv-x="791" d="M455 -244 L455 -174 Q538 -145 545 -18 Q445 -10 445 75 Q445 115 471.5 141.5 Q498 168 537 168 Q585 168 612 130.5 Q639 93 639 25 Q639 -95 594 -160.5 Q549 -226 455 -244 Z M164 -244 L164 -174 Q247 -145 254 -18 Q154 -10 154 75 Q154 115 180.5 141.5 Q207 168 246 168 Q294 168 321 130.5 Q348 93 348 25 Q348 -95 303 -160.5 Q258 -226 164 -244 Z " />
<glyph glyph-name="perthousand" unicode="&#x2030;" horiz-adv-x="2355" d="M409 1474 Q551 1474 635 1355 Q710 1250 710 1084 Q710 882 602 774 Q522 694 407 694 Q290 694 208 776 Q100 883 100 1082 Q100 1260 185 1367 Q269 1474 409 1474 Z M401 1378 Q309 1378 260 1302 Q211 1226 211 1083 Q211 940 260.5 864 Q310 788 403 788 Q600 788 600 1082 Q600 1378 401 1378 Z M1231 768 Q1374 768 1458 650 Q1532 547 1532 381 Q1532 177 1425 69 Q1345 -12 1229 -12 Q1084 -12 998 109 Q923 214 923 378 Q923 556 1008 663 Q1092 768 1231 768 Z M1224 674 Q1132 674 1082 597.5 Q1032 521 1032 379 Q1032 237 1082 160.5 Q1132 84 1225 84 Q1330 84 1379 171 Q1423 249 1423 379 Q1423 513 1379 587 Q1328 674 1224 674 Z M1954 768 Q2096 768 2180 650 Q2254 547 2254 381 Q2254 177 2147 69 Q2067 -12 1952 -12 Q1806 -12 1721 109 Q1646 214 1646 378 Q1646 556 1731 663 Q1814 768 1954 768 Z M1946 668 Q1854 668 1804.5 593 Q1755 518 1755 378 Q1755 238 1804.5 163 Q1854 88 1946 88 Q2050 88 2099 174 Q2143 249 2143 378 Q2143 510 2100 583 Q2049 668 1946 668 Z M360 0 L1167 1464 L1271 1464 L465 0 L360 0 Z " />
<glyph glyph-name="Acircumflex" unicode="&#xc2;" horiz-adv-x="1244" d="M293 387 L156 0 L37 0 L576 1464 L673 1464 L1207 0 L1091 0 L952 387 L293 387 Z M329 487 L916 487 L621 1310 L329 487 Z M377 1610 L567 1915 L678 1915 L866 1610 L780 1610 L621 1811 L461 1610 L377 1610 Z " />
<glyph glyph-name="Ecircumflex" unicode="&#xca;" horiz-adv-x="1239" d="M190 0 L190 1464 L1081 1464 L1081 1364 L307 1364 L307 795 L960 795 L960 695 L307 695 L307 100 L1118 100 L1118 0 L190 0 Z M397 1610 L587 1915 L698 1915 L886 1610 L800 1610 L641 1811 L481 1610 L397 1610 Z " />
<glyph glyph-name="Aacute" unicode="&#xc1;" horiz-adv-x="1244" d="M293 387 L156 0 L37 0 L576 1464 L673 1464 L1207 0 L1091 0 L952 387 L293 387 Z M329 487 L916 487 L621 1310 L329 487 Z M594 1610 L717 1915 L870 1915 L680 1610 L594 1610 Z " />
<glyph glyph-name="Edieresis" unicode="&#xcb;" horiz-adv-x="1239" d="M190 0 L190 1464 L1081 1464 L1081 1364 L307 1364 L307 795 L960 795 L960 695 L307 695 L307 100 L1118 100 L1118 0 L190 0 Z M480 1792 Q512 1792 536.5 1767.5 Q561 1743 561 1712 Q561 1679 536.5 1654.5 Q512 1630 479 1630 Q446 1630 422.5 1654 Q399 1678 399 1711 Q399 1744 423 1768 Q447 1792 480 1792 Z M811 1792 Q843 1792 867 1768 Q891 1744 891 1711 Q891 1679 867 1654.5 Q843 1630 810 1630 Q777 1630 753 1654 Q729 1678 729 1711 Q729 1744 753 1768 Q777 1792 811 1792 Z " />
<glyph glyph-name="Egrave" unicode="&#xc8;" horiz-adv-x="1239" d="M190 0 L190 1464 L1081 1464 L1081 1364 L307 1364 L307 795 L960 795 L960 695 L307 695 L307 100 L1118 100 L1118 0 L190 0 Z M603 1610 L413 1915 L567 1915 L689 1610 L603 1610 Z " />
<glyph glyph-name="Iacute" unicode="&#xcd;" horiz-adv-x="567" d="M225 0 L225 1464 L342 1464 L342 0 L225 0 Z M241 1610 L364 1915 L517 1915 L327 1610 L241 1610 Z " />
<glyph glyph-name="Icircumflex" unicode="&#xce;" horiz-adv-x="567" d="M227 0 L227 1464 L344 1464 L344 0 L227 0 Z M45 1610 L235 1915 L346 1915 L534 1610 L448 1610 L289 1811 L129 1610 L45 1610 Z " />
<glyph glyph-name="Idieresis" unicode="&#xcf;" horiz-adv-x="567" d="M227 0 L227 1464 L344 1464 L344 0 L227 0 Z M124 1792 Q156 1792 180.5 1767.5 Q205 1743 205 1712 Q205 1679 180.5 1654.5 Q156 1630 123 1630 Q90 1630 66.5 1654 Q43 1678 43 1711 Q43 1744 67 1768 Q91 1792 124 1792 Z M455 1792 Q487 1792 511 1768 Q535 1744 535 1711 Q535 1679 511 1654.5 Q487 1630 454 1630 Q421 1630 397 1654 Q373 1678 373 1711 Q373 1744 397 1768 Q421 1792 455 1792 Z " />
<glyph glyph-name="Igrave" unicode="&#xcc;" horiz-adv-x="567" d="M229 0 L229 1464 L346 1464 L346 0 L229 0 Z M247 1610 L57 1915 L211 1915 L333 1610 L247 1610 Z " />
<glyph glyph-name="Oacute" unicode="&#xd3;" horiz-adv-x="1599" d="M805 1482 Q1016 1482 1182 1349 Q1310 1245 1381 1083 Q1452 920 1452 729 Q1452 488 1345 301 Q1256 146 1112 63 Q972 -16 803 -16 Q542 -16 361 166 Q147 381 147 733 Q147 1042 316 1251 Q501 1482 805 1482 Z M792 1382 Q675 1382 572.5 1328 Q470 1274 399 1175 Q272 998 272 731 Q272 409 450 228 Q592 84 801 84 Q1002 84 1137 210 Q1238 305 1288 460 Q1327 584 1327 729 Q1327 1013 1179 1197 Q1030 1382 792 1382 Z M757 1610 L880 1915 L1033 1915 L843 1610 L757 1610 Z " />
<glyph glyph-name="Ocircumflex" unicode="&#xd4;" horiz-adv-x="1599" d="M805 1482 Q1016 1482 1182 1349 Q1310 1245 1381 1083 Q1452 920 1452 729 Q1452 488 1345 301 Q1256 146 1112 63 Q972 -16 803 -16 Q542 -16 361 166 Q147 381 147 733 Q147 1042 316 1251 Q501 1482 805 1482 Z M792 1382 Q675 1382 572.5 1328 Q470 1274 399 1175 Q272 998 272 731 Q272 409 450 228 Q592 84 801 84 Q1002 84 1137 210 Q1238 305 1288 460 Q1327 584 1327 729 Q1327 1013 1179 1197 Q1030 1382 792 1382 Z M555 1610 L745 1915 L856 1915 L1044 1610 L958 1610 L799 1811 L639 1610 L555 1610 Z " />
<glyph glyph-name="Ograve" unicode="&#xd2;" horiz-adv-x="1599" d="M805 1482 Q1016 1482 1182 1349 Q1310 1245 1381 1083 Q1452 920 1452 729 Q1452 488 1345 301 Q1256 146 1112 63 Q972 -16 803 -16 Q542 -16 361 166 Q147 381 147 733 Q147 1042 316 1251 Q501 1482 805 1482 Z M792 1382 Q675 1382 572.5 1328 Q470 1274 399 1175 Q272 998 272 731 Q272 409 450 228 Q592 84 801 84 Q1002 84 1137 210 Q1238 305 1288 460 Q1327 584 1327 729 Q1327 1013 1179 1197 Q1030 1382 792 1382 Z M761 1610 L571 1915 L725 1915 L847 1610 L761 1610 Z " />
<glyph glyph-name="Uacute" unicode="&#xda;" horiz-adv-x="1378" d="M1085 1464 L1196 1464 L1196 524 Q1196 326 1123 199 Q1000 -16 692 -16 Q443 -16 312.5 122.5 Q182 261 182 524 L182 1464 L299 1464 L299 532 Q299 301 394 192.5 Q489 84 692 84 Q923 84 1016 227 Q1085 333 1085 532 L1085 1464 Z M643 1610 L766 1915 L919 1915 L729 1610 L643 1610 Z " />
<glyph glyph-name="Ucircumflex" unicode="&#xdb;" horiz-adv-x="1378" d="M1085 1464 L1196 1464 L1196 524 Q1196 326 1123 199 Q1000 -16 692 -16 Q443 -16 312.5 122.5 Q182 261 182 524 L182 1464 L299 1464 L299 532 Q299 301 394 192.5 Q489 84 692 84 Q923 84 1016 227 Q1085 333 1085 532 L1085 1464 Z M444 1610 L634 1915 L745 1915 L933 1610 L847 1610 L688 1811 L528 1610 L444 1610 Z " />
<glyph glyph-name="Ugrave" unicode="&#xd9;" horiz-adv-x="1378" d="M1085 1464 L1196 1464 L1196 524 Q1196 326 1123 199 Q1000 -16 692 -16 Q443 -16 312.5 122.5 Q182 261 182 524 L182 1464 L299 1464 L299 532 Q299 301 394 192.5 Q489 84 692 84 Q923 84 1016 227 Q1085 333 1085 532 L1085 1464 Z M646 1610 L456 1915 L610 1915 L732 1610 L646 1610 Z " />
<glyph glyph-name="dotlessi" unicode="&#x131;" horiz-adv-x="518" d="M201 0 L201 1071 L318 1071 L318 0 L201 0 Z " />
<glyph glyph-name="circumflex" unicode="&#x2c6;" horiz-adv-x="1024" d="M267 1237 L457 1542 L568 1542 L756 1237 L670 1237 L511 1438 L351 1237 L267 1237 Z " />
<glyph glyph-name="tilde" unicode="&#x2dc;" horiz-adv-x="1024" d="M313 1294 L229 1304 Q244 1400 290 1449 Q334 1497 393 1497 Q443 1497 535 1442 Q604 1400 635 1400 Q694 1400 710 1503 L794 1492 Q779 1396 735 1348 Q690 1300 630 1300 Q580 1300 488 1355 Q419 1397 388 1397 Q329 1397 313 1294 Z " />
<glyph glyph-name="overscore" unicode="&#xaf;" horiz-adv-x="1024" d="M281 1348 L281 1448 L744 1448 L744 1348 L281 1348 Z " />
<glyph glyph-name="breve" unicode="&#x2d8;" horiz-adv-x="1024" d="M270 1534 L368 1534 Q376 1370 512 1370 Q648 1370 655 1534 L753 1534 Q753 1418 715 1361 Q655 1270 512 1270 Q388 1270 329.5 1333.5 Q271 1397 270 1534 Z " />
<glyph glyph-name="dotaccent" unicode="&#x2d9;" horiz-adv-x="1024" d="M513 1491 Q545 1491 569 1467 Q593 1443 593 1411 Q593 1377 569 1353 Q545 1329 512 1329 Q479 1329 455 1353 Q431 1377 431 1411 Q431 1443 455 1467 Q479 1491 513 1491 Z " />
<glyph glyph-name="ring" unicode="&#x2da;" horiz-adv-x="1024" d="M513 1599 Q591 1599 647.5 1542.5 Q704 1486 704 1409 Q704 1330 647.5 1273.5 Q591 1217 512 1217 Q432 1217 375.5 1273.5 Q319 1330 319 1409 Q319 1487 376 1543 Q433 1599 513 1599 Z M511 1521 Q466 1521 435.5 1488.5 Q405 1456 405 1409 Q405 1360 435 1327.5 Q465 1295 511 1295 Q557 1295 587.5 1327.5 Q618 1360 618 1409 Q618 1457 587 1489 Q556 1521 511 1521 Z " />
<glyph glyph-name="cedilla" unicode="&#xb8;" horiz-adv-x="1024" d="M534 -127 Q564 -119 583 -119 Q646 -119 686.5 -160 Q727 -201 727 -265 Q727 -336 676.5 -379 Q626 -422 542 -422 Q434 -422 352 -340 L411 -287 Q466 -344 538 -344 Q629 -344 629 -264 Q629 -187 547 -187 Q510 -187 483 -211 L426 -170 L540 0 L620 0 L534 -127 Z " />
<glyph glyph-name="hungarumlaut" unicode="&#x2dd;" horiz-adv-x="1024" d="M598 1237 L682 1542 L819 1542 L682 1237 L598 1237 Z M342 1237 L424 1542 L561 1542 L424 1237 L342 1237 Z " />
<glyph glyph-name="ogonek" unicode="&#x2db;" horiz-adv-x="1024" d="M674 -350 Q599 -422 501 -422 Q419 -422 370.5 -379 Q322 -336 322 -262 Q322 -133 484 0 L578 0 Q489 -87 454.5 -143 Q420 -199 420 -256 Q420 -344 505 -344 Q566 -344 617 -291 L674 -350 Z " />
<glyph glyph-name="caron" unicode="&#x2c7;" horiz-adv-x="1024" d="M457 1237 L267 1542 L353 1542 L513 1335 L673 1542 L756 1542 L564 1237 L457 1237 Z " />
<glyph glyph-name="nbspace" unicode="&#xa0;" horiz-adv-x="442" d="" />
<glyph glyph-name="currency" unicode="&#xa4;" horiz-adv-x="1163" d="M-13 819 L-13 915 L153 915 Q184 1088 233 1184 Q386 1484 685 1484 Q869 1484 986 1363 Q1029 1317 1057.5 1266 Q1086 1215 1120 1122 L1016 1091 Q968 1224 906 1291 Q820 1384 681 1384 Q468 1384 358 1183 Q304 1086 276 915 L737 915 L737 819 L268 819 Q266 787 266 733 Q266 696 270 633 L737 633 L737 537 L280 537 Q310 369 370 271 Q482 84 693 84 Q828 84 916 162 Q962 203 990.5 256 Q1019 309 1044 402 L1151 369 Q1117 252 1080 192 Q951 -16 692 -16 Q468 -16 322 151 Q256 227 219.5 311 Q183 395 155 537 L-13 537 L-13 633 L145 633 Q141 688 141 738 Q141 787 143 819 L-13 819 Z " />
<glyph glyph-name="brokenbar" unicode="&#xa6;" horiz-adv-x="512" d="M205 0 L205 588 L307 588 L307 0 L205 0 Z M205 877 L205 1464 L307 1464 L307 877 L205 877 Z " />
<glyph glyph-name="uni00AD" unicode="&#xad;" horiz-adv-x="582" d="M90 585 L90 700 L491 700 L491 585 L90 585 Z " />
<glyph glyph-name="twosuperior" unicode="&#xb2;" horiz-adv-x="811" d="M116 923 L116 1023 Q329 1177 421 1276 Q548 1413 548 1544 Q548 1617 509 1660 Q470 1703 404 1703 Q277 1703 233 1547 L125 1572 Q151 1681 219 1738 Q294 1800 406 1800 Q523 1800 596.5 1729 Q670 1658 670 1543 Q670 1377 499 1208 Q419 1129 265 1023 L677 1023 L677 923 L116 923 Z " />
<glyph glyph-name="threesuperior" unicode="&#xb3;" horiz-adv-x="811" d="M542 1378 Q704 1328 704 1164 Q704 1048 623 978.5 Q542 909 406 909 Q277 909 194.5 970.5 Q112 1032 87 1146 L195 1171 Q237 1006 404 1006 Q489 1006 535.5 1047.5 Q582 1089 582 1165 Q582 1241 535 1282.5 Q488 1324 402 1324 L319 1324 L319 1421 L396 1421 Q474 1421 519 1459 Q564 1497 564 1562 Q564 1626 523 1664 Q482 1702 413 1702 Q279 1702 229 1561 L127 1586 Q160 1690 234 1744.5 Q308 1799 417 1799 Q542 1799 615 1726 Q679 1662 679 1570 Q679 1441 542 1378 Z " />
<glyph glyph-name="onesuperior" unicode="&#xb9;" horiz-adv-x="811" d="M193 923 L193 1020 L362 1020 L362 1592 Q302 1559 193 1558 L193 1642 Q360 1662 392 1788 L484 1788 L484 1020 L646 1020 L646 923 L193 923 Z " />
<glyph glyph-name="onequarter" unicode="&#xbc;" horiz-adv-x="1638" d="M175 678 L175 766 L329 766 L329 1286 Q276 1257 175 1255 L175 1331 Q327 1349 356 1464 L440 1464 L440 766 L587 766 L587 678 L175 678 Z M364 0 L1171 1464 L1274 1464 L469 0 L364 0 Z M1313 0 L1313 162 L923 162 L923 266 L1309 786 L1413 786 L1413 248 L1517 248 L1517 162 L1413 162 L1413 0 L1313 0 Z M1309 653 L1022 248 L1309 248 L1309 653 Z " />
<glyph glyph-name="onehalf" unicode="&#xbd;" horiz-adv-x="1638" d="M163 678 L163 766 L317 766 L317 1286 Q264 1257 163 1255 L163 1331 Q315 1349 344 1464 L428 1464 L428 766 L575 766 L575 678 L163 678 Z M328 0 L1135 1464 L1237 1464 L432 0 L328 0 Z M970 0 L970 91 Q1166 233 1248 321 Q1363 446 1363 565 Q1363 631 1328 670 Q1293 709 1233 709 Q1116 709 1077 568 L978 590 Q1002 691 1067.5 744 Q1133 797 1233 797 Q1341 797 1407.5 732.5 Q1474 668 1474 564 Q1474 446 1388.5 336.5 Q1303 227 1105 91 L1480 91 L1480 0 L970 0 Z " />
<glyph glyph-name="threequarters" unicode="&#xbe;" horiz-adv-x="1638" d="M505 1091 Q652 1046 652 896 Q652 791 578 728 Q504 665 381 665 Q264 665 189 720.5 Q114 776 91 880 L189 903 Q228 753 379 753 Q456 753 498.5 791 Q541 829 541 897 Q541 966 498.5 1004 Q456 1042 378 1042 L302 1042 L302 1130 L372 1130 Q443 1130 484.5 1164.5 Q526 1199 526 1258 Q526 1317 489 1351.5 Q452 1386 389 1386 Q266 1386 220 1257 L128 1279 Q157 1374 225 1424 Q293 1474 392 1474 Q496 1474 563 1415.5 Q630 1357 630 1265 Q630 1147 505 1091 Z M389 0 L1196 1464 L1298 1464 L493 0 L389 0 Z M1301 0 L1301 162 L911 162 L911 266 L1297 786 L1401 786 L1401 248 L1505 248 L1505 162 L1401 162 L1401 0 L1301 0 Z M1297 653 L1010 248 L1297 248 L1297 653 Z " />
<glyph glyph-name="Eth" unicode="&#xd0;" horiz-adv-x="1483" d="M43 674 L43 774 L215 774 L215 1464 L661 1464 Q988 1464 1164 1265 Q1335 1073 1335 729 Q1335 340 1128 151 Q963 0 657 0 L215 0 L215 674 L43 674 Z M332 100 L669 100 Q933 100 1070 256 Q1210 415 1210 734 Q1210 1079 1037 1239 Q902 1364 667 1364 L332 1364 L332 774 L661 774 L661 674 L332 674 L332 100 Z " />
<glyph glyph-name="multiply" unicode="&#xd7;" horiz-adv-x="1049" d="M192 305 L121 374 L456 735 L121 1096 L192 1163 L525 808 L856 1163 L927 1096 L592 735 L927 374 L856 305 L525 662 L192 305 Z " />
<glyph glyph-name="Yacute" unicode="&#xdd;" horiz-adv-x="1075" d="M486 0 L486 645 L-12 1464 L121 1464 L544 747 L963 1464 L1088 1464 L603 643 L603 0 L486 0 Z M502 1610 L625 1915 L778 1915 L588 1610 L502 1610 Z " />
<glyph glyph-name="Thorn" unicode="&#xde;" horiz-adv-x="1286" d="M190 0 L190 1464 L307 1464 L307 1167 L698 1167 Q950 1167 1071 1036 Q1167 931 1167 754 Q1167 565 1048 459 Q925 350 696 350 L307 350 L307 0 L190 0 Z M307 450 L706 450 Q887 450 976 548 Q1046 626 1046 760 Q1046 911 959 989 Q872 1067 706 1067 L307 1067 L307 450 Z " />
<glyph glyph-name="eth" unicode="&#xf0;" horiz-adv-x="1180" d="M496 1190 L437 1251 L582 1384 Q506 1446 416 1505 L476 1589 Q587 1520 664 1458 L795 1577 L854 1513 L730 1401 Q870 1262 944 1118 Q1065 881 1065 578 Q1065 269 907 112 Q779 -16 587 -16 Q396 -16 265 114 Q109 270 109 536 Q109 801 267 958 Q396 1087 576 1087 Q774 1087 889 921 Q815 1159 648 1325 L496 1190 Z M583 987 Q413 987 316 849 Q230 728 230 535 Q230 292 361 169 Q452 84 585 84 Q759 84 856 220 Q944 342 944 535 Q944 742 846 865 Q749 987 583 987 Z " />
<glyph glyph-name="yacute" unicode="&#xfd;" horiz-adv-x="975" d="M930 1071 L479 -184 Q407 -385 231 -385 Q133 -385 57 -330 L104 -244 Q163 -285 226 -285 Q340 -285 385 -150 L436 6 L45 1071 L172 1071 L496 174 L807 1071 L930 1071 Z M446 1237 L569 1542 L722 1542 L532 1237 L446 1237 Z " />
<glyph glyph-name="thorn" unicode="&#xfe;" horiz-adv-x="1235" d="M193 -373 L193 1542 L310 1542 L310 852 Q436 1087 680 1087 Q854 1087 975 966 Q1127 814 1127 539 Q1127 337 1045 194 Q987 94 893 39 Q798 -16 679 -16 Q556 -16 461.5 43 Q367 102 310 215 L310 -373 L193 -373 Z M660 987 Q525 987 429 891 Q306 768 306 534 Q306 291 434 171 Q527 84 664 84 Q852 84 938 233 Q1004 348 1004 529 Q1004 712 937 827 Q844 987 660 987 Z " />
<glyph glyph-name="Amacron" unicode="&#x100;" horiz-adv-x="1244" d="M293 387 L156 0 L37 0 L576 1464 L673 1464 L1207 0 L1091 0 L952 387 L293 387 Z M329 487 L916 487 L621 1310 L329 487 Z M391 1653 L391 1753 L854 1753 L854 1653 L391 1653 Z " />
<glyph glyph-name="amacron" unicode="&#x101;" horiz-adv-x="1075" d="M776 160 Q648 -16 435 -16 Q279 -16 185 77 Q106 155 106 274 Q106 501 365 574 Q509 614 774 628 L774 733 Q774 987 544 987 Q373 987 221 844 L149 920 Q317 1087 545 1087 Q719 1087 809 988 Q891 897 891 731 L891 207 Q891 143 920 117 Q949 91 1025 88 L1025 -6 Q996 -8 974 -8 Q809 -8 776 160 Z M774 537 Q598 534 469 506 Q227 454 227 278 Q227 189 287.5 136.5 Q348 84 452 84 Q575 84 668 154 Q716 191 745 241.5 Q774 292 774 341 L774 537 Z M306 1348 L306 1448 L769 1448 L769 1348 L306 1348 Z " />
<glyph glyph-name="Abreve" unicode="&#x102;" horiz-adv-x="1244" d="M864 1878 Q852 1762 787 1701 Q721 1638 621 1638 Q518 1638 454.5 1701.5 Q391 1765 380 1878 L479 1878 Q500 1738 624 1738 Q743 1738 767 1878 L864 1878 Z M293 387 L156 0 L37 0 L576 1464 L673 1464 L1207 0 L1091 0 L952 387 L293 387 Z M329 487 L916 487 L621 1310 L329 487 Z " />
<glyph glyph-name="abreve" unicode="&#x103;" horiz-adv-x="1075" d="M779 1526 Q767 1410 702 1349 Q636 1286 536 1286 Q433 1286 369.5 1349.5 Q306 1413 295 1526 L394 1526 Q415 1386 539 1386 Q658 1386 682 1526 L779 1526 Z M776 160 Q648 -16 435 -16 Q279 -16 185 77 Q106 155 106 274 Q106 501 365 574 Q509 614 774 628 L774 733 Q774 987 544 987 Q373 987 221 844 L149 920 Q317 1087 545 1087 Q719 1087 809 988 Q891 897 891 731 L891 207 Q891 143 920 117 Q949 91 1025 88 L1025 -6 Q996 -8 974 -8 Q809 -8 776 160 Z M774 537 Q598 534 469 506 Q227 454 227 278 Q227 189 287.5 136.5 Q348 84 452 84 Q575 84 668 154 Q716 191 745 241.5 Q774 292 774 341 L774 537 Z " />
<glyph glyph-name="Aogonek" unicode="&#x104;" horiz-adv-x="1244" d="M1200 19 Q1101 -75 1061.5 -136.5 Q1022 -198 1022 -258 Q1022 -344 1107 -344 Q1168 -344 1219 -291 L1276 -350 Q1201 -422 1103 -422 Q1021 -422 972.5 -379 Q924 -336 924 -262 Q924 -118 1092 0 L952 387 L293 387 L156 0 L37 0 L576 1464 L673 1464 L1200 19 Z M329 487 L916 487 L621 1310 L329 487 Z " />
<glyph glyph-name="aogonek" unicode="&#x105;" horiz-adv-x="1075" d="M776 160 Q648 -16 435 -16 Q279 -16 185 77 Q106 155 106 274 Q106 501 365 574 Q509 614 774 628 L774 733 Q774 987 544 987 Q373 987 221 844 L149 920 Q317 1087 545 1087 Q719 1087 809 988 Q891 897 891 731 L891 207 Q891 143 920 117 Q949 91 1025 88 L1025 -6 Q996 -8 978 -8 Q968 -8 956 -8 Q872 -89 839 -144 Q806 -199 806 -257 Q806 -344 891 -344 Q953 -344 1004 -291 L1062 -350 Q986 -422 888 -422 Q805 -422 756.5 -379 Q708 -336 708 -262 Q708 -189 747.5 -127 Q787 -65 883 11 Q798 49 776 160 Z M774 537 Q598 534 469 506 Q227 454 227 278 Q227 189 287.5 136.5 Q348 84 452 84 Q575 84 668 154 Q716 191 745 241.5 Q774 292 774 341 L774 537 Z " />
<glyph glyph-name="Cacute" unicode="&#x106;" horiz-adv-x="1448" d="M1325 405 Q1271 259 1206 179 Q1050 -16 774 -16 Q466 -16 292 226 Q147 428 147 729 Q147 1054 318 1267 Q492 1484 779 1484 Q1007 1484 1148 1344 Q1198 1294 1231 1239 Q1264 1184 1302 1087 L1198 1052 Q1142 1200 1069 1273 Q957 1384 779 1384 Q539 1384 400 1190 Q272 1010 272 731 Q272 492 367 323 Q501 84 778 84 Q978 84 1099 218 Q1170 297 1218 444 L1325 405 Z M718 1610 L841 1915 L994 1915 L804 1610 L718 1610 Z " />
<glyph glyph-name="cacute" unicode="&#x107;" horiz-adv-x="1047" d="M990 231 Q850 -16 582 -16 Q392 -16 264 112 Q109 267 109 536 Q109 809 263 962 Q388 1087 577 1087 Q706 1087 798.5 1031.5 Q891 976 963 856 L871 796 Q804 905 741.5 946 Q679 987 581 987 Q389 987 297 825 Q230 708 230 534 Q230 361 296 246 Q388 84 586 84 Q692 84 763 131 Q834 178 897 289 L990 231 Z M515 1237 L638 1542 L791 1542 L601 1237 L515 1237 Z " />
<glyph glyph-name="Ccircumflex" unicode="&#x108;" horiz-adv-x="1448" d="M1325 405 Q1271 259 1206 179 Q1050 -16 774 -16 Q466 -16 292 226 Q147 428 147 729 Q147 1054 318 1267 Q492 1484 779 1484 Q1007 1484 1148 1344 Q1198 1294 1231 1239 Q1264 1184 1302 1087 L1198 1052 Q1142 1200 1069 1273 Q957 1384 779 1384 Q539 1384 400 1190 Q272 1010 272 731 Q272 492 367 323 Q501 84 778 84 Q978 84 1099 218 Q1170 297 1218 444 L1325 405 Z M518 1610 L708 1915 L819 1915 L1007 1610 L921 1610 L762 1811 L602 1610 L518 1610 Z " />
<glyph glyph-name="ccircumflex" unicode="&#x109;" horiz-adv-x="1047" d="M990 231 Q850 -16 582 -16 Q392 -16 264 112 Q109 267 109 536 Q109 809 263 962 Q388 1087 577 1087 Q706 1087 798.5 1031.5 Q891 976 963 856 L871 796 Q804 905 741.5 946 Q679 987 581 987 Q389 987 297 825 Q230 708 230 534 Q230 361 296 246 Q388 84 586 84 Q692 84 763 131 Q834 178 897 289 L990 231 Z M316 1237 L506 1542 L617 1542 L805 1237 L719 1237 L560 1438 L400 1237 L316 1237 Z " />
<glyph glyph-name="Cdotaccent" unicode="&#x10a;" horiz-adv-x="1448" d="M1325 405 Q1271 259 1206 179 Q1050 -16 774 -16 Q466 -16 292 226 Q147 428 147 729 Q147 1054 318 1267 Q492 1484 779 1484 Q1007 1484 1148 1344 Q1198 1294 1231 1239 Q1264 1184 1302 1087 L1198 1052 Q1142 1200 1069 1273 Q957 1384 779 1384 Q539 1384 400 1190 Q272 1010 272 731 Q272 492 367 323 Q501 84 778 84 Q978 84 1099 218 Q1170 297 1218 444 L1325 405 Z M766 1792 Q798 1792 822 1768 Q846 1744 846 1711 Q846 1679 822 1654.5 Q798 1630 765 1630 Q732 1630 708 1654 Q684 1678 684 1711 Q684 1744 708 1768 Q732 1792 766 1792 Z " />
<glyph glyph-name="cdotaccent" unicode="&#x10b;" horiz-adv-x="1047" d="M990 231 Q850 -16 582 -16 Q392 -16 264 112 Q109 267 109 536 Q109 809 263 962 Q388 1087 577 1087 Q706 1087 798.5 1031.5 Q891 976 963 856 L871 796 Q804 905 741.5 946 Q679 987 581 987 Q389 987 297 825 Q230 708 230 534 Q230 361 296 246 Q388 84 586 84 Q692 84 763 131 Q834 178 897 289 L990 231 Z M583 1491 Q615 1491 639 1467 Q663 1443 663 1411 Q663 1377 639 1353 Q615 1329 582 1329 Q549 1329 525 1353 Q501 1377 501 1411 Q501 1443 525 1467 Q549 1491 583 1491 Z " />
<glyph glyph-name="Ccaron" unicode="&#x10c;" horiz-adv-x="1448" d="M1325 405 Q1271 259 1206 179 Q1050 -16 774 -16 Q466 -16 292 226 Q147 428 147 729 Q147 1054 318 1267 Q492 1484 779 1484 Q1007 1484 1148 1344 Q1198 1294 1231 1239 Q1264 1184 1302 1087 L1198 1052 Q1142 1200 1069 1273 Q957 1384 779 1384 Q539 1384 400 1190 Q272 1010 272 731 Q272 492 367 323 Q501 84 778 84 Q978 84 1099 218 Q1170 297 1218 444 L1325 405 Z M708 1610 L518 1915 L604 1915 L764 1708 L924 1915 L1007 1915 L815 1610 L708 1610 Z " />
<glyph glyph-name="ccaron" unicode="&#x10d;" horiz-adv-x="1047" d="M990 231 Q850 -16 582 -16 Q392 -16 264 112 Q109 267 109 536 Q109 809 263 962 Q388 1087 577 1087 Q706 1087 798.5 1031.5 Q891 976 963 856 L871 796 Q804 905 741.5 946 Q679 987 581 987 Q389 987 297 825 Q230 708 230 534 Q230 361 296 246 Q388 84 586 84 Q692 84 763 131 Q834 178 897 289 L990 231 Z M524 1237 L334 1542 L420 1542 L580 1335 L740 1542 L823 1542 L631 1237 L524 1237 Z " />
<glyph glyph-name="Dcaron" unicode="&#x10e;" horiz-adv-x="1458" d="M190 0 L190 1464 L635 1464 Q963 1464 1140 1265 Q1311 1073 1311 729 Q1311 344 1104 155 Q934 0 633 0 L190 0 Z M307 100 L643 100 Q907 100 1045 256 Q1186 416 1186 733 Q1186 1077 1013 1238 Q877 1364 641 1364 L307 1364 L307 100 Z M577 1610 L387 1915 L473 1915 L633 1708 L793 1915 L876 1915 L684 1610 L577 1610 Z " />
<glyph glyph-name="dcaron" unicode="&#x10f;" horiz-adv-x="1322" d="M922 215 Q801 -16 556 -16 Q341 -16 216 160 Q109 310 109 539 Q109 816 257 967 Q376 1087 553 1087 Q802 1087 922 852 L922 1542 L1039 1542 L1039 0 L922 0 L922 215 Z M565 987 Q386 987 296 831 Q230 716 230 533 Q230 280 354 164 Q438 84 568 84 Q712 84 807 179 Q928 301 928 535 Q928 768 806 892 Q711 987 565 987 Z M1207 1225 L1207 1290 Q1296 1310 1297 1399 Q1213 1402 1213 1476 Q1213 1510 1235 1531 Q1257 1552 1292 1552 Q1333 1552 1358 1520 Q1383 1488 1383 1434 Q1383 1346 1337.5 1292 Q1292 1238 1207 1225 Z " />
<glyph glyph-name="Dcroat" unicode="&#x110;" horiz-adv-x="1483" d="M43 674 L43 774 L215 774 L215 1464 L661 1464 Q988 1464 1164 1265 Q1335 1073 1335 729 Q1335 340 1128 151 Q963 0 657 0 L215 0 L215 674 L43 674 Z M332 100 L669 100 Q933 100 1070 256 Q1210 415 1210 734 Q1210 1079 1037 1239 Q902 1364 667 1364 L332 1364 L332 774 L661 774 L661 674 L332 674 L332 100 Z " />
<glyph glyph-name="dcroat" unicode="&#x111;" horiz-adv-x="1231" d="M654 1246 L654 1346 L924 1346 L924 1542 L1041 1542 L1041 1346 L1184 1346 L1184 1246 L1041 1246 L1041 0 L924 0 L924 215 Q803 -16 557 -16 Q341 -16 216 160 Q109 310 109 539 Q109 816 257 967 Q376 1087 553 1087 Q676 1087 770.5 1027.5 Q865 968 924 852 L924 1246 L654 1246 Z M565 987 Q386 987 296 831 Q230 716 230 533 Q230 280 354 164 Q438 84 568 84 Q712 84 808 179 Q930 301 930 535 Q930 769 807 892 Q712 987 565 987 Z " />
<glyph glyph-name="Emacron" unicode="&#x112;" horiz-adv-x="1239" d="M190 0 L190 1464 L1081 1464 L1081 1364 L307 1364 L307 795 L960 795 L960 695 L307 695 L307 100 L1118 100 L1118 0 L190 0 Z M413 1653 L413 1753 L876 1753 L876 1653 L413 1653 Z " />
<glyph glyph-name="emacron" unicode="&#x113;" horiz-adv-x="1110" d="M996 227 Q869 -16 594 -16 Q392 -16 262 114 Q109 265 109 534 Q109 809 264 963 Q389 1087 573 1087 Q765 1087 884 954 Q1006 816 1006 567 L1006 527 L230 527 Q234 391 261 317 Q344 84 594 84 Q703 84 774 129.5 Q845 175 900 280 L996 227 Z M887 627 Q878 740 853 800 Q778 987 575 987 Q424 987 331 876 Q290 827 269 773 Q248 719 234 627 L887 627 Z M340 1348 L340 1448 L803 1448 L803 1348 L340 1348 Z " />
<glyph glyph-name="Ebreve" unicode="&#x114;" horiz-adv-x="1239" d="M190 0 L190 1464 L1081 1464 L1081 1364 L307 1364 L307 795 L960 795 L960 695 L307 695 L307 100 L1118 100 L1118 0 L190 0 Z M885 1878 Q873 1762 809 1701 Q742 1638 642 1638 Q540 1638 476.5 1701.5 Q413 1765 402 1878 L500 1878 Q521 1738 645 1738 Q764 1738 789 1878 L885 1878 Z " />
<glyph glyph-name="ebreve" unicode="&#x115;" horiz-adv-x="1110" d="M996 227 Q869 -16 594 -16 Q392 -16 262 114 Q109 265 109 534 Q109 809 264 963 Q389 1087 573 1087 Q765 1087 884 954 Q1006 816 1006 567 L1006 527 L230 527 Q234 391 261 317 Q344 84 594 84 Q703 84 774 129.5 Q845 175 900 280 L996 227 Z M887 627 Q878 740 853 800 Q778 987 575 987 Q424 987 331 876 Q290 827 269 773 Q248 719 234 627 L887 627 Z M316 1534 L414 1534 Q422 1370 558 1370 Q694 1370 701 1534 L799 1534 Q799 1418 761 1361 Q701 1270 558 1270 Q434 1270 375.5 1333.5 Q317 1397 316 1534 Z " />
<glyph glyph-name="Edotaccent" unicode="&#x116;" horiz-adv-x="1239" d="M190 0 L190 1464 L1081 1464 L1081 1364 L307 1364 L307 795 L960 795 L960 695 L307 695 L307 100 L1118 100 L1118 0 L190 0 Z M647 1792 Q679 1792 703 1768 Q727 1744 727 1711 Q727 1679 703 1654.5 Q679 1630 646 1630 Q613 1630 589 1654 Q565 1678 565 1711 Q565 1744 589 1768 Q613 1792 647 1792 Z " />
<glyph glyph-name="edotaccent" unicode="&#x117;" horiz-adv-x="1110" d="M996 227 Q869 -16 594 -16 Q392 -16 262 114 Q109 265 109 534 Q109 809 264 963 Q389 1087 573 1087 Q765 1087 884 954 Q1006 816 1006 567 L1006 527 L230 527 Q234 391 261 317 Q344 84 594 84 Q703 84 774 129.5 Q845 175 900 280 L996 227 Z M887 627 Q878 740 853 800 Q778 987 575 987 Q424 987 331 876 Q290 827 269 773 Q248 719 234 627 L887 627 Z M576 1491 Q608 1491 632 1467 Q656 1443 656 1411 Q656 1377 632 1353 Q608 1329 575 1329 Q542 1329 518 1353 Q494 1377 494 1411 Q494 1443 518 1467 Q542 1491 576 1491 Z " />
<glyph glyph-name="Eogonek" unicode="&#x118;" horiz-adv-x="1239" d="M190 0 L190 1464 L1081 1464 L1081 1364 L307 1364 L307 795 L960 795 L960 695 L307 695 L307 100 L1118 100 L1118 0 L1032 0 Q943 -87 908.5 -143 Q874 -199 874 -256 Q874 -344 959 -344 Q1020 -344 1071 -291 L1128 -350 Q1053 -422 956 -422 Q873 -422 824.5 -379 Q776 -336 776 -262 Q776 -132 938 0 L190 0 Z " />
<glyph glyph-name="eogonek" unicode="&#x119;" horiz-adv-x="1110" d="M779 -352 Q704 -423 606 -423 Q523 -423 474.5 -380 Q426 -337 426 -263 Q426 -139 568 -18 Q485 -10 437.5 4.5 Q390 19 339 50 Q241 111 183 216 Q109 349 109 534 Q109 808 264 962 Q389 1087 573 1087 Q765 1087 884 954 Q1006 816 1006 567 L1006 527 L230 527 Q234 391 261 317 Q344 83 594 83 Q703 83 774 129 Q845 175 900 279 L996 226 Q897 19 670 -12 Q588 -95 556 -148.5 Q524 -202 524 -258 Q524 -345 609 -345 Q671 -345 721 -292 L779 -352 Z M887 627 Q878 740 853 800 Q778 987 575 987 Q424 987 331 876 Q290 827 269 773 Q248 719 234 627 L887 627 Z " />
<glyph glyph-name="Ecaron" unicode="&#x11a;" horiz-adv-x="1239" d="M190 0 L190 1464 L1081 1464 L1081 1364 L307 1364 L307 795 L960 795 L960 695 L307 695 L307 100 L1118 100 L1118 0 L190 0 Z M591 1610 L401 1915 L487 1915 L647 1708 L807 1915 L890 1915 L698 1610 L591 1610 Z " />
<glyph glyph-name="ecaron" unicode="&#x11b;" horiz-adv-x="1110" d="M996 227 Q869 -16 594 -16 Q392 -16 262 114 Q109 265 109 534 Q109 809 264 963 Q389 1087 573 1087 Q765 1087 884 954 Q1006 816 1006 567 L1006 527 L230 527 Q234 391 261 317 Q344 84 594 84 Q703 84 774 129.5 Q845 175 900 280 L996 227 Z M887 627 Q878 740 853 800 Q778 987 575 987 Q424 987 331 876 Q290 827 269 773 Q248 719 234 627 L887 627 Z M518 1237 L328 1542 L414 1542 L574 1335 L734 1542 L817 1542 L625 1237 L518 1237 Z " />
<glyph glyph-name="Gcircumflex" unicode="&#x11c;" horiz-adv-x="1526" d="M1255 293 Q1175 146 1075 74 Q950 -16 778 -16 Q560 -16 402 113 Q285 209 219 361 Q147 529 147 730 Q147 1047 318 1261 Q496 1484 786 1484 Q1011 1484 1154 1349 Q1205 1301 1238.5 1248 Q1272 1195 1312 1101 L1208 1063 Q1150 1208 1074 1279 Q962 1384 786 1384 Q544 1384 401 1186 Q272 1006 272 732 Q272 497 368 326 Q432 210 539 147 Q645 84 780 84 Q970 84 1097 213 Q1240 357 1240 590 L1240 635 L831 635 L831 735 L1357 735 L1357 0 L1277 0 L1255 293 Z M524 1610 L714 1915 L825 1915 L1013 1610 L927 1610 L768 1811 L608 1610 L524 1610 Z " />
<glyph glyph-name="gcircumflex" unicode="&#x11d;" horiz-adv-x="1087" d="M713 1055 L1024 1081 L1024 973 L932 973 L865 973 L840 973 Q936 875 936 748 Q936 584 800 487 Q692 410 546 410 Q437 410 342 459 Q272 413 272 349 Q272 288 313 262 Q354 236 452 236 L655 236 Q831 236 912 179 Q1024 100 1024 -47 Q1024 -226 863 -318 Q735 -391 542 -391 Q355 -391 233 -322 Q86 -239 86 -89 Q86 67 276 162 Q166 214 166 325 Q166 432 276 500 Q156 605 156 751 Q156 916 288 1011 Q395 1087 539 1087 Q624 1087 713 1055 Z M379 137 Q203 60 203 -81 Q203 -190 299 -243 Q388 -293 541 -293 Q701 -293 797 -240 Q907 -180 907 -53 Q907 135 664 135 L426 135 Q402 135 379 137 Z M541 991 Q432 991 359 936 Q272 871 272 752 Q272 627 367 560 Q443 506 547 506 Q650 506 724 557 Q819 622 819 750 Q819 861 744 926 Q669 991 541 991 Z M307 1237 L497 1542 L608 1542 L796 1237 L710 1237 L551 1438 L391 1237 L307 1237 Z " />
<glyph glyph-name="Gbreve" unicode="&#x11e;" horiz-adv-x="1526" d="M1255 293 Q1175 146 1075 74 Q950 -16 778 -16 Q560 -16 402 113 Q285 209 219 361 Q147 529 147 730 Q147 1047 318 1261 Q496 1484 786 1484 Q1011 1484 1154 1349 Q1205 1301 1238.5 1248 Q1272 1195 1312 1101 L1208 1063 Q1150 1208 1074 1279 Q962 1384 786 1384 Q544 1384 401 1186 Q272 1006 272 732 Q272 497 368 326 Q432 210 539 147 Q645 84 780 84 Q970 84 1097 213 Q1240 357 1240 590 L1240 635 L831 635 L831 735 L1357 735 L1357 0 L1277 0 L1255 293 Z M1009 1878 Q997 1762 933 1701 Q866 1638 766 1638 Q664 1638 600.5 1701.5 Q537 1765 526 1878 L624 1878 Q646 1738 769 1738 Q888 1738 913 1878 L1009 1878 Z " />
<glyph glyph-name="gbreve" unicode="&#x11f;" horiz-adv-x="1087" d="M713 1055 L1024 1081 L1024 973 L932 973 L865 973 L840 973 Q936 875 936 748 Q936 584 800 487 Q692 410 546 410 Q437 410 342 459 Q272 413 272 349 Q272 288 313 262 Q354 236 452 236 L655 236 Q831 236 912 179 Q1024 100 1024 -47 Q1024 -226 863 -318 Q735 -391 542 -391 Q355 -391 233 -322 Q86 -239 86 -89 Q86 67 276 162 Q166 214 166 325 Q166 432 276 500 Q156 605 156 751 Q156 916 288 1011 Q395 1087 539 1087 Q624 1087 713 1055 Z M379 137 Q203 60 203 -81 Q203 -190 299 -243 Q388 -293 541 -293 Q701 -293 797 -240 Q907 -180 907 -53 Q907 135 664 135 L426 135 Q402 135 379 137 Z M541 991 Q432 991 359 936 Q272 871 272 752 Q272 627 367 560 Q443 506 547 506 Q650 506 724 557 Q819 622 819 750 Q819 861 744 926 Q669 991 541 991 Z M794 1526 Q782 1410 717 1349 Q651 1286 550 1286 Q448 1286 384.5 1349.5 Q321 1413 310 1526 L409 1526 Q430 1386 554 1386 Q673 1386 697 1526 L794 1526 Z " />
<glyph glyph-name="Gdotaccent" unicode="&#x120;" horiz-adv-x="1526" d="M1255 293 Q1175 146 1075 74 Q950 -16 778 -16 Q560 -16 402 113 Q285 209 219 361 Q147 529 147 730 Q147 1047 318 1261 Q496 1484 786 1484 Q1011 1484 1154 1349 Q1205 1301 1238.5 1248 Q1272 1195 1312 1101 L1208 1063 Q1150 1208 1074 1279 Q962 1384 786 1384 Q544 1384 401 1186 Q272 1006 272 732 Q272 497 368 326 Q432 210 539 147 Q645 84 780 84 Q970 84 1097 213 Q1240 357 1240 590 L1240 635 L831 635 L831 735 L1357 735 L1357 0 L1277 0 L1255 293 Z M772 1792 Q804 1792 828 1768 Q852 1744 852 1711 Q852 1679 828 1654.5 Q804 1630 771 1630 Q738 1630 714 1654 Q690 1678 690 1711 Q690 1744 714 1768 Q738 1792 772 1792 Z " />
<glyph glyph-name="gdotaccent" unicode="&#x121;" horiz-adv-x="1087" d="M713 1055 L1024 1081 L1024 973 L932 973 L865 973 L840 973 Q936 875 936 748 Q936 584 800 487 Q692 410 546 410 Q437 410 342 459 Q272 413 272 349 Q272 288 313 262 Q354 236 452 236 L655 236 Q831 236 912 179 Q1024 100 1024 -47 Q1024 -226 863 -318 Q735 -391 542 -391 Q355 -391 233 -322 Q86 -239 86 -89 Q86 67 276 162 Q166 214 166 325 Q166 432 276 500 Q156 605 156 751 Q156 916 288 1011 Q395 1087 539 1087 Q624 1087 713 1055 Z M379 137 Q203 60 203 -81 Q203 -190 299 -243 Q388 -293 541 -293 Q701 -293 797 -240 Q907 -180 907 -53 Q907 135 664 135 L426 135 Q402 135 379 137 Z M541 991 Q432 991 359 936 Q272 871 272 752 Q272 627 367 560 Q443 506 547 506 Q650 506 724 557 Q819 622 819 750 Q819 861 744 926 Q669 991 541 991 Z M553 1491 Q585 1491 609 1467 Q633 1443 633 1411 Q633 1377 609 1353 Q585 1329 552 1329 Q519 1329 495 1353 Q471 1377 471 1411 Q471 1443 495 1467 Q519 1491 553 1491 Z " />
<glyph glyph-name="Gcommaaccent" unicode="&#x122;" horiz-adv-x="1526" d="M1255 293 Q1175 146 1075 74 Q950 -16 778 -16 Q560 -16 402 113 Q285 209 219 361 Q147 529 147 730 Q147 1047 318 1261 Q496 1484 786 1484 Q1011 1484 1154 1349 Q1205 1301 1238.5 1248 Q1272 1195 1312 1101 L1208 1063 Q1150 1208 1074 1279 Q962 1384 786 1384 Q544 1384 401 1186 Q272 1006 272 732 Q272 497 368 326 Q432 210 539 147 Q645 84 780 84 Q970 84 1097 213 Q1240 357 1240 590 L1240 635 L831 635 L831 735 L1357 735 L1357 0 L1277 0 L1255 293 Z M698 -446 L698 -381 Q787 -360 788 -272 Q705 -269 705 -195 Q705 -161 727 -140 Q749 -119 784 -119 Q826 -119 850.5 -151 Q875 -183 875 -237 Q875 -325 829.5 -379 Q784 -433 698 -446 Z " />
<glyph glyph-name="gcommaaccent" unicode="&#x123;" horiz-adv-x="1087" d="M713 1055 L1024 1081 L1024 973 L932 973 L865 973 L840 973 Q936 875 936 748 Q936 584 800 487 Q692 410 546 410 Q437 410 342 459 Q272 413 272 349 Q272 288 313 262 Q354 236 452 236 L655 236 Q831 236 912 179 Q1024 100 1024 -47 Q1024 -226 863 -318 Q735 -391 542 -391 Q355 -391 233 -322 Q86 -239 86 -89 Q86 67 276 162 Q166 214 166 325 Q166 432 276 500 Q156 605 156 751 Q156 916 288 1011 Q395 1087 539 1087 Q624 1087 713 1055 Z M379 137 Q203 60 203 -81 Q203 -190 299 -243 Q388 -293 541 -293 Q701 -293 797 -240 Q907 -180 907 -53 Q907 135 664 135 L426 135 Q402 135 379 137 Z M541 991 Q432 991 359 936 Q272 871 272 752 Q272 627 367 560 Q443 506 547 506 Q650 506 724 557 Q819 622 819 750 Q819 861 744 926 Q669 991 541 991 Z M627 1544 L627 1479 Q538 1458 537 1370 Q621 1366 621 1293 Q621 1259 599 1238 Q577 1217 542 1217 Q500 1217 475.5 1249 Q451 1281 451 1335 Q451 1423 496.5 1477 Q542 1531 627 1544 Z " />
<glyph glyph-name="Hcircumflex" unicode="&#x124;" horiz-adv-x="1411" d="M190 0 L190 1464 L307 1464 L307 778 L1103 778 L1103 1464 L1220 1464 L1220 0 L1103 0 L1103 678 L307 678 L307 0 L190 0 Z M454 1610 L644 1915 L755 1915 L943 1610 L857 1610 L698 1811 L538 1610 L454 1610 Z " />
<glyph glyph-name="hcircumflex" unicode="&#x125;" horiz-adv-x="1176" d="M192 0 L192 1542 L309 1542 L309 882 Q417 1087 654 1087 Q815 1087 903 988 Q993 886 993 688 L993 0 L876 0 L876 696 Q876 983 629 983 Q488 983 397 893 Q309 806 309 662 L309 0 L192 0 Z M38 1688 L228 1993 L339 1993 L527 1688 L441 1688 L282 1889 L122 1688 L38 1688 Z " />
<glyph glyph-name="Hbar" unicode="&#x126;" horiz-adv-x="1411" d="M39 1045 L39 1145 L197 1145 L197 1464 L314 1464 L314 1145 L1110 1145 L1110 1464 L1227 1464 L1227 1145 L1374 1145 L1374 1045 L1227 1045 L1227 0 L1110 0 L1110 678 L314 678 L314 0 L197 0 L197 1045 L39 1045 Z M314 778 L1110 778 L1110 1045 L314 1045 L314 778 Z " />
<glyph glyph-name="hbar" unicode="&#x127;" horiz-adv-x="1176" d="M33 1246 L33 1346 L189 1346 L189 1542 L306 1542 L306 1346 L563 1346 L563 1246 L306 1246 L306 882 Q414 1087 651 1087 Q810 1087 899 987 Q989 886 989 688 L989 0 L872 0 L872 696 Q872 982 626 982 Q484 982 394 893 Q306 805 306 662 L306 0 L189 0 L189 1246 L33 1246 Z " />
<glyph glyph-name="Itilde" unicode="&#x128;" horiz-adv-x="567" d="M225 0 L225 1464 L342 1464 L342 0 L225 0 Z M85 1607 L1 1617 Q16 1710 58 1758 Q103 1810 165 1810 Q215 1810 307 1755 Q376 1713 408 1713 Q466 1713 482 1816 L566 1806 Q551 1713 510 1665 Q465 1613 402 1613 Q353 1613 260 1668 Q190 1710 161 1710 Q101 1710 85 1607 Z " />
<glyph glyph-name="itilde" unicode="&#x129;" horiz-adv-x="518" d="M200 0 L200 1071 L317 1071 L317 0 L200 0 Z M60 1294 L-24 1304 Q-9 1400 37 1449 Q81 1497 140 1497 Q190 1497 282 1442 Q351 1400 382 1400 Q441 1400 457 1503 L541 1492 Q526 1396 482 1348 Q437 1300 377 1300 Q327 1300 235 1355 Q166 1397 135 1397 Q76 1397 60 1294 Z " />
<glyph glyph-name="Imacron" unicode="&#x12a;" horiz-adv-x="567" d="M225 0 L225 1464 L342 1464 L342 0 L225 0 Z M55 1653 L55 1753 L518 1753 L518 1653 L55 1653 Z " />
<glyph glyph-name="imacron" unicode="&#x12b;" horiz-adv-x="516" d="M201 0 L201 1071 L318 1071 L318 0 L201 0 Z M28 1348 L28 1448 L491 1448 L491 1348 L28 1348 Z " />
<glyph glyph-name="Ibreve" unicode="&#x12c;" horiz-adv-x="567" d="M225 0 L225 1464 L342 1464 L342 0 L225 0 Z M548 1858 Q547 1740 505 1682 Q440 1594 286 1594 Q152 1594 88.5 1657.5 Q25 1721 24 1858 L122 1858 Q125 1779 152 1743 Q191 1694 286 1694 Q372 1694 409.5 1731.5 Q447 1769 450 1858 L548 1858 Z " />
<glyph glyph-name="ibreve" unicode="&#x12d;" horiz-adv-x="518" d="M200 0 L200 1071 L317 1071 L317 0 L200 0 Z M500 1526 Q488 1410 424 1349 Q357 1286 257 1286 Q155 1286 91.5 1349.5 Q28 1413 17 1526 L115 1526 Q137 1386 261 1386 Q379 1386 404 1526 L500 1526 Z " />
<glyph glyph-name="Iogonek" unicode="&#x12e;" horiz-adv-x="567" d="M427 -350 Q351 -422 255 -422 Q173 -422 124.5 -379 Q76 -336 76 -262 Q76 -133 226 -11 L226 1464 L343 1464 L343 10 Q174 -149 174 -257 Q174 -344 259 -344 Q319 -344 370 -291 L427 -350 Z " />
<glyph glyph-name="iogonek" unicode="&#x12f;" horiz-adv-x="516" d="M400 -350 Q325 -422 226 -422 Q144 -422 95.5 -379 Q47 -336 47 -262 Q47 -135 201 -6 L201 1071 L318 1071 L318 14 Q222 -78 183.5 -138 Q145 -198 145 -257 Q145 -344 230 -344 Q292 -344 343 -291 L400 -350 Z M260 1493 Q293 1493 317.5 1468.5 Q342 1444 342 1411 Q342 1376 318 1351.5 Q294 1327 259 1327 Q224 1327 200 1351.5 Q176 1376 176 1411 Q176 1445 200.5 1469 Q225 1493 260 1493 Z " />
<glyph glyph-name="Idot" unicode="&#x130;" horiz-adv-x="567" d="M227 0 L227 1464 L344 1464 L344 0 L227 0 Z M291 1792 Q323 1792 347 1768 Q371 1744 371 1711 Q371 1679 347 1654.5 Q323 1630 290 1630 Q257 1630 233 1654 Q209 1678 209 1711 Q209 1744 233 1768 Q257 1792 291 1792 Z " />
<glyph glyph-name="IJ" unicode="&#x132;" horiz-adv-x="1404" d="M186 0 L186 1464 L303 1464 L303 0 L186 0 Z M1224 1464 L1224 455 Q1224 -16 827 -16 Q629 -16 519 105 Q423 212 423 391 L423 498 L540 498 L540 406 Q540 248 612 166 Q684 84 822 84 Q1107 84 1107 439 L1107 1464 L1224 1464 Z " />
<glyph glyph-name="ij" unicode="&#x133;" horiz-adv-x="739" d="M201 0 L201 1071 L318 1071 L318 0 L201 0 Z M260 1493 Q293 1493 317.5 1468.5 Q342 1444 342 1411 Q342 1376 317.5 1351.5 Q293 1327 259 1327 Q224 1327 200 1351.5 Q176 1376 176 1411 Q176 1445 200.5 1469 Q225 1493 260 1493 Z M581 1071 L581 -131 Q581 -266 508 -332 Q446 -389 337 -389 Q272 -389 214 -361 L243 -270 Q302 -289 331 -289 Q464 -289 464 -139 L464 1071 L581 1071 Z M522 1493 Q556 1493 580.5 1468.5 Q605 1444 605 1411 Q605 1376 580.5 1351.5 Q556 1327 522 1327 Q487 1327 463 1351.5 Q439 1376 439 1411 Q439 1445 463 1469 Q487 1493 522 1493 Z " />
<glyph glyph-name="Jcircumflex" unicode="&#x134;" horiz-adv-x="1081" d="M901 1464 L901 455 Q901 -16 504 -16 Q306 -16 196 105 Q100 212 100 391 L100 498 L217 498 L217 406 Q217 248 289 166 Q361 84 499 84 Q784 84 784 439 L784 1464 L901 1464 Z M600 1610 L790 1915 L901 1915 L1089 1610 L1003 1610 L844 1811 L684 1610 L600 1610 Z " />
<glyph glyph-name="jcircumflex" unicode="&#x135;" horiz-adv-x="516" d="M318 1071 L318 -131 Q318 -266 245 -332 Q183 -389 74 -389 Q9 -389 -49 -361 L-20 -270 Q39 -289 68 -289 Q201 -289 201 -139 L201 1071 L318 1071 Z M14 1237 L204 1542 L315 1542 L503 1237 L417 1237 L258 1438 L98 1237 L14 1237 Z " />
<glyph glyph-name="Kcommaaccent" unicode="&#x136;" horiz-adv-x="1249" d="M190 0 L190 1464 L307 1464 L307 686 L995 1464 L1132 1464 L594 858 L1161 0 L1028 0 L516 770 L307 534 L307 0 L190 0 Z M550 -446 L550 -381 Q639 -360 640 -272 Q557 -269 557 -195 Q557 -161 579 -140 Q601 -119 636 -119 Q678 -119 702.5 -151 Q727 -183 727 -237 Q727 -325 681.5 -379 Q636 -433 550 -446 Z " />
<glyph glyph-name="kcommaaccent" unicode="&#x137;" horiz-adv-x="1047" d="M855 0 L488 561 L310 352 L310 0 L193 0 L193 1542 L310 1542 L310 506 L787 1071 L924 1071 L562 649 L986 0 L855 0 Z M472 -446 L472 -381 Q561 -360 562 -272 Q478 -269 478 -195 Q478 -161 500 -140 Q522 -119 557 -119 Q599 -119 623.5 -151 Q648 -183 648 -237 Q648 -325 602.5 -379 Q557 -433 472 -446 Z " />
<glyph glyph-name="kgreenlandic" unicode="&#x138;" horiz-adv-x="1249" d="M182 0 L182 1071 L297 1071 L297 516 L886 1071 L1026 1071 L549 624 L1048 0 L914 0 L471 551 L297 387 L297 0 L182 0 Z " />
<glyph glyph-name="Lacute" unicode="&#x139;" horiz-adv-x="1153" d="M190 0 L190 1464 L307 1464 L307 100 L1054 100 L1054 0 L190 0 Z M204 1610 L327 1915 L480 1915 L290 1610 L204 1610 Z " />
<glyph glyph-name="lacute" unicode="&#x13a;" horiz-adv-x="514" d="M199 0 L199 1542 L316 1542 L316 0 L199 0 Z M211 1688 L334 1993 L487 1993 L297 1688 L211 1688 Z " />
<glyph glyph-name="Lcommaaccent" unicode="&#x13b;" horiz-adv-x="1153" d="M190 0 L190 1464 L307 1464 L307 100 L1054 100 L1054 0 L190 0 Z M534 -446 L534 -381 Q623 -360 624 -272 Q541 -269 541 -195 Q541 -161 563 -140 Q585 -119 620 -119 Q662 -119 686.5 -151 Q711 -183 711 -237 Q711 -325 665.5 -379 Q620 -433 534 -446 Z " />
<glyph glyph-name="lcommaaccent" unicode="&#x13c;" horiz-adv-x="516" d="M199 0 L199 1542 L316 1542 L316 0 L199 0 Z M170 -446 L170 -381 Q259 -360 260 -272 Q176 -269 176 -195 Q176 -161 198 -140 Q220 -119 255 -119 Q297 -119 321.5 -151 Q346 -183 346 -237 Q346 -325 300.5 -379 Q255 -433 170 -446 Z " />
<glyph glyph-name="Lcaron" unicode="&#x13d;" horiz-adv-x="1153" d="M190 0 L190 1464 L307 1464 L307 100 L1054 100 L1054 0 L190 0 Z M854 1116 L854 1183 Q944 1206 952 1304 Q859 1307 859 1387 Q859 1425 883.5 1449.5 Q908 1474 945 1474 Q988 1474 1014.5 1438.5 Q1041 1403 1041 1343 Q1041 1249 991.5 1189 Q942 1129 854 1116 Z " />
<glyph glyph-name="lcaron" unicode="&#x13e;" horiz-adv-x="596" d="M199 0 L199 1542 L316 1542 L316 0 L199 0 Z M482 1225 L482 1290 Q571 1310 572 1399 Q488 1402 488 1476 Q488 1510 510 1531 Q532 1552 567 1552 Q608 1552 633 1520 Q658 1488 658 1434 Q658 1346 612.5 1292 Q567 1238 482 1225 Z " />
<glyph glyph-name="Ldot" unicode="&#x13f;" horiz-adv-x="1153" d="M190 0 L190 1464 L307 1464 L307 100 L1054 100 L1054 0 L190 0 Z M844 739 Q882 739 910 711.5 Q938 684 938 645 Q938 607 910 579 Q882 551 843 551 Q804 551 777 578.5 Q750 606 750 645 Q750 685 777 712 Q804 739 844 739 Z " />
<glyph glyph-name="ldot" unicode="&#x140;" horiz-adv-x="514" d="M199 0 L199 1542 L316 1542 L316 0 L199 0 Z M502 739 Q540 739 568 711.5 Q596 684 596 645 Q596 607 568 579 Q540 551 501 551 Q462 551 435 578.5 Q408 606 408 645 Q408 685 435 712 Q462 739 502 739 Z " />
<glyph glyph-name="Lslash" unicode="&#x141;" horiz-adv-x="1186" d="M61 496 L61 598 L223 666 L223 1464 L340 1464 L340 715 L731 877 L731 773 L340 611 L340 100 L1087 100 L1087 0 L223 0 L223 562 L61 496 Z " />
<glyph glyph-name="lslash" unicode="&#x142;" horiz-adv-x="602" d="M243 824 L243 1542 L360 1542 L360 893 L551 1005 L551 891 L360 778 L360 0 L243 0 L243 709 L51 596 L51 711 L243 824 Z " />
<glyph glyph-name="Nacute" unicode="&#x143;" horiz-adv-x="1407" d="M190 0 L190 1464 L348 1464 L1103 125 L1103 1464 L1216 1464 L1216 0 L1044 0 L303 1315 L303 0 L190 0 Z M686 1610 L809 1915 L962 1915 L772 1610 L686 1610 Z " />
<glyph glyph-name="nacute" unicode="&#x144;" horiz-adv-x="1180" d="M193 0 L193 1071 L310 1071 L310 889 Q420 1087 647 1087 Q812 1087 905 984 Q998 880 998 684 L998 0 L881 0 L881 690 Q881 983 621 983 Q485 983 401 899 Q310 809 310 647 L310 0 L193 0 Z M545 1237 L668 1542 L821 1542 L631 1237 L545 1237 Z " />
<glyph glyph-name="Ncommaaccent" unicode="&#x145;" horiz-adv-x="1407" d="M190 0 L190 1464 L348 1464 L1103 125 L1103 1464 L1216 1464 L1216 0 L1044 0 L303 1315 L303 0 L190 0 Z M606 -446 L606 -381 Q695 -360 696 -272 Q613 -269 613 -195 Q613 -161 635 -140 Q657 -119 692 -119 Q734 -119 758.5 -151 Q783 -183 783 -237 Q783 -325 737.5 -379 Q692 -433 606 -446 Z " />
<glyph glyph-name="ncommaaccent" unicode="&#x146;" horiz-adv-x="1180" d="M193 0 L193 1071 L310 1071 L310 889 Q420 1087 647 1087 Q812 1087 905 984 Q998 880 998 684 L998 0 L881 0 L881 690 Q881 983 621 983 Q485 983 401 899 Q310 809 310 647 L310 0 L193 0 Z M512 -446 L512 -381 Q601 -360 602 -272 Q518 -269 518 -195 Q518 -161 540 -140 Q562 -119 597 -119 Q639 -119 663.5 -151 Q688 -183 688 -237 Q688 -325 642.5 -379 Q597 -433 512 -446 Z " />
<glyph glyph-name="Ncaron" unicode="&#x147;" horiz-adv-x="1407" d="M190 0 L190 1464 L348 1464 L1103 125 L1103 1464 L1216 1464 L1216 0 L1044 0 L303 1315 L303 0 L190 0 Z M677 1610 L487 1915 L573 1915 L733 1708 L893 1915 L976 1915 L784 1610 L677 1610 Z " />
<glyph glyph-name="ncaron" unicode="&#x148;" horiz-adv-x="1180" d="M193 0 L193 1071 L310 1071 L310 889 Q420 1087 647 1087 Q812 1087 905 984 Q998 880 998 684 L998 0 L881 0 L881 690 Q881 983 621 983 Q485 983 401 899 Q310 809 310 647 L310 0 L193 0 Z M539 1237 L349 1542 L435 1542 L595 1335 L755 1542 L838 1542 L646 1237 L539 1237 Z " />
<glyph glyph-name="napostrophe" unicode="&#x149;" horiz-adv-x="1069" d="M193 0 L193 1071 L310 1071 L310 889 Q420 1087 647 1087 Q812 1087 905 984 Q998 880 998 684 L998 0 L881 0 L881 690 Q881 983 621 983 Q485 983 401 899 Q310 809 310 647 L310 0 L193 0 Z M-105 1069 L-105 1139 Q-22 1168 -15 1294 Q-115 1302 -115 1388 Q-115 1428 -88.5 1454.5 Q-62 1481 -23 1481 Q25 1481 52 1443.5 Q79 1406 79 1338 Q79 1218 34 1152.5 Q-11 1087 -105 1069 Z " />
<glyph glyph-name="Eng" unicode="&#x14a;" horiz-adv-x="1180" d="M271 1240 Q321 1329 343 1356 Q447 1485 621 1485 Q797 1485 891 1350 Q983 1218 983 967 L983 -55 Q983 -224 910 -313 Q876 -354 806 -376 Q771 -387 766 -387 L700 -384 Q700 -384 699 -384 L699 -254 Q700 -254 701 -254 Q708 -258 725 -258 Q797 -258 830.5 -211.5 Q864 -165 864 -66 L866 975 Q867 1351 596 1351 Q446 1351 362 1243 Q271 1127 271 919 L271 0 L154 0 L154 1464 L271 1464 L271 1240 Z " />
<glyph glyph-name="eng" unicode="&#x14b;" horiz-adv-x="1180" d="M310 889 Q420 1087 646 1087 Q812 1087 905 984 Q998 880 998 684 L998 -43 Q998 -164 933.5 -232.5 Q869 -301 755 -301 Q738 -301 713 -299 L713 -198 Q729 -201 746 -201 Q878 -201 879 -51 L881 690 Q882 983 621 983 Q486 983 401 899 Q310 809 310 647 L310 0 L193 0 L193 1071 L310 1071 L310 889 Z " />
<glyph glyph-name="Omacron" unicode="&#x14c;" horiz-adv-x="1599" d="M805 1482 Q1016 1482 1182 1349 Q1310 1245 1381 1083 Q1452 920 1452 729 Q1452 488 1345 301 Q1256 146 1112 63 Q972 -16 803 -16 Q542 -16 361 166 Q147 381 147 733 Q147 1042 316 1251 Q501 1482 805 1482 Z M792 1382 Q675 1382 572.5 1328 Q470 1274 399 1175 Q272 998 272 731 Q272 409 450 228 Q592 84 801 84 Q1002 84 1137 210 Q1238 305 1288 460 Q1327 584 1327 729 Q1327 1013 1179 1197 Q1030 1382 792 1382 Z M571 1653 L571 1753 L1034 1753 L1034 1653 L571 1653 Z " />
<glyph glyph-name="omacron" unicode="&#x14d;" horiz-adv-x="1174" d="M591 1087 Q777 1087 909 955 Q1065 798 1065 536 Q1065 271 909 115 Q778 -16 586 -16 Q396 -16 265 114 Q109 270 109 536 Q109 800 265 956 Q395 1087 591 1087 Z M583 987 Q413 987 316 849 Q230 728 230 535 Q230 292 361 169 Q452 84 585 84 Q759 84 856 220 Q944 342 944 535 Q944 742 846 865 Q749 987 583 987 Z M356 1348 L356 1448 L819 1448 L819 1348 L356 1348 Z " />
<glyph glyph-name="Obreve" unicode="&#x14e;" horiz-adv-x="1599" d="M805 1482 Q1016 1482 1182 1349 Q1310 1245 1381 1083 Q1452 920 1452 729 Q1452 488 1345 301 Q1256 146 1112 63 Q972 -16 803 -16 Q542 -16 361 166 Q147 381 147 733 Q147 1042 316 1251 Q501 1482 805 1482 Z M792 1382 Q675 1382 572.5 1328 Q470 1274 399 1175 Q272 998 272 731 Q272 409 450 228 Q592 84 801 84 Q1002 84 1137 210 Q1238 305 1288 460 Q1327 584 1327 729 Q1327 1013 1179 1197 Q1030 1382 792 1382 Z M1061 1858 Q1060 1740 1018 1682 Q953 1594 799 1594 Q665 1594 601.5 1657.5 Q538 1721 537 1858 L635 1858 Q638 1779 665 1743 Q704 1694 799 1694 Q885 1694 922.5 1731.5 Q960 1769 963 1858 L1061 1858 Z " />
<glyph glyph-name="obreve" unicode="&#x14f;" horiz-adv-x="1174" d="M591 1087 Q777 1087 909 955 Q1065 798 1065 536 Q1065 271 909 115 Q778 -16 586 -16 Q396 -16 265 114 Q109 270 109 536 Q109 800 265 956 Q395 1087 591 1087 Z M583 987 Q413 987 316 849 Q230 728 230 535 Q230 292 361 169 Q452 84 585 84 Q759 84 856 220 Q944 342 944 535 Q944 742 846 865 Q749 987 583 987 Z M346 1534 L444 1534 Q452 1370 588 1370 Q724 1370 731 1534 L829 1534 Q829 1418 791 1361 Q731 1270 588 1270 Q464 1270 405.5 1333.5 Q347 1397 346 1534 Z " />
<glyph glyph-name="Ohungarumlaut" unicode="&#x150;" horiz-adv-x="1599" d="M805 1482 Q1016 1482 1182 1349 Q1310 1245 1381 1083 Q1452 920 1452 729 Q1452 488 1345 301 Q1256 146 1112 63 Q972 -16 803 -16 Q542 -16 361 166 Q147 381 147 733 Q147 1042 316 1251 Q501 1482 805 1482 Z M792 1382 Q675 1382 572.5 1328 Q470 1274 399 1175 Q272 998 272 731 Q272 409 450 228 Q592 84 801 84 Q1002 84 1137 210 Q1238 305 1288 460 Q1327 584 1327 729 Q1327 1013 1179 1197 Q1030 1382 792 1382 Z M882 1610 L966 1915 L1103 1915 L966 1610 L882 1610 Z M626 1610 L708 1915 L845 1915 L708 1610 L626 1610 Z " />
<glyph glyph-name="ohungarumlaut" unicode="&#x151;" horiz-adv-x="1174" d="M591 1087 Q777 1087 909 955 Q1065 798 1065 536 Q1065 271 909 115 Q778 -16 586 -16 Q396 -16 265 114 Q109 270 109 536 Q109 800 265 956 Q395 1087 591 1087 Z M583 987 Q413 987 316 849 Q230 728 230 535 Q230 292 361 169 Q452 84 585 84 Q759 84 856 220 Q944 342 944 535 Q944 742 846 865 Q749 987 583 987 Z M672 1237 L756 1542 L893 1542 L756 1237 L672 1237 Z M416 1237 L498 1542 L635 1542 L498 1237 L416 1237 Z " />
<glyph glyph-name="Racute" unicode="&#x154;" horiz-adv-x="1329" d="M190 0 L190 1464 L696 1464 Q938 1464 1058 1334 Q1149 1235 1149 1076 Q1149 924 1061 832 Q1018 786 968.5 762 Q919 738 835 722 Q957 685 1015 613 Q1049 570 1066.5 521 Q1084 472 1105 365 Q1127 249 1161 151 Q1195 53 1229 10 L1229 0 L1108 0 Q1030 131 984 397 Q955 551 874 616.5 Q793 682 631 682 L307 682 L307 0 L190 0 Z M307 782 L676 782 Q847 782 937.5 857.5 Q1028 933 1028 1075 Q1028 1215 944 1289 Q861 1364 698 1364 L307 1364 L307 782 Z M579 1610 L702 1915 L855 1915 L665 1610 L579 1610 Z " />
<glyph glyph-name="racute" unicode="&#x155;" horiz-adv-x="758" d="M193 0 L193 1071 L310 1071 L310 881 Q411 1085 601 1085 Q688 1085 759 1044 L707 944 Q648 976 587 976 Q486 976 413 903 Q310 800 310 592 L310 0 L193 0 Z M408 1237 L531 1542 L684 1542 L494 1237 L408 1237 Z " />
<glyph glyph-name="Rcommaaccent" unicode="&#x156;" horiz-adv-x="1329" d="M190 0 L190 1464 L696 1464 Q938 1464 1058 1334 Q1149 1235 1149 1076 Q1149 924 1061 832 Q1018 786 968.5 762 Q919 738 835 722 Q957 685 1015 613 Q1049 570 1066.5 521 Q1084 472 1105 365 Q1127 249 1161 151 Q1195 53 1229 10 L1229 0 L1108 0 Q1030 131 984 397 Q955 551 874 616.5 Q793 682 631 682 L307 682 L307 0 L190 0 Z M307 782 L676 782 Q847 782 937.5 857.5 Q1028 933 1028 1075 Q1028 1215 944 1289 Q861 1364 698 1364 L307 1364 L307 782 Z M596 -446 L596 -381 Q685 -360 686 -272 Q603 -269 603 -195 Q603 -161 625 -140 Q647 -119 682 -119 Q724 -119 748.5 -151 Q773 -183 773 -237 Q773 -325 727.5 -379 Q682 -433 596 -446 Z " />
<glyph glyph-name="rcommaaccent" unicode="&#x157;" horiz-adv-x="758" d="M193 0 L193 1071 L310 1071 L310 881 Q411 1085 601 1085 Q688 1085 759 1044 L707 944 Q648 976 587 976 Q486 976 413 903 Q310 800 310 592 L310 0 L193 0 Z M170 -446 L170 -381 Q259 -360 260 -272 Q176 -269 176 -195 Q176 -161 198 -140 Q220 -119 255 -119 Q297 -119 321.5 -151 Q346 -183 346 -237 Q346 -325 300.5 -379 Q255 -433 170 -446 Z " />
<glyph glyph-name="Rcaron" unicode="&#x158;" horiz-adv-x="1329" d="M190 0 L190 1464 L696 1464 Q938 1464 1058 1334 Q1149 1235 1149 1076 Q1149 924 1061 832 Q1018 786 968.5 762 Q919 738 835 722 Q957 685 1015 613 Q1049 570 1066.5 521 Q1084 472 1105 365 Q1127 249 1161 151 Q1195 53 1229 10 L1229 0 L1108 0 Q1030 131 984 397 Q955 551 874 616.5 Q793 682 631 682 L307 682 L307 0 L190 0 Z M307 782 L676 782 Q847 782 937.5 857.5 Q1028 933 1028 1075 Q1028 1215 944 1289 Q861 1364 698 1364 L307 1364 L307 782 Z M568 1610 L378 1915 L464 1915 L624 1708 L784 1915 L867 1915 L675 1610 L568 1610 Z " />
<glyph glyph-name="rcaron" unicode="&#x159;" horiz-adv-x="758" d="M193 0 L193 1071 L310 1071 L310 881 Q411 1085 601 1085 Q688 1085 759 1044 L707 944 Q648 976 587 976 Q486 976 413 903 Q310 800 310 592 L310 0 L193 0 Z M403 1237 L213 1542 L299 1542 L459 1335 L619 1542 L702 1542 L510 1237 L403 1237 Z " />
<glyph glyph-name="Sacute" unicode="&#x15a;" horiz-adv-x="1286" d="M987 1130 Q936 1239 877 1291 Q779 1378 606 1378 Q462 1378 379 1316 Q288 1249 288 1116 Q288 1002 364 942 Q409 907 468.5 884.5 Q528 862 671 826 Q809 792 887.5 757.5 Q966 723 1022 674 Q1138 570 1138 398 Q1138 188 983 76 Q856 -16 654 -16 Q401 -16 248 131 Q149 226 104 385 L219 407 Q254 290 314 221 Q430 88 650 88 Q788 88 880 141 Q1017 220 1017 395 Q1017 529 927 601 Q882 636 818.5 661.5 Q755 687 638 717 Q486 757 416.5 784 Q347 811 291 853 Q167 946 167 1114 Q167 1273 276 1372 Q397 1482 604 1482 Q847 1482 983 1339 Q1047 1272 1093 1159 L987 1130 Z M575 1610 L698 1915 L851 1915 L661 1610 L575 1610 Z " />
<glyph glyph-name="sacute" unicode="&#x15b;" horiz-adv-x="1024" d="M776 841 Q718 919 653 953 Q588 987 498 987 Q277 987 277 813 Q277 731 328.5 691 Q380 651 540 608 Q650 579 706.5 555.5 Q763 532 808 497 Q903 423 903 291 Q903 153 798 68.5 Q693 -16 522 -16 Q239 -16 90 211 L180 276 Q235 192 281 155 Q371 84 516 84 Q625 84 692 123 Q782 175 782 284 Q782 370 723 415 Q664 460 491 505 Q380 534 320.5 562.5 Q261 591 220 635 Q156 704 156 807 Q156 964 286 1038 Q372 1087 500 1087 Q619 1087 704.5 1045.5 Q790 1004 858 913 L776 841 Z M446 1237 L569 1542 L722 1542 L532 1237 L446 1237 Z " />
<glyph glyph-name="Scircumflex" unicode="&#x15c;" horiz-adv-x="1286" d="M987 1130 Q936 1239 877 1291 Q779 1378 606 1378 Q462 1378 379 1316 Q288 1249 288 1116 Q288 1002 364 942 Q409 907 468.5 884.5 Q528 862 671 826 Q809 792 887.5 757.5 Q966 723 1022 674 Q1138 570 1138 398 Q1138 188 983 76 Q856 -16 654 -16 Q401 -16 248 131 Q149 226 104 385 L219 407 Q254 290 314 221 Q430 88 650 88 Q788 88 880 141 Q1017 220 1017 395 Q1017 529 927 601 Q882 636 818.5 661.5 Q755 687 638 717 Q486 757 416.5 784 Q347 811 291 853 Q167 946 167 1114 Q167 1273 276 1372 Q397 1482 604 1482 Q847 1482 983 1339 Q1047 1272 1093 1159 L987 1130 Z M374 1610 L564 1915 L675 1915 L863 1610 L777 1610 L618 1811 L458 1610 L374 1610 Z " />
<glyph glyph-name="scircumflex" unicode="&#x15d;" horiz-adv-x="1024" d="M776 841 Q718 919 653 953 Q588 987 498 987 Q277 987 277 813 Q277 731 328.5 691 Q380 651 540 608 Q650 579 706.5 555.5 Q763 532 808 497 Q903 423 903 291 Q903 153 798 68.5 Q693 -16 522 -16 Q239 -16 90 211 L180 276 Q235 192 281 155 Q371 84 516 84 Q625 84 692 123 Q782 175 782 284 Q782 370 723 415 Q664 460 491 505 Q380 534 320.5 562.5 Q261 591 220 635 Q156 704 156 807 Q156 964 286 1038 Q372 1087 500 1087 Q619 1087 704.5 1045.5 Q790 1004 858 913 L776 841 Z M268 1237 L458 1542 L569 1542 L757 1237 L671 1237 L512 1438 L352 1237 L268 1237 Z " />
<glyph glyph-name="Scedilla" unicode="&#x15e;" horiz-adv-x="1286" d="M615 -16 Q211 8 104 384 L219 407 Q254 289 314 220 Q430 88 650 88 Q788 88 880 141 Q1017 220 1017 395 Q1017 529 927 601 Q882 636 818.5 661.5 Q755 687 638 717 Q486 757 416.5 784 Q347 811 291 853 Q167 946 167 1114 Q167 1273 276 1372 Q397 1482 604 1482 Q847 1482 983 1339 Q1047 1272 1093 1159 L987 1130 Q936 1239 877 1291 Q779 1378 606 1378 Q462 1378 379 1316 Q288 1249 288 1116 Q288 1001 364 942 Q409 907 468.5 884.5 Q528 862 671 826 Q808 792 887 757.5 Q966 723 1022 674 Q1138 570 1138 397 Q1138 215 1021 105.5 Q904 -4 695 -16 L620 -128 Q650 -119 669 -119 Q732 -119 772.5 -160 Q813 -201 813 -265 Q813 -336 762.5 -379 Q712 -422 628 -422 Q519 -422 438 -341 L497 -287 Q551 -344 624 -344 Q715 -344 715 -264 Q715 -187 633 -187 Q596 -187 569 -211 L512 -171 L615 -16 Z " />
<glyph glyph-name="scedilla" unicode="&#x15f;" horiz-adv-x="1024" d="M460 -14 Q216 10 90 211 L180 276 Q235 192 281 155 Q371 84 516 84 Q625 84 692 123 Q782 175 782 284 Q782 370 723 415 Q664 460 491 505 Q380 534 320.5 562.5 Q261 591 220 635 Q156 704 156 807 Q156 964 286 1038 Q372 1087 500 1087 Q619 1087 704.5 1045.5 Q790 1004 858 913 L776 841 Q718 919 653 953 Q588 987 498 987 Q277 987 277 813 Q277 731 328.5 691 Q380 651 540 608 Q649 579 706.5 555.5 Q764 532 808 497 Q903 423 903 290 Q903 157 802 71.5 Q701 -14 539 -16 L465 -127 Q494 -119 513 -119 Q576 -119 616.5 -160 Q657 -201 657 -265 Q657 -336 606.5 -379 Q556 -422 472 -422 Q364 -422 283 -340 L342 -287 Q396 -344 468 -344 Q559 -344 559 -264 Q559 -187 477 -187 Q440 -187 414 -211 L356 -170 L460 -14 Z " />
<glyph glyph-name="Scaron" unicode="&#x160;" horiz-adv-x="1286" d="M987 1130 Q936 1239 877 1291 Q779 1378 606 1378 Q462 1378 379 1316 Q288 1249 288 1116 Q288 1002 364 942 Q409 907 468.5 884.5 Q528 862 671 826 Q809 792 887.5 757.5 Q966 723 1022 674 Q1138 570 1138 398 Q1138 188 983 76 Q856 -16 654 -16 Q401 -16 248 131 Q149 226 104 385 L219 407 Q254 290 314 221 Q430 88 650 88 Q788 88 880 141 Q1017 220 1017 395 Q1017 529 927 601 Q882 636 818.5 661.5 Q755 687 638 717 Q486 757 416.5 784 Q347 811 291 853 Q167 946 167 1114 Q167 1273 276 1372 Q397 1482 604 1482 Q847 1482 983 1339 Q1047 1272 1093 1159 L987 1130 Z M564 1610 L374 1915 L460 1915 L620 1708 L780 1915 L863 1915 L671 1610 L564 1610 Z " />
<glyph glyph-name="scaron" unicode="&#x161;" horiz-adv-x="1024" d="M776 841 Q718 919 653 953 Q588 987 498 987 Q277 987 277 813 Q277 731 328.5 691 Q380 651 540 608 Q650 579 706.5 555.5 Q763 532 808 497 Q903 423 903 291 Q903 153 798 68.5 Q693 -16 522 -16 Q239 -16 90 211 L180 276 Q235 192 281 155 Q371 84 516 84 Q625 84 692 123 Q782 175 782 284 Q782 370 723 415 Q664 460 491 505 Q380 534 320.5 562.5 Q261 591 220 635 Q156 704 156 807 Q156 964 286 1038 Q372 1087 500 1087 Q619 1087 704.5 1045.5 Q790 1004 858 913 L776 841 Z M454 1237 L264 1542 L350 1542 L510 1335 L670 1542 L753 1542 L561 1237 L454 1237 Z " />
<glyph glyph-name="Tcommaaccent" unicode="&#x162;" horiz-adv-x="1204" d="M525 0 L525 1364 L74 1364 L74 1464 L1092 1464 L1092 1364 L642 1364 L642 0 L525 0 Z M516 -446 L516 -381 Q605 -360 606 -272 Q523 -269 523 -195 Q523 -161 545 -140 Q567 -119 602 -119 Q644 -119 668.5 -151 Q693 -183 693 -237 Q693 -325 647.5 -379 Q602 -433 516 -446 Z " />
<glyph glyph-name="tcommaaccent" unicode="&#x163;" horiz-adv-x="739" d="M74 971 L74 1071 L234 1071 L234 1364 L351 1388 L351 1071 L631 1071 L631 971 L351 971 L351 250 Q351 170 389 127 Q427 84 497 84 Q564 84 637 129 L684 45 Q595 -16 495 -16 Q376 -16 305 53 Q234 122 234 238 L234 971 L74 971 Z M344 -446 L344 -381 Q433 -360 434 -272 Q350 -269 350 -195 Q350 -161 372 -140 Q394 -119 429 -119 Q471 -119 495.5 -151 Q520 -183 520 -237 Q520 -325 474.5 -379 Q429 -433 344 -446 Z " />
<glyph glyph-name="Tcaron" unicode="&#x164;" horiz-adv-x="1204" d="M545 0 L545 1364 L94 1364 L94 1464 L1112 1464 L1112 1364 L662 1364 L662 0 L545 0 Z M548 1610 L358 1915 L444 1915 L604 1708 L764 1915 L847 1915 L655 1610 L548 1610 Z " />
<glyph glyph-name="tcaron" unicode="&#x165;" horiz-adv-x="870" d="M74 971 L74 1071 L234 1071 L234 1364 L351 1388 L351 1071 L631 1071 L631 971 L351 971 L351 250 Q351 170 389 127 Q427 84 497 84 Q564 84 637 129 L684 45 Q595 -16 495 -16 Q376 -16 305 53 Q234 122 234 238 L234 971 L74 971 Z M721 1225 L721 1290 Q810 1310 811 1399 Q727 1402 727 1476 Q727 1510 749 1531 Q771 1552 806 1552 Q847 1552 872 1520 Q897 1488 897 1434 Q897 1346 851.5 1292 Q806 1238 721 1225 Z " />
<glyph glyph-name="Tbar" unicode="&#x166;" horiz-adv-x="1165" d="M525 585 L289 585 L289 700 L525 700 L525 1364 L74 1364 L74 1464 L1092 1464 L1092 1364 L642 1364 L642 700 L884 700 L884 585 L642 585 L642 0 L525 0 L525 585 Z " />
<glyph glyph-name="tbar" unicode="&#x167;" horiz-adv-x="739" d="M350 757 L631 757 L631 657 L350 657 L350 250 Q350 170 388 127 Q426 84 497 84 Q564 84 637 129 L684 45 Q596 -16 494 -16 Q375 -16 304 53 Q233 122 233 238 L233 657 L72 657 L72 757 L233 757 L233 971 L74 971 L74 1071 L233 1071 L233 1364 L350 1388 L350 1071 L631 1071 L631 971 L350 971 L350 757 Z " />
<glyph glyph-name="Utilde" unicode="&#x168;" horiz-adv-x="1378" d="M1085 1464 L1196 1464 L1196 524 Q1196 326 1123 199 Q1000 -16 692 -16 Q443 -16 312.5 122.5 Q182 261 182 524 L182 1464 L299 1464 L299 532 Q299 301 394 192.5 Q489 84 692 84 Q923 84 1016 227 Q1085 333 1085 532 L1085 1464 Z M490 1607 L406 1617 Q421 1710 463 1758 Q508 1810 570 1810 Q620 1810 712 1755 Q781 1713 813 1713 Q871 1713 887 1816 L971 1806 Q956 1713 915 1665 Q870 1613 807 1613 Q758 1613 665 1668 Q595 1710 566 1710 Q506 1710 490 1607 Z " />
<glyph glyph-name="utilde" unicode="&#x169;" horiz-adv-x="1171" d="M862 182 Q756 -16 528 -16 Q363 -16 272 89 Q182 192 182 387 L182 1071 L299 1071 L299 381 Q299 88 552 88 Q686 88 771 172 Q862 262 862 424 L862 1071 L979 1071 L979 0 L862 0 L862 182 Z M382 1294 L298 1304 Q313 1400 359 1449 Q403 1497 462 1497 Q512 1497 604 1442 Q673 1400 704 1400 Q763 1400 779 1503 L863 1492 Q848 1396 804 1348 Q759 1300 699 1300 Q649 1300 557 1355 Q488 1397 457 1397 Q398 1397 382 1294 Z " />
<glyph glyph-name="Umacron" unicode="&#x16a;" horiz-adv-x="1378" d="M1085 1464 L1196 1464 L1196 524 Q1196 326 1123 199 Q1000 -16 692 -16 Q443 -16 312.5 122.5 Q182 261 182 524 L182 1464 L299 1464 L299 532 Q299 301 394 192.5 Q489 84 692 84 Q923 84 1016 227 Q1085 333 1085 532 L1085 1464 Z M458 1653 L458 1753 L921 1753 L921 1653 L458 1653 Z " />
<glyph glyph-name="umacron" unicode="&#x16b;" horiz-adv-x="1172" d="M862 182 Q756 -16 528 -16 Q363 -16 272 89 Q182 192 182 387 L182 1071 L299 1071 L299 381 Q299 88 552 88 Q686 88 771 172 Q862 262 862 424 L862 1071 L979 1071 L979 0 L862 0 L862 182 Z M349 1348 L349 1448 L812 1448 L812 1348 L349 1348 Z " />
<glyph glyph-name="Ubreve" unicode="&#x16c;" horiz-adv-x="1384" d="M1202 1464 L1202 549 Q1202 251 1039 103 Q909 -16 685 -16 Q437 -16 306 131 Q182 269 182 524 L182 1464 L299 1464 L299 532 Q299 279 416 173 Q510 88 686 88 Q1085 88 1085 559 L1085 1464 L1202 1464 Z M930 1878 Q918 1762 853 1701 Q787 1638 686 1638 Q584 1638 520.5 1701.5 Q457 1765 446 1878 L544 1878 Q566 1738 690 1738 Q809 1738 833 1878 L930 1878 Z " />
<glyph glyph-name="ubreve" unicode="&#x16d;" horiz-adv-x="1172" d="M822 1526 Q810 1410 746 1349 Q679 1286 579 1286 Q477 1286 413.5 1349.5 Q350 1413 339 1526 L437 1526 Q458 1386 582 1386 Q701 1386 726 1526 L822 1526 Z M862 182 Q756 -16 528 -16 Q363 -16 272 89 Q182 192 182 387 L182 1071 L299 1071 L299 381 Q299 88 552 88 Q686 88 771 172 Q862 262 862 424 L862 1071 L979 1071 L979 0 L862 0 L862 182 Z " />
<glyph glyph-name="Uring" unicode="&#x16e;" horiz-adv-x="1378" d="M1085 1464 L1196 1464 L1196 524 Q1196 326 1123 199 Q1000 -16 692 -16 Q443 -16 312.5 122.5 Q182 261 182 524 L182 1464 L299 1464 L299 532 Q299 301 394 192.5 Q489 84 692 84 Q923 84 1016 227 Q1085 333 1085 532 L1085 1464 Z M690 1980 Q768 1980 824.5 1923.5 Q881 1867 881 1789 Q881 1710 824.5 1653.5 Q768 1597 689 1597 Q609 1597 552.5 1653.5 Q496 1710 496 1789 Q496 1868 553 1924 Q610 1980 690 1980 Z M688 1902 Q643 1902 612.5 1869.5 Q582 1837 582 1790 Q582 1740 612 1707.5 Q642 1675 688 1675 Q734 1675 764.5 1707.5 Q795 1740 795 1789 Q795 1838 764 1870 Q733 1902 688 1902 Z " />
<glyph glyph-name="uring" unicode="&#x16f;" horiz-adv-x="1172" d="M862 182 Q756 -16 528 -16 Q363 -16 272 89 Q182 192 182 387 L182 1071 L299 1071 L299 381 Q299 88 552 88 Q686 88 771 172 Q862 262 862 424 L862 1071 L979 1071 L979 0 L862 0 L862 182 Z M582 1599 Q660 1599 716.5 1542.5 Q773 1486 773 1409 Q773 1330 716.5 1273.5 Q660 1217 581 1217 Q501 1217 444.5 1273.5 Q388 1330 388 1409 Q388 1487 445 1543 Q502 1599 582 1599 Z M580 1521 Q535 1521 504.5 1488.5 Q474 1456 474 1409 Q474 1360 504 1327.5 Q534 1295 580 1295 Q626 1295 656.5 1327.5 Q687 1360 687 1409 Q687 1457 656 1489 Q625 1521 580 1521 Z " />
<glyph glyph-name="Uhungarumlaut" unicode="&#x170;" horiz-adv-x="1378" d="M1085 1464 L1196 1464 L1196 524 Q1196 326 1123 199 Q1000 -16 692 -16 Q443 -16 312.5 122.5 Q182 261 182 524 L182 1464 L299 1464 L299 532 Q299 301 394 192.5 Q489 84 692 84 Q923 84 1016 227 Q1085 333 1085 532 L1085 1464 Z M772 1610 L856 1915 L993 1915 L856 1610 L772 1610 Z M516 1610 L598 1915 L735 1915 L598 1610 L516 1610 Z " />
<glyph glyph-name="uhungarumlaut" unicode="&#x171;" horiz-adv-x="1171" d="M862 182 Q756 -16 528 -16 Q363 -16 272 89 Q182 192 182 387 L182 1071 L299 1071 L299 381 Q299 88 552 88 Q686 88 771 172 Q862 262 862 424 L862 1071 L979 1071 L979 0 L862 0 L862 182 Z M666 1237 L750 1542 L887 1542 L750 1237 L666 1237 Z M410 1237 L492 1542 L629 1542 L492 1237 L410 1237 Z " />
<glyph glyph-name="Uogonek" unicode="&#x172;" horiz-adv-x="1378" d="M798 -9 Q714 -94 682.5 -147.5 Q651 -201 651 -257 Q651 -344 736 -344 Q797 -344 848 -291 L905 -350 Q830 -422 733 -422 Q650 -422 601.5 -379 Q553 -336 553 -262 Q553 -136 694 -17 Q444 -17 313 121.5 Q182 260 182 524 L182 1464 L299 1464 L299 532 Q299 301 394 192.5 Q489 84 692 84 Q923 84 1016 227 Q1085 333 1085 532 L1085 1464 L1196 1464 L1196 524 Q1196 55 798 -9 Z " />
<glyph glyph-name="uogonek" unicode="&#x173;" horiz-adv-x="1171" d="M1063 -350 Q988 -422 890 -422 Q807 -422 759 -379 Q711 -336 711 -262 Q711 -132 872 0 L862 0 L862 182 Q756 -16 528 -16 Q363 -16 272 89 Q182 192 182 387 L182 1071 L299 1071 L299 381 Q299 88 552 88 Q686 88 771 172 Q862 262 862 424 L862 1071 L979 1071 L979 0 L967 0 Q878 -87 843.5 -143 Q809 -199 809 -256 Q809 -344 894 -344 Q955 -344 1006 -291 L1063 -350 Z " />
<glyph glyph-name="Wcircumflex" unicode="&#x174;" horiz-adv-x="1876" d="M463 0 L66 1464 L189 1464 L523 201 L897 1464 L1000 1464 L1360 199 L1698 1464 L1811 1464 L1416 0 L1311 0 L947 1272 L568 0 L463 0 Z M694 1610 L884 1915 L995 1915 L1183 1610 L1097 1610 L938 1811 L778 1610 L694 1610 Z " />
<glyph glyph-name="wcircumflex" unicode="&#x175;" horiz-adv-x="1606" d="M385 0 L70 1071 L197 1071 L453 154 L752 1071 L877 1071 L1155 154 L1416 1071 L1536 1071 L1217 0 L1088 0 L813 915 L512 0 L385 0 Z M559 1237 L749 1542 L860 1542 L1048 1237 L962 1237 L803 1438 L643 1237 L559 1237 Z " />
<glyph glyph-name="Ycircumflex" unicode="&#x176;" horiz-adv-x="1075" d="M486 0 L486 645 L-12 1464 L121 1464 L544 747 L963 1464 L1088 1464 L603 643 L603 0 L486 0 Z M293 1610 L483 1915 L594 1915 L782 1610 L696 1610 L537 1811 L377 1610 L293 1610 Z " />
<glyph glyph-name="ycircumflex" unicode="&#x177;" horiz-adv-x="975" d="M930 1071 L479 -184 Q407 -385 231 -385 Q133 -385 57 -330 L104 -244 Q163 -285 226 -285 Q340 -285 385 -150 L436 6 L45 1071 L172 1071 L496 174 L807 1071 L930 1071 Z M243 1237 L433 1542 L544 1542 L732 1237 L646 1237 L487 1438 L327 1237 L243 1237 Z " />
<glyph glyph-name="Zacute" unicode="&#x179;" horiz-adv-x="1208" d="M127 0 L127 111 L946 1364 L173 1364 L173 1464 L1051 1464 L1051 1332 L248 100 L1061 100 L1061 0 L127 0 Z M576 1610 L699 1915 L852 1915 L662 1610 L576 1610 Z " />
<glyph glyph-name="zacute" unicode="&#x17a;" horiz-adv-x="969" d="M94 0 L94 100 L725 971 L127 971 L127 1071 L852 1071 L852 950 L236 100 L868 100 L868 0 L94 0 Z M446 1237 L569 1542 L722 1542 L532 1237 L446 1237 Z " />
<glyph glyph-name="Zdotaccent" unicode="&#x17b;" horiz-adv-x="1208" d="M127 0 L127 111 L946 1364 L173 1364 L173 1464 L1051 1464 L1051 1332 L248 100 L1061 100 L1061 0 L127 0 Z M601 1792 Q633 1792 657 1768 Q681 1744 681 1711 Q681 1679 657 1654.5 Q633 1630 600 1630 Q567 1630 543 1654 Q519 1678 519 1711 Q519 1744 543 1768 Q567 1792 601 1792 Z " />
<glyph glyph-name="zdotaccent" unicode="&#x17c;" horiz-adv-x="969" d="M94 0 L94 100 L725 971 L127 971 L127 1071 L852 1071 L852 950 L236 100 L868 100 L868 0 L94 0 Z M524 1491 Q556 1491 580 1467 Q604 1443 604 1411 Q604 1377 580 1353 Q556 1329 523 1329 Q490 1329 466 1353 Q442 1377 442 1411 Q442 1443 466 1467 Q490 1491 524 1491 Z " />
<glyph glyph-name="Zcaron" unicode="&#x17d;" horiz-adv-x="1208" d="M127 0 L127 111 L946 1364 L173 1364 L173 1464 L1051 1464 L1051 1332 L248 100 L1061 100 L1061 0 L127 0 Z M589 1610 L399 1915 L485 1915 L645 1708 L805 1915 L888 1915 L696 1610 L589 1610 Z " />
<glyph glyph-name="zcaron" unicode="&#x17e;" horiz-adv-x="969" d="M94 0 L94 100 L725 971 L127 971 L127 1071 L852 1071 L852 950 L236 100 L868 100 L868 0 L94 0 Z M454 1237 L264 1542 L350 1542 L510 1335 L670 1542 L753 1542 L561 1237 L454 1237 Z " />
<glyph glyph-name="uni018F" unicode="&#x18f;" horiz-adv-x="1599" d="M1325 788 Q1309 986 1229 1124 Q1168 1227 1081 1291 Q957 1382 797 1382 Q634 1382 510.5 1290.5 Q387 1199 326 1034 L209 1068 Q264 1202 351 1291 Q537 1482 799 1482 Q1017 1482 1182 1349 Q1310 1245 1381 1083 Q1452 921 1452 730 Q1452 488 1345 301 Q1256 146 1112 63 Q972 -16 803 -16 Q542 -16 361 166 Q257 271 201 418 Q147 563 147 729 Q147 748 148 788 L1325 788 Z M1326 688 L273 688 Q283 434 413 270 Q560 84 801 84 Q1031 84 1172 247 Q1315 411 1326 688 Z " />
<glyph glyph-name="Ohorn" unicode="&#x1a0;" horiz-adv-x="1599" d="M1203 1331 Q1309 1367 1320 1499 Q1226 1502 1226 1582 Q1226 1620 1250 1644.5 Q1274 1669 1312 1669 Q1356 1669 1382 1633 Q1408 1597 1408 1537 Q1408 1352 1258 1276 Q1452 1053 1452 729 Q1452 487 1345 300 Q1256 146 1112 63 Q972 -16 803 -16 Q542 -16 361 166 Q147 381 147 732 Q147 1042 316 1251 Q380 1332 464 1385 Q613 1482 797 1482 Q1034 1482 1203 1331 Z M792 1382 Q675 1382 572.5 1328 Q470 1274 399 1175 Q272 998 272 731 Q272 409 450 228 Q592 84 801 84 Q1002 84 1137 210 Q1238 305 1288 460 Q1327 584 1327 729 Q1327 1013 1179 1197 Q1030 1382 792 1382 Z " />
<glyph glyph-name="ohorn" unicode="&#x1a1;" horiz-adv-x="1174" d="M881 981 Q976 1008 977 1105 Q894 1108 894 1182 Q894 1216 916 1237 Q938 1258 973 1258 Q1015 1258 1039.5 1225.5 Q1064 1193 1064 1138 Q1064 1061 1029.5 1005.5 Q995 950 934 928 Q1065 774 1065 536 Q1065 271 909 115 Q778 -16 586 -16 Q396 -16 265 114 Q109 270 109 537 Q109 801 265 956 Q397 1087 587 1087 Q755 1087 881 981 Z M583 987 Q413 987 316 849 Q230 728 230 535 Q230 292 361 169 Q452 84 585 84 Q759 84 856 220 Q944 342 944 535 Q944 742 846 865 Q749 987 583 987 Z " />
<glyph glyph-name="Uhorn" unicode="&#x1af;" horiz-adv-x="1378" d="M1196 1384 Q1270 1412 1277 1499 Q1183 1502 1183 1582 Q1183 1620 1207.5 1644.5 Q1232 1669 1269 1669 Q1312 1669 1338.5 1633.5 Q1365 1598 1365 1539 Q1365 1451 1318.5 1389 Q1272 1327 1196 1314 L1196 524 Q1196 326 1123 199 Q1000 -16 692 -16 Q443 -16 312.5 122.5 Q182 261 182 524 L182 1464 L299 1464 L299 532 Q299 301 394 192.5 Q489 84 692 84 Q923 84 1016 227 Q1085 333 1085 532 L1085 1464 L1196 1464 L1196 1384 Z " />
<glyph glyph-name="uhorn" unicode="&#x1b0;" horiz-adv-x="1171" d="M979 1000 Q1055 1021 1056 1105 Q973 1108 973 1182 Q973 1216 995 1237 Q1017 1258 1052 1258 Q1093 1258 1118 1226 Q1143 1194 1143 1140 Q1143 1056 1099 1000.5 Q1055 945 979 933 L979 0 L862 0 L862 182 Q756 -16 528 -16 Q363 -16 272 89 Q182 192 182 387 L182 1071 L299 1071 L299 381 Q299 88 552 88 Q686 88 771 172 Q862 262 862 424 L862 1071 L979 1071 L979 1000 Z " />
<glyph glyph-name="uni01CD" unicode="&#x1cd;" horiz-adv-x="1244" d="M293 387 L156 0 L37 0 L576 1464 L673 1464 L1207 0 L1091 0 L952 387 L293 387 Z M329 487 L916 487 L621 1310 L329 487 Z M567 1610 L377 1915 L463 1915 L623 1708 L783 1915 L866 1915 L674 1610 L567 1610 Z " />
<glyph glyph-name="uni01CE" unicode="&#x1ce;" horiz-adv-x="1075" d="M776 160 Q648 -16 435 -16 Q279 -16 185 77 Q106 155 106 274 Q106 501 365 574 Q509 614 774 628 L774 733 Q774 987 544 987 Q373 987 221 844 L149 920 Q317 1087 545 1087 Q719 1087 809 988 Q891 897 891 731 L891 207 Q891 143 920 117 Q949 91 1025 88 L1025 -6 Q996 -8 974 -8 Q809 -8 776 160 Z M774 537 Q598 534 469 506 Q227 454 227 278 Q227 189 287.5 136.5 Q348 84 452 84 Q575 84 668 154 Q716 191 745 241.5 Q774 292 774 341 L774 537 Z M483 1237 L293 1542 L379 1542 L539 1335 L699 1542 L782 1542 L590 1237 L483 1237 Z " />
<glyph glyph-name="uni01CF" unicode="&#x1cf;" horiz-adv-x="567" d="M225 0 L225 1464 L342 1464 L342 0 L225 0 Z M229 1610 L39 1915 L125 1915 L285 1708 L445 1915 L528 1915 L336 1610 L229 1610 Z " />
<glyph glyph-name="uni01D0" unicode="&#x1d0;" horiz-adv-x="518" d="M200 0 L200 1071 L317 1071 L317 0 L200 0 Z M204 1237 L14 1542 L100 1542 L260 1335 L420 1542 L503 1542 L311 1237 L204 1237 Z " />
<glyph glyph-name="uni01D1" unicode="&#x1d1;" horiz-adv-x="1599" d="M805 1482 Q1016 1482 1182 1349 Q1310 1245 1381 1083 Q1452 920 1452 729 Q1452 488 1345 301 Q1256 146 1112 63 Q972 -16 803 -16 Q542 -16 361 166 Q147 381 147 733 Q147 1042 316 1251 Q501 1482 805 1482 Z M792 1382 Q675 1382 572.5 1328 Q470 1274 399 1175 Q272 998 272 731 Q272 409 450 228 Q592 84 801 84 Q1002 84 1137 210 Q1238 305 1288 460 Q1327 584 1327 729 Q1327 1013 1179 1197 Q1030 1382 792 1382 Z M745 1610 L555 1915 L641 1915 L800 1708 L960 1915 L1044 1915 L852 1610 L745 1610 Z " />
<glyph glyph-name="uni01D2" unicode="&#x1d2;" horiz-adv-x="1174" d="M591 1087 Q777 1087 909 955 Q1065 798 1065 536 Q1065 271 909 115 Q778 -16 586 -16 Q396 -16 265 114 Q109 270 109 536 Q109 800 265 956 Q395 1087 591 1087 Z M583 987 Q413 987 316 849 Q230 728 230 535 Q230 292 361 169 Q452 84 585 84 Q759 84 856 220 Q944 342 944 535 Q944 742 846 865 Q749 987 583 987 Z M533 1237 L343 1542 L429 1542 L589 1335 L749 1542 L832 1542 L640 1237 L533 1237 Z " />
<glyph glyph-name="uni01D3" unicode="&#x1d3;" horiz-adv-x="1378" d="M1085 1464 L1196 1464 L1196 524 Q1196 326 1123 199 Q1000 -16 692 -16 Q443 -16 312.5 122.5 Q182 261 182 524 L182 1464 L299 1464 L299 532 Q299 301 394 192.5 Q489 84 692 84 Q923 84 1016 227 Q1085 333 1085 532 L1085 1464 Z M634 1610 L444 1915 L530 1915 L690 1708 L850 1915 L933 1915 L741 1610 L634 1610 Z " />
<glyph glyph-name="uni01D4" unicode="&#x1d4;" horiz-adv-x="1171" d="M862 182 Q756 -16 528 -16 Q363 -16 272 89 Q182 192 182 387 L182 1071 L299 1071 L299 381 Q299 88 552 88 Q686 88 771 172 Q862 262 862 424 L862 1071 L979 1071 L979 0 L862 0 L862 182 Z M526 1237 L336 1542 L422 1542 L582 1335 L742 1542 L825 1542 L633 1237 L526 1237 Z " />
<glyph glyph-name="uni01DD" unicode="&#x1dd;" horiz-adv-x="1110" d="M114 844 Q241 1087 517 1087 Q718 1087 849 957 Q1001 806 1001 537 Q1001 263 846 109 Q721 -16 537 -16 Q344 -16 226 117 Q104 254 104 504 L104 544 L880 544 Q876 680 849 754 Q766 987 516 987 Q407 987 336 941.5 Q265 896 210 791 L114 844 Z M223 444 Q232 331 257 271 Q332 84 535 84 Q686 84 779 195 Q820 243 841 297.5 Q862 352 876 444 L223 444 Z " />
<glyph glyph-name="Gcaron" unicode="&#x1e6;" horiz-adv-x="1526" d="M1255 293 Q1175 146 1075 74 Q950 -16 778 -16 Q560 -16 402 113 Q285 209 219 361 Q147 529 147 730 Q147 1047 318 1261 Q496 1484 786 1484 Q1011 1484 1154 1349 Q1205 1301 1238.5 1248 Q1272 1195 1312 1101 L1208 1063 Q1150 1208 1074 1279 Q962 1384 786 1384 Q544 1384 401 1186 Q272 1006 272 732 Q272 497 368 326 Q432 210 539 147 Q645 84 780 84 Q970 84 1097 213 Q1240 357 1240 590 L1240 635 L831 635 L831 735 L1357 735 L1357 0 L1277 0 L1255 293 Z M708 1610 L518 1915 L604 1915 L764 1708 L924 1915 L1007 1915 L815 1610 L708 1610 Z " />
<glyph glyph-name="gcaron" unicode="&#x1e7;" horiz-adv-x="1087" d="M713 1055 L1024 1081 L1024 973 L932 973 L865 973 L840 973 Q936 875 936 748 Q936 584 800 487 Q692 410 546 410 Q437 410 342 459 Q272 413 272 349 Q272 288 313 262 Q354 236 452 236 L655 236 Q831 236 912 179 Q1024 100 1024 -47 Q1024 -226 863 -318 Q735 -391 542 -391 Q355 -391 233 -322 Q86 -239 86 -89 Q86 67 276 162 Q166 214 166 325 Q166 432 276 500 Q156 605 156 751 Q156 916 288 1011 Q395 1087 539 1087 Q624 1087 713 1055 Z M379 137 Q203 60 203 -81 Q203 -190 299 -243 Q388 -293 541 -293 Q701 -293 797 -240 Q907 -180 907 -53 Q907 135 664 135 L426 135 Q402 135 379 137 Z M541 991 Q432 991 359 936 Q272 871 272 752 Q272 627 367 560 Q443 506 547 506 Q650 506 724 557 Q819 622 819 750 Q819 861 744 926 Q669 991 541 991 Z M497 1237 L307 1542 L393 1542 L553 1335 L713 1542 L796 1542 L604 1237 L497 1237 Z " />
<glyph glyph-name="uni01F4" unicode="&#x1f4;" horiz-adv-x="1526" d="M1255 293 Q1175 146 1075 74 Q950 -16 778 -16 Q560 -16 402 113 Q285 209 219 361 Q147 529 147 730 Q147 1047 318 1261 Q496 1484 786 1484 Q1011 1484 1154 1349 Q1205 1301 1238.5 1248 Q1272 1195 1312 1101 L1208 1063 Q1150 1208 1074 1279 Q962 1384 786 1384 Q544 1384 401 1186 Q272 1006 272 732 Q272 497 368 326 Q432 210 539 147 Q645 84 780 84 Q970 84 1097 213 Q1240 357 1240 590 L1240 635 L831 635 L831 735 L1357 735 L1357 0 L1277 0 L1255 293 Z M721 1610 L844 1915 L997 1915 L807 1610 L721 1610 Z " />
<glyph glyph-name="uni01F5" unicode="&#x1f5;" horiz-adv-x="1087" d="M713 1055 L1024 1081 L1024 973 L932 973 L865 973 L840 973 Q936 875 936 748 Q936 584 800 487 Q692 410 546 410 Q437 410 342 459 Q272 413 272 349 Q272 288 313 262 Q354 236 452 236 L655 236 Q831 236 912 179 Q1024 100 1024 -47 Q1024 -226 863 -318 Q735 -391 542 -391 Q355 -391 233 -322 Q86 -239 86 -89 Q86 67 276 162 Q166 214 166 325 Q166 432 276 500 Q156 605 156 751 Q156 916 288 1011 Q395 1087 539 1087 Q624 1087 713 1055 Z M379 137 Q203 60 203 -81 Q203 -190 299 -243 Q388 -293 541 -293 Q701 -293 797 -240 Q907 -180 907 -53 Q907 135 664 135 L426 135 Q402 135 379 137 Z M541 991 Q432 991 359 936 Q272 871 272 752 Q272 627 367 560 Q443 506 547 506 Q650 506 724 557 Q819 622 819 750 Q819 861 744 926 Q669 991 541 991 Z M510 1237 L633 1542 L786 1542 L596 1237 L510 1237 Z " />
<glyph glyph-name="Aringacute" unicode="&#x1fa;" horiz-adv-x="1244" d="M675 1459 L1207 0 L1091 0 L952 387 L293 387 L156 0 L37 0 L574 1458 Q509 1476 469.5 1527.5 Q430 1579 430 1644 Q430 1722 486.5 1778.5 Q543 1835 622 1835 Q701 1835 758 1778.5 Q815 1722 815 1644 Q815 1581 775.5 1529 Q736 1477 675 1459 Z M621 1757 Q577 1757 546.5 1724.5 Q516 1692 516 1645 Q516 1595 546 1562.5 Q576 1530 622 1530 Q668 1530 698.5 1562.5 Q729 1595 729 1644 Q729 1693 698 1725 Q667 1757 621 1757 Z M329 487 L916 487 L621 1310 L329 487 Z M344 1754 L467 2059 L621 2059 L430 1754 L344 1754 Z " />
<glyph glyph-name="aringacute" unicode="&#x1fb;" horiz-adv-x="1075" d="M776 160 Q648 -16 435 -16 Q279 -16 185 77 Q106 155 106 274 Q106 501 365 574 Q509 614 774 628 L774 733 Q774 987 544 987 Q373 987 221 844 L149 920 Q317 1087 545 1087 Q719 1087 809 988 Q891 897 891 731 L891 207 Q891 143 920 117 Q949 91 1025 88 L1025 -6 Q996 -8 974 -8 Q809 -8 776 160 Z M774 537 Q598 534 469 506 Q227 454 227 278 Q227 189 287.5 136.5 Q348 84 452 84 Q575 84 668 154 Q716 191 745 241.5 Q774 292 774 341 L774 537 Z M541 1599 Q619 1599 675.5 1542.5 Q732 1486 732 1409 Q732 1330 675.5 1273.5 Q619 1217 540 1217 Q460 1217 403.5 1273.5 Q347 1330 347 1409 Q347 1487 404 1543 Q461 1599 541 1599 Z M539 1521 Q494 1521 463.5 1488.5 Q433 1456 433 1409 Q433 1360 463 1327.5 Q493 1295 539 1295 Q585 1295 615.5 1327.5 Q646 1360 646 1409 Q646 1457 615 1489 Q584 1521 539 1521 Z M329 1595 L452 1900 L605 1900 L415 1595 L329 1595 Z " />
<glyph glyph-name="AEacute" unicode="&#x1fc;" horiz-adv-x="2007" d="M397 375 L173 0 L50 0 L937 1464 L1849 1464 L1849 1364 L1095 1364 L1095 795 L1728 795 L1728 695 L1095 695 L1095 100 L1888 100 L1888 0 L978 0 L978 375 L397 375 Z M458 475 L978 475 L978 1348 L490 529 L458 475 Z M927 1610 L1050 1915 L1203 1915 L1013 1610 L927 1610 Z " />
<glyph glyph-name="aeacute" unicode="&#x1fd;" horiz-adv-x="1751" d="M842 229 Q769 102 682 50 Q570 -16 437 -16 Q279 -16 185 77 Q106 156 106 274 Q106 498 365 571 Q509 612 774 624 L774 734 Q774 987 544 987 Q373 987 221 844 L149 920 Q318 1087 544 1087 Q799 1087 863 872 Q992 1087 1222 1087 Q1392 1087 1505 973 Q1644 833 1644 568 L1644 527 L891 527 Q894 421 907.5 361.5 Q921 302 955 242 Q1044 84 1243 84 Q1346 84 1414 129 Q1482 174 1536 278 L1634 227 Q1505 -16 1241 -16 Q1107 -16 1004 47 Q901 110 842 229 Z M774 533 Q587 528 469 503 Q227 452 227 278 Q227 189 287.5 136.5 Q348 84 452 84 Q575 84 668 154 Q716 191 745 242 Q774 293 774 341 L774 533 Z M1524 627 Q1514 741 1490 802 Q1416 987 1223 987 Q1064 987 974 856 Q941 808 924.5 760 Q908 712 895 627 L1524 627 Z M830 1237 L953 1542 L1106 1542 L916 1237 L830 1237 Z " />
<glyph glyph-name="Oslashacute" unicode="&#x1fe;" horiz-adv-x="1600" d="M297 240 Q148 450 148 733 Q148 1041 317 1251 Q381 1332 464 1385 Q614 1482 798 1482 Q1058 1482 1240 1296 L1390 1464 L1517 1464 L1302 1223 Q1452 1016 1452 730 Q1452 488 1345 301 Q1256 146 1112 63 Q972 -16 803 -16 Q546 -16 361 166 L214 0 L83 0 L297 240 Z M374 326 L1166 1213 Q1015 1382 799 1382 Q548 1382 400 1175 Q273 999 273 733 Q273 493 374 326 Z M1223 1134 L433 246 Q582 84 802 84 Q1002 84 1137 210 Q1238 305 1288 460 Q1327 584 1327 729 Q1327 955 1223 1134 Z M758 1610 L881 1915 L1034 1915 L844 1610 L758 1610 Z " />
<glyph glyph-name="oslashacute" unicode="&#x1ff;" horiz-adv-x="1165" d="M53 0 L209 179 Q112 333 112 538 Q112 810 265 965 Q390 1091 583 1091 Q767 1091 901 966 L991 1071 L1118 1071 L962 893 Q1059 737 1059 538 Q1059 264 903 109 Q777 -18 585 -18 Q405 -18 272 105 L180 0 L53 0 Z M829 886 Q730 991 587 991 Q363 991 275 780 Q233 679 233 539 Q233 381 286 267 L829 886 Z M342 185 Q438 82 582 82 Q779 82 872 246 Q938 363 938 535 Q938 682 884 804 L342 185 Z M540 1237 L663 1542 L816 1542 L626 1237 L540 1237 Z " />
<glyph glyph-name="Scommaaccent" unicode="&#x218;" horiz-adv-x="1286" d="M987 1130 Q936 1239 877 1291 Q779 1378 606 1378 Q462 1378 379 1316 Q288 1249 288 1116 Q288 1002 364 942 Q409 907 468.5 884.5 Q528 862 671 826 Q809 792 887.5 757.5 Q966 723 1022 674 Q1138 570 1138 398 Q1138 188 983 76 Q856 -16 654 -16 Q401 -16 248 131 Q149 226 104 385 L219 407 Q254 290 314 221 Q430 88 650 88 Q788 88 880 141 Q1017 220 1017 395 Q1017 529 927 601 Q882 636 818.5 661.5 Q755 687 638 717 Q486 757 416.5 784 Q347 811 291 853 Q167 946 167 1114 Q167 1273 276 1372 Q397 1482 604 1482 Q847 1482 983 1339 Q1047 1272 1093 1159 L987 1130 Z M555 -446 L555 -381 Q644 -360 645 -272 Q562 -269 562 -195 Q562 -161 584 -140 Q606 -119 641 -119 Q683 -119 707.5 -151 Q732 -183 732 -237 Q732 -325 686.5 -379 Q641 -433 555 -446 Z " />
<glyph glyph-name="scommaaccent" unicode="&#x219;" horiz-adv-x="1024" d="M776 841 Q718 919 653 953 Q588 987 498 987 Q277 987 277 813 Q277 731 328.5 691 Q380 651 540 608 Q650 579 706.5 555.5 Q763 532 808 497 Q903 423 903 291 Q903 153 798 68.5 Q693 -16 522 -16 Q239 -16 90 211 L180 276 Q235 192 281 155 Q371 84 516 84 Q625 84 692 123 Q782 175 782 284 Q782 370 723 415 Q664 460 491 505 Q380 534 320.5 562.5 Q261 591 220 635 Q156 704 156 807 Q156 964 286 1038 Q372 1087 500 1087 Q619 1087 704.5 1045.5 Q790 1004 858 913 L776 841 Z M422 -446 L422 -381 Q511 -360 512 -272 Q428 -269 428 -195 Q428 -161 450 -140 Q472 -119 507 -119 Q549 -119 573.5 -151 Q598 -183 598 -237 Q598 -325 552.5 -379 Q507 -433 422 -446 Z " />
<glyph glyph-name="uni021A" unicode="&#x21a;" horiz-adv-x="1204" d="M525 0 L525 1364 L74 1364 L74 1464 L1092 1464 L1092 1364 L642 1364 L642 0 L525 0 Z M516 -446 L516 -381 Q605 -360 606 -272 Q523 -269 523 -195 Q523 -161 545 -140 Q567 -119 602 -119 Q644 -119 668.5 -151 Q693 -183 693 -237 Q693 -325 647.5 -379 Q602 -433 516 -446 Z " />
<glyph glyph-name="uni021B" unicode="&#x21b;" horiz-adv-x="739" d="M74 971 L74 1071 L234 1071 L234 1364 L351 1388 L351 1071 L631 1071 L631 971 L351 971 L351 250 Q351 170 389 127 Q427 84 497 84 Q564 84 637 129 L684 45 Q595 -16 495 -16 Q376 -16 305 53 Q234 122 234 238 L234 971 L74 971 Z M344 -446 L344 -381 Q433 -360 434 -272 Q350 -269 350 -195 Q350 -161 372 -140 Q394 -119 429 -119 Q471 -119 495.5 -151 Q520 -183 520 -237 Q520 -325 474.5 -379 Q429 -433 344 -446 Z " />
<glyph glyph-name="uni0226" unicode="&#x226;" horiz-adv-x="1244" d="M293 387 L156 0 L37 0 L576 1464 L673 1464 L1207 0 L1091 0 L952 387 L293 387 Z M329 487 L916 487 L621 1310 L329 487 Z M623 1792 Q655 1792 679 1768 Q703 1744 703 1711 Q703 1679 679 1654.5 Q655 1630 622 1630 Q589 1630 565 1654 Q541 1678 541 1711 Q541 1744 565 1768 Q589 1792 623 1792 Z " />
<glyph glyph-name="uni0227" unicode="&#x227;" horiz-adv-x="1075" d="M776 160 Q648 -16 435 -16 Q279 -16 185 77 Q106 155 106 274 Q106 501 365 574 Q509 614 774 628 L774 733 Q774 987 544 987 Q373 987 221 844 L149 920 Q317 1087 545 1087 Q719 1087 809 988 Q891 897 891 731 L891 207 Q891 143 920 117 Q949 91 1025 88 L1025 -6 Q996 -8 974 -8 Q809 -8 776 160 Z M774 537 Q598 534 469 506 Q227 454 227 278 Q227 189 287.5 136.5 Q348 84 452 84 Q575 84 668 154 Q716 191 745 241.5 Q774 292 774 341 L774 537 Z M539 1491 Q571 1491 595 1467 Q619 1443 619 1411 Q619 1377 595 1353 Q571 1329 538 1329 Q505 1329 481 1353 Q457 1377 457 1411 Q457 1443 481 1467 Q505 1491 539 1491 Z " />
<glyph glyph-name="uni0237" unicode="&#x237;" horiz-adv-x="516" d="M318 1071 L318 -131 Q318 -266 245 -332 Q183 -389 74 -389 Q9 -389 -49 -361 L-20 -270 Q39 -289 68 -289 Q201 -289 201 -139 L201 1071 L318 1071 Z " />
<glyph glyph-name="uni0259" unicode="&#x259;" horiz-adv-x="1110" d="M114 844 Q241 1087 517 1087 Q718 1087 849 957 Q1001 806 1001 537 Q1001 263 846 109 Q721 -16 537 -16 Q344 -16 226 117 Q104 254 104 504 L104 544 L880 544 Q876 680 849 754 Q766 987 516 987 Q407 987 336 941.5 Q265 896 210 791 L114 844 Z M223 444 Q232 331 257 271 Q332 84 535 84 Q686 84 779 195 Q820 243 841 297.5 Q862 352 876 444 L223 444 Z " />
<glyph glyph-name="afii57929" unicode="&#x2bc;" horiz-adv-x="500" d="M162 1151 L162 1221 Q245 1250 252 1376 Q152 1384 152 1470 Q152 1510 178.5 1536.5 Q205 1563 244 1563 Q292 1563 319 1525.5 Q346 1488 346 1420 Q346 1300 301 1234 Q256 1168 162 1151 Z " />
<glyph glyph-name="uni02C9" unicode="&#x2c9;" horiz-adv-x="1024" d="M281 1348 L281 1448 L744 1448 L744 1348 L281 1348 Z " />
<glyph glyph-name="uni0309" unicode="&#x309;" horiz-adv-x="1024" d="M511 1541 L429 1541 L429 1666 Q502 1677 527.5 1695 Q553 1713 553 1755 Q553 1825 478 1825 Q405 1825 302 1764 L265 1824 Q388 1905 478 1905 Q553 1905 602.5 1860.5 Q652 1816 652 1749 Q652 1681 604 1648 Q581 1633 511 1620 L511 1541 Z " />
<glyph glyph-name="uni037E" unicode="&#x37e;" horiz-adv-x="582" d="M207 -233 L207 -164 Q290 -135 297 -8 Q197 0 197 85 Q197 125 223.5 151.5 Q250 178 289 178 Q337 178 364 140.5 Q391 103 391 35 Q391 -85 346 -150.5 Q301 -216 207 -233 Z M292 764 Q330 764 357.5 736.5 Q385 709 385 672 Q385 633 357.5 605.5 Q330 578 291 578 Q252 578 225.5 605 Q199 632 199 672 Q199 711 226 737.5 Q253 764 292 764 Z " />
<glyph glyph-name="tonos" unicode="&#x384;" horiz-adv-x="1024" d="M471 1208 L448 1542 L577 1542 L554 1208 L471 1208 Z " />
<glyph glyph-name="dieresistonos" unicode="&#x385;" horiz-adv-x="1024" d="M470 1208 L447 1542 L576 1542 L554 1208 L470 1208 Z M306 1491 Q338 1491 362.5 1466.5 Q387 1442 387 1411 Q387 1378 362.5 1353.5 Q338 1329 305 1329 Q272 1329 248.5 1353 Q225 1377 225 1411 Q225 1443 249 1467 Q273 1491 306 1491 Z M719 1491 Q751 1491 775 1467 Q799 1443 799 1411 Q799 1377 775 1353 Q751 1329 718 1329 Q685 1329 661 1353 Q637 1377 637 1411 Q637 1443 661 1467 Q685 1491 719 1491 Z " />
<glyph glyph-name="Alphatonos" unicode="&#x386;" horiz-adv-x="1244" d="M293 387 L156 0 L37 0 L576 1464 L673 1464 L1207 0 L1091 0 L952 387 L293 387 Z M329 487 L916 487 L621 1310 L329 487 Z M174 1083 L151 1464 L280 1464 L258 1083 L174 1083 Z " />
<glyph glyph-name="uni0387" unicode="&#x387;" horiz-adv-x="582" d="M291 739 Q329 739 357 711.5 Q385 684 385 645 Q385 607 357 579 Q329 551 290 551 Q251 551 224 578.5 Q197 606 197 645 Q197 685 224 712 Q251 739 291 739 Z " />
<glyph glyph-name="Epsilontonos" unicode="&#x388;" horiz-adv-x="1382" d="M334 0 L334 1464 L1225 1464 L1225 1364 L451 1364 L451 795 L1104 795 L1104 695 L451 695 L451 100 L1262 100 L1262 0 L334 0 Z M64 1083 L41 1464 L170 1464 L147 1083 L64 1083 Z " />
<glyph glyph-name="Etatonos" unicode="&#x389;" horiz-adv-x="1554" d="M334 0 L334 1464 L451 1464 L451 778 L1247 778 L1247 1464 L1364 1464 L1364 0 L1247 0 L1247 678 L451 678 L451 0 L334 0 Z M64 1083 L41 1464 L170 1464 L147 1083 L64 1083 Z " />
<glyph glyph-name="Iotatonos" unicode="&#x38a;" horiz-adv-x="676" d="M334 0 L334 1464 L451 1464 L451 0 L334 0 Z M64 1083 L41 1464 L170 1464 L147 1083 L64 1083 Z " />
<glyph glyph-name="Omicrontonos" unicode="&#x38c;" horiz-adv-x="1637" d="M843 1482 Q1055 1482 1220 1349 Q1349 1245 1419 1083 Q1490 920 1490 729 Q1490 487 1383 301 Q1294 146 1150 63 Q1011 -16 841 -16 Q579 -16 399 166 Q185 381 185 733 Q185 1042 354 1251 Q539 1482 843 1482 Z M830 1382 Q713 1382 610.5 1328 Q508 1274 437 1175 Q310 998 310 731 Q310 409 488 228 Q630 84 839 84 Q1040 84 1175 210 Q1276 305 1326 460 Q1365 584 1365 729 Q1365 1013 1217 1197 Q1068 1382 830 1382 Z M64 1083 L41 1464 L170 1464 L147 1083 L64 1083 Z " />
<glyph glyph-name="Upsilontonos" unicode="&#x38e;" horiz-adv-x="1336" d="M746 0 L746 645 L248 1464 L382 1464 L805 747 L1224 1464 L1348 1464 L863 643 L863 0 L746 0 Z M64 1083 L41 1464 L170 1464 L147 1083 L64 1083 Z " />
<glyph glyph-name="Omegatonos" unicode="&#x38f;" horiz-adv-x="1670" d="M146 0 L146 100 L453 100 Q336 198 276 312 Q189 477 189 713 Q189 1066 370 1273 Q553 1482 857 1482 Q1162 1482 1341 1273 Q1522 1063 1522 713 Q1522 507 1460 361.5 Q1398 216 1260 100 L1565 100 L1565 0 L990 0 L990 110 Q1016 108 1029 108 Q1170 108 1268 245 Q1397 423 1397 709 Q1397 1006 1269 1183 Q1125 1382 856 1382 Q588 1382 443 1183 Q314 1006 314 709 Q314 423 444 245 Q543 108 684 108 Q698 108 724 110 L724 0 L146 0 Z M64 1083 L41 1464 L170 1464 L147 1083 L64 1083 Z " />
<glyph glyph-name="iotadieresistonos" unicode="&#x390;" horiz-adv-x="516" d="M201 1071 L318 1071 L318 213 Q318 147 340 119.5 Q362 92 413 92 Q431 92 451 98 L451 0 Q423 -8 393 -8 Q291 -8 246 49 Q201 106 201 233 L201 1071 Z M216 1208 L194 1542 L323 1542 L300 1208 L216 1208 Z M28 1491 Q60 1491 84.5 1466.5 Q109 1442 109 1411 Q109 1378 84.5 1353.5 Q60 1329 27 1329 Q-6 1329 -29.5 1353 Q-53 1377 -53 1411 Q-53 1443 -29 1467 Q-5 1491 28 1491 Z M490 1491 Q522 1491 546 1467 Q570 1443 570 1411 Q570 1377 546 1353 Q522 1329 489 1329 Q456 1329 432 1353 Q408 1377 408 1411 Q408 1443 432 1467 Q456 1491 490 1491 Z " />
<glyph glyph-name="Alpha" unicode="&#x391;" horiz-adv-x="1244" d="M293 387 L156 0 L37 0 L576 1464 L673 1464 L1207 0 L1091 0 L952 387 L293 387 Z M329 487 L916 487 L621 1310 L329 487 Z " />
<glyph glyph-name="Beta" unicode="&#x392;" horiz-adv-x="1364" d="M190 0 L190 1464 L708 1464 Q972 1464 1087 1339 Q1173 1246 1173 1090 Q1173 974 1123 899.5 Q1073 825 962 776 Q1048 751 1097.5 720.5 Q1147 690 1185 636 Q1251 545 1251 414 Q1251 177 1062 69 Q941 0 768 0 L190 0 Z M307 100 L784 100 Q965 100 1057 202 Q1130 282 1130 412 Q1130 556 1044 634 Q954 715 776 715 L307 715 L307 100 Z M307 815 L762 815 Q914 815 989 899 Q1052 969 1052 1093 Q1052 1364 717 1364 L307 1364 L307 815 Z " />
<glyph glyph-name="Gamma" unicode="&#x393;" horiz-adv-x="1049" d="M190 0 L190 1464 L1007 1464 L1007 1364 L307 1364 L307 0 L190 0 Z " />
<glyph glyph-name="uni0394" unicode="&#x394;" horiz-adv-x="1313" d="M12 0 L600 1464 L717 1464 L1300 0 L12 0 Z M177 100 L1134 100 L654 1330 L177 100 Z " />
<glyph glyph-name="Epsilon" unicode="&#x395;" horiz-adv-x="1239" d="M190 0 L190 1464 L1081 1464 L1081 1364 L307 1364 L307 795 L960 795 L960 695 L307 695 L307 100 L1118 100 L1118 0 L190 0 Z " />
<glyph glyph-name="Zeta" unicode="&#x396;" horiz-adv-x="1208" d="M127 0 L127 111 L946 1364 L173 1364 L173 1464 L1051 1464 L1051 1332 L248 100 L1061 100 L1061 0 L127 0 Z " />
<glyph glyph-name="Eta" unicode="&#x397;" horiz-adv-x="1411" d="M190 0 L190 1464 L307 1464 L307 778 L1103 778 L1103 1464 L1220 1464 L1220 0 L1103 0 L1103 678 L307 678 L307 0 L190 0 Z " />
<glyph glyph-name="Theta" unicode="&#x398;" horiz-adv-x="1620" d="M471 688 L471 788 L1148 788 L1148 688 L471 688 Z M815 1482 Q1030 1482 1198 1349 Q1328 1245 1400 1083 Q1472 921 1472 730 Q1472 488 1363 301 Q1273 146 1126 63 Q985 -16 813 -16 Q548 -16 364 166 Q147 381 147 732 Q147 1042 318 1251 Q506 1482 815 1482 Z M802 1382 Q683 1382 578 1328 Q473 1274 401 1175 Q272 998 272 731 Q272 408 454 228 Q598 84 812 84 Q1015 84 1153 210 Q1256 305 1307 460 Q1347 584 1347 729 Q1347 1013 1196 1197 Q1044 1382 802 1382 Z " />
<glyph glyph-name="Iota" unicode="&#x399;" horiz-adv-x="567" d="M225 0 L225 1464 L342 1464 L342 0 L225 0 Z " />
<glyph glyph-name="Kappa" unicode="&#x39a;" horiz-adv-x="1249" d="M190 0 L190 1464 L307 1464 L307 686 L995 1464 L1132 1464 L594 858 L1161 0 L1028 0 L516 770 L307 534 L307 0 L190 0 Z " />
<glyph glyph-name="Lambda" unicode="&#x39b;" horiz-adv-x="1244" d="M37 0 L576 1464 L673 1464 L1207 0 L1090 0 L620 1311 L154 0 L37 0 Z " />
<glyph glyph-name="Mu" unicode="&#x39c;" horiz-adv-x="1733" d="M190 1464 L373 1464 L872 126 L1359 1464 L1542 1464 L1542 0 L1425 0 L1425 1342 L937 0 L808 0 L301 1341 L301 0 L190 0 L190 1464 Z " />
<glyph glyph-name="Nu" unicode="&#x39d;" horiz-adv-x="1407" d="M190 0 L190 1464 L348 1464 L1103 125 L1103 1464 L1216 1464 L1216 0 L1044 0 L303 1315 L303 0 L190 0 Z " />
<glyph glyph-name="Xi" unicode="&#x39e;" horiz-adv-x="1165" d="M111 0 L111 100 L1055 100 L1055 0 L111 0 Z M111 1364 L111 1464 L1055 1464 L1055 1364 L111 1364 Z M203 686 L203 786 L961 786 L961 686 L203 686 Z " />
<glyph glyph-name="Omicron" unicode="&#x39f;" horiz-adv-x="1599" d="M805 1482 Q1016 1482 1182 1349 Q1310 1245 1381 1083 Q1452 920 1452 729 Q1452 488 1345 301 Q1256 146 1112 63 Q972 -16 803 -16 Q542 -16 361 166 Q147 381 147 733 Q147 1042 316 1251 Q501 1482 805 1482 Z M792 1382 Q675 1382 572.5 1328 Q470 1274 399 1175 Q272 998 272 731 Q272 409 450 228 Q592 84 801 84 Q1002 84 1137 210 Q1238 305 1288 460 Q1327 584 1327 729 Q1327 1013 1179 1197 Q1030 1382 792 1382 Z " />
<glyph glyph-name="Pi" unicode="&#x3a0;" horiz-adv-x="1395" d="M197 0 L197 1364 L74 1364 L74 1464 L1321 1464 L1321 1364 L1198 1364 L1198 0 L1081 0 L1081 1364 L314 1364 L314 0 L197 0 Z " />
<glyph glyph-name="Rho" unicode="&#x3a1;" horiz-adv-x="1286" d="M190 0 L190 1464 L698 1464 Q950 1464 1072 1330 Q1167 1226 1167 1052 Q1167 862 1047 757 Q924 648 696 648 L307 648 L307 0 L190 0 Z M307 748 L706 748 Q886 748 975 846 Q1046 924 1046 1057 Q1046 1207 958 1286 Q871 1364 706 1364 L307 1364 L307 748 Z " />
<glyph glyph-name="Sigma" unicode="&#x3a3;" horiz-adv-x="1196" d="M115 0 L115 111 L565 739 L152 1330 L152 1464 L1067 1464 L1067 1364 L269 1364 L699 753 L228 100 L1135 100 L1135 0 L115 0 Z " />
<glyph glyph-name="Tau" unicode="&#x3a4;" horiz-adv-x="1165" d="M525 0 L525 1364 L74 1364 L74 1464 L1092 1464 L1092 1364 L642 1364 L642 0 L525 0 Z " />
<glyph glyph-name="Upsilon" unicode="&#x3a5;" horiz-adv-x="1075" d="M486 0 L486 645 L-12 1464 L121 1464 L544 747 L963 1464 L1088 1464 L603 643 L603 0 L486 0 Z " />
<glyph glyph-name="Phi" unicode="&#x3a6;" horiz-adv-x="1661" d="M772 -37 L772 102 Q552 117 389 240 Q147 423 147 732 Q147 990 322 1166.5 Q497 1343 772 1362 L772 1501 L889 1501 L889 1362 Q1110 1347 1272 1224 Q1514 1040 1514 732 Q1514 474 1339 297.5 Q1164 121 889 102 L889 -37 L772 -37 Z M889 198 Q1069 214 1188 300 Q1389 446 1389 732 Q1389 963 1256.5 1104 Q1124 1245 889 1266 L889 198 Z M772 198 L772 1266 Q591 1250 473 1164 Q272 1018 272 732 Q272 501 404.5 360 Q537 219 772 198 Z " />
<glyph glyph-name="Chi" unicode="&#x3a7;" horiz-adv-x="1212" d="M61 0 L540 751 L92 1464 L227 1464 L618 844 L1009 1464 L1134 1464 L677 747 L1148 0 L1015 0 L602 657 L186 0 L61 0 Z " />
<glyph glyph-name="Psi" unicode="&#x3a8;" horiz-adv-x="1575" d="M1452 1464 L1452 922 Q1452 771 1433 689.5 Q1414 608 1363 544 Q1296 459 1203 424 Q1110 389 953 389 L846 389 L846 0 L729 0 L729 389 L625 389 Q516 389 454 400.5 Q392 412 334 442 Q216 505 169.5 611 Q123 717 123 922 L123 1464 L240 1464 L240 874 Q240 733 277 656 Q329 546 463 511 Q546 489 671 489 L729 489 L729 1464 L846 1464 L846 489 L904 489 Q1142 489 1236 571 Q1335 658 1335 874 L1335 1464 L1452 1464 Z " />
<glyph glyph-name="uni03A9" unicode="&#x3a9;" horiz-adv-x="1628" d="M104 0 L104 100 L411 100 Q294 198 234 312 Q147 477 147 713 Q147 1066 328 1273 Q511 1482 815 1482 Q1120 1482 1299 1273 Q1480 1063 1480 713 Q1480 507 1418 361.5 Q1356 216 1218 100 L1523 100 L1523 0 L948 0 L948 110 Q974 108 987 108 Q1128 108 1226 245 Q1355 423 1355 709 Q1355 1006 1227 1183 Q1083 1382 814 1382 Q546 1382 401 1183 Q272 1006 272 709 Q272 423 402 245 Q501 108 642 108 Q656 108 682 110 L682 0 L104 0 Z " />
<glyph glyph-name="Iotadieresis" unicode="&#x3aa;" horiz-adv-x="567" d="M227 0 L227 1464 L344 1464 L344 0 L227 0 Z M124 1792 Q156 1792 180.5 1767.5 Q205 1743 205 1712 Q205 1679 180.5 1654.5 Q156 1630 123 1630 Q90 1630 66.5 1654 Q43 1678 43 1711 Q43 1744 67 1768 Q91 1792 124 1792 Z M455 1792 Q487 1792 511 1768 Q535 1744 535 1711 Q535 1679 511 1654.5 Q487 1630 454 1630 Q421 1630 397 1654 Q373 1678 373 1711 Q373 1744 397 1768 Q421 1792 455 1792 Z " />
<glyph glyph-name="Upsilondieresis" unicode="&#x3ab;" horiz-adv-x="1075" d="M486 0 L486 645 L-12 1464 L121 1464 L544 747 L963 1464 L1088 1464 L603 643 L603 0 L486 0 Z M379 1792 Q412 1792 436.5 1767.5 Q461 1743 461 1712 Q461 1679 436.5 1654.5 Q412 1630 379 1630 Q346 1630 322.5 1654 Q299 1678 299 1711 Q299 1744 322.5 1768 Q346 1792 379 1792 Z M710 1792 Q743 1792 767 1768 Q791 1744 791 1711 Q791 1678 767 1654 Q743 1630 710 1630 Q677 1630 653 1654 Q629 1678 629 1711 Q629 1744 653 1768 Q677 1792 710 1792 Z " />
<glyph glyph-name="alphatonos" unicode="&#x3ac;" horiz-adv-x="1204" d="M1012 0 L895 0 L895 205 Q772 -16 533 -16 Q322 -16 213 134 Q109 279 109 524 Q109 765 213 917 Q328 1087 544 1087 Q773 1087 895 870 L895 1071 L1012 1071 L1012 0 Z M546 987 Q390 987 307 855 Q230 733 230 524 Q230 84 536 84 Q711 84 806 206 Q899 324 899 535 Q899 733 819 847 Q719 987 546 987 Z M525 1208 L502 1542 L631 1542 L608 1208 L525 1208 Z " />
<glyph glyph-name="epsilontonos" unicode="&#x3ad;" horiz-adv-x="1066" d="M981 871 L875 812 Q816 907 750 947 Q684 987 586 987 Q381 987 289 807 Q241 715 231 590 L761 590 L761 490 L230 490 Q238 349 294 249 Q384 84 594 84 Q700 84 769.5 126 Q839 168 906 271 L1005 212 Q863 -16 592 -16 Q340 -16 211 167 Q109 310 109 534 Q109 811 269 967 Q394 1087 588 1087 Q847 1087 981 871 Z M547 1208 L524 1542 L653 1542 L630 1208 L547 1208 Z " />
<glyph glyph-name="etatonos" unicode="&#x3ae;" horiz-adv-x="1182" d="M193 0 L193 1071 L310 1071 L310 909 Q420 1087 645 1087 Q812 1087 905 984 Q998 880 998 684 L998 -373 L881 -373 L881 690 Q881 983 621 983 Q485 983 401 899 Q310 809 310 647 L310 0 L193 0 Z M580 1208 L557 1542 L686 1542 L663 1208 L580 1208 Z " />
<glyph glyph-name="iotatonos" unicode="&#x3af;" horiz-adv-x="516" d="M201 1071 L318 1071 L318 213 Q318 148 340 120 Q362 92 413 92 Q431 92 451 98 L451 0 Q423 -8 393 -8 Q291 -8 246 49 Q201 106 201 233 L201 1071 Z M219 1208 L196 1542 L325 1542 L302 1208 L219 1208 Z " />
<glyph glyph-name="upsilondieresistonos" unicode="&#x3b0;" horiz-adv-x="1159" d="M184 1071 L301 1071 L301 496 Q301 290 340 208 Q398 84 580 84 Q761 84 819 208 Q858 290 858 496 L858 1071 L975 1071 L975 507 Q975 243 907 130 Q861 55 782 19.5 Q703 -16 579 -16 Q423 -16 337 42 Q254 98 219 204 Q184 310 184 507 L184 1071 Z M536 1208 L513 1542 L642 1542 L620 1208 L536 1208 Z M348 1491 Q380 1491 404.5 1466.5 Q429 1442 429 1411 Q429 1378 404.5 1353.5 Q380 1329 347 1329 Q314 1329 290.5 1353 Q267 1377 267 1411 Q267 1443 291 1467 Q315 1491 348 1491 Z M810 1491 Q842 1491 866 1467 Q890 1443 890 1411 Q890 1377 866 1353 Q842 1329 809 1329 Q776 1329 752 1353 Q728 1377 728 1411 Q728 1443 752 1467 Q776 1491 810 1491 Z " />
<glyph glyph-name="alpha" unicode="&#x3b1;" horiz-adv-x="1204" d="M1012 0 L895 0 L895 205 Q772 -16 533 -16 Q322 -16 213 134 Q109 279 109 524 Q109 765 213 917 Q328 1087 544 1087 Q773 1087 895 870 L895 1071 L1012 1071 L1012 0 Z M546 987 Q390 987 307 855 Q230 733 230 524 Q230 84 536 84 Q711 84 806 206 Q899 324 899 535 Q899 733 819 847 Q719 987 546 987 Z " />
<glyph glyph-name="beta" unicode="&#x3b2;" horiz-adv-x="1239" d="M193 -373 L193 1012 Q193 1166 205 1239 Q217 1312 253 1379 Q352 1562 610 1562 Q795 1562 898 1469 Q1006 1371 1006 1197 Q1006 1072 952.5 994 Q899 916 783 873 Q880 843 935.5 808 Q991 773 1038 712 Q1127 596 1127 432 Q1127 295 1076 190 Q976 -18 722 -18 Q625 -18 535 14 L535 125 Q629 82 726 82 Q1006 82 1006 426 Q1006 670 819 764 Q770 788 722.5 797 Q675 806 586 807 L586 924 Q739 925 807 981 Q891 1049 891 1193 Q891 1324 819 1391 Q742 1462 603 1462 Q422 1462 356 1334 Q330 1283 320 1217 Q310 1151 310 1031 L310 -373 L193 -373 Z " />
<glyph glyph-name="gamma" unicode="&#x3b3;" horiz-adv-x="953" d="M555 -373 L438 -373 L438 0 L37 1071 L166 1071 L497 173 L787 1071 L917 1071 L555 0 L555 -373 Z " />
<glyph glyph-name="delta" unicode="&#x3b4;" horiz-adv-x="1145" d="M429 1049 Q280 1126 280 1282 Q280 1440 404 1517 Q482 1566 601 1566 Q717 1566 798 1525 Q879 1484 946 1392 L864 1320 Q810 1400 751 1433 Q692 1466 604 1466 Q520 1466 469 1431 Q401 1383 401 1288 Q401 1212 444.5 1171 Q488 1130 605 1095 Q738 1056 790 1030 Q842 1004 892 953 Q1037 806 1037 541 Q1037 299 913 146 Q782 -16 573 -16 Q463 -16 369.5 33 Q276 82 213 172 Q109 320 109 534 Q109 722 192.5 856 Q276 990 429 1049 Z M569 987 Q406 987 313 850 Q230 727 230 535 Q230 350 310 224 Q341 175 389 141 Q469 84 575 84 Q759 84 852 253 Q916 369 916 534 Q916 747 816 871 Q724 987 569 987 Z " />
<glyph glyph-name="epsilon" unicode="&#x3b5;" horiz-adv-x="1066" d="M981 871 L875 812 Q816 907 750 947 Q684 987 586 987 Q381 987 289 807 Q241 715 231 590 L761 590 L761 490 L230 490 Q238 349 294 249 Q384 84 594 84 Q700 84 769.5 126 Q839 168 906 271 L1005 212 Q863 -16 592 -16 Q340 -16 211 167 Q109 310 109 534 Q109 811 269 967 Q394 1087 588 1087 Q847 1087 981 871 Z " />
<glyph glyph-name="zeta" unicode="&#x3b6;" horiz-adv-x="879" d="M162 1442 L162 1542 L823 1542 L823 1429 Q509 1094 378 854.5 Q247 615 247 373 Q247 228 303 167 Q356 110 463 110 L492 110 Q661 110 748 17 Q837 -79 837 -241 Q837 -300 823 -369 L706 -369 Q716 -318 716 -266 Q716 -131 656.5 -65.5 Q597 0 473 0 L454 0 Q304 0 229 63 Q123 151 123 361 Q123 732 434 1121 Q572 1294 728 1442 L162 1442 Z " />
<glyph glyph-name="eta" unicode="&#x3b7;" horiz-adv-x="1182" d="M193 0 L193 1071 L310 1071 L310 909 Q420 1087 645 1087 Q812 1087 905 984 Q998 880 998 684 L998 -373 L881 -373 L881 690 Q881 983 621 983 Q485 983 401 899 Q310 809 310 647 L310 0 L193 0 Z " />
<glyph glyph-name="theta" unicode="&#x3b8;" horiz-adv-x="1192" d="M602 1558 Q712 1558 805 1493.5 Q898 1429 960 1309 Q1080 1078 1080 767 Q1080 451 957 222 Q828 -16 596 -16 Q365 -16 236 222 Q113 450 113 767 Q113 1076 233 1309 Q361 1558 602 1558 Z M234 744 Q242 535 297 377 Q351 222 433 150 Q510 84 596 84 Q748 84 847.5 265 Q947 446 959 744 L234 744 Z M236 844 L957 844 Q944 1058 881 1212 Q781 1458 596 1458 Q446 1458 349.5 1293.5 Q253 1129 236 844 Z " />
<glyph glyph-name="iota" unicode="&#x3b9;" horiz-adv-x="516" d="M201 1071 L318 1071 L318 213 Q318 148 340 120 Q362 92 413 92 Q431 92 451 98 L451 0 Q423 -8 393 -8 Q291 -8 246 49 Q201 106 201 233 L201 1071 Z " />
<glyph glyph-name="kappa" unicode="&#x3ba;" horiz-adv-x="1071" d="M590 652 L1018 0 L883 0 L514 566 L307 332 L307 0 L190 0 L190 1071 L307 1071 L307 470 L809 1071 L959 1071 L590 652 Z " />
<glyph glyph-name="lambda" unicode="&#x3bb;" horiz-adv-x="1007" d="M41 0 L442 1071 L272 1542 L397 1542 L958 0 L831 0 L491 933 L164 0 L41 0 Z " />
<glyph glyph-name="uni03BC" unicode="&#x3bc;" horiz-adv-x="1178" d="M190 -373 L190 1071 L307 1071 L307 408 Q307 314 322 258 Q337 202 373 161 Q437 88 559 88 Q694 88 779 172 Q870 262 870 424 L870 1071 L987 1071 L987 0 L870 0 L870 182 Q765 -16 532 -16 Q394 -16 307 49 L307 -373 L190 -373 Z " />
<glyph glyph-name="nu" unicode="&#x3bd;" horiz-adv-x="973" d="M422 0 L45 1071 L172 1071 L491 131 L805 1071 L928 1071 L555 0 L422 0 Z " />
<glyph glyph-name="xi" unicode="&#x3be;" horiz-adv-x="967" d="M158 1442 L158 1542 L911 1542 L911 1442 L870 1442 Q610 1442 481 1383 Q409 1350 367.5 1286 Q326 1222 326 1146 Q326 1025 411 961 Q496 897 655 897 L756 897 L756 797 L655 797 Q546 797 479 780.5 Q412 764 363 725 Q244 632 244 427 Q244 268 313 189.5 Q382 111 521 111 L590 111 Q760 111 846 17 Q936 -79 936 -241 Q936 -299 921 -369 L805 -369 Q816 -318 816 -265 Q816 -130 756 -65 Q696 0 571 0 L506 0 Q334 0 235 99 Q123 210 123 436 Q123 660 254 773 Q326 835 431 856 Q340 879 288 938 Q215 1021 215 1138 Q215 1347 438 1442 L158 1442 Z " />
<glyph glyph-name="omicron" unicode="&#x3bf;" horiz-adv-x="1174" d="M591 1087 Q777 1087 909 955 Q1065 798 1065 536 Q1065 271 909 115 Q778 -16 586 -16 Q396 -16 265 114 Q109 270 109 536 Q109 800 265 956 Q395 1087 591 1087 Z M583 987 Q413 987 316 849 Q230 728 230 535 Q230 292 361 169 Q452 84 585 84 Q759 84 856 220 Q944 342 944 535 Q944 742 846 865 Q749 987 583 987 Z " />
<glyph glyph-name="rho" unicode="&#x3c1;" horiz-adv-x="1176" d="M264 -373 Q123 36 123 457 Q123 617 150 725 Q177 833 238 917 Q362 1087 583 1087 Q802 1087 939 922 Q1067 768 1067 533 Q1067 310 951 155 Q822 -17 594 -17 Q363 -17 245 187 Q252 148 256 129 Q308 -157 384 -373 L264 -373 Z M585 987 Q420 987 327 846 Q244 721 244 533 Q244 332 336 208 Q428 83 589 83 Q786 83 882 258 Q946 374 946 532 Q946 725 857 848 Q758 987 585 987 Z " />
<glyph glyph-name="uni03C2" unicode="&#x3c2;" horiz-adv-x="949" d="M798 807 Q741 909 689 948 Q637 987 557 987 Q377 987 298 837 Q230 710 230 507 Q230 282 315 187 Q347 151 388.5 134.5 Q430 118 515 109 Q632 97 687 59 Q750 16 785 -63 Q820 -142 820 -240 Q820 -300 806 -369 L689 -369 Q699 -319 699 -264 Q699 -119 633 -53 Q608 -29 576.5 -18 Q545 -7 481 0 Q386 10 334 30.5 Q282 51 236 96 Q109 219 109 501 Q109 798 233 948 Q349 1088 551 1088 Q667 1088 744.5 1039.5 Q822 991 893 874 L798 807 Z " />
<glyph glyph-name="sigma" unicode="&#x3c3;" horiz-adv-x="1151" d="M1082 1071 L1082 971 L814 979 Q909 910 950 841 Q1026 716 1026 542 Q1026 316 931 174 Q804 -16 567 -16 Q316 -16 191 196 Q109 333 109 536 Q109 772 219 918 Q346 1088 581 1088 Q631 1088 715 1079 Q789 1071 813 1071 L1082 1071 Z M562 988 Q408 988 318 860 Q229 733 229 536 Q229 340 318 213 Q409 84 567 84 Q726 84 817 213 Q906 340 906 535 Q906 735 817 860 Q726 988 562 988 Z " />
<glyph glyph-name="tau" unicode="&#x3c4;" horiz-adv-x="829" d="M356 0 L356 971 L12 971 L12 1071 L817 1071 L817 971 L473 971 L473 0 L356 0 Z " />
<glyph glyph-name="upsilon" unicode="&#x3c5;" horiz-adv-x="1159" d="M184 1071 L301 1071 L301 496 Q301 290 340 208 Q398 84 580 84 Q761 84 819 208 Q858 290 858 496 L858 1071 L975 1071 L975 507 Q975 243 907 130 Q861 55 782 19.5 Q703 -16 579 -16 Q423 -16 337 42 Q254 98 219 204 Q184 310 184 507 L184 1071 Z " />
<glyph glyph-name="phi" unicode="&#x3c6;" horiz-adv-x="1380" d="M623 -373 L623 -13 Q432 13 302 117 Q109 270 109 527 Q109 861 409 1022 L458 943 Q380 898 337 848 Q230 728 230 535 Q230 351 332.5 234.5 Q435 118 623 89 L623 1077 Q663 1081 706 1081 Q965 1081 1120 936 Q1273 793 1273 542 Q1273 302 1135.5 160.5 Q998 19 736 -13 L736 -373 L623 -373 Z M736 90 Q887 104 983 175 Q1152 301 1152 537 Q1152 736 1040 857 Q928 978 736 988 L736 90 Z " />
<glyph glyph-name="chi" unicode="&#x3c7;" horiz-adv-x="952" d="M4 -373 L406 387 L53 1071 L184 1071 L484 485 L789 1071 L906 1071 L545 387 L939 -373 L808 -373 L468 288 L121 -373 L4 -373 Z " />
<glyph glyph-name="psi" unicode="&#x3c8;" horiz-adv-x="1563" d="M840 1071 L840 100 L869 100 Q992 100 1058 118.5 Q1124 137 1171 183 Q1261 273 1261 498 L1261 1071 L1378 1071 L1378 540 Q1378 393 1360 306 Q1342 219 1298 157 Q1186 0 915 0 L840 0 L840 -373 L723 -373 L723 0 L648 0 Q376 0 264 157 Q220 219 202 306 Q184 393 184 540 L184 1071 L301 1071 L301 498 Q301 254 409 167 Q456 129 518 114.5 Q580 100 694 100 L723 100 L723 1071 L840 1071 Z " />
<glyph glyph-name="omega" unicode="&#x3c9;" horiz-adv-x="1445" d="M722 160 Q640 -17 470 -17 Q329 -17 238 82 Q113 217 113 502 Q113 735 222 911 Q276 997 362 1079 L434 1008 Q337 916 285.5 786.5 Q234 657 234 504 Q234 300 303 182 Q329 137 375.5 110.5 Q422 84 472 84 Q526 84 570.5 112.5 Q615 141 638 190 Q664 244 664 401 L664 803 L781 803 L781 401 Q781 233 814 176 Q867 84 973 84 Q1024 84 1070 110.5 Q1116 137 1142 182 Q1211 299 1211 507 Q1211 658 1166 787 Q1121 916 1035 1008 L1107 1079 Q1225 954 1278.5 817 Q1332 680 1332 504 Q1332 301 1264 164 Q1224 85 1158 38 Q1079 -17 975 -17 Q805 -17 722 160 Z " />
<glyph glyph-name="iotadieresis" unicode="&#x3ca;" horiz-adv-x="516" d="M200 1071 L317 1071 L317 213 Q317 148 339 120 Q361 92 412 92 Q430 92 450 98 L450 0 Q422 -8 392 -8 Q290 -8 245 49 Q200 106 200 233 L200 1071 Z M93 1491 Q125 1491 149.5 1466.5 Q174 1442 174 1411 Q174 1378 149.5 1353.5 Q125 1329 92 1329 Q59 1329 35.5 1353 Q12 1377 12 1410 Q12 1443 36 1467 Q60 1491 93 1491 Z M424 1491 Q456 1491 480 1467 Q504 1443 504 1410 Q504 1378 480 1353.5 Q456 1329 423 1329 Q390 1329 366 1353 Q342 1377 342 1410 Q342 1443 366 1467 Q390 1491 424 1491 Z " />
<glyph glyph-name="upsilondieresis" unicode="&#x3cb;" horiz-adv-x="1159" d="M184 1071 L301 1071 L301 496 Q301 290 340 208 Q398 84 580 84 Q761 84 819 208 Q858 290 858 496 L858 1071 L975 1071 L975 507 Q975 243 907 130 Q861 55 782 19.5 Q703 -16 579 -16 Q423 -16 337 42 Q254 98 219 204 Q184 310 184 507 L184 1071 Z M415 1491 Q447 1491 471.5 1466.5 Q496 1442 496 1411 Q496 1378 471.5 1353.5 Q447 1329 414 1329 Q381 1329 357.5 1353 Q334 1377 334 1411 Q334 1443 358 1467 Q382 1491 415 1491 Z M745 1491 Q777 1491 801 1467 Q825 1443 825 1411 Q825 1377 801 1353 Q777 1329 744 1329 Q711 1329 687 1353 Q663 1377 663 1411 Q663 1443 687 1467 Q711 1491 745 1491 Z " />
<glyph glyph-name="omicrontonos" unicode="&#x3cc;" horiz-adv-x="1174" d="M591 1087 Q777 1087 909 955 Q1065 798 1065 536 Q1065 271 909 115 Q778 -16 586 -16 Q396 -16 265 114 Q109 270 109 536 Q109 800 265 956 Q395 1087 591 1087 Z M583 987 Q413 987 316 849 Q230 728 230 535 Q230 292 361 169 Q452 84 585 84 Q759 84 856 220 Q944 342 944 535 Q944 742 846 865 Q749 987 583 987 Z M546 1208 L523 1542 L652 1542 L629 1208 L546 1208 Z " />
<glyph glyph-name="upsilontonos" unicode="&#x3cd;" horiz-adv-x="1159" d="M184 1071 L301 1071 L301 496 Q301 290 340 208 Q398 84 580 84 Q761 84 819 208 Q858 290 858 496 L858 1071 L975 1071 L975 507 Q975 243 907 130 Q861 55 782 19.5 Q703 -16 579 -16 Q423 -16 337 42 Q254 98 219 204 Q184 310 184 507 L184 1071 Z M538 1208 L515 1542 L644 1542 L621 1208 L538 1208 Z " />
<glyph glyph-name="omegatonos" unicode="&#x3ce;" horiz-adv-x="1445" d="M722 160 Q640 -17 470 -17 Q329 -17 238 82 Q113 217 113 502 Q113 735 222 911 Q276 997 362 1079 L434 1008 Q337 916 285.5 786.5 Q234 657 234 504 Q234 300 303 182 Q329 137 375.5 110.5 Q422 84 472 84 Q526 84 570.5 112.5 Q615 141 638 190 Q664 244 664 401 L664 803 L781 803 L781 401 Q781 233 814 176 Q867 84 973 84 Q1024 84 1070 110.5 Q1116 137 1142 182 Q1211 299 1211 507 Q1211 658 1166 787 Q1121 916 1035 1008 L1107 1079 Q1225 954 1278.5 817 Q1332 680 1332 504 Q1332 301 1264 164 Q1224 85 1158 38 Q1079 -17 975 -17 Q805 -17 722 160 Z M681 1208 L658 1542 L787 1542 L764 1208 L681 1208 Z " />
<glyph glyph-name="phi1" unicode="&#x3d5;" horiz-adv-x="1380" d="M625 1077 L625 1552 L734 1552 L734 1081 Q908 1075 1035 999 Q1273 858 1273 542 Q1273 302 1135.5 160.5 Q998 19 736 -13 L736 -373 L623 -373 L623 -13 Q432 13 302 117 Q109 270 109 527 Q109 698 194 831 Q331 1046 625 1077 Z M623 89 L623 988 Q507 963 446 933 Q385 903 337 848 Q230 725 230 535 Q230 351 332.5 234.5 Q435 118 623 89 Z M736 90 Q887 104 983 175 Q1152 301 1152 537 Q1152 736 1040 857 Q928 978 736 988 L736 90 Z " />
<glyph glyph-name="uni0400" unicode="&#x400;" horiz-adv-x="1239" d="M190 0 L190 1464 L1081 1464 L1081 1364 L307 1364 L307 795 L960 795 L960 695 L307 695 L307 100 L1118 100 L1118 0 L190 0 Z M616 1610 L426 1915 L580 1915 L702 1610 L616 1610 Z " />
<glyph glyph-name="afii10023" unicode="&#x401;" horiz-adv-x="1239" d="M190 0 L190 1464 L1081 1464 L1081 1364 L307 1364 L307 795 L960 795 L960 695 L307 695 L307 100 L1118 100 L1118 0 L190 0 Z M480 1792 Q512 1792 536.5 1767.5 Q561 1743 561 1712 Q561 1679 536.5 1654.5 Q512 1630 479 1630 Q446 1630 422.5 1654 Q399 1678 399 1711 Q399 1744 423 1768 Q447 1792 480 1792 Z M811 1792 Q843 1792 867 1768 Q891 1744 891 1711 Q891 1679 867 1654.5 Q843 1630 810 1630 Q777 1630 753 1654 Q729 1678 729 1711 Q729 1744 753 1768 Q777 1792 811 1792 Z " />
<glyph glyph-name="afii10051" unicode="&#x402;" horiz-adv-x="1616" d="M580 0 L463 0 L463 1364 L0 1364 L0 1464 L1186 1464 L1186 1364 L580 1364 L580 768 Q710 961 993 961 Q1245 961 1348 813 Q1448 668 1448 312 Q1448 19 1396 -114 Q1300 -355 1006 -374 L997 -268 Q1178 -245 1241 -162 Q1327 -47 1327 305 Q1327 579 1273 697 Q1235 780 1170 817 Q1099 857 984 857 Q643 857 580 556 L580 0 Z " />
<glyph glyph-name="afii10052" unicode="&#x403;" horiz-adv-x="1049" d="M190 0 L190 1464 L1007 1464 L1007 1364 L307 1364 L307 0 L190 0 Z M539 1610 L662 1915 L815 1915 L625 1610 L539 1610 Z " />
<glyph glyph-name="afii10053" unicode="&#x404;" horiz-adv-x="1364" d="M1019 688 L264 688 Q270 512 331 370 Q454 84 769 84 Q1083 84 1206 387 L1306 340 Q1257 228 1173 138 Q1104 65 999 26 Q889 -16 760 -16 Q496 -16 333 162 Q147 365 147 727 Q147 1056 302 1265 Q467 1487 763 1487 Q1004 1487 1153 1334 Q1237 1247 1283 1124 L1174 1087 Q1120 1221 1046 1288 Q935 1387 765 1387 Q474 1387 347 1130 Q275 986 264 788 L1019 788 L1019 688 Z " />
<glyph glyph-name="afii10054" unicode="&#x405;" horiz-adv-x="1286" d="M987 1130 Q936 1239 877 1291 Q780 1378 606 1378 Q462 1378 379 1316 Q288 1249 288 1116 Q288 1002 364 942 Q409 907 468.5 884.5 Q528 862 671 826 Q809 792 887.5 757.5 Q966 723 1022 674 Q1138 570 1138 398 Q1138 188 983 76 Q856 -16 654 -16 Q401 -16 248 131 Q149 226 104 385 L219 407 Q314 88 650 88 Q788 88 880 141 Q1017 220 1017 395 Q1017 529 927 601 Q882 636 818.5 661.5 Q755 687 638 717 Q486 757 416.5 784 Q347 811 291 853 Q167 946 167 1114 Q167 1273 276 1372 Q397 1482 604 1482 Q847 1482 983 1339 Q1047 1272 1093 1159 L987 1130 Z " />
<glyph glyph-name="afii10055" unicode="&#x406;" horiz-adv-x="567" d="M225 0 L225 1464 L342 1464 L342 0 L225 0 Z " />
<glyph glyph-name="afii10056" unicode="&#x407;" horiz-adv-x="567" d="M227 0 L227 1464 L344 1464 L344 0 L227 0 Z M124 1792 Q156 1792 180.5 1767.5 Q205 1743 205 1712 Q205 1679 180.5 1654.5 Q156 1630 123 1630 Q90 1630 66.5 1654 Q43 1678 43 1711 Q43 1744 67 1768 Q91 1792 124 1792 Z M455 1792 Q487 1792 511 1768 Q535 1744 535 1711 Q535 1679 511 1654.5 Q487 1630 454 1630 Q421 1630 397 1654 Q373 1678 373 1711 Q373 1744 397 1768 Q421 1792 455 1792 Z " />
<glyph glyph-name="afii10057" unicode="&#x408;" horiz-adv-x="1081" d="M901 1464 L901 455 Q901 -16 504 -16 Q306 -16 196 105 Q100 212 100 391 L100 498 L217 498 L217 406 Q217 248 289 166 Q361 84 499 84 Q784 84 784 439 L784 1464 L901 1464 Z " />
<glyph glyph-name="afii10058" unicode="&#x409;" horiz-adv-x="2055" d="M1010 0 L1010 1364 L352 1364 L352 1223 Q344 750 301 503 Q276 358 239 248 Q202 138 131 0 L-8 0 Q111 180 158 386 Q225 684 235 1212 L235 1464 L1127 1464 L1127 826 L1459 826 Q1705 826 1823 743 Q1987 628 1987 414 Q1987 180 1799 68 Q1686 0 1459 0 L1010 0 Z M1127 105 L1504 105 Q1871 105 1871 414 Q1871 721 1504 721 L1127 721 L1127 105 Z " />
<glyph glyph-name="afii10059" unicode="&#x40a;" horiz-adv-x="2095" d="M1030 744 L307 744 L307 0 L190 0 L190 1464 L307 1464 L307 844 L1030 844 L1030 1464 L1147 1464 L1147 844 L1546 844 Q1775 844 1884 755 Q2028 637 2028 416 Q2028 180 1861 70 Q1755 0 1546 0 L1030 0 L1030 744 Z M1147 100 L1546 100 Q1907 100 1907 416 Q1907 744 1546 744 L1147 744 L1147 100 Z " />
<glyph glyph-name="afii10060" unicode="&#x40b;" horiz-adv-x="1618" d="M580 0 L463 0 L463 1364 L0 1364 L0 1464 L1186 1464 L1186 1364 L580 1364 L580 768 Q710 961 994 961 Q1454 961 1454 459 L1454 0 L1343 0 L1343 396 Q1343 616 1290 712 Q1249 788 1176 822.5 Q1103 857 985 857 Q774 857 662 737 Q603 674 580 556 L580 0 Z " />
<glyph glyph-name="afii10061" unicode="&#x40c;" horiz-adv-x="1263" d="M190 0 L190 1464 L307 1464 L307 784 L381 784 Q493 784 550.5 800.5 Q608 817 646 859 Q681 898 704 943.5 Q727 989 801 1165 Q852 1287 882.5 1335.5 Q913 1384 959 1415 Q1037 1468 1147 1468 Q1176 1468 1212 1464 L1212 1360 Q1184 1364 1159 1364 Q1081 1364 1042.5 1343.5 Q1004 1323 969 1264 Q929 1197 874 1042 Q820 892 770 832.5 Q720 773 616 737 Q711 715 760 682 Q805 651 839 610.5 Q873 570 932 477 L1235 0 L1090 0 L825 416 Q724 575 643 631.5 Q562 688 435 688 L307 688 L307 0 L190 0 Z M571 1610 L694 1915 L847 1915 L657 1610 L571 1610 Z " />
<glyph glyph-name="uni040D" unicode="&#x40d;" horiz-adv-x="1417" d="M190 0 L190 1464 L307 1464 L307 325 L1109 1322 L1109 1464 L1226 1464 L1226 0 L1109 0 L1109 1157 L307 160 L307 0 L190 0 Z M670 1610 L480 1915 L634 1915 L756 1610 L670 1610 Z " />
<glyph glyph-name="afii10062" unicode="&#x40e;" horiz-adv-x="1100" d="M527 265 L20 1464 L153 1464 L583 420 L962 1464 L1091 1464 L668 337 Q616 187 597 144.5 Q578 102 548 67 Q471 -23 318 -23 Q249 -23 201 0 L240 94 Q274 77 324 77 Q437 77 487 168 Q501 194 527 265 Z M807 1858 Q806 1740 764 1682 Q699 1594 545 1594 Q411 1594 347.5 1657.5 Q284 1721 283 1858 L381 1858 Q384 1779 411 1743 Q450 1694 545 1694 Q631 1694 668.5 1731.5 Q706 1769 709 1858 L807 1858 Z " />
<glyph glyph-name="afii10145" unicode="&#x40f;" horiz-adv-x="1357" d="M190 0 L190 1464 L307 1464 L307 102 L1049 102 L1049 1464 L1166 1464 L1166 0 L749 0 L720 -346 L636 -346 L607 0 L190 0 Z " />
<glyph glyph-name="afii10017" unicode="&#x410;" horiz-adv-x="1244" d="M293 387 L156 0 L37 0 L576 1464 L673 1464 L1207 0 L1091 0 L952 387 L293 387 Z M329 487 L916 487 L621 1310 L329 487 Z " />
<glyph glyph-name="afii10018" unicode="&#x411;" horiz-adv-x="1257" d="M190 0 L190 1464 L1040 1464 L1040 1364 L307 1364 L307 874 L706 874 Q934 874 1044 783 Q1187 664 1187 437 Q1187 190 1021 74 Q915 0 706 0 L190 0 Z M307 100 L706 100 Q1066 100 1066 437 Q1066 774 706 774 L307 774 L307 100 Z " />
<glyph glyph-name="afii10019" unicode="&#x412;" horiz-adv-x="1364" d="M190 0 L190 1464 L708 1464 Q972 1464 1087 1339 Q1173 1246 1173 1090 Q1173 974 1123 899.5 Q1073 825 962 776 Q1048 751 1097.5 720.5 Q1147 690 1185 636 Q1251 545 1251 414 Q1251 177 1062 69 Q941 0 768 0 L190 0 Z M307 100 L784 100 Q965 100 1057 202 Q1130 282 1130 413 Q1130 556 1044 634 Q954 715 776 715 L307 715 L307 100 Z M307 815 L762 815 Q914 815 989 899 Q1052 969 1052 1093 Q1052 1364 717 1364 L307 1364 L307 815 Z " />
<glyph glyph-name="afii10020" unicode="&#x413;" horiz-adv-x="1049" d="M190 0 L190 1464 L1007 1464 L1007 1364 L307 1364 L307 0 L190 0 Z " />
<glyph glyph-name="afii10021" unicode="&#x414;" horiz-adv-x="1405" d="M1214 0 L80 0 L55 -346 L-41 -346 L-41 100 L100 100 Q155 189 184 279.5 Q213 370 235 519 Q289 887 289 1258 L289 1464 L1181 1464 L1181 100 L1335 100 L1335 -346 L1239 -346 L1214 0 Z M1064 100 L1064 1364 L406 1364 L406 1269 Q391 427 227 100 L1064 100 Z " />
<glyph glyph-name="afii10022" unicode="&#x415;" horiz-adv-x="1239" d="M190 0 L190 1464 L1081 1464 L1081 1364 L307 1364 L307 795 L960 795 L960 695 L307 695 L307 100 L1118 100 L1118 0 L190 0 Z " />
<glyph glyph-name="afii10024" unicode="&#x416;" horiz-adv-x="1762" d="M825 0 L825 693 L763 693 Q686 693 653.5 685 Q621 677 585 649 Q506 587 404 416 L157 0 L29 0 L310 477 Q388 611 446 662.5 Q504 714 601 737 Q513 767 469 822 Q428 873 368 1041 Q292 1254 247 1309 Q201 1364 97 1364 Q77 1364 52 1360 L52 1464 Q87 1468 111 1468 Q247 1468 329 1377 Q362 1341 392 1276 Q422 1211 508 989 Q554 873 611 829 Q668 785 775 785 L825 785 L825 1464 L938 1464 L938 785 L987 785 Q1118 785 1181 856 Q1209 888 1227 926 Q1245 964 1313 1139 Q1393 1345 1459 1402 Q1535 1468 1652 1468 Q1675 1468 1711 1464 L1711 1360 Q1685 1364 1665 1364 Q1562 1364 1516.5 1309.5 Q1471 1255 1394 1041 Q1336 877 1294.5 822.5 Q1253 768 1162 737 Q1241 718 1284 689 Q1359 636 1453 477 L1733 0 L1605 0 L1358 416 Q1246 604 1161 660 Q1130 681 1100.5 687 Q1071 693 1000 693 L938 693 L938 0 L825 0 Z " />
<glyph glyph-name="afii10025" unicode="&#x417;" horiz-adv-x="1331" d="M57 383 L171 405 Q259 84 644 84 Q818 84 928 147 Q1058 222 1058 394 Q1058 558 948 641.5 Q838 725 622 725 L395 725 L395 825 L614 825 Q804 825 901 892 Q1009 968 1009 1105 Q1009 1222 925 1296 Q827 1382 647 1382 Q487 1382 389.5 1316.5 Q292 1251 237 1106 L136 1128 Q185 1299 317.5 1390.5 Q450 1482 650 1482 Q891 1482 1019 1362 Q1134 1256 1134 1097 Q1134 985 1077 909 Q1020 833 898 779 Q1026 742 1090 670 Q1183 567 1183 406 Q1183 181 1006 69 Q871 -17 651 -17 Q435 -17 300 58 Q98 170 57 383 Z " />
<glyph glyph-name="afii10026" unicode="&#x418;" horiz-adv-x="1417" d="M190 0 L190 1464 L307 1464 L307 325 L1109 1322 L1109 1464 L1226 1464 L1226 0 L1109 0 L1109 1157 L307 160 L307 0 L190 0 Z " />
<glyph glyph-name="afii10027" unicode="&#x419;" horiz-adv-x="1417" d="M190 0 L190 1464 L307 1464 L307 325 L1109 1322 L1109 1464 L1226 1464 L1226 0 L1109 0 L1109 1157 L307 160 L307 0 L190 0 Z M982 1858 Q981 1740 939 1682 Q874 1594 720 1594 Q586 1594 522.5 1657.5 Q459 1721 458 1858 L556 1858 Q559 1779 586 1743 Q625 1694 720 1694 Q806 1694 843.5 1731.5 Q881 1769 884 1858 L982 1858 Z " />
<glyph glyph-name="afii10028" unicode="&#x41a;" horiz-adv-x="1263" d="M190 0 L190 1464 L307 1464 L307 784 L381 784 Q493 784 550.5 800.5 Q608 817 646 859 Q681 898 704 943.5 Q727 989 801 1165 Q852 1287 882.5 1335.5 Q913 1384 959 1415 Q1037 1468 1147 1468 Q1176 1468 1212 1464 L1212 1360 Q1184 1364 1159 1364 Q1081 1364 1042.5 1343.5 Q1004 1323 969 1264 Q929 1197 874 1042 Q820 892 770 832.5 Q720 773 616 737 Q711 715 760 682 Q805 651 839 610.5 Q873 570 932 477 L1235 0 L1090 0 L825 416 Q724 575 643 631.5 Q562 688 435 688 L307 688 L307 0 L190 0 Z " />
<glyph glyph-name="afii10029" unicode="&#x41b;" horiz-adv-x="1318" d="M1010 0 L1010 1364 L352 1364 L352 1223 Q344 750 301 503 Q276 358 239 248 Q202 138 131 0 L-8 0 Q111 180 158 386 Q225 684 235 1212 L235 1464 L1127 1464 L1127 0 L1010 0 Z " />
<glyph glyph-name="afii10030" unicode="&#x41c;" horiz-adv-x="1733" d="M190 1464 L373 1464 L872 126 L1359 1464 L1542 1464 L1542 0 L1425 0 L1425 1342 L937 0 L808 0 L301 1341 L301 0 L190 0 L190 1464 Z " />
<glyph glyph-name="afii10031" unicode="&#x41d;" horiz-adv-x="1411" d="M190 0 L190 1464 L307 1464 L307 778 L1103 778 L1103 1464 L1220 1464 L1220 0 L1103 0 L1103 678 L307 678 L307 0 L190 0 Z " />
<glyph glyph-name="afii10032" unicode="&#x41e;" horiz-adv-x="1599" d="M805 1482 Q1016 1482 1182 1349 Q1310 1245 1381 1083 Q1452 920 1452 729 Q1452 488 1345 301 Q1256 146 1112 63 Q972 -16 803 -16 Q542 -16 361 166 Q147 381 147 733 Q147 1042 316 1251 Q501 1482 805 1482 Z M792 1382 Q675 1382 572.5 1328 Q470 1274 399 1175 Q272 998 272 731 Q272 409 450 228 Q592 84 801 84 Q1002 84 1137 210 Q1238 305 1288 460 Q1327 584 1327 730 Q1327 1013 1179 1197 Q1030 1382 792 1382 Z " />
<glyph glyph-name="afii10033" unicode="&#x41f;" horiz-adv-x="1401" d="M190 0 L190 1464 L1210 1464 L1210 0 L1093 0 L1093 1356 L307 1356 L307 0 L190 0 Z " />
<glyph glyph-name="afii10034" unicode="&#x420;" horiz-adv-x="1286" d="M190 0 L190 1464 L698 1464 Q950 1464 1072 1330 Q1167 1226 1167 1052 Q1167 862 1047 757 Q924 648 696 648 L307 648 L307 0 L190 0 Z M307 748 L706 748 Q886 748 975 846 Q1046 924 1046 1057 Q1046 1207 958 1286 Q871 1364 706 1364 L307 1364 L307 748 Z " />
<glyph glyph-name="afii10035" unicode="&#x421;" horiz-adv-x="1448" d="M1325 405 Q1271 259 1206 179 Q1050 -16 775 -16 Q466 -16 292 226 Q147 428 147 729 Q147 1054 318 1267 Q492 1484 779 1484 Q1007 1484 1148 1344 Q1198 1294 1230.5 1239.5 Q1263 1185 1302 1087 L1198 1052 Q1142 1200 1069 1273 Q958 1384 779 1384 Q539 1384 400 1190 Q272 1010 272 731 Q272 492 367 323 Q501 84 778 84 Q978 84 1099 218 Q1170 297 1218 444 L1325 405 Z " />
<glyph glyph-name="afii10036" unicode="&#x422;" horiz-adv-x="1165" d="M525 0 L525 1364 L74 1364 L74 1464 L1092 1464 L1092 1364 L642 1364 L642 0 L525 0 Z " />
<glyph glyph-name="afii10037" unicode="&#x423;" horiz-adv-x="1100" d="M527 265 L20 1464 L153 1464 L583 420 L962 1464 L1091 1464 L668 337 Q616 187 597 144.5 Q578 102 548 67 Q471 -23 318 -23 Q249 -23 201 0 L240 94 Q274 77 324 77 Q437 77 487 168 Q501 194 527 265 Z " />
<glyph glyph-name="afii10038" unicode="&#x424;" horiz-adv-x="1694" d="M788 -57 L788 148 Q551 162 404 251 Q147 409 147 732 Q147 1055 404 1212 Q551 1302 788 1316 L788 1521 L905 1521 L905 1316 Q1142 1302 1289 1212 Q1546 1055 1546 732 Q1546 409 1289 251 Q1142 162 905 148 L905 -57 L788 -57 Z M788 242 L788 1222 Q594 1208 474 1140 Q272 1025 272 732 Q272 439 474 324 Q594 256 788 242 Z M905 242 Q1099 256 1219 324 Q1421 439 1421 732 Q1421 1025 1219 1140 Q1099 1208 905 1222 L905 242 Z " />
<glyph glyph-name="afii10039" unicode="&#x425;" horiz-adv-x="1212" d="M61 0 L540 751 L92 1464 L227 1464 L618 844 L1009 1464 L1134 1464 L677 747 L1148 0 L1015 0 L602 657 L186 0 L61 0 Z " />
<glyph glyph-name="afii10040" unicode="&#x426;" horiz-adv-x="1376" d="M190 0 L190 1464 L307 1464 L307 100 L1049 100 L1049 1464 L1166 1464 L1166 100 L1320 100 L1320 -346 L1224 -346 L1199 0 L190 0 Z " />
<glyph glyph-name="afii10041" unicode="&#x427;" horiz-adv-x="1306" d="M1115 0 L998 0 L998 591 Q862 422 593 422 Q447 422 345 475 Q241 530 202 623 Q163 716 163 911 L163 1464 L280 1464 L280 888 Q280 784 292 725.5 Q304 667 335 625 Q409 522 604 522 Q778 522 887 602 Q998 684 998 840 L998 1464 L1115 1464 L1115 0 Z " />
<glyph glyph-name="afii10042" unicode="&#x428;" horiz-adv-x="2009" d="M190 0 L190 1464 L307 1464 L307 100 L945 100 L945 1464 L1062 1464 L1062 100 L1701 100 L1701 1464 L1818 1464 L1818 0 L190 0 Z " />
<glyph glyph-name="afii10043" unicode="&#x429;" horiz-adv-x="2028" d="M190 0 L190 1464 L307 1464 L307 100 L945 100 L945 1464 L1062 1464 L1062 100 L1701 100 L1701 1464 L1818 1464 L1818 100 L1971 100 L1971 -346 L1875 -346 L1851 0 L190 0 Z " />
<glyph glyph-name="afii10044" unicode="&#x42a;" horiz-adv-x="1469" d="M520 1464 L520 887 L919 887 Q1147 887 1257 793 Q1401 670 1401 437 Q1401 189 1235 74 Q1128 0 919 0 L403 0 L403 1364 L12 1364 L12 1464 L520 1464 Z M520 100 L919 100 Q1280 100 1280 437 Q1280 787 919 787 L520 787 L520 100 Z " />
<glyph glyph-name="afii10045" unicode="&#x42b;" horiz-adv-x="1724" d="M1416 0 L1416 1464 L1533 1464 L1533 0 L1416 0 Z M307 1464 L307 887 L706 887 Q934 887 1044 793 Q1188 670 1188 437 Q1188 189 1022 74 Q915 0 706 0 L190 0 L190 1464 L307 1464 Z M307 100 L706 100 Q1067 100 1067 437 Q1067 787 706 787 L307 787 L307 100 Z " />
<glyph glyph-name="afii10046" unicode="&#x42c;" horiz-adv-x="1255" d="M307 1464 L307 887 L706 887 Q934 887 1044 793 Q1188 670 1188 437 Q1188 189 1022 74 Q915 0 706 0 L190 0 L190 1464 L307 1464 Z M307 100 L706 100 Q1067 100 1067 437 Q1067 787 706 787 L307 787 L307 100 Z " />
<glyph glyph-name="afii10047" unicode="&#x42d;" horiz-adv-x="1364" d="M344 688 L344 788 L1099 788 Q1087 989 1021 1130 Q901 1387 614 1387 Q460 1387 357.5 1315 Q255 1243 189 1087 L80 1124 Q149 1300 287.5 1393.5 Q426 1487 617 1487 Q933 1487 1091 1231 Q1216 1029 1216 732 Q1216 482 1120 296 Q1045 148 916 68 Q780 -16 602 -16 Q407 -16 271.5 73 Q136 162 57 340 L157 387 Q280 84 594 84 Q930 84 1049 412 Q1094 538 1099 688 L344 688 Z " />
<glyph glyph-name="afii10048" unicode="&#x42e;" horiz-adv-x="2134" d="M190 0 L190 1464 L307 1464 L307 772 L688 772 Q705 1044 840 1227 Q934 1355 1072 1422 Q1197 1482 1340 1482 Q1598 1482 1778 1295 Q1878 1190 1932 1045 Q1986 900 1986 735 Q1986 499 1884 313 Q1798 156 1658 70 Q1517 -16 1348 -16 Q1086 -16 901.5 177 Q717 370 690 672 L307 672 L307 0 L190 0 Z M1337 1382 Q1087 1382 939 1176 Q813 1001 813 725 Q813 572 860.5 442 Q908 312 996 226 Q1139 84 1346 84 Q1632 84 1768 325 Q1861 490 1861 726 Q1861 1018 1713 1201 Q1567 1382 1337 1382 Z " />
<glyph glyph-name="afii10049" unicode="&#x42f;" horiz-adv-x="1354" d="M1163 0 L1046 0 L1046 674 L762 674 Q644 674 576.5 658 Q509 642 460 603 Q410 561 386 506.5 Q362 452 331 304 Q290 107 221 0 L94 0 L94 13 Q178 141 230 425 Q273 636 492 700 Q399 718 347 747 Q169 844 169 1069 Q169 1260 291 1372 Q345 1421 423.5 1442.5 Q502 1464 629 1464 L1163 1464 L1163 0 Z M1046 774 L1046 1364 L620 1364 Q442 1364 367 1292 Q290 1217 290 1078 Q290 774 638 774 L1046 774 Z " />
<glyph glyph-name="afii10065" unicode="&#x430;" horiz-adv-x="1075" d="M776 160 Q648 -16 435 -16 Q279 -16 185 77 Q106 155 106 273 Q106 501 365 574 Q509 614 774 628 L774 734 Q774 987 544 987 Q373 987 221 844 L149 920 Q318 1087 545 1087 Q719 1087 809 988 Q891 897 891 732 L891 207 Q891 143 920 117 Q949 91 1025 88 L1025 -6 Q996 -8 974 -8 Q809 -8 776 160 Z M774 537 Q598 534 469 506 Q227 454 227 278 Q227 189 287.5 136.5 Q348 84 452 84 Q575 84 668 154 Q716 191 745 241.5 Q774 292 774 341 L774 537 Z " />
<glyph glyph-name="afii10066" unicode="&#x431;" horiz-adv-x="1137" d="M957 1542 L935 1439 L743 1439 Q505 1439 425 1403 Q320 1356 279 1218 Q244 1097 239 874 Q305 985 390.5 1036 Q476 1087 598 1087 Q788 1087 897 962 Q1029 811 1029 540 Q1029 263 883 111 Q762 -16 573 -16 Q362 -16 243 132 Q167 228 145 347 Q123 466 123 618 Q123 988 174 1209 Q205 1347 270 1421.5 Q335 1496 445 1522 Q532 1542 735 1542 L957 1542 Z M593 987 Q411 987 317 834 Q244 715 244 527 Q244 333 322 215 Q364 153 431 118.5 Q498 84 576 84 Q748 84 839 237 Q908 355 908 537 Q908 734 832 855 Q749 987 593 987 Z " />
<glyph glyph-name="afii10067" unicode="&#x432;" horiz-adv-x="1147" d="M193 0 L193 1071 L617 1071 Q806 1071 894 1002 Q982 933 982 786 Q982 640 860 572 Q1049 501 1049 308 Q1049 158 954.5 79 Q860 0 679 0 L193 0 Z M310 100 L685 100 Q928 100 928 300 Q928 504 675 504 L310 504 L310 100 Z M308 604 L649 604 Q716 604 751.5 615.5 Q787 627 814 657 Q861 709 861 797 Q861 971 628 971 L308 971 L308 604 Z " />
<glyph glyph-name="afii10068" unicode="&#x433;" horiz-adv-x="858" d="M193 0 L193 1071 L818 1071 L818 971 L310 971 L310 0 L193 0 Z " />
<glyph glyph-name="afii10069" unicode="&#x434;" horiz-adv-x="1135" d="M943 0 L88 0 L67 -305 L-29 -305 L-29 100 L67 100 Q249 391 249 980 L249 1071 L938 1071 L938 100 L1059 100 L1059 -305 L963 -305 L943 0 Z M821 100 L821 971 L366 971 L366 930 Q366 676 325 468 Q284 260 202 100 L821 100 Z " />
<glyph glyph-name="afii10070" unicode="&#x435;" horiz-adv-x="1110" d="M996 227 Q869 -16 594 -16 Q392 -16 262 114 Q109 265 109 535 Q109 808 264 962 Q389 1087 573 1087 Q765 1087 884 954 Q1006 816 1006 567 L1006 527 L230 527 Q234 391 261 317 Q344 84 594 84 Q703 84 774 129.5 Q845 175 900 280 L996 227 Z M887 627 Q878 740 853 800 Q778 987 575 987 Q424 987 331 876 Q290 827 269 773 Q248 719 234 627 L887 627 Z " />
<glyph glyph-name="afii10072" unicode="&#x436;" horiz-adv-x="1482" d="M685 0 L685 505 L617 505 Q538 505 489 470 Q440 435 380 335 L178 0 L45 0 L239 324 Q305 435 354 484 Q403 533 464 548 Q390 580 358 623.5 Q326 667 275 801 Q221 937 203 952 Q179 971 114 971 L73 971 L73 1071 L99 1071 Q212 1072 257 1041 Q290 1019 318 968 Q346 917 413 756 Q457 651 495 624 Q533 597 636 597 L685 597 L685 1071 L798 1071 L798 597 L847 597 Q937 597 973 615 Q1020 639 1069 756 Q1136 917 1164 968 Q1192 1019 1225 1041 Q1270 1072 1382 1071 L1409 1071 L1409 971 L1368 971 Q1296 971 1277 950.5 Q1258 930 1207 801 Q1169 701 1153.5 669.5 Q1138 638 1111 609 Q1080 576 1018 548 Q1079 532 1128 483.5 Q1177 435 1243 324 L1437 0 L1304 0 L1102 335 Q1042 435 993.5 470 Q945 505 865 505 L798 505 L798 0 L685 0 Z " />
</font>
</svg>
